<svg width="928" height="444" viewBox="0 0 928 444" fill="none" xmlns="http://www.w3.org/2000/svg">
<path d="M157 191.479L115 137L73 191.479H92.7626V262H137.237V191.479H157Z" fill="#0052E8" fill-opacity="0.1"/>
<path d="M771 191.479L813 137L855 191.479H835.237V262H790.763V191.479H771Z" fill="#0052E8" fill-opacity="0.1"/>
<path d="M75 257.687L50 225L25 257.687H36.7635V300H63.2365V257.687H75Z" fill="#0052E8" fill-opacity="0.05"/>
<path d="M853 257.687L878 225L903 257.687H891.237V300H864.763V257.687H853Z" fill="#0052E8" fill-opacity="0.05"/>
<path d="M197 287.508L173 257L149 287.508H160.293V327H185.707V287.508H197Z" fill="#0052E8" fill-opacity="0.05"/>
<path d="M731 287.508L755 257L779 287.508H767.707V327H742.293V287.508H731Z" fill="#0052E8" fill-opacity="0.05"/>
<path d="M26 191.562L13 175L0 191.562H6.117V213H19.883V191.562H26Z" fill="#0052E8" fill-opacity="0.05"/>
<path d="M902 191.562L915 175L928 191.562H921.883V213H908.117V191.562H902Z" fill="#0052E8" fill-opacity="0.05"/>
<path d="M186 125.562L173 109L160 125.562H166.117V147H179.883V125.562H186Z" fill="#0052E8" fill-opacity="0.05"/>
<path d="M742 125.562L755 109L768 125.562H761.883V147H748.117V125.562H742Z" fill="#0052E8" fill-opacity="0.05"/>
<path d="M760.488 389.926H165V390.223H760.488V389.926Z" fill="#E6E6E6"/>
<path d="M300.605 399.477H259.635V399.775H300.605V399.477Z" fill="#E6E6E6"/>
<path d="M320.696 399.477H308.453V399.775H320.696V399.477Z" fill="#E6E6E6"/>
<path d="M381.103 393.63H358.045V393.927H381.103V393.63Z" fill="#E6E6E6"/>
<path d="M677.846 406.087H626.408V406.385H677.846V406.087Z" fill="#E6E6E6"/>
<path d="M695.997 406.087H688.458V406.385H695.997V406.087Z" fill="#E6E6E6"/>
<path d="M639.425 395.63H527.855V395.928H639.425V395.63Z" fill="#E6E6E6"/>
<path d="M447.261 336.808H217.296C215.494 336.805 213.768 336.087 212.495 334.812C211.222 333.537 210.507 331.809 210.507 330.008V6.74092C210.523 4.94973 211.245 3.23705 212.516 1.9749C213.787 0.712749 215.505 0.00306842 217.296 0H447.261C449.065 0 450.795 0.716477 452.07 1.99181C453.345 3.26715 454.062 4.99687 454.062 6.80047V330.008C454.062 331.811 453.345 333.541 452.07 334.816C450.795 336.092 449.065 336.808 447.261 336.808ZM217.296 0.238196C215.573 0.241351 213.922 0.927848 212.705 2.147C211.488 3.36616 210.805 5.01835 210.805 6.74092V330.008C210.805 331.73 211.488 333.382 212.705 334.601C213.922 335.821 215.573 336.507 217.296 336.51H447.261C448.985 336.507 450.637 335.821 451.856 334.602C453.075 333.383 453.761 331.731 453.764 330.008V6.74092C453.761 5.01726 453.075 3.36509 451.856 2.14628C450.637 0.927461 448.985 0.241344 447.261 0.238196H217.296Z" fill="#E6E6E6"/>
<path d="M704.881 336.808H474.904C473.101 336.805 471.373 336.087 470.099 334.813C468.824 333.538 468.107 331.81 468.103 330.008V6.74092C468.122 4.94864 468.847 3.23597 470.12 1.97415C471.393 0.712333 473.111 0.00303495 474.904 0H704.881C706.671 0.00619843 708.385 0.717264 709.654 1.97908C710.922 3.24089 711.642 4.95178 711.658 6.74092V330.008C711.658 331.807 710.945 333.533 709.675 334.808C708.404 336.082 706.681 336.802 704.881 336.808ZM474.904 0.238196C473.18 0.241344 471.528 0.927461 470.309 2.14628C469.09 3.36509 468.404 5.01726 468.401 6.74092V330.008C468.404 331.731 469.09 333.383 470.309 334.602C471.528 335.821 473.18 336.507 474.904 336.51H704.881C706.605 336.507 708.257 335.821 709.476 334.602C710.695 333.383 711.381 331.731 711.384 330.008V6.74092C711.381 5.01726 710.695 3.36509 709.476 2.14628C708.257 0.927461 706.605 0.241344 704.881 0.238196H474.904Z" fill="#E6E6E6"/>
<path d="M664.043 227.607H580.591V389.926H664.043V227.607Z" fill="#F5F5F5"/>
<path d="M664.043 227.607H657.159V389.926H664.043V227.607Z" fill="#F0F0F0"/>
<path d="M394.882 267.303H587.022V232.24L394.882 232.24V267.303Z" fill="#E0E0E0"/>
<path d="M474.999 390.045H392.619C392.303 390.045 392 389.919 391.777 389.696C391.554 389.472 391.428 389.17 391.428 388.854C391.428 388.538 391.554 388.235 391.777 388.012C392 387.788 392.303 387.663 392.619 387.663H474.999C486.909 387.663 488.493 384.185 488.493 370.394V196.511C488.493 196.195 488.618 195.892 488.842 195.669C489.065 195.446 489.368 195.32 489.684 195.32C490 195.32 490.303 195.446 490.526 195.669C490.749 195.892 490.875 196.195 490.875 196.511V370.394C490.875 385.138 488.588 390.045 474.999 390.045Z" fill="#E0E0E0"/>
<path d="M402.266 240.41L662.161 240.41V228.239L402.266 228.239V240.41Z" fill="#F0F0F0"/>
<path d="M404.148 227.607H320.696V389.926H404.148V227.607Z" fill="#F5F5F5"/>
<path d="M404.136 227.607H397.252V389.926H404.136V227.607Z" fill="#F0F0F0"/>
<path d="M345.052 389.926V100.876H273.438V389.926H345.052Z" fill="#FAFAFA"/>
<path d="M341.122 173.073V109.32H277.369V173.073H341.122Z" fill="#F5F5F5"/>
<path d="M295.126 108.462H323.4C323.4 110.215 322.703 111.897 321.464 113.136C320.224 114.376 318.543 115.072 316.79 115.072H301.784C300.912 115.078 300.047 114.912 299.239 114.583C298.432 114.253 297.698 113.768 297.079 113.153C296.46 112.539 295.969 111.808 295.634 111.003C295.299 110.198 295.126 109.334 295.126 108.462Z" fill="#E0E0E0"/>
<path d="M341.11 242.542V178.789H277.357V242.542H341.11Z" fill="#F5F5F5"/>
<path d="M341.122 312.012V248.259H277.369V312.012H341.122Z" fill="#F5F5F5"/>
<path d="M341.122 381.493V317.74H277.369V381.493H341.122Z" fill="#F5F5F5"/>
<path d="M295.126 177.944H323.4C323.397 179.696 322.699 181.375 321.46 182.614C320.221 183.853 318.542 184.55 316.79 184.554H301.784C300.912 184.558 300.048 184.391 299.241 184.061C298.435 183.731 297.701 183.245 297.082 182.631C296.464 182.017 295.973 181.287 295.637 180.482C295.301 179.678 295.128 178.815 295.126 177.944Z" fill="#E0E0E0"/>
<path d="M295.126 247.413H323.4C323.4 249.166 322.703 250.848 321.464 252.087C320.224 253.327 318.543 254.023 316.79 254.023H301.784C300.912 254.029 300.047 253.863 299.239 253.534C298.432 253.204 297.698 252.718 297.079 252.104C296.46 251.49 295.969 250.759 295.634 249.954C295.299 249.149 295.126 248.285 295.126 247.413Z" fill="#E0E0E0"/>
<path d="M295.126 316.883H323.4C323.4 318.636 322.703 320.317 321.464 321.557C320.224 322.796 318.543 323.493 316.79 323.493H301.784C300.912 323.499 300.047 323.333 299.239 323.003C298.432 322.674 297.698 322.188 297.079 321.574C296.46 320.959 295.969 320.228 295.634 319.423C295.299 318.618 295.126 317.755 295.126 316.883Z" fill="#E0E0E0"/>
<path d="M273.438 389.926V100.876H237.673V389.926H273.438Z" fill="#F0F0F0"/>
<path d="M479.882 227.607H461.886L466.257 192.569H484.265L479.882 227.607Z" fill="#F0F0F0"/>
<path d="M483.872 227.607H465.864L470.247 192.569H488.243L483.872 227.607Z" fill="#F5F5F5"/>
<path d="M522.483 227.607H509.466L506.977 223.641H519.982L522.483 227.607Z" fill="#F0F0F0"/>
<path d="M592.227 227.607H513.444L510.955 223.641H581.603L592.227 227.607Z" fill="#FAFAFA"/>
<path d="M422.799 217.556H428.492C431.157 217.556 433.714 218.615 435.599 220.5C437.484 222.385 438.543 224.941 438.543 227.607H412.723C412.723 226.285 412.984 224.976 413.49 223.755C413.997 222.534 414.74 221.425 415.676 220.491C416.611 219.558 417.722 218.818 418.945 218.314C420.167 217.81 421.477 217.552 422.799 217.556Z" fill="#F0F0F0"/>
<path d="M486.051 210.088H468.056L470.247 192.569H488.243L486.051 210.088Z" fill="#F0F0F0"/>
<path d="M419.869 205.896H547.303C547.554 205.896 547.802 205.843 548.031 205.74C548.259 205.637 548.463 205.486 548.629 205.298C548.795 205.11 548.918 204.888 548.992 204.648C549.065 204.408 549.086 204.156 549.054 203.907L539.24 125.398C539.188 124.971 538.981 124.577 538.658 124.292C538.336 124.007 537.92 123.849 537.49 123.85H410.091C409.841 123.849 409.594 123.902 409.367 124.005C409.139 124.107 408.936 124.257 408.77 124.444C408.605 124.631 408.481 124.851 408.407 125.089C408.332 125.327 408.31 125.579 408.34 125.827L418.154 204.348C418.205 204.769 418.407 205.158 418.722 205.442C419.037 205.726 419.444 205.888 419.869 205.896Z" fill="#F0F0F0"/>
<path d="M421.798 205.896H549.149C549.4 205.896 549.648 205.843 549.877 205.74C550.105 205.637 550.309 205.486 550.475 205.298C550.641 205.11 550.764 204.888 550.838 204.648C550.911 204.408 550.932 204.156 550.9 203.907L541.086 125.398C541.032 124.972 540.824 124.58 540.502 124.295C540.18 124.01 539.766 123.852 539.336 123.85H411.985C411.735 123.849 411.488 123.902 411.26 124.005C411.033 124.107 410.829 124.257 410.664 124.444C410.498 124.631 410.374 124.851 410.3 125.089C410.226 125.327 410.204 125.579 410.234 125.827L420.048 204.348C420.1 204.775 420.307 205.168 420.629 205.454C420.952 205.739 421.368 205.896 421.798 205.896Z" fill="#F5F5F5"/>
<path d="M546.791 201.549L537.609 128.066C537.591 127.946 537.531 127.836 537.439 127.757C537.347 127.678 537.23 127.636 537.109 127.637H414.831C414.761 127.634 414.691 127.647 414.627 127.675C414.562 127.702 414.505 127.744 414.458 127.796C414.411 127.848 414.377 127.91 414.357 127.978C414.337 128.045 414.332 128.115 414.343 128.185L423.525 201.68C423.54 201.799 423.598 201.908 423.688 201.987C423.778 202.066 423.894 202.11 424.013 202.109H546.303C546.373 202.107 546.442 202.092 546.505 202.062C546.569 202.033 546.625 201.99 546.671 201.937C546.717 201.885 546.752 201.823 546.773 201.756C546.793 201.689 546.799 201.618 546.791 201.549Z" fill="#E0E0E0"/>
<path d="M500.248 227.607H470.926V227.238C470.926 226.464 471.233 225.722 471.781 225.175C472.328 224.628 473.07 224.32 473.844 224.32H497.33C498.104 224.32 498.846 224.628 499.393 225.175C499.94 225.722 500.248 226.464 500.248 227.238V227.607Z" fill="#FAFAFA"/>
<path d="M474.344 227.607H454.455V227.238C454.455 226.464 454.762 225.722 455.309 225.175C455.857 224.628 456.599 224.32 457.373 224.32H471.426C472.2 224.32 472.942 224.628 473.489 225.175C474.037 225.722 474.344 226.464 474.344 227.238V227.607Z" fill="#F0F0F0"/>
<path d="M303.701 68.231V68.1715C303.975 67.2544 304.237 66.3255 304.463 65.3965C304.867 66.0386 305.415 66.5769 306.065 66.9679C306.714 67.359 307.447 67.5917 308.203 67.6474H308.525C310.513 67.4569 312.419 65.5275 313.622 62.4905C313.645 62.4359 313.657 62.3772 313.657 62.3178C313.657 62.2585 313.645 62.1997 313.622 62.1451C313.564 62.0364 313.466 61.955 313.348 61.9188C311.92 61.557 310.433 61.5005 308.982 61.7529C307.531 62.0053 306.149 62.561 304.928 63.3837C305.106 62.5024 305.261 61.6092 305.392 60.7279C305.706 60.7884 306.025 60.8203 306.345 60.8231C309.584 60.8231 311.966 57.9291 312.086 57.7862C312.127 57.7337 312.157 57.6721 312.17 57.6063C312.184 57.5405 312.182 57.4724 312.165 57.4075C312.147 57.3426 312.115 57.2827 312.07 57.2326C312.025 57.1826 311.969 57.1437 311.907 57.1192C311.154 56.7456 310.331 56.5355 309.492 56.5027C308.652 56.4698 307.815 56.615 307.036 56.9287C306.204 57.3518 305.531 58.0328 305.118 58.8699C304.511 57.0063 303.402 55.3463 301.912 54.0728C300.422 52.7994 298.61 51.9619 296.674 51.6526C296.614 51.6384 296.552 51.6386 296.492 51.6531C296.432 51.6675 296.376 51.696 296.329 51.736C296.279 51.7711 296.238 51.8174 296.209 51.8711C296.18 51.9249 296.164 51.9846 296.162 52.0457C295.995 54.9874 296.091 58.596 298.294 60.311C299.216 60.9907 300.342 61.3352 301.486 61.2876C302.511 61.2629 303.528 61.1027 304.511 60.8112C304.196 62.9397 303.739 65.0445 303.141 67.1115C300.986 64.1747 297.928 62.0246 294.435 60.9899C294.325 60.9642 294.209 60.982 294.111 61.0397C294.014 61.0974 293.942 61.1904 293.911 61.2995C293.244 63.8363 293.59 65.8967 294.9 67.2544C295.566 67.8529 296.346 68.3111 297.193 68.6017C298.04 68.8922 298.937 69.0092 299.83 68.9456C300.791 68.9395 301.748 68.8398 302.689 68.6479C302.141 70.3867 301.498 72.0898 300.89 73.7095C299.568 72.5185 295.674 69.5649 291.434 70.8035C291.32 70.8412 291.226 70.9226 291.172 71.0298C291.149 71.0844 291.137 71.1432 291.137 71.2025C291.137 71.2619 291.149 71.3206 291.172 71.3752C292.363 74.1859 293.637 75.7461 295.281 76.282C295.719 76.4264 296.177 76.4988 296.639 76.4964C297.897 76.4429 299.124 76.0832 300.212 75.4483C299.306 77.604 298.342 79.6167 297.425 81.4032C296.336 80.2932 294.969 79.4972 293.466 79.0989C291.963 78.7007 290.381 78.715 288.885 79.1404C288.783 79.1606 288.693 79.2182 288.631 79.302C288.569 79.3857 288.541 79.4895 288.552 79.5929C288.657 80.4936 288.998 81.3508 289.539 82.0783C290.081 82.8058 290.804 83.378 291.636 83.7375C292.265 84.0077 292.942 84.1455 293.625 84.1425C294.574 84.1306 295.506 83.8895 296.341 83.4398C295.412 85.1667 294.554 86.6078 293.887 87.7035H285.789C284.503 85.5002 283.014 82.7609 281.561 79.6882C282.238 79.8903 282.939 79.9985 283.645 80.0098C284.514 80.0206 285.373 79.8312 286.156 79.4564C286.94 79.0816 287.627 78.5314 288.163 77.8485C288.7 77.1656 289.072 76.3682 289.251 75.5183C289.43 74.6683 289.411 73.7886 289.195 72.9473C289.167 72.8496 289.105 72.7654 289.019 72.7106C288.934 72.6557 288.831 72.634 288.731 72.6495C287.077 72.8108 285.486 73.368 284.093 74.2739C282.7 75.1798 281.545 76.4078 280.727 77.8541C279.774 75.7103 278.845 73.4356 278.036 71.0894C279.066 71.6759 280.221 72.0105 281.406 72.066C281.876 72.0713 282.344 71.9947 282.788 71.8397C285.169 71.0536 286.539 68.1834 287.706 65.2059C287.733 65.1522 287.746 65.0931 287.746 65.0332C287.746 64.9734 287.733 64.9143 287.706 64.8606C287.679 64.8059 287.64 64.7575 287.593 64.7186C287.546 64.6796 287.491 64.6509 287.432 64.6343C282.668 63.3004 278.75 67.8856 277.535 69.5292C276.9 67.5461 276.371 65.5305 275.951 63.4909C276.952 63.6868 277.969 63.7905 278.988 63.8006C280.002 63.8747 281.019 63.7395 281.978 63.4035C282.937 63.0675 283.817 62.5378 284.562 61.8474C286.003 60.3229 286.349 58.0363 285.574 55.2494C285.561 55.1947 285.536 55.1435 285.502 55.0986C285.468 55.0538 285.425 55.0163 285.376 54.9885C285.327 54.9607 285.273 54.943 285.217 54.9367C285.161 54.9304 285.104 54.9355 285.05 54.9516C281.25 56.1376 277.941 58.5343 275.63 61.7759L275.451 60.6921C275.439 60.5984 275.397 60.5109 275.332 60.442C275.136 59.7374 274.793 59.0817 274.328 58.5176C273.862 57.9534 273.283 57.4933 272.629 57.1669C271.769 56.8354 270.85 56.6895 269.93 56.7387C269.011 56.788 268.112 57.0313 267.293 57.4527C267.23 57.4799 267.174 57.5207 267.129 57.5722C267.083 57.6237 267.05 57.6845 267.031 57.7504C267.016 57.8151 267.017 57.8824 267.034 57.9466C267.05 58.0108 267.082 58.0701 267.126 58.1196C267.245 58.2745 269.865 61.371 273.391 61.371C273.771 61.3661 274.149 61.3262 274.522 61.2519C274.677 62.2642 274.868 63.2766 275.082 64.277C273.724 63.3829 272.191 62.7868 270.586 62.5282C268.981 62.2695 267.339 62.3541 265.768 62.7763C265.651 62.8125 265.552 62.8939 265.495 63.0026C265.471 63.0592 265.459 63.12 265.459 63.1813C265.459 63.2426 265.471 63.3033 265.495 63.3599C266.864 66.6708 268.984 68.767 271.176 68.9456H271.473C272.581 68.9456 274.082 68.4335 275.606 66.3969C276.206 68.7126 276.93 70.9946 277.774 73.2331C275.713 72.2565 271.08 70.5772 267.769 73.1378C267.724 73.1707 267.685 73.2125 267.656 73.2606C267.628 73.3087 267.609 73.3622 267.601 73.4178C267.593 73.4734 267.597 73.53 267.611 73.5843C267.626 73.6385 267.651 73.6892 267.686 73.7333C269.83 76.6512 271.807 78.0685 273.748 78.0685C275.356 78.0685 276.892 77.0561 278.429 75.0553C279.31 77.2467 280.263 79.3428 281.204 81.2722C279.143 79.9979 276.88 80.2003 274.213 81.8796C274.151 81.9166 274.1 81.969 274.064 82.0316C274.029 82.0942 274.01 82.1649 274.01 82.2369C274.005 82.307 274.019 82.3771 274.051 82.4399C274.082 82.5028 274.13 82.556 274.189 82.5942C275.778 83.7395 277.654 84.4199 279.608 84.5593C280.616 84.5793 281.604 84.2791 282.43 83.7018C283.192 85.1667 283.943 86.5125 284.634 87.7154H280.953V89.8115H282.287L283.395 100.911H299.699L300.795 89.8115H302.141V87.7154H294.816C295.626 86.3696 296.662 84.5712 297.77 82.4632C297.803 82.4208 297.827 82.3722 297.841 82.3203C298.127 81.7843 298.401 81.2365 298.687 80.6648C299.171 81.3977 299.824 82.0039 300.591 82.4328C301.358 82.8617 302.216 83.1008 303.094 83.1301C303.276 83.142 303.459 83.142 303.642 83.1301C304.612 83.0202 305.533 82.6437 306.302 82.0425C307.071 81.4413 307.659 80.6388 308 79.7239C308.036 79.6299 308.036 79.5264 308.001 79.4323C307.966 79.3382 307.898 79.2599 307.81 79.2118C306.561 78.5064 305.162 78.1083 303.729 78.0503C302.296 77.9923 300.87 78.2761 299.568 78.8783C300.188 77.5802 300.759 76.1867 301.379 74.7457C301.425 74.6922 301.454 74.6257 301.462 74.5551C301.629 74.1502 301.784 73.7452 301.95 73.3641C303.368 75.1506 304.773 76.0319 306.238 76.0319C308.012 76.0319 309.811 74.7218 311.74 72.0183C311.807 71.928 311.836 71.8149 311.82 71.7035C311.805 71.5921 311.746 71.4913 311.657 71.4228C308.62 69.1481 304.511 70.7082 302.582 71.6134C302.975 70.5415 303.332 69.4577 303.665 68.3501L303.701 68.231Z" fill="#E0E0E0"/>
<path d="M644.332 63.2051H583.426V130.078H644.332V63.2051Z" fill="#E0E0E0"/>
<path d="M636.817 65.9444C636.766 65.9565 636.713 65.9565 636.662 65.9444C636.519 65.8491 622.132 57.2979 617.607 57.2979C613.081 57.2979 599.325 65.8491 599.182 65.9325C599.15 65.9539 599.113 65.9685 599.075 65.9754C599.036 65.9822 598.997 65.9811 598.959 65.9722C598.921 65.9633 598.886 65.9467 598.854 65.9235C598.823 65.9003 598.797 65.8709 598.777 65.8372C598.737 65.7706 598.725 65.691 598.742 65.6153C598.76 65.5396 598.807 65.474 598.873 65.4322C599.444 65.075 612.867 56.7024 617.607 56.7024C622.347 56.7024 636.424 65.0392 637.019 65.4322C637.053 65.4518 637.083 65.478 637.106 65.5092C637.129 65.5405 637.146 65.5762 637.155 65.6142C637.163 65.6521 637.165 65.6914 637.158 65.7298C637.151 65.7681 637.136 65.8047 637.115 65.8372C637.081 65.8824 637.035 65.9167 636.982 65.9357C636.929 65.9548 636.872 65.9578 636.817 65.9444Z" fill="#EBEBEB"/>
<path d="M650.918 63.2051H588.011V130.078H650.918V63.2051Z" fill="#F5F5F5"/>
<path d="M645.654 124.802V68.4692H593.287V124.802H645.654Z" fill="white"/>
<path d="M629.613 106.784C635.217 101.18 635.217 92.0931 629.613 86.4886C624.008 80.8841 614.922 80.8841 609.317 86.4886C603.713 92.0931 603.713 101.18 609.317 106.784C614.922 112.389 624.008 112.389 629.613 106.784Z" fill="#E0E0E0"/>
<path d="M618.25 308.761H671.629C676.527 308.765 681.231 306.847 684.73 303.419C688.229 299.992 690.243 295.328 690.34 290.431L692.34 192.7C692.377 190.886 692.051 189.083 691.382 187.397C690.713 185.711 689.714 184.175 688.444 182.88C687.174 181.584 685.659 180.555 683.986 179.853C682.314 179.151 680.518 178.789 678.704 178.789H645.237C641.889 178.788 638.658 180.02 636.16 182.25C633.663 184.48 632.073 187.551 631.696 190.878L618.25 308.761Z" fill="#E6E6E6"/>
<path d="M647.381 308.76H590.5C589.792 308.76 589.114 308.479 588.614 307.979C588.113 307.479 587.832 306.8 587.832 306.093V305.843C587.832 303.903 588.603 302.043 589.974 300.672C591.345 299.3 593.205 298.53 595.145 298.53H647.381V308.76Z" fill="#E6E6E6"/>
<path d="M642.891 391.259C642.614 391.266 642.344 391.175 642.126 391.003C641.909 390.832 641.758 390.589 641.7 390.319L625.026 309.952H595.967L579.293 390.319C579.228 390.634 579.041 390.912 578.771 391.089C578.502 391.267 578.174 391.33 577.858 391.265C577.542 391.201 577.265 391.013 577.087 390.744C576.91 390.475 576.846 390.146 576.911 389.83L593.799 308.522C593.855 308.249 594.004 308.004 594.222 307.83C594.44 307.656 594.711 307.564 594.99 307.57H625.955C626.234 307.564 626.506 307.656 626.723 307.83C626.941 308.004 627.091 308.249 627.146 308.522L644.022 389.83C644.086 390.138 644.025 390.459 643.853 390.722C643.682 390.985 643.413 391.17 643.105 391.236C643.035 391.252 642.963 391.26 642.891 391.259Z" fill="#E6E6E6"/>
<path d="M624.776 391.259C624.697 391.271 624.617 391.271 624.538 391.259C624.385 391.228 624.239 391.167 624.109 391.08C623.98 390.992 623.869 390.88 623.782 390.749C623.696 390.619 623.636 390.473 623.607 390.319C623.577 390.165 623.578 390.007 623.609 389.854L640.497 308.546C640.553 308.273 640.702 308.028 640.92 307.854C641.138 307.68 641.409 307.588 641.688 307.593H672.653C672.932 307.588 673.204 307.68 673.422 307.854C673.639 308.028 673.789 308.273 673.844 308.546L690.721 389.854C690.753 390.011 690.754 390.172 690.723 390.328C690.693 390.485 690.632 390.634 690.544 390.768C690.456 390.901 690.343 391.016 690.211 391.105C690.079 391.195 689.93 391.257 689.774 391.289C689.617 391.321 689.456 391.322 689.299 391.292C689.143 391.262 688.993 391.201 688.86 391.113C688.727 391.025 688.612 390.912 688.523 390.78C688.433 390.647 688.371 390.499 688.339 390.342L671.665 309.975H642.581L625.908 390.342C625.847 390.599 625.703 390.828 625.498 390.994C625.294 391.16 625.04 391.253 624.776 391.259Z" fill="#E6E6E6"/>
<path d="M462.744 443.71C590.277 443.71 693.662 437.674 693.662 430.228C693.662 422.782 590.277 416.746 462.744 416.746C335.211 416.746 231.826 422.782 231.826 430.228C231.826 437.674 335.211 443.71 462.744 443.71Z" fill="#F5F5F5"/>
<path d="M483.122 419.224C482.748 419.223 482.387 419.093 482.098 418.857C481.81 418.62 481.612 418.291 481.538 417.925L458.909 306.498H419.5L396.871 417.925C396.763 418.322 396.508 418.663 396.158 418.879C395.808 419.095 395.389 419.17 394.986 419.088C394.583 419.006 394.226 418.774 393.988 418.439C393.749 418.103 393.648 417.69 393.703 417.282L416.594 304.556C416.67 304.192 416.868 303.864 417.157 303.628C417.445 303.392 417.805 303.261 418.178 303.258H460.219C460.592 303.259 460.954 303.389 461.242 303.625C461.531 303.862 461.729 304.191 461.803 304.556L484.706 417.282C484.79 417.702 484.704 418.139 484.468 418.496C484.231 418.853 483.863 419.102 483.443 419.188L483.122 419.224Z" fill="#0052E8"/>
<path d="M419.869 419.223C419.496 419.22 419.136 419.09 418.848 418.854C418.56 418.618 418.361 418.29 418.285 417.925L395.656 306.498H356.247L333.618 417.925C333.588 418.145 333.514 418.356 333.399 418.546C333.284 418.735 333.132 418.899 332.951 419.027C332.771 419.156 332.566 419.246 332.349 419.291C332.132 419.337 331.908 419.338 331.691 419.294C331.474 419.25 331.268 419.162 331.087 419.035C330.905 418.908 330.751 418.746 330.635 418.557C330.518 418.368 330.442 418.158 330.41 417.939C330.379 417.719 330.392 417.496 330.45 417.282L353.353 304.556C353.427 304.191 353.625 303.862 353.914 303.625C354.202 303.389 354.564 303.259 354.937 303.258H396.978C397.35 303.259 397.71 303.39 397.996 303.626C398.283 303.863 398.479 304.192 398.55 304.556L421.453 417.282C421.537 417.702 421.452 418.139 421.215 418.496C420.979 418.853 420.61 419.102 420.19 419.188L419.869 419.223Z" fill="#0052E8"/>
<path d="M428.718 304.89H356.306C349.66 304.891 343.278 302.286 338.531 297.635C333.783 292.983 331.049 286.655 330.915 280.01L328.223 169.964C328.173 167.504 328.613 165.059 329.519 162.772C330.425 160.484 331.778 158.401 333.5 156.643C335.221 154.885 337.276 153.488 339.544 152.534C341.812 151.58 344.247 151.088 346.707 151.087H392.107C396.651 151.09 401.034 152.764 404.423 155.791C407.812 158.817 409.969 162.984 410.484 167.499L428.718 304.89Z" fill="#0052E8"/>
<path d="M389.225 290.955H460.088C462.719 290.955 465.243 292.001 467.103 293.861C468.964 295.722 470.009 298.245 470.009 300.876V301.222C470.009 302.169 469.632 303.078 468.962 303.748C468.292 304.418 467.384 304.795 466.436 304.795H389.225V290.955Z" fill="#0052E8"/>
<g opacity="0.3">
<path opacity="0.3" d="M483.122 419.224C482.748 419.223 482.387 419.093 482.098 418.857C481.81 418.62 481.612 418.291 481.538 417.925L458.909 306.498H419.5L396.871 417.925C396.763 418.322 396.508 418.663 396.158 418.879C395.808 419.095 395.389 419.17 394.986 419.088C394.583 419.006 394.226 418.774 393.988 418.439C393.749 418.103 393.648 417.69 393.703 417.282L416.594 304.556C416.67 304.192 416.868 303.864 417.157 303.628C417.445 303.392 417.805 303.261 418.178 303.258H460.219C460.592 303.259 460.954 303.389 461.242 303.625C461.531 303.862 461.729 304.191 461.803 304.556L484.706 417.282C484.79 417.702 484.704 418.139 484.468 418.496C484.231 418.853 483.863 419.102 483.443 419.188L483.122 419.224Z" fill="black"/>
<path opacity="0.3" d="M419.869 419.223C419.496 419.22 419.136 419.09 418.848 418.854C418.56 418.618 418.361 418.29 418.285 417.925L395.656 306.498H356.247L333.618 417.925C333.589 418.145 333.514 418.356 333.399 418.546C333.284 418.735 333.132 418.899 332.951 419.027C332.771 419.156 332.566 419.246 332.349 419.291C332.132 419.337 331.908 419.338 331.691 419.294C331.474 419.25 331.268 419.162 331.087 419.035C330.905 418.908 330.751 418.746 330.635 418.557C330.519 418.368 330.442 418.158 330.41 417.939C330.379 417.719 330.392 417.496 330.45 417.282L353.353 304.556C353.427 304.191 353.625 303.862 353.914 303.625C354.202 303.389 354.564 303.259 354.937 303.258H396.978C397.35 303.259 397.71 303.39 397.996 303.626C398.283 303.863 398.479 304.192 398.55 304.556L421.453 417.282C421.537 417.702 421.452 418.139 421.215 418.496C420.979 418.853 420.61 419.102 420.19 419.188L419.869 419.223Z" fill="black"/>
<path opacity="0.3" d="M428.718 304.89H356.306C349.66 304.891 343.278 302.286 338.531 297.635C333.783 292.983 331.049 286.655 330.915 280.01L328.223 169.964C328.173 167.504 328.613 165.059 329.519 162.772C330.425 160.484 331.778 158.401 333.5 156.643C335.221 154.885 337.276 153.488 339.544 152.534C341.812 151.58 344.247 151.088 346.707 151.087H392.107C396.651 151.09 401.034 152.764 404.423 155.791C407.812 158.817 409.969 162.984 410.484 167.499L428.718 304.89Z" fill="black"/>
<path opacity="0.3" d="M389.225 290.955H460.088C462.719 290.955 465.243 292.001 467.103 293.861C468.964 295.722 470.009 298.245 470.009 300.876V301.222C470.009 302.169 469.633 303.078 468.962 303.748C468.292 304.418 467.384 304.795 466.436 304.795H389.225V290.955Z" fill="black"/>
</g>
<path d="M408.566 145.013C408.566 145.013 418.69 158.233 412.139 184.554C405.589 210.874 371.789 196.583 369.741 172.858C367.359 144.894 398.753 164.176 404.279 139.308L408.566 145.013Z" fill="#263238"/>
<path d="M401.218 137.165C396.823 140.261 395.085 144.763 399.944 149.17C404.803 153.576 411.734 153.433 413.831 151.623C415.927 149.813 415.51 140.619 415.51 140.619L401.218 137.165Z" fill="#0052E8"/>
<path opacity="0.8" d="M401.218 137.165C396.823 140.261 395.085 144.763 399.944 149.17C404.803 153.576 411.734 153.433 413.831 151.623C415.927 149.813 415.51 140.619 415.51 140.619L401.218 137.165Z" fill="white"/>
<path d="M456.718 195.749C456.837 196.285 457.039 197.118 457.23 197.821L457.801 200.06C458.206 201.561 458.647 203.061 459.112 204.562C459.993 207.587 460.969 210.6 461.994 213.613C463.018 216.627 464.066 219.568 465.209 222.617C465.769 224.106 466.329 225.607 466.924 227.095L467.615 228.882C467.753 229.187 467.934 229.472 468.151 229.727C469.846 231.442 471.912 232.746 474.189 233.538C476.971 234.658 479.839 235.55 482.764 236.206C485.789 236.909 488.898 237.492 492.042 237.981C495.186 238.469 498.414 238.862 501.51 239.172L501.617 245.579C494.823 246.282 487.975 246.282 481.18 245.579C477.629 245.213 474.118 244.532 470.688 243.543C468.83 242.982 467.021 242.269 465.281 241.411C463.277 240.437 461.443 239.146 459.85 237.588C458.925 236.667 458.125 235.63 457.468 234.503C457.289 234.217 457.134 233.896 456.968 233.598L456.658 232.955L456.11 231.764C455.372 230.251 454.633 228.739 453.955 227.202C452.573 224.13 451.227 221.033 450.024 217.877C448.821 214.721 447.642 211.541 446.642 208.349C446.154 206.706 445.677 205.074 445.237 203.395L444.582 200.882C444.391 199.977 444.212 199.226 444.022 198.155L456.718 195.749Z" fill="#E58A7B"/>
<path d="M452.668 182.219C457.778 183.517 461.339 204.526 461.339 204.526L447.273 214.054C447.273 214.054 433.779 192.855 437.745 187.245C441.807 181.481 445.213 180.361 452.668 182.219Z" fill="#0052E8"/>
<path opacity="0.5" d="M452.668 182.219C457.778 183.517 461.339 204.526 461.339 204.526L447.273 214.054C447.273 214.054 433.779 192.855 437.745 187.245C441.807 181.481 445.213 180.361 452.668 182.219Z" fill="white"/>
<path opacity="0.2" d="M450.834 187.507L438.603 197.202C440.985 203.091 443.882 208.758 447.261 214.137L457.015 207.504L450.834 187.507Z" fill="#0052E8"/>
<path d="M452.668 182.219C452.668 182.219 458.623 184.292 446.713 256.977H396.43C397.276 236.504 397.3 223.88 387.522 181.85C394.563 180.4 401.7 179.461 408.876 179.039C416.485 178.497 424.122 178.497 431.731 179.039C441.545 179.98 452.668 182.219 452.668 182.219Z" fill="#0052E8"/>
<path opacity="0.5" d="M452.668 182.219C452.668 182.219 458.623 184.292 446.713 256.977H396.43C397.276 236.504 397.3 223.88 387.522 181.85C394.563 180.4 401.7 179.461 408.876 179.039C416.485 178.497 424.122 178.497 431.731 179.039C441.545 179.98 452.668 182.219 452.668 182.219Z" fill="white"/>
<path d="M499.664 239.112L508.442 230.204L509.633 242.757C509.633 242.757 503.047 247.211 498.497 244.817L499.664 239.112Z" fill="#E58A7B"/>
<path d="M518.803 228.882L519.196 239.434L509.621 242.757L508.466 230.204L518.803 228.882Z" fill="#E58A7B"/>
<path d="M503.785 407.671H516.171L518.077 378.98H505.691L503.785 407.671Z" fill="#E58A7B"/>
<path d="M455.848 407.671H468.234L472.212 378.98H459.826L455.848 407.671Z" fill="#E58A7B"/>
<path d="M469.008 406.23H455.086C454.846 406.225 454.613 406.308 454.43 406.464C454.248 406.62 454.13 406.838 454.097 407.076L452.513 418.092C452.485 418.37 452.516 418.651 452.603 418.917C452.69 419.183 452.831 419.428 453.019 419.635C453.206 419.843 453.435 420.009 453.691 420.123C453.946 420.236 454.223 420.295 454.502 420.295C459.35 420.212 461.648 419.926 467.806 419.926C471.569 419.926 481.228 420.319 486.432 420.319C491.637 420.319 491.911 415.174 489.743 414.71C480.037 412.614 474.344 409.743 471.069 406.992C470.494 406.501 469.764 406.231 469.008 406.23Z" fill="#263238"/>
<path d="M517.136 406.23H503.237C502.998 406.228 502.766 406.312 502.584 406.467C502.402 406.623 502.283 406.839 502.249 407.076L500.665 418.092C500.636 418.37 500.667 418.651 500.754 418.917C500.841 419.183 500.983 419.428 501.17 419.635C501.357 419.843 501.586 420.009 501.842 420.123C502.097 420.236 502.374 420.295 502.654 420.295C507.501 420.212 509.799 419.926 515.957 419.926C519.732 419.926 527.509 420.319 532.714 420.319C537.918 420.319 538.192 415.174 536.025 414.71C526.318 412.614 522.495 409.743 519.232 406.992C518.646 406.497 517.903 406.227 517.136 406.23Z" fill="#263238"/>
<path d="M442.795 128.292C447.249 128.578 449.512 150.92 436.447 149.622C423.382 148.324 442.795 128.292 442.795 128.292Z" fill="#263238"/>
<path d="M518.077 378.98L517.088 393.772H504.702L505.679 378.98H518.077Z" fill="#CF6F64"/>
<path d="M459.826 378.98H472.224L470.164 393.772H457.766L459.826 378.98Z" fill="#CF6F64"/>
<path opacity="0.2" d="M392.548 205.217C393.739 211.315 394.584 216.579 395.228 221.319L398.169 198.559L392.548 205.217Z" fill="#0052E8"/>
<path d="M411.139 153.362C412.58 160.71 414.021 174.18 408.876 179.087C408.876 179.087 410.889 186.543 424.549 186.543C439.568 186.543 431.695 179.087 431.695 179.087C423.489 177.134 423.704 171.048 425.133 165.343L411.139 153.362Z" fill="#E58A7B"/>
<path d="M421.834 188.138L426.407 186.495L425.8 185.244L421.834 188.138Z" fill="#263238"/>
<path d="M430.707 187.186L426.407 186.495L427.336 185.102L430.707 187.186Z" fill="#263238"/>
<path d="M410.544 175.621L407.435 178.646C407.342 178.742 407.29 178.87 407.29 179.004C407.29 179.137 407.342 179.265 407.435 179.361L420.536 194.284C421.159 190.74 423.057 187.546 425.871 185.304C415.033 181.207 412.211 176.967 411.246 175.776C411.224 175.707 411.184 175.645 411.13 175.596C411.076 175.547 411.01 175.513 410.939 175.497C410.868 175.482 410.794 175.485 410.725 175.507C410.655 175.528 410.593 175.568 410.544 175.621Z" fill="#0052E8"/>
<path d="M429.266 177.908L433.124 178.956C433.24 178.988 433.345 179.05 433.428 179.136C433.512 179.222 433.572 179.328 433.601 179.444C434.691 184.339 434.486 189.433 433.005 194.224C432.457 192.2 430.623 187.352 427.336 185.101C430.909 182.636 429.468 179.456 428.956 178.253C428.939 178.208 428.935 178.16 428.944 178.113C428.953 178.066 428.975 178.023 429.006 177.987C429.038 177.951 429.079 177.925 429.125 177.911C429.171 177.897 429.219 177.896 429.266 177.908Z" fill="#0052E8"/>
<path d="M416.868 158.245L425.204 165.331C424.858 166.659 424.623 168.014 424.502 169.381C421.369 168.928 417.07 165.498 416.737 162.235C416.533 160.908 416.577 159.555 416.868 158.245Z" fill="#CF6F64"/>
<path d="M410.341 133.997C408.924 146.204 408.054 151.349 413.056 158.638C420.56 169.607 435.876 168.678 440.913 157.137C445.451 146.752 446.999 128.554 436.042 121.599C433.632 120.06 430.868 119.163 428.014 118.994C425.16 118.824 422.309 119.387 419.734 120.63C417.159 121.872 414.944 123.752 413.3 126.092C411.656 128.432 410.637 131.153 410.341 133.997Z" fill="#E58A7B"/>
<path d="M438.258 113.834C418.07 105.866 402.909 114.858 399.777 127.637C394.858 147.479 410.567 148.872 410.567 148.872L412.532 143.799C415.355 145.502 423.251 144.751 420.869 130.019C419.464 121.682 430.016 133.294 443.403 131.996C446.964 131.651 451.835 119.193 438.258 113.834Z" fill="#263238"/>
<path d="M445.129 118.74C442.474 114.655 437.043 111.154 425.788 109.498C425.788 109.498 431.636 110.82 433.529 115.096C435.423 119.372 448.333 123.659 445.129 118.74Z" fill="#263238"/>
<path d="M406.458 144.561C406.376 145.735 406.526 146.913 406.9 148.029C407.274 149.145 407.865 150.176 408.638 151.063C410.722 153.445 413.461 151.981 414.319 149.122C415.081 146.538 414.926 142.203 412.139 140.893C409.352 139.582 406.685 141.655 406.458 144.561Z" fill="#E58A7B"/>
<path d="M446.749 257.025C446.749 257.025 529.808 264.754 528.998 302.52C528.152 341.822 519.744 390.914 519.744 390.914H502.582C502.582 390.914 501.117 349.373 500.617 310.678C500.367 290.527 420.107 286.489 420.107 286.489L409.746 257.025H446.749Z" fill="#263238"/>
<path d="M433.458 257.025C433.458 257.025 487.135 274.83 488.493 296.863C490.982 337.427 473.153 390.95 473.153 390.95H456.253C456.253 390.95 457.218 355.459 459.231 318.705C461.779 272.519 380.293 318.062 396.43 257.06L433.458 257.025Z" fill="#263238"/>
<path d="M428.003 140.654C427.825 141.631 428.206 142.524 428.849 142.643C429.492 142.762 430.147 142.048 430.326 141.071C430.504 140.094 430.123 139.189 429.48 139.082C428.837 138.975 428.206 139.666 428.003 140.654Z" fill="#263238"/>
<path d="M439.115 142.643C438.936 143.62 439.317 144.513 439.961 144.632C440.604 144.751 441.271 144.037 441.449 143.06C441.628 142.083 441.247 141.178 440.604 141.071C439.961 140.964 439.294 141.655 439.115 142.643Z" fill="#263238"/>
<path d="M440.306 141.071L442.795 140.809C442.795 140.809 441.306 142.441 440.306 141.071Z" fill="#263238"/>
<path d="M435.876 143.798C436.352 146.198 437.153 148.522 438.257 150.706C437.697 150.961 437.087 151.094 436.471 151.094C435.855 151.094 435.245 150.961 434.685 150.706L435.876 143.798Z" fill="#DF5753"/>
<path d="M430.588 153.886C429.281 153.679 428.041 153.166 426.969 152.39C425.897 151.614 425.023 150.597 424.418 149.42C424.398 149.374 424.397 149.322 424.415 149.275C424.433 149.228 424.468 149.191 424.514 149.17C424.561 149.153 424.613 149.155 424.659 149.175C424.706 149.195 424.743 149.231 424.764 149.277C425.336 150.389 426.161 151.352 427.173 152.088C428.184 152.824 429.353 153.314 430.588 153.517C430.637 153.528 430.68 153.558 430.709 153.6C430.738 153.642 430.75 153.693 430.742 153.743C430.734 153.78 430.714 153.812 430.687 153.838C430.659 153.863 430.625 153.88 430.588 153.886Z" fill="#263238"/>
<path d="M425.395 136.26C425.343 136.261 425.292 136.252 425.244 136.231C425.197 136.211 425.155 136.18 425.121 136.14C425.085 136.107 425.056 136.066 425.036 136.021C425.017 135.976 425.007 135.928 425.007 135.878C425.007 135.829 425.017 135.781 425.036 135.735C425.056 135.69 425.085 135.65 425.121 135.616C425.763 134.99 426.545 134.526 427.403 134.265C428.261 134.004 429.17 133.953 430.052 134.116C430.145 134.144 430.224 134.206 430.273 134.29C430.321 134.374 430.336 134.474 430.314 134.568C430.303 134.616 430.282 134.662 430.253 134.702C430.224 134.742 430.187 134.775 430.145 134.801C430.103 134.826 430.056 134.843 430.007 134.85C429.959 134.857 429.909 134.855 429.861 134.842C429.1 134.708 428.318 134.758 427.58 134.988C426.843 135.218 426.171 135.621 425.621 136.164C425.557 136.219 425.478 136.252 425.395 136.26Z" fill="#263238"/>
<path d="M445.189 138.213C445.115 138.215 445.042 138.195 444.98 138.155C444.918 138.114 444.871 138.055 444.844 137.986C444.553 137.272 444.097 136.636 443.513 136.131C442.929 135.626 442.234 135.266 441.485 135.08C441.388 135.063 441.301 135.008 441.244 134.929C441.186 134.849 441.162 134.749 441.175 134.652C441.193 134.552 441.249 134.464 441.332 134.406C441.414 134.348 441.517 134.325 441.616 134.342C442.489 134.544 443.299 134.954 443.979 135.537C444.66 136.119 445.189 136.858 445.522 137.689C445.563 137.78 445.565 137.884 445.53 137.978C445.494 138.071 445.423 138.147 445.332 138.189L445.189 138.213Z" fill="#263238"/>
<path d="M395.037 199.822C393.953 203.395 392.786 206.968 391.75 210.636C390.714 214.304 389.618 217.877 388.677 221.51C387.736 225.142 386.843 228.739 386.176 232.228C385.855 233.991 385.557 235.742 385.39 237.385C385.295 238.207 385.247 238.981 385.235 239.696C385.235 239.863 385.235 239.696 385.116 239.422C384.971 239.099 384.769 238.805 384.521 238.552C383.913 238.028 383.687 238.124 383.961 238.207C384.46 238.328 384.972 238.381 385.485 238.362C387.089 238.307 388.683 238.103 390.249 237.754C393.797 236.973 397.293 235.975 400.718 234.765C407.757 232.383 414.902 229.477 421.858 226.512L424.93 232.121C418.332 236.447 411.435 240.3 404.291 243.65C400.592 245.395 396.775 246.879 392.869 248.092C390.695 248.754 388.461 249.205 386.2 249.438C384.788 249.583 383.363 249.547 381.96 249.331C381.029 249.191 380.12 248.931 379.257 248.557C378.14 248.074 377.129 247.378 376.279 246.508C374.628 244.768 373.681 242.476 373.623 240.077C373.564 238.886 373.552 237.695 373.623 236.623C373.707 234.42 373.909 232.336 374.183 230.299C374.755 226.226 375.493 222.296 376.398 218.389C377.303 214.483 378.268 210.707 379.328 206.92C380.388 203.133 381.531 199.417 382.901 195.63L395.037 199.822Z" fill="#E58A7B"/>
<path d="M473.248 408.314C472.151 408.287 471.06 408.135 469.997 407.862C469.957 407.854 469.921 407.835 469.892 407.806C469.863 407.777 469.844 407.741 469.836 407.701C469.829 407.661 469.833 407.62 469.849 407.583C469.865 407.546 469.891 407.514 469.926 407.492C470.342 407.218 474.058 404.813 475.475 405.444C475.624 405.511 475.751 405.618 475.844 405.752C475.936 405.886 475.99 406.043 476 406.206C476.059 406.47 476.048 406.746 475.969 407.004C475.889 407.263 475.744 407.497 475.547 407.683C474.879 408.158 474.065 408.381 473.248 408.314ZM470.569 407.576C472.867 408.052 474.594 407.993 475.261 407.373C475.406 407.232 475.513 407.056 475.571 406.863C475.63 406.669 475.638 406.463 475.595 406.266C475.59 406.172 475.56 406.081 475.507 406.004C475.455 405.926 475.382 405.864 475.297 405.825C474.392 405.42 471.879 406.766 470.569 407.576Z" fill="#0052E8"/>
<path d="M470.045 407.873H469.937C469.904 407.854 469.877 407.826 469.858 407.793C469.839 407.759 469.829 407.721 469.83 407.683C469.83 407.54 469.83 404.015 471.164 402.848C471.32 402.698 471.509 402.586 471.716 402.522C471.923 402.458 472.142 402.443 472.355 402.478C472.57 402.477 472.778 402.549 472.946 402.684C473.113 402.818 473.228 403.007 473.272 403.217C473.522 404.503 471.45 407.135 470.152 407.873H470.045ZM472.141 402.848C471.879 402.849 471.627 402.952 471.438 403.133C470.497 403.967 470.307 406.325 470.247 407.266C471.438 406.409 473.034 404.241 472.832 403.276C472.832 403.121 472.712 402.919 472.284 402.859L472.141 402.848Z" fill="#0052E8"/>
<path d="M521.793 408.314C520.484 408.285 519.18 408.138 517.898 407.873C517.856 407.863 517.818 407.84 517.789 407.809C517.759 407.777 517.739 407.737 517.731 407.695C517.725 407.651 517.733 407.606 517.755 407.568C517.776 407.529 517.81 407.498 517.85 407.48C518.398 407.195 523.293 404.694 524.782 405.503C524.911 405.575 525.02 405.678 525.1 405.803C525.179 405.928 525.225 406.07 525.234 406.218C525.268 406.466 525.24 406.719 525.153 406.953C525.065 407.188 524.922 407.398 524.734 407.564C523.868 408.142 522.83 408.407 521.793 408.314ZM518.589 407.576C520.185 407.85 523.353 408.243 524.448 407.266C524.585 407.138 524.69 406.98 524.754 406.804C524.818 406.628 524.84 406.44 524.818 406.254C524.817 406.173 524.794 406.094 524.752 406.025C524.71 405.956 524.651 405.899 524.579 405.861C523.603 405.337 520.316 406.73 518.589 407.576Z" fill="#0052E8"/>
<path d="M517.946 407.874C517.907 407.885 517.865 407.885 517.827 407.874C517.798 407.851 517.774 407.822 517.758 407.789C517.741 407.756 517.732 407.72 517.731 407.683C517.731 407.54 518.029 404.241 519.554 402.919C519.767 402.737 520.016 402.601 520.284 402.519C520.553 402.437 520.835 402.411 521.114 402.443C521.876 402.514 522.09 402.895 522.15 403.193C522.364 404.563 519.482 407.183 518.029 407.838L517.946 407.874ZM520.887 402.848C520.496 402.846 520.118 402.99 519.827 403.253C518.708 404.181 518.315 406.409 518.196 407.302C519.756 406.432 521.888 404.193 521.769 403.276C521.769 403.181 521.769 402.919 521.114 402.86L520.887 402.848Z" fill="#0052E8"/>
<path d="M421.572 226.702L433.315 223.725L427.717 235.003C427.717 235.003 419.774 235.349 417.153 230.918L421.572 226.702Z" fill="#E58A7B"/>
<path d="M442.807 228L437.614 237.195L427.717 235.003L433.315 223.725L442.807 228Z" fill="#E58A7B"/>
<path d="M429.182 139.082L431.671 138.82C431.671 138.82 430.135 140.452 429.182 139.082Z" fill="#263238"/>
<path d="M395.68 254.071L395.275 258.573C395.108 258.93 395.513 259.287 396.097 259.287H446.999C447.452 259.287 447.821 259.061 447.857 258.775L448.309 254.273C448.309 253.964 447.94 253.702 447.452 253.702H396.502C396.345 253.689 396.187 253.715 396.043 253.78C395.899 253.845 395.775 253.945 395.68 254.071Z" fill="#0052E8"/>
<path d="M402.528 259.776H401.159C400.885 259.776 400.682 259.633 400.694 259.466L401.337 253.606C401.337 253.44 401.599 253.297 401.873 253.297H403.195C403.469 253.297 403.672 253.44 403.66 253.606L403.017 259.466C403.028 259.633 402.79 259.776 402.528 259.776Z" fill="#263238"/>
<path d="M443.164 259.776H441.795C441.521 259.776 441.318 259.633 441.33 259.466L441.973 253.606C441.973 253.44 442.235 253.297 442.509 253.297H443.867C444.141 253.297 444.343 253.44 444.331 253.606L443.688 259.466C443.688 259.633 443.426 259.776 443.164 259.776Z" fill="#263238"/>
<path d="M422.846 259.776H421.477C421.203 259.776 421 259.633 421.012 259.466L421.655 253.606C421.655 253.44 421.917 253.297 422.191 253.297H423.549C423.823 253.297 424.025 253.44 424.013 253.606L423.37 259.466C423.346 259.633 423.12 259.776 422.846 259.776Z" fill="#263238"/>
<path d="M387.522 181.898C382.472 183.434 376.422 200.787 376.422 200.787L392.679 216.662C392.679 216.662 403.112 200.286 401.016 193.772C398.789 186.983 393.274 180.159 387.522 181.898Z" fill="#0052E8"/>
<path opacity="0.5" d="M387.522 181.898C382.472 183.434 376.422 200.787 376.422 200.787L392.679 216.662C392.679 216.662 403.112 200.286 401.016 193.772C398.789 186.983 393.274 180.159 387.522 181.898Z" fill="white"/>
<path d="M657.659 244.65H562.905V428.954H657.659V244.65Z" fill="#0052E8"/>
<path opacity="0.6" d="M657.659 244.65H562.905V428.954H657.659V244.65Z" fill="white"/>
<path d="M474.094 244.65H379.34V428.954H474.094V244.65Z" fill="#0052E8"/>
<path opacity="0.6" d="M474.094 244.65H379.34V428.954H474.094V244.65Z" fill="white"/>
<path d="M661.208 244.65H653.395V428.954H661.208V244.65Z" fill="#0052E8"/>
<path opacity="0.3" d="M661.208 244.65H653.395V428.954H661.208V244.65Z" fill="black"/>
<path d="M475.225 258.478H663.626V244.65L475.225 244.65V258.478Z" fill="#0052E8"/>
<path opacity="0.3" d="M475.225 258.478H663.626V244.65L475.225 244.65V258.478Z" fill="black"/>
<path d="M477.655 244.65H469.842V428.954H477.655V244.65Z" fill="#0052E8"/>
<path opacity="0.3" d="M477.655 244.65H469.842V428.954H477.655V244.65Z" fill="black"/>
<path d="M474.773 288.74H657.302V248.926L474.773 248.926V288.74Z" fill="#0052E8"/>
<path opacity="0.3" d="M474.773 288.74H657.302V248.926L474.773 248.926V288.74Z" fill="black"/>
<path d="M657.707 434.313H605.101C601.53 434.31 598.106 432.89 595.58 430.364C593.055 427.839 591.635 424.415 591.631 420.843V254.869C591.631 251.71 590.377 248.681 588.143 246.447C585.91 244.214 582.88 242.959 579.722 242.959H563.977V241.768H579.71C583.184 241.768 586.517 243.148 588.973 245.605C591.43 248.062 592.81 251.394 592.81 254.869V420.843C592.814 424.099 594.108 427.22 596.41 429.522C598.712 431.824 601.834 433.119 605.089 433.122H657.707C658.602 433.124 659.475 432.843 660.202 432.319C660.928 431.795 661.47 431.056 661.752 430.206C662.033 429.355 662.038 428.438 661.768 427.585C661.497 426.731 660.963 425.985 660.244 425.452L660.946 424.499C661.865 425.181 662.546 426.136 662.892 427.227C663.237 428.318 663.23 429.49 662.871 430.576C662.513 431.663 661.821 432.609 660.893 433.28C659.966 433.951 658.851 434.312 657.707 434.313Z" fill="#0052E8"/>
<path opacity="0.3" d="M657.707 434.313H605.101C601.53 434.31 598.106 432.89 595.58 430.364C593.055 427.839 591.635 424.415 591.631 420.843V254.869C591.631 251.71 590.377 248.681 588.143 246.447C585.91 244.214 582.88 242.959 579.722 242.959H563.977V241.768H579.71C583.184 241.768 586.517 243.148 588.973 245.605C591.43 248.062 592.81 251.394 592.81 254.869V420.843C592.814 424.099 594.108 427.22 596.41 429.522C598.712 431.824 601.834 433.119 605.089 433.122H657.707C658.602 433.124 659.475 432.843 660.202 432.319C660.928 431.795 661.47 431.056 661.752 430.206C662.033 429.355 662.038 428.438 661.768 427.585C661.497 426.731 660.963 425.985 660.244 425.452L660.946 424.499C661.865 425.181 662.546 426.136 662.892 427.227C663.237 428.318 663.23 429.49 662.871 430.576C662.513 431.663 661.821 432.609 660.893 433.28C659.966 433.951 658.851 434.312 657.707 434.313Z" fill="black"/>
<path d="M665.377 299.03H664.186V322.052H665.377V299.03Z" fill="#0052E8"/>
<path opacity="0.3" d="M665.377 299.03H664.186V322.052H665.377V299.03Z" fill="black"/>
<path d="M665.377 285.441H664.186V291.491H665.377V285.441Z" fill="#0052E8"/>
<path opacity="0.3" d="M665.377 285.441H664.186V291.491H665.377V285.441Z" fill="black"/>
<path d="M578.15 189.627H489.851L477.06 241.768H565.347L578.15 189.627Z" fill="#0052E8"/>
<path opacity="0.4" d="M578.15 189.627H489.851L477.06 241.768H565.347L578.15 189.627Z" fill="white"/>
<path d="M479.763 241.768L479.406 244.65H444.76L445.118 241.768H479.763Z" fill="#0052E8"/>
<path opacity="0.4" d="M479.763 241.768L479.406 244.65H444.76L445.118 241.768H479.763Z" fill="white"/>
<path d="M568.062 241.768L567.705 244.65H479.406L479.763 241.768H568.062Z" fill="#0052E8"/>
<path opacity="0.5" d="M568.062 241.768L567.705 244.65H479.406L479.763 241.768H568.062Z" fill="black"/>
<path d="M580.865 189.627H492.566L479.775 241.768H568.062L580.865 189.627Z" fill="#0052E8"/>
<path opacity="0.5" d="M580.865 189.627H492.566L479.775 241.768H568.062L580.865 189.627Z" fill="black"/>
<path d="M614.963 231.514C614.963 231.514 601.969 209.112 619.953 191.283C619.953 191.283 624.657 194.355 624.586 198.429C624.514 202.502 619.548 203.597 620.608 207.027C621.668 210.457 626.372 213.852 623.288 216.698C620.203 219.545 623.788 222.069 623.573 225.547C623.359 229.025 614.963 231.514 614.963 231.514Z" fill="#0052E8"/>
<path d="M615.951 233.562C615.951 233.562 621.215 208.206 598.491 196.975C598.491 196.975 594.99 201.37 596.36 205.312C597.729 209.254 602.767 208.623 602.839 212.232C602.91 215.841 599.528 220.509 603.351 222.236C607.174 223.963 604.542 227.5 605.864 230.74C607.186 233.979 615.951 233.562 615.951 233.562Z" fill="#0052E8"/>
<path opacity="0.5" d="M615.951 233.562C615.951 233.562 621.215 208.206 598.491 196.975C598.491 196.975 594.99 201.37 596.36 205.312C597.729 209.254 602.767 208.623 602.839 212.232C602.91 215.841 599.528 220.509 603.351 222.236C607.174 223.963 604.542 227.5 605.864 230.74C607.186 233.979 615.951 233.562 615.951 233.562Z" fill="black"/>
<path d="M596.038 227.941C596.038 227.941 596.479 244.615 613.045 244.615C629.612 244.615 630.04 227.941 630.04 227.941H596.038Z" fill="#0052E8"/>
<path opacity="0.5" d="M596.038 227.941C596.038 227.941 596.479 244.615 613.045 244.615C629.612 244.615 630.04 227.941 630.04 227.941H596.038Z" fill="black"/>
<path d="M506.989 118.693L492.84 100.411L478.691 118.693H485.349V142.357H500.331V118.693H506.989Z" fill="#0052E8"/>
<path d="M548.494 140.19C548.494 131.345 552.008 122.863 558.261 116.61C564.515 110.356 572.997 106.842 581.842 106.842V115.525C578.605 115.523 575.399 116.159 572.408 117.397C569.417 118.635 566.699 120.449 564.41 122.738C562.12 125.026 560.304 127.743 559.065 130.733C557.826 133.724 557.188 136.929 557.188 140.166L548.494 140.19Z" fill="#0052E8"/>
<path d="M548.494 140.19H557.188C557.188 146.728 559.786 152.999 564.409 157.622C569.033 162.246 575.303 164.843 581.842 164.843C586.167 164.851 590.418 163.708 594.156 161.532L598.515 169.118C593.446 172.045 587.695 173.586 581.841 173.586C575.987 173.586 570.237 172.045 565.167 169.118C560.098 166.191 555.888 161.981 552.961 156.912C550.035 151.842 548.494 146.091 548.494 140.237V140.19Z" fill="#0052E8"/>
<path opacity="0.5" d="M548.494 140.19H557.188C557.188 146.728 559.786 152.999 564.409 157.622C569.033 162.246 575.303 164.843 581.842 164.843C586.167 164.851 590.418 163.708 594.156 161.532L598.515 169.118C593.446 172.045 587.695 173.586 581.841 173.586C575.987 173.586 570.237 172.045 565.167 169.118C560.098 166.191 555.888 161.981 552.961 156.912C550.035 151.842 548.494 146.091 548.494 140.237V140.19Z" fill="white"/>
<path d="M581.842 115.525V106.819C589.206 106.791 596.372 109.201 602.223 113.674C608.073 118.147 612.279 124.43 614.183 131.544C616.087 138.658 615.582 146.203 612.748 153C609.914 159.797 604.909 165.465 598.515 169.119L594.168 161.58C598.903 158.884 602.611 154.695 604.712 149.667C606.814 144.64 607.189 139.058 605.78 133.795C604.372 128.531 601.258 123.883 596.927 120.577C592.595 117.272 587.29 115.495 581.842 115.525Z" fill="#0052E8"/>
<path opacity="0.7" d="M581.842 115.525V106.819C589.206 106.791 596.372 109.201 602.223 113.674C608.073 118.147 612.279 124.43 614.183 131.544C616.087 138.658 615.582 146.203 612.748 153C609.914 159.797 604.909 165.465 598.515 169.119L594.168 161.58C598.903 158.884 602.611 154.695 604.712 149.667C606.814 144.64 607.189 139.058 605.78 133.795C604.372 128.531 601.258 123.883 596.927 120.577C592.595 117.272 587.29 115.495 581.842 115.525Z" fill="black"/>
<path d="M550.531 58.3579H520.149C519.066 58.3579 518.027 58.7883 517.26 59.5544C516.494 60.3205 516.064 61.3595 516.064 62.443V118.621C516.073 119.699 516.508 120.728 517.273 121.487C518.038 122.245 519.072 122.671 520.149 122.671H559.034C560.116 122.667 561.152 122.236 561.915 121.47C562.679 120.704 563.108 119.667 563.108 118.586V70.9465L550.531 58.3579Z" fill="#263238"/>
<path d="M548.744 117.085H523.484C523.01 117.085 522.556 116.897 522.221 116.562C521.886 116.227 521.697 115.772 521.697 115.298C521.7 114.827 521.89 114.375 522.225 114.043C522.559 113.71 523.012 113.524 523.484 113.524H548.756C549.228 113.524 549.681 113.71 550.015 114.043C550.35 114.375 550.54 114.827 550.543 115.298C550.54 115.773 550.349 116.228 550.012 116.562C549.675 116.897 549.219 117.085 548.744 117.085Z" fill="#0052E8"/>
<path d="M536.835 67.564H523.484C523.012 67.564 522.559 67.3774 522.225 67.0449C521.89 66.7125 521.7 66.2611 521.697 65.7894C521.697 65.3156 521.886 64.8612 522.221 64.5262C522.556 64.1911 523.01 64.0029 523.484 64.0029H536.847C537.32 64.0029 537.775 64.1911 538.11 64.5262C538.445 64.8612 538.633 65.3156 538.633 65.7894C538.631 66.024 538.584 66.256 538.492 66.4721C538.401 66.6883 538.268 66.8844 538.101 67.0491C537.934 67.2139 537.737 67.3442 537.519 67.4325C537.302 67.5209 537.069 67.5655 536.835 67.564Z" fill="#0052E8"/>
<path d="M545.564 74.6385H523.484C523.012 74.6385 522.559 74.452 522.225 74.1195C521.89 73.787 521.7 73.3357 521.697 72.864C521.697 72.3902 521.886 71.9358 522.221 71.6008C522.556 71.2657 523.01 71.0775 523.484 71.0775H545.576C546.048 71.0807 546.499 71.2703 546.832 71.6049C547.164 71.9396 547.351 72.3922 547.351 72.864C547.351 73.098 547.305 73.3298 547.215 73.5458C547.125 73.7619 546.993 73.9581 546.827 74.123C546.661 74.2879 546.464 74.4184 546.247 74.5069C546.031 74.5954 545.799 74.6401 545.564 74.6385Z" fill="#0052E8"/>
<path d="M555.712 81.7129H523.484C523.012 81.7129 522.559 81.5263 522.225 81.1938C521.89 80.8614 521.7 80.4101 521.697 79.9383C521.697 79.4645 521.886 79.0101 522.221 78.6751C522.556 78.3401 523.01 78.1519 523.484 78.1519H555.723C556.197 78.1519 556.652 78.3401 556.987 78.6751C557.322 79.0101 557.51 79.4645 557.51 79.9383C557.508 80.1729 557.461 80.4049 557.369 80.6211C557.278 80.8372 557.145 81.0333 556.978 81.1981C556.811 81.3628 556.613 81.4931 556.396 81.5815C556.179 81.6698 555.946 81.7144 555.712 81.7129Z" fill="#0052E8"/>
<path d="M555.712 88.7873H536.966C536.494 88.7874 536.041 88.6008 535.707 88.2683C535.372 87.9359 535.182 87.4845 535.179 87.0128C535.179 86.539 535.367 86.0846 535.702 85.7496C536.037 85.4145 536.492 85.2263 536.966 85.2263H555.712C556.185 85.2263 556.64 85.4145 556.975 85.7496C557.31 86.0846 557.498 86.539 557.498 87.0128C557.495 87.4845 557.305 87.9359 556.971 88.2683C556.636 88.6008 556.183 88.7874 555.712 88.7873Z" fill="#0052E8"/>
<path d="M528.367 88.7873H523.484C523.012 88.7874 522.559 88.6008 522.225 88.2683C521.89 87.9359 521.7 87.4845 521.697 87.0128C521.697 86.539 521.886 86.0846 522.221 85.7496C522.556 85.4145 523.01 85.2263 523.484 85.2263H528.379C528.852 85.2263 529.307 85.4145 529.642 85.7496C529.977 86.0846 530.165 86.539 530.165 87.0128C530.164 87.2474 530.116 87.4794 530.025 87.6955C529.933 87.9117 529.8 88.1077 529.633 88.2725C529.466 88.4373 529.269 88.5676 529.051 88.6559C528.834 88.7442 528.601 88.7889 528.367 88.7873Z" fill="#0052E8"/>
<path d="M555.712 95.8617H523.484C523.01 95.8617 522.556 95.6735 522.221 95.3384C521.886 95.0034 521.697 94.549 521.697 94.0752C521.7 93.6035 521.89 93.1521 522.225 92.8197C522.559 92.4872 523.012 92.3006 523.484 92.3007H555.723C556.195 92.3006 556.648 92.4872 556.983 92.8197C557.317 93.1521 557.507 93.6035 557.51 94.0752C557.51 94.3108 557.463 94.5441 557.373 94.7616C557.282 94.9792 557.15 95.1766 556.983 95.3427C556.815 95.5087 556.617 95.6401 556.399 95.7291C556.181 95.8182 555.947 95.8633 555.712 95.8617Z" fill="#0052E8"/>
<path d="M543.266 102.936H523.484C523.01 102.936 522.556 102.748 522.221 102.413C521.886 102.078 521.697 101.623 521.697 101.15C521.7 100.678 521.89 100.226 522.225 99.894C522.559 99.5616 523.012 99.375 523.484 99.375H543.278C543.75 99.375 544.202 99.5616 544.537 99.894C544.872 100.226 545.061 100.678 545.064 101.15C545.064 101.385 545.018 101.618 544.927 101.836C544.837 102.053 544.704 102.251 544.537 102.417C544.37 102.583 544.171 102.714 543.953 102.803C543.735 102.893 543.501 102.938 543.266 102.936Z" fill="#0052E8"/>
<path d="M555.712 102.936H550.424C549.952 102.933 549.501 102.743 549.168 102.409C548.836 102.074 548.649 101.621 548.649 101.15C548.649 100.679 548.836 100.228 549.169 99.8947C549.502 99.562 549.953 99.375 550.424 99.375H555.712C556.183 99.375 556.636 99.5616 556.971 99.894C557.305 100.226 557.495 100.678 557.498 101.15C557.498 101.623 557.31 102.078 556.975 102.413C556.64 102.748 556.185 102.936 555.712 102.936Z" fill="#0052E8"/>
<path d="M555.712 110.01H523.484C523.01 110.01 522.556 109.822 522.221 109.487C521.886 109.152 521.697 108.698 521.697 108.224C521.7 107.752 521.89 107.301 522.225 106.968C522.559 106.636 523.012 106.449 523.484 106.449H555.723C556.195 106.449 556.648 106.636 556.983 106.968C557.317 107.301 557.507 107.752 557.51 108.224C557.51 108.46 557.463 108.693 557.373 108.91C557.282 109.128 557.15 109.325 556.983 109.491C556.815 109.657 556.617 109.789 556.399 109.878C556.181 109.967 555.947 110.012 555.712 110.01Z" fill="#0052E8"/>
<g opacity="0.5">
<path opacity="0.5" d="M548.744 117.085H523.484C523.01 117.085 522.556 116.897 522.221 116.562C521.886 116.227 521.697 115.772 521.697 115.298C521.7 114.827 521.89 114.375 522.225 114.043C522.559 113.71 523.012 113.524 523.484 113.524H548.756C549.228 113.524 549.681 113.71 550.015 114.043C550.35 114.375 550.54 114.827 550.543 115.298C550.54 115.773 550.349 116.228 550.012 116.562C549.675 116.897 549.219 117.085 548.744 117.085Z" fill="white"/>
</g>
<g opacity="0.5">
<path opacity="0.5" d="M536.835 67.564H523.484C523.012 67.564 522.559 67.3774 522.225 67.0449C521.89 66.7125 521.7 66.2611 521.697 65.7894C521.697 65.3156 521.886 64.8612 522.221 64.5262C522.556 64.1911 523.01 64.0029 523.484 64.0029H536.847C537.32 64.0029 537.775 64.1911 538.11 64.5262C538.445 64.8612 538.633 65.3156 538.633 65.7894C538.631 66.024 538.584 66.256 538.492 66.4721C538.401 66.6883 538.268 66.8844 538.101 67.0491C537.934 67.2139 537.737 67.3442 537.519 67.4325C537.302 67.5209 537.069 67.5655 536.835 67.564Z" fill="white"/>
</g>
<g opacity="0.5">
<path opacity="0.5" d="M545.564 74.6385H523.484C523.012 74.6385 522.559 74.452 522.225 74.1195C521.89 73.787 521.7 73.3357 521.697 72.864C521.697 72.3902 521.886 71.9358 522.221 71.6008C522.556 71.2657 523.01 71.0775 523.484 71.0775H545.576C546.048 71.0807 546.499 71.2703 546.832 71.6049C547.164 71.9396 547.351 72.3922 547.351 72.864C547.351 73.098 547.305 73.3298 547.215 73.5458C547.125 73.7619 546.993 73.9581 546.827 74.123C546.661 74.2879 546.464 74.4184 546.247 74.5069C546.031 74.5954 545.799 74.6401 545.564 74.6385Z" fill="white"/>
</g>
<g opacity="0.5">
<path opacity="0.5" d="M555.712 81.7129H523.484C523.012 81.7129 522.559 81.5263 522.225 81.1938C521.89 80.8614 521.7 80.4101 521.697 79.9383C521.697 79.4645 521.886 79.0101 522.221 78.6751C522.556 78.3401 523.01 78.1519 523.484 78.1519H555.723C556.197 78.1519 556.652 78.3401 556.987 78.6751C557.322 79.0101 557.51 79.4645 557.51 79.9383C557.508 80.1729 557.461 80.4049 557.369 80.6211C557.278 80.8372 557.145 81.0333 556.978 81.1981C556.811 81.3628 556.613 81.4931 556.396 81.5815C556.179 81.6698 555.946 81.7144 555.712 81.7129Z" fill="white"/>
</g>
<g opacity="0.5">
<path opacity="0.5" d="M555.712 88.7873H536.966C536.494 88.7874 536.041 88.6008 535.707 88.2683C535.372 87.9359 535.182 87.4845 535.179 87.0128C535.179 86.539 535.367 86.0846 535.702 85.7496C536.037 85.4145 536.492 85.2263 536.966 85.2263H555.712C556.185 85.2263 556.64 85.4145 556.975 85.7496C557.31 86.0846 557.498 86.539 557.498 87.0128C557.495 87.4845 557.305 87.9359 556.971 88.2683C556.636 88.6008 556.183 88.7874 555.712 88.7873Z" fill="white"/>
</g>
<g opacity="0.5">
<path opacity="0.5" d="M528.367 88.7873H523.484C523.012 88.7874 522.559 88.6008 522.225 88.2683C521.89 87.9359 521.7 87.4845 521.697 87.0128C521.697 86.539 521.886 86.0846 522.221 85.7496C522.556 85.4145 523.01 85.2263 523.484 85.2263H528.379C528.852 85.2263 529.307 85.4145 529.642 85.7496C529.977 86.0846 530.165 86.539 530.165 87.0128C530.164 87.2474 530.116 87.4794 530.025 87.6955C529.933 87.9117 529.8 88.1077 529.633 88.2725C529.466 88.4373 529.269 88.5676 529.051 88.6559C528.834 88.7442 528.601 88.7889 528.367 88.7873Z" fill="white"/>
</g>
<g opacity="0.5">
<path opacity="0.5" d="M555.712 95.8617H523.484C523.01 95.8617 522.556 95.6735 522.221 95.3384C521.886 95.0034 521.697 94.549 521.697 94.0752C521.7 93.6035 521.89 93.1521 522.225 92.8197C522.559 92.4872 523.012 92.3006 523.484 92.3007H555.723C556.195 92.3006 556.648 92.4872 556.983 92.8197C557.317 93.1521 557.507 93.6035 557.51 94.0752C557.51 94.3108 557.463 94.5441 557.373 94.7616C557.282 94.9792 557.15 95.1766 556.983 95.3427C556.815 95.5087 556.617 95.6401 556.399 95.7291C556.181 95.8182 555.947 95.8633 555.712 95.8617Z" fill="white"/>
</g>
<g opacity="0.5">
<path opacity="0.5" d="M543.266 102.936H523.484C523.01 102.936 522.556 102.748 522.221 102.413C521.886 102.078 521.697 101.623 521.697 101.15C521.7 100.678 521.89 100.226 522.225 99.894C522.559 99.5616 523.012 99.375 523.484 99.375H543.278C543.75 99.375 544.202 99.5616 544.537 99.894C544.872 100.226 545.061 100.678 545.064 101.15C545.064 101.385 545.018 101.618 544.927 101.836C544.837 102.053 544.704 102.251 544.537 102.417C544.37 102.583 544.171 102.714 543.953 102.803C543.735 102.893 543.501 102.938 543.266 102.936Z" fill="white"/>
</g>
<g opacity="0.5">
<path opacity="0.5" d="M555.712 102.936H550.424C549.952 102.933 549.501 102.743 549.168 102.409C548.836 102.074 548.649 101.621 548.649 101.15C548.649 100.679 548.836 100.228 549.169 99.8947C549.502 99.562 549.953 99.375 550.424 99.375H555.712C556.183 99.375 556.636 99.5616 556.971 99.894C557.305 100.226 557.495 100.678 557.498 101.15C557.498 101.623 557.31 102.078 556.975 102.413C556.64 102.748 556.185 102.936 555.712 102.936Z" fill="white"/>
</g>
<g opacity="0.5">
<path opacity="0.5" d="M555.712 110.01H523.484C523.01 110.01 522.556 109.822 522.221 109.487C521.886 109.152 521.697 108.698 521.697 108.224C521.7 107.752 521.89 107.301 522.225 106.968C522.559 106.636 523.012 106.449 523.484 106.449H555.723C556.195 106.449 556.648 106.636 556.983 106.968C557.317 107.301 557.507 107.752 557.51 108.224C557.51 108.46 557.463 108.693 557.373 108.91C557.282 109.128 557.15 109.325 556.983 109.491C556.815 109.657 556.617 109.789 556.399 109.878C556.181 109.967 555.947 110.012 555.712 110.01Z" fill="white"/>
</g>
<path d="M550.531 58.3579V66.8615C550.529 67.3984 550.634 67.9303 550.839 68.4266C551.043 68.9229 551.344 69.3739 551.724 69.7536C552.103 70.1332 552.554 70.434 553.051 70.6388C553.547 70.8435 554.079 70.9481 554.616 70.9465H563.108L550.531 58.3579Z" fill="#0052E8"/>
<path opacity="0.5" d="M550.531 58.3579V66.8615C550.529 67.3984 550.634 67.9303 550.839 68.4266C551.043 68.9229 551.344 69.3739 551.724 69.7536C552.103 70.1332 552.554 70.434 553.051 70.6388C553.547 70.8435 554.079 70.9481 554.616 70.9465H563.108L550.531 58.3579Z" fill="white"/>
</svg>
