<svg width="737" height="582" viewBox="0 0 737 582" fill="none" xmlns="http://www.w3.org/2000/svg">
<path d="M737 515.279H0.628174V515.647H737V515.279Z" fill="#EBEBEB"/>
<path d="M349.668 449.595H65.2963C63.0686 449.591 60.9334 448.703 59.3595 447.126C57.7857 445.55 56.9017 443.413 56.9017 441.185V41.4385C56.9211 39.2236 57.8136 37.1057 59.3854 35.545C60.9572 33.9842 63.0813 33.1066 65.2963 33.1028H349.668C351.899 33.1028 354.038 33.9888 355.615 35.5659C357.192 37.1429 358.078 39.2819 358.078 41.5122V441.185C358.078 443.416 357.192 445.555 355.615 447.132C354.038 448.709 351.899 449.595 349.668 449.595ZM65.2963 33.3974C63.1662 33.4013 61.1247 34.2502 59.6199 35.7578C58.1151 37.2654 57.2699 39.3084 57.2699 41.4385V441.185C57.2699 443.315 58.1151 445.359 59.6199 446.866C61.1247 448.374 63.1662 449.223 65.2963 449.227H349.668C351.8 449.223 353.843 448.374 355.35 446.867C356.857 445.36 357.706 443.317 357.71 441.185V41.4385C357.706 39.3071 356.857 37.264 355.35 35.7569C353.843 34.2497 351.8 33.4013 349.668 33.3974H65.2963Z" fill="#EBEBEB"/>
<path d="M668.238 449.595H383.851C381.622 449.591 379.485 448.704 377.909 447.127C376.333 445.551 375.445 443.414 375.441 441.185V41.4385C375.465 39.2222 376.36 37.1044 377.935 35.544C379.509 33.9837 381.634 33.1066 383.851 33.1028H668.238C670.45 33.1105 672.57 33.9898 674.139 35.5501C675.708 37.1105 676.598 39.2261 676.617 41.4385V441.185C676.618 443.411 675.736 445.545 674.165 447.121C672.594 448.697 670.463 449.587 668.238 449.595ZM383.851 33.3974C381.719 33.4013 379.676 34.2497 378.169 35.7569C376.662 37.264 375.813 39.3071 375.81 41.4385V441.185C375.813 443.317 376.662 445.36 378.169 446.867C379.676 448.374 381.719 449.223 383.851 449.227H668.238C670.369 449.223 672.412 448.374 673.919 446.867C675.426 445.36 676.275 443.317 676.279 441.185V41.4385C676.275 39.3071 675.426 37.264 673.919 35.7569C672.412 34.2497 670.369 33.4013 668.238 33.3974H383.851Z" fill="#EBEBEB"/>
<path d="M295.825 529.3H257.534V529.668H295.825V529.3Z" fill="#EBEBEB"/>
<path d="M157.564 525.309H77.8883V525.677H157.564V525.309Z" fill="#EBEBEB"/>
<path d="M256.061 542.981H217.298V543.35H256.061V542.981Z" fill="#EBEBEB"/>
<path d="M438.121 540.507H380.935V540.875H438.121V540.507Z" fill="#EBEBEB"/>
<path d="M466.972 540.507H451.229V540.875H466.972V540.507Z" fill="#EBEBEB"/>
<path d="M663.23 534.292H582.878V534.66H663.23V534.292Z" fill="#EBEBEB"/>
<path d="M170.936 185.782H279.919C282.134 185.782 284.258 186.662 285.824 188.228C287.39 189.794 288.27 191.918 288.27 194.132V515.279H162.63V194.118C162.634 191.913 163.509 189.8 165.065 188.238C166.621 186.677 168.732 185.794 170.936 185.782Z" fill="#F5F5F5"/>
<path d="M189.228 205.252H173.028V241.319H189.228V205.252Z" fill="#EBEBEB"/>
<path d="M277.828 205.252H261.628V241.319H277.828V205.252Z" fill="#EBEBEB"/>
<path d="M218.756 205.252H202.556V241.319H218.756V205.252Z" fill="#EBEBEB"/>
<path d="M248.299 205.252H232.099V241.319H248.299V205.252Z" fill="#EBEBEB"/>
<path d="M189.228 262.188H173.028V298.255H189.228V262.188Z" fill="#EBEBEB"/>
<path d="M277.828 262.188H261.628V298.255H277.828V262.188Z" fill="#EBEBEB"/>
<path d="M218.756 262.188H202.556V298.255H218.756V262.188Z" fill="#EBEBEB"/>
<path d="M248.299 262.188H232.099V298.255H248.299V262.188Z" fill="#EBEBEB"/>
<path d="M189.228 319.124H173.028V355.192H189.228V319.124Z" fill="#EBEBEB"/>
<path d="M277.828 319.124H261.628V355.192H277.828V319.124Z" fill="#EBEBEB"/>
<path d="M218.756 319.124H202.556V355.192H218.756V319.124Z" fill="#EBEBEB"/>
<path d="M248.299 319.124H232.099V355.192H248.299V319.124Z" fill="#EBEBEB"/>
<path d="M189.228 376.061H173.028V412.128H189.228V376.061Z" fill="#EBEBEB"/>
<path d="M277.828 376.061H261.628V412.128H277.828V376.061Z" fill="#EBEBEB"/>
<path d="M218.756 376.061H202.556V412.128H218.756V376.061Z" fill="#EBEBEB"/>
<path d="M248.299 376.061H232.099V412.128H248.299V376.061Z" fill="#EBEBEB"/>
<path d="M189.228 432.997H173.028V469.065H189.228V432.997Z" fill="#EBEBEB"/>
<path d="M277.828 432.997H261.628V469.065H277.828V432.997Z" fill="#EBEBEB"/>
<path d="M218.756 432.997H202.556V469.065H218.756V432.997Z" fill="#EBEBEB"/>
<path d="M248.299 432.997H232.099V469.065H248.299V432.997Z" fill="#EBEBEB"/>
<path d="M557.325 215.723H635.381C636.272 215.723 637.155 215.899 637.979 216.24C638.803 216.581 639.551 217.081 640.181 217.712C640.812 218.342 641.312 219.091 641.653 219.914C641.994 220.738 642.17 221.621 642.17 222.513V515.279H550.61V222.527C550.606 220.737 551.309 219.017 552.567 217.743C553.825 216.468 555.535 215.743 557.325 215.723Z" fill="#F5F5F5"/>
<path d="M576.942 233.425H562.215V266.209H576.942V233.425Z" fill="#EBEBEB"/>
<path d="M603.79 233.425H589.063V266.209H603.79V233.425Z" fill="#EBEBEB"/>
<path d="M630.638 233.425H615.911V266.209H630.638V233.425Z" fill="#EBEBEB"/>
<path d="M576.942 285.192H562.215V317.975H576.942V285.192Z" fill="#EBEBEB"/>
<path d="M603.79 285.192H589.063V317.975H603.79V285.192Z" fill="#EBEBEB"/>
<path d="M630.638 285.192H615.911V317.975H630.638V285.192Z" fill="#EBEBEB"/>
<path d="M576.942 336.959H562.215V369.743H576.942V336.959Z" fill="#EBEBEB"/>
<path d="M603.79 336.959H589.063V369.743H603.79V336.959Z" fill="#EBEBEB"/>
<path d="M630.638 336.959H615.911V369.743H630.638V336.959Z" fill="#EBEBEB"/>
<path d="M576.942 388.711H562.215V421.495H576.942V388.711Z" fill="#EBEBEB"/>
<path d="M603.79 388.711H589.063V421.495H603.79V388.711Z" fill="#EBEBEB"/>
<path d="M630.638 388.711H615.911V421.495H630.638V388.711Z" fill="#EBEBEB"/>
<path d="M576.942 440.478H562.215V473.262H576.942V440.478Z" fill="#EBEBEB"/>
<path d="M603.79 440.478H589.063V473.262H603.79V440.478Z" fill="#EBEBEB"/>
<path d="M630.638 440.478H615.911V473.262H630.638V440.478Z" fill="#EBEBEB"/>
<path d="M378.52 131.939H505.308C507.882 131.939 510.351 132.961 512.171 134.781C513.991 136.601 515.013 139.07 515.013 141.644V515.279H368.814V141.644C368.814 139.07 369.837 136.601 371.657 134.781C373.477 132.961 375.946 131.939 378.52 131.939Z" fill="#F5F5F5"/>
<path d="M399.801 154.589H380.949V196.548H399.801V154.589Z" fill="#EBEBEB"/>
<path d="M502.878 154.589H484.027V196.548H502.878V154.589Z" fill="#EBEBEB"/>
<path d="M434.16 154.589H415.309V196.548H434.16V154.589Z" fill="#EBEBEB"/>
<path d="M468.519 154.589H449.668V196.548H468.519V154.589Z" fill="#EBEBEB"/>
<path d="M399.801 220.833H380.949V262.792H399.801V220.833Z" fill="#EBEBEB"/>
<path d="M502.878 220.833H484.027V262.792H502.878V220.833Z" fill="#EBEBEB"/>
<path d="M434.16 220.833H415.309V262.792H434.16V220.833Z" fill="#EBEBEB"/>
<path d="M468.519 220.833H449.668V262.792H468.519V220.833Z" fill="#EBEBEB"/>
<path d="M399.801 287.078H380.949V329.036H399.801V287.078Z" fill="#EBEBEB"/>
<path d="M502.878 287.078H484.027V329.036H502.878V287.078Z" fill="#EBEBEB"/>
<path d="M434.16 287.078H415.309V329.036H434.16V287.078Z" fill="#EBEBEB"/>
<path d="M468.519 287.078H449.668V329.036H468.519V287.078Z" fill="#EBEBEB"/>
<path d="M399.801 353.322H380.949V395.28H399.801V353.322Z" fill="#EBEBEB"/>
<path d="M502.878 353.322H484.027V395.28H502.878V353.322Z" fill="#EBEBEB"/>
<path d="M434.16 353.322H415.309V395.28H434.16V353.322Z" fill="#EBEBEB"/>
<path d="M468.519 353.322H449.668V395.28H468.519V353.322Z" fill="#EBEBEB"/>
<path d="M399.801 419.551H380.949V461.509H399.801V419.551Z" fill="#EBEBEB"/>
<path d="M502.878 419.551H484.027V461.509H502.878V419.551Z" fill="#EBEBEB"/>
<path d="M434.16 419.551H415.309V461.509H434.16V419.551Z" fill="#EBEBEB"/>
<path d="M468.519 419.551H449.668V461.509H468.519V419.551Z" fill="#EBEBEB"/>
<path d="M368.814 269.228H288.27V515.279H368.814V269.228Z" fill="#E6E6E6"/>
<path d="M550.61 295.575H515.028V515.279H550.61V295.575Z" fill="#E6E6E6"/>
<path d="M162.586 515.279H92.1003V412.555L162.586 388.711V515.279Z" fill="#E6E6E6"/>
<path d="M620.653 91.0994C632.185 81.4824 655.646 62.7197 635.469 60.0393C616.088 57.462 587.531 68.8021 578.415 78.7579C578.415 69.2292 573.923 60.1571 556.81 52.8228C530.477 41.5122 526.398 82.6164 527.782 90.1569C517.193 85.0759 483.762 86.0185 506.81 100.348H623.805C623.805 100.348 647.958 85.2527 620.653 91.0994Z" fill="#F5F5F5"/>
<path d="M92.8219 140.613C92.7335 135.135 92.1444 124.413 101.835 122.94C111.143 121.467 117.461 127.933 116.401 133.603C121.054 128.168 127.328 123.014 138.02 118.875C154.5 112.425 136.165 135.841 131.894 140.142C138.771 137.196 152.203 137.771 135.635 145.93H87.034C87.034 145.93 84.3683 137.27 92.8219 140.613Z" fill="#FAFAFA"/>
<path d="M296.753 75.6062H140.2C140.2 75.6062 149.272 64.5901 163.44 68.0658C156.768 59.5681 153.219 27.7126 175.546 23.7362C186.901 21.7185 200.303 42.3664 200.583 53.1911C206.179 27.2855 221.643 -5.63031 245.383 0.820306C269.124 7.27092 250.73 54.2809 250.73 54.2809C250.73 54.2809 273.542 21.0558 292.482 35.798C303.763 44.6344 282.585 64.7816 282.585 64.7816C282.585 64.7816 308.52 64.5901 296.753 75.6062Z" fill="#F5F5F5"/>
<path d="M368.814 581.788C526.519 581.788 654.364 574.324 654.364 565.117C654.364 555.909 526.519 548.445 368.814 548.445C211.109 548.445 83.2638 555.909 83.2638 565.117C83.2638 574.324 211.109 581.788 368.814 581.788Z" fill="#F5F5F5"/>
<path d="M292.511 452.29C284.276 452.468 276.439 455.865 270.678 461.752C264.916 467.638 261.69 475.548 261.69 483.785C261.69 492.022 264.916 499.931 270.678 505.818C276.439 511.705 284.276 515.101 292.511 515.279H298.815V452.29H292.511Z" fill="#263238"/>
<path d="M521.979 452.29C517.786 452.199 513.617 452.947 509.717 454.489C505.816 456.031 502.263 458.336 499.265 461.27C496.267 464.203 493.886 467.706 492.26 471.572C490.634 475.438 489.796 479.59 489.796 483.785C489.796 487.979 490.634 492.131 492.26 495.997C493.886 499.863 496.267 503.366 499.265 506.299C502.263 509.233 505.816 511.538 509.717 513.08C513.617 514.622 517.786 515.37 521.979 515.279H528.268V452.29H521.979Z" fill="#263238"/>
<path d="M418.004 515.265C435.394 515.265 449.491 501.167 449.491 483.777C449.491 466.387 435.394 452.29 418.004 452.29C400.614 452.29 386.516 466.387 386.516 483.777C386.516 501.167 400.614 515.265 418.004 515.265Z" fill="#263238"/>
<path d="M188.521 515.265C205.911 515.265 220.008 501.167 220.008 483.777C220.008 466.387 205.911 452.29 188.521 452.29C171.131 452.29 157.033 466.387 157.033 483.777C157.033 501.167 171.131 515.265 188.521 515.265Z" fill="#263238"/>
<path d="M452.201 316.842H332.717V468.652H452.201V316.842Z" fill="#0052E8"/>
<path opacity="0.2" d="M452.201 316.842H332.717V468.652H452.201V316.842Z" fill="black"/>
<path d="M572.809 354.592L571.688 355.548L576.444 361.13L577.565 360.175L572.809 354.592Z" fill="#0052E8"/>
<path d="M553.426 331.811L552.305 332.767L567.122 350.151L568.243 349.196L553.426 331.811Z" fill="#0052E8"/>
<path d="M452.201 468.638H600.594V402.762C600.597 397.87 598.852 393.138 595.675 389.419L549.505 335.163C544.61 329.417 538.526 324.803 531.673 321.64C524.82 318.477 517.362 316.84 509.815 316.842H452.201V468.638Z" fill="#0052E8"/>
<path d="M476.516 396.503V340.686C476.516 339.483 476.753 338.293 477.213 337.182C477.674 336.072 478.349 335.063 479.2 334.213C480.051 333.364 481.061 332.69 482.172 332.232C483.283 331.773 484.474 331.538 485.676 331.54H499.888C507.326 331.54 514.676 333.154 521.429 336.272C528.183 339.389 534.179 343.935 539.004 349.596L573.923 390.567C575.326 392.21 576.098 394.298 576.103 396.458C576.103 398.885 575.14 401.213 573.425 402.931C571.71 404.648 569.384 405.615 566.957 405.619H485.676C483.254 405.619 480.931 404.66 479.214 402.951C477.498 401.243 476.528 398.924 476.516 396.503Z" fill="white"/>
<path d="M600.594 450.699H582.274C581.283 450.699 580.31 450.44 579.45 449.948C578.591 449.455 577.874 448.747 577.373 447.893C576.871 447.039 576.602 446.068 576.591 445.078C576.58 444.087 576.828 443.111 577.31 442.246L580.403 436.708C580.892 435.819 581.61 435.077 582.483 434.559C583.356 434.041 584.351 433.766 585.366 433.763H600.594V450.699Z" fill="white"/>
<path d="M425.824 291.334H137.034V468.638H425.824V291.334Z" fill="#0052E8"/>
<path opacity="0.6" d="M425.824 291.334H137.034V468.638H425.824V291.334Z" fill="white"/>
<path opacity="0.5" d="M264.382 441.613H215.236V452.29H264.382V441.613Z" fill="#0052E8"/>
<path opacity="0.5" d="M150.524 441.613H137.034V452.29H150.524V441.613Z" fill="#0052E8"/>
<path opacity="0.4" d="M236.797 291.334H137.034V468.638H236.797V291.334Z" fill="#0052E8"/>
<path opacity="0.4" d="M181.864 291.334H180.259V468.638H181.864V291.334Z" fill="#0052E8"/>
<path d="M602.038 468.637H135.59C134.256 468.637 133.175 469.719 133.175 471.053V478.519C133.175 479.853 134.256 480.935 135.59 480.935H602.038C603.372 480.935 604.453 479.853 604.453 478.519V471.053C604.453 469.719 603.372 468.637 602.038 468.637Z" fill="#263238"/>
<path d="M528.298 515.265C545.687 515.265 559.785 501.167 559.785 483.777C559.785 466.387 545.687 452.29 528.298 452.29C510.908 452.29 496.81 466.387 496.81 483.777C496.81 501.167 510.908 515.265 528.298 515.265Z" fill="#263238"/>
<path d="M528.297 504.042C539.489 504.042 548.562 494.969 548.562 483.777C548.562 472.585 539.489 463.512 528.297 463.512C517.105 463.512 508.032 472.585 508.032 483.777C508.032 494.969 517.105 504.042 528.297 504.042Z" fill="white"/>
<path d="M298.815 515.265C316.204 515.265 330.302 501.167 330.302 483.777C330.302 466.387 316.204 452.29 298.815 452.29C281.425 452.29 267.327 466.387 267.327 483.777C267.327 501.167 281.425 515.265 298.815 515.265Z" fill="#263238"/>
<path d="M298.815 504.042C310.007 504.042 319.079 494.969 319.079 483.777C319.079 472.585 310.007 463.512 298.815 463.512C287.623 463.512 278.55 472.585 278.55 483.777C278.55 494.969 287.623 504.042 298.815 504.042Z" fill="white"/>
<path d="M339.86 552.289L327.342 552.098L323.94 523.07L336.443 523.276L339.86 552.289Z" fill="#0052E8"/>
<path d="M327.018 550.654L340.655 550.861C340.896 550.859 341.129 550.947 341.308 551.108C341.488 551.268 341.602 551.49 341.627 551.729L342.82 562.893C342.843 563.176 342.806 563.46 342.712 563.727C342.618 563.995 342.47 564.24 342.275 564.447C342.081 564.654 341.846 564.817 341.585 564.928C341.323 565.038 341.042 565.092 340.758 565.087C335.854 564.925 328.77 564.528 322.585 564.439C315.353 564.321 316.06 564.616 307.577 564.439C302.452 564.366 301.686 559.137 303.837 558.71C313.851 556.722 314.853 556.619 323.895 551.538C324.84 550.973 325.917 550.669 327.018 550.654Z" fill="#263238"/>
<path d="M314.794 178.183C310.7 186.931 306.311 195.193 301.436 203.44C298.991 207.535 296.473 211.614 293.748 215.62C292.423 217.623 290.994 219.611 289.58 221.599C288.167 223.587 286.635 225.546 285 227.49L283.793 228.963C283.18 229.72 282.521 230.438 281.819 231.113C281.357 231.567 280.865 231.99 280.346 232.38C279.779 232.815 279.178 233.204 278.55 233.543C277.173 234.307 275.681 234.84 274.131 235.119C271.314 235.584 268.423 235.237 265.796 234.118C263.988 233.333 262.298 232.302 260.774 231.054C258.475 229.156 256.426 226.974 254.676 224.559C253.129 222.467 251.694 220.294 250.376 218.05C247.922 213.795 245.733 209.393 243.822 204.869C241.93 200.428 240.273 195.891 238.859 191.275C238.512 190.087 238.604 188.813 239.119 187.686C239.634 186.56 240.537 185.657 241.664 185.142C242.79 184.627 244.064 184.535 245.253 184.882C246.442 185.23 247.466 185.993 248.137 187.034L248.226 187.166C252.856 194.8 257.9 202.175 263.336 209.258C264.608 210.87 265.965 212.414 267.401 213.882C268.552 215.093 269.831 216.174 271.215 217.107C271.746 217.417 272.173 217.564 272.202 217.505C272.232 217.446 271.672 217.166 270.729 217.269C270.101 217.376 269.501 217.607 268.962 217.947C268.888 217.947 268.815 218.05 269.242 217.461L270.155 216.15C275.07 208.796 279.607 201.197 283.748 193.381C288.049 185.488 292.276 177.299 296.296 169.361V169.214C297.493 166.755 299.618 164.872 302.203 163.98C304.789 163.088 307.622 163.26 310.081 164.457C312.54 165.654 314.422 167.779 315.315 170.364C316.207 172.949 316.035 175.783 314.838 178.242L314.794 178.183Z" fill="#0052E8"/>
<path d="M248.624 190.686L245.266 176.754L232.173 182.395C232.173 182.395 233.336 193.455 242.482 194.825L248.624 190.686Z" fill="#263238"/>
<path d="M247.931 187.255C247.931 187.255 252.187 192.733 253.233 194.236C251.76 195.708 242.114 200.583 241.348 200.127C240.126 196.636 238.403 192.026 238.403 192.026L247.931 187.255Z" fill="#263238"/>
<path d="M235.472 167.888L230.656 172.513C230.275 172.889 230.003 173.362 229.871 173.881C229.739 174.4 229.75 174.945 229.905 175.458L232.173 182.336L245.266 176.695L239.89 168.374C239.65 168.028 239.338 167.737 238.976 167.522C238.614 167.306 238.21 167.171 237.792 167.125C237.373 167.079 236.949 167.123 236.549 167.255C236.149 167.387 235.781 167.603 235.472 167.888Z" fill="#263238"/>
<path d="M242.895 184.162C242.438 181.334 245.266 172.469 247.637 171.202C250.008 169.935 248.653 176.047 248.962 178.109C249.816 183.764 250.111 189.155 247.21 188.86C244.308 188.566 243.631 189.081 242.895 184.162Z" fill="#263238"/>
<path opacity="0.2" d="M323.94 523.085L325.692 538.048L338.21 538.239L336.458 523.276L323.94 523.085Z" fill="black"/>
<path d="M304.676 161.467C328.476 158.521 351.509 161.703 364.057 164.133C365.321 164.38 366.523 164.877 367.594 165.593C368.664 166.31 369.581 167.233 370.291 168.307C371.001 169.382 371.49 170.587 371.73 171.853C371.969 173.118 371.954 174.419 371.686 175.679C362.349 220.303 363.807 265.192 363.026 274.736L296.105 273.661C291.525 218.948 294.411 184.103 296.178 169.891C296.455 167.741 297.441 165.745 298.98 164.219C300.519 162.693 302.524 161.725 304.676 161.467Z" fill="#0052E8"/>
<path d="M346.944 129.921C344.823 138.919 342.408 155.503 348.593 162.071C343.439 166.636 336.723 171.85 325.839 171.423C314.956 170.996 317.136 163.691 320.155 159.965C330.464 158.286 330.464 150.716 328.991 143.5L346.944 129.921Z" fill="#FFB573"/>
<path opacity="0.2" d="M339.61 135.459L328.947 143.559C329.326 145.234 329.557 146.939 329.639 148.654C333.557 148.389 339.065 144.516 339.639 140.481C339.936 138.819 339.926 137.117 339.61 135.459Z" fill="black"/>
<path d="M349.978 116.269C348.402 128.566 348.122 135.856 341.451 141.732C331.436 150.569 316.546 143.78 314.396 131.232C312.467 119.921 315.354 101.777 327.783 97.6826C330.536 96.7942 333.468 96.6182 336.307 97.1713C339.145 97.7244 341.797 98.9885 344.014 100.845C346.232 102.702 347.942 105.091 348.985 107.788C350.027 110.485 350.369 113.403 349.978 116.269Z" fill="#FFB573"/>
<path d="M350.699 126.946C345.839 129.891 340.287 128.419 339.83 125.326C339.374 122.233 342.982 116.887 344.337 114.28C343.954 109.862 340.832 108.566 341.392 105.444C337.754 105.783 317.916 106.681 318.387 102.204C318.859 97.7267 326.723 93.117 336.06 94.2804C345.397 95.4439 351.509 99.5087 350.626 105.193C355.839 104.354 358.24 113.176 350.699 126.946Z" fill="#263238"/>
<path d="M355.044 128.831C354.22 130.139 353.145 131.271 351.881 132.16C350.617 133.05 349.189 133.681 347.68 134.015C343.645 134.884 341.789 131.217 343.129 127.535C344.293 124.207 347.798 119.759 351.774 120.54C352.64 120.72 353.447 121.113 354.123 121.682C354.799 122.252 355.322 122.981 355.647 123.803C355.971 124.625 356.086 125.516 355.98 126.393C355.875 127.271 355.553 128.109 355.044 128.831Z" fill="#FFB573"/>
<path d="M334.941 397.842C334.44 334.927 348.358 274.5 348.358 274.5L296.193 273.661C296.193 273.661 302.187 364.529 304.278 402.599C306.443 442.172 320.744 535.146 320.744 535.146L341.922 535.456C341.922 535.456 337.886 447.503 334.941 397.842Z" fill="#0052E8"/>
<path opacity="0.4" d="M334.941 397.842C334.44 334.927 348.358 274.5 348.358 274.5L296.193 273.661C296.193 273.661 302.187 364.529 304.278 402.599C306.443 442.172 320.744 535.146 320.744 535.146L341.922 535.456C341.922 535.456 337.886 447.503 334.941 397.842Z" fill="black"/>
<path opacity="0.2" d="M336.973 309.124C322.099 329.478 328.785 367.769 334.882 394.838C335.124 364.992 337.66 335.209 342.467 305.752L336.973 309.124Z" fill="black"/>
<path d="M317.916 526.899L319.286 535.529L342.702 535.927L344.028 527.768L317.916 526.899Z" fill="#263238"/>
<path d="M333.468 118.33C333.468 119.332 332.82 120.113 332.157 120.054C331.495 119.995 331.023 119.155 331.097 118.154C331.171 117.152 331.745 116.372 332.408 116.416C333.071 116.46 333.586 117.314 333.468 118.33Z" fill="#263238"/>
<path d="M320.493 116.873C320.493 117.889 319.845 118.655 319.183 118.61C318.52 118.566 318.049 117.697 318.122 116.696C318.196 115.694 318.77 114.914 319.433 114.958C320.096 115.002 320.567 115.871 320.493 116.873Z" fill="#263238"/>
<path d="M323.159 117.682C321.761 120.669 319.951 123.445 317.783 125.93C318.438 126.471 319.202 126.865 320.023 127.084C320.844 127.302 321.703 127.341 322.54 127.196L323.159 117.682Z" fill="#ED893E"/>
<path d="M326.635 130.76C327.767 130.705 328.876 130.414 329.89 129.907C330.904 129.4 331.802 128.688 332.526 127.815C332.573 127.753 332.593 127.674 332.582 127.597C332.571 127.519 332.529 127.45 332.467 127.403C332.404 127.356 332.326 127.336 332.248 127.347C332.171 127.358 332.101 127.399 332.054 127.462C331.226 128.399 330.186 129.126 329.021 129.582C327.855 130.038 326.598 130.21 325.353 130.083C325.308 130.073 325.261 130.073 325.216 130.084C325.171 130.094 325.129 130.115 325.093 130.144C325.057 130.173 325.028 130.209 325.007 130.251C324.987 130.293 324.977 130.339 324.977 130.385C324.977 130.431 324.987 130.477 325.007 130.519C325.028 130.56 325.057 130.597 325.093 130.626C325.129 130.655 325.171 130.676 325.216 130.686C325.261 130.697 325.308 130.697 325.353 130.687C325.778 130.74 326.206 130.764 326.635 130.76Z" fill="#263238"/>
<path d="M335.589 114.958C335.689 114.956 335.786 114.925 335.869 114.869C335.934 114.826 335.99 114.771 336.034 114.706C336.077 114.641 336.108 114.568 336.123 114.491C336.138 114.414 336.137 114.335 336.122 114.259C336.106 114.182 336.075 114.109 336.031 114.045C335.536 113.239 334.856 112.564 334.046 112.077C333.236 111.59 332.32 111.305 331.377 111.246C331.221 111.246 331.071 111.309 330.96 111.419C330.85 111.53 330.788 111.679 330.788 111.836C330.788 111.996 330.851 112.149 330.965 112.263C331.078 112.376 331.231 112.439 331.392 112.439C332.135 112.501 332.853 112.738 333.487 113.129C334.122 113.521 334.655 114.056 335.044 114.693C335.102 114.782 335.184 114.854 335.28 114.901C335.376 114.947 335.483 114.967 335.589 114.958Z" fill="#263238"/>
<path d="M314.912 112.204C315.007 112.218 315.104 112.207 315.194 112.174C315.284 112.14 315.364 112.085 315.427 112.012C315.896 111.435 316.497 110.979 317.178 110.682C317.86 110.385 318.603 110.255 319.345 110.304C319.5 110.321 319.657 110.277 319.78 110.18C319.904 110.084 319.985 109.944 320.007 109.789C320.018 109.711 320.012 109.632 319.992 109.557C319.972 109.482 319.936 109.411 319.888 109.349C319.84 109.288 319.781 109.236 319.713 109.198C319.644 109.159 319.569 109.135 319.492 109.126C318.557 109.057 317.618 109.211 316.755 109.578C315.892 109.944 315.129 110.511 314.529 111.232C314.43 111.351 314.382 111.505 314.396 111.659C314.41 111.814 314.484 111.956 314.602 112.057C314.686 112.14 314.795 112.191 314.912 112.204Z" fill="#263238"/>
<path d="M406.163 552.289L393.63 552.098L388.475 523.07L401.008 523.276L406.163 552.289Z" fill="#0052E8"/>
<path d="M392.952 550.654L406.59 550.861C406.833 550.862 407.068 550.95 407.252 551.109C407.436 551.269 407.556 551.489 407.591 551.73L409.167 562.893C409.203 563.171 409.179 563.453 409.096 563.721C409.013 563.989 408.872 564.235 408.685 564.444C408.498 564.652 408.267 564.818 408.01 564.929C407.752 565.04 407.474 565.094 407.194 565.087C402.275 564.925 400.728 564.528 394.543 564.439C387.297 564.322 390.655 564.616 382.157 564.439C377.032 564.366 376.031 559.167 378.21 558.71C385.103 557.238 386.826 554.484 389.86 551.538C390.736 550.852 391.846 550.535 392.952 550.654Z" fill="#263238"/>
<path d="M395.559 551.965C393.394 552.039 392.231 551.965 391.671 550.978C391.111 549.992 389.153 547.12 389.3 546.045C389.447 544.97 398.24 544.086 399.108 545.824C399.977 547.562 399.977 551.847 395.559 551.965Z" fill="#263238"/>
<path d="M326.546 551.965C325.191 552.039 324.47 551.965 324.146 550.978C323.473 549.401 323.008 547.742 322.761 546.045C322.865 544.955 328.387 544.086 328.903 545.824C329.418 547.562 329.3 551.847 326.546 551.965Z" fill="#263238"/>
<path opacity="0.2" d="M388.475 523.085L391.141 538.048L403.674 538.239L401.008 523.276L388.475 523.085Z" fill="black"/>
<path d="M384.734 390.405C378.843 333.734 371.922 287.313 363.056 274.736L318.741 274.029C318.741 274.029 344.587 362.924 354.543 400.39C364.852 439.344 385.191 531.376 385.191 531.376L405.368 531.656C405.368 531.656 397.017 434.676 384.734 390.405Z" fill="#0052E8"/>
<path opacity="0.4" d="M384.734 390.405C378.843 333.734 371.922 287.313 363.056 274.736L318.741 274.029C318.741 274.029 344.587 362.924 354.543 400.39C364.852 439.344 385.191 531.376 385.191 531.376L405.368 531.656C405.368 531.656 397.017 434.676 384.734 390.405Z" fill="black"/>
<path d="M382.658 526.899L384.293 535.529L406.943 535.927L407.945 527.768L382.658 526.899Z" fill="#263238"/>
<path d="M333.719 180.524C333.586 177.373 329.963 173.161 327.607 171.437C345.059 166.622 348.328 160.289 348.328 160.289C349.582 160.615 350.786 161.11 351.907 161.762C352.938 171.541 340.832 178.271 333.719 180.524Z" fill="white"/>
<path d="M323.424 171.187C319.509 173.009 316.298 176.06 314.278 179.877C307.018 166.916 317.224 159.435 317.224 159.435C318.354 159.116 319.537 159.036 320.7 159.199C318.741 163.529 320.994 169.229 323.424 171.187Z" fill="white"/>
<path d="M427.03 186.167L316.168 203.31L328.591 283.65L439.453 266.508L427.03 186.167Z" fill="#0052E8"/>
<path opacity="0.9" d="M427.03 186.167L316.168 203.31L328.591 283.65L439.453 266.508L427.03 186.167Z" fill="white"/>
<path opacity="0.2" d="M427.039 186.16L369.243 195.096L381.666 275.437L439.462 266.5L427.039 186.16Z" fill="#0052E8"/>
<path opacity="0.3" d="M346.233 258.288L332.318 260.44L334.416 274.005L348.33 271.853L346.233 258.288Z" fill="#0052E8"/>
<path opacity="0.3" d="M343.632 241.459L329.718 243.611L331.815 257.176L345.729 255.024L343.632 241.459Z" fill="#0052E8"/>
<path opacity="0.5" d="M351.903 197.789L332.283 200.823L333.33 207.591L352.949 204.557L351.903 197.789Z" fill="#0052E8"/>
<path opacity="0.5" d="M413.269 188.284L399.486 190.416L400.532 197.183L414.315 195.052L413.269 188.284Z" fill="#0052E8"/>
<path d="M367.68 165.65C376.178 169.709 384.373 174.375 392.201 179.611C396.312 182.304 400.247 185.256 403.983 188.448C406.031 190.219 407.959 192.123 409.756 194.147C410.785 195.34 411.735 196.6 412.599 197.918C413.713 199.59 414.59 201.409 415.206 203.323C415.627 204.619 415.875 205.966 415.942 207.328C415.963 207.564 415.963 207.8 415.942 208.035V208.536V209.552L415.868 211.585L415.691 213.485C415.574 214.751 415.441 216.018 415.235 217.211C415.029 218.403 414.896 219.641 414.661 220.804C413.88 225.561 412.731 230.082 411.583 234.589C409.188 243.518 406.237 252.288 402.746 260.848C402.279 262.004 401.408 262.95 400.295 263.511C399.182 264.072 397.903 264.21 396.696 263.898C395.489 263.587 394.436 262.847 393.734 261.817C393.032 260.787 392.728 259.537 392.879 258.3V258.182C393.924 249.346 395.206 240.421 396.133 231.673C396.649 227.255 397.047 222.94 397.312 218.713C397.4 217.652 397.4 216.636 397.459 215.591C397.518 214.545 397.459 213.543 397.459 212.557V211.084V209.729V209.052V208.713C397.459 208.713 397.459 208.374 397.459 208.566C397.447 208.801 397.447 209.037 397.459 209.272C397.459 209.434 397.297 209.11 396.944 208.713C396.487 208.189 395.995 207.697 395.471 207.24C394.176 205.977 392.804 204.797 391.362 203.706C388.24 201.334 384.734 199.007 381.126 196.784C373.895 192.365 366.119 188.124 358.534 184.103H358.431C356.076 182.826 354.311 180.682 353.509 178.125C352.708 175.569 352.933 172.801 354.138 170.407C355.342 168.014 357.431 166.184 359.961 165.304C362.492 164.424 365.266 164.564 367.695 165.694L367.68 165.65Z" fill="#0052E8"/>
<path d="M393.954 255.944L386.443 266.135L400.699 271.349C400.699 271.349 406.384 261.29 401.524 257.416L393.954 255.944Z" fill="#263238"/>
<path d="M388.328 279.154L393.63 280.141C394.651 280.322 395.704 280.138 396.603 279.621C397.503 279.104 398.191 278.287 398.549 277.313L400.699 271.422L386.487 266.135L384.867 273.955C384.637 275.103 384.873 276.296 385.521 277.271C386.17 278.246 387.18 278.923 388.328 279.154Z" fill="#263238"/>
<path d="M392.717 258.771C392.717 258.771 392.982 251.835 393.159 250.023C395.235 249.891 405.751 252.321 406.016 253.175C404.72 256.65 403.07 261.275 403.07 261.275L392.717 258.771Z" fill="#263238"/>
<path d="M356.752 114.104C349.639 113.308 320.42 106.195 317.71 103.382C317.518 97.9477 320.655 92.4544 322.585 91.2172C327.96 87.6827 339.786 87.5501 343.542 88.6105C347.297 89.6709 357.577 94.8991 359.285 99.9359C360.611 103.927 356.752 114.104 356.752 114.104Z" fill="#0052E8"/>
<path d="M327.253 101.689C318.284 100.289 309.757 100.908 306.738 105.444C303.365 110.51 314.47 102.985 321.097 106.225C332.187 111.674 329.551 112.528 346.355 112.116C337.71 107.727 337.651 103.309 327.253 101.689Z" fill="#0052E8"/>
<path opacity="0.6" d="M327.253 101.689C318.284 100.289 309.757 100.908 306.738 105.444C303.365 110.51 314.47 102.985 321.097 106.225C332.187 111.674 329.551 112.528 346.355 112.116C337.71 107.727 337.651 103.309 327.253 101.689Z" fill="white"/>
<path d="M347.253 122.778C347.43 122.651 347.55 122.46 347.588 122.245C347.627 122.031 347.581 121.81 347.459 121.629C347.332 121.452 347.14 121.332 346.925 121.296C346.709 121.26 346.488 121.311 346.311 121.438C343.235 123.56 340.37 125.972 337.754 128.64C334.543 125.297 325.515 121.777 320.788 121.85C317.415 121.85 315.177 121.688 312.658 124.177C310.508 126.283 312.29 137.432 313.645 140.584C314.427 142.312 315.589 143.842 317.046 145.059C318.502 146.275 320.214 147.147 322.054 147.609C327.032 148.507 337.666 149.081 338.107 141.806C338.2 140.173 338.412 138.548 338.741 136.946C339.446 137.067 340.16 137.131 340.876 137.137C343.029 137.184 345.136 136.505 346.855 135.208C346.942 135.143 347.014 135.061 347.068 134.968C347.122 134.875 347.157 134.772 347.171 134.665C347.184 134.558 347.177 134.449 347.148 134.345C347.119 134.241 347.07 134.144 347.003 134.059C346.936 133.973 346.854 133.9 346.759 133.846C346.664 133.792 346.56 133.757 346.452 133.743C346.344 133.729 346.234 133.737 346.129 133.766C346.023 133.795 345.925 133.845 345.839 133.912C344.871 134.598 343.775 135.081 342.616 135.334C341.458 135.587 340.26 135.605 339.094 135.385C339.565 133.235 339.801 131.85 338.755 130.053C341.338 127.351 344.185 124.913 347.253 122.778Z" fill="#0052E8"/>
<path opacity="0.6" d="M347.253 122.778C347.43 122.651 347.55 122.46 347.588 122.245C347.627 122.031 347.581 121.81 347.459 121.629C347.332 121.452 347.14 121.332 346.925 121.296C346.709 121.26 346.488 121.311 346.311 121.438C343.235 123.56 340.37 125.972 337.754 128.64C334.543 125.297 325.515 121.777 320.788 121.85C317.415 121.85 315.177 121.688 312.658 124.177C310.508 126.283 312.29 137.432 313.645 140.584C314.427 142.312 315.589 143.842 317.046 145.059C318.502 146.275 320.214 147.147 322.054 147.609C327.032 148.507 337.666 149.081 338.107 141.806C338.2 140.173 338.412 138.548 338.741 136.946C339.446 137.067 340.16 137.131 340.876 137.137C343.029 137.184 345.136 136.505 346.855 135.208C346.942 135.143 347.014 135.061 347.068 134.968C347.122 134.875 347.157 134.772 347.171 134.665C347.184 134.558 347.177 134.449 347.148 134.345C347.119 134.241 347.07 134.144 347.003 134.059C346.936 133.973 346.854 133.9 346.759 133.846C346.664 133.792 346.56 133.757 346.452 133.743C346.344 133.729 346.234 133.737 346.129 133.766C346.023 133.795 345.925 133.845 345.839 133.912C344.871 134.598 343.775 135.081 342.616 135.334C341.458 135.587 340.26 135.605 339.094 135.385C339.565 133.235 339.801 131.85 338.755 130.053C341.338 127.351 344.185 124.913 347.253 122.778Z" fill="white"/>
</svg>
