<svg width="695" height="513" viewBox="0 0 695 513" fill="none" xmlns="http://www.w3.org/2000/svg">
<path d="M625.361 477.451H579.324V477.799H625.361V477.451Z" fill="#EBEBEB"/>
<path d="M460.396 481.232H448.317V481.579H460.396V481.232Z" fill="#EBEBEB"/>
<path d="M577.934 464.552H551.26V464.9H577.934V464.552Z" fill="#EBEBEB"/>
<path d="M132.954 466.887H72.9194V467.235H132.954V466.887Z" fill="#EBEBEB"/>
<path d="M154.137 466.887H145.338V467.235H154.137V466.887Z" fill="#EBEBEB"/>
<path d="M312.958 472.753H182.743V473.1H312.958V472.753Z" fill="#EBEBEB"/>
<path d="M329.43 393.092H61.0488C58.9438 393.092 56.925 392.256 55.4366 390.767C53.9481 389.279 53.1119 387.26 53.1119 385.155V7.8674C53.1302 5.77447 53.9745 3.7735 55.461 2.30004C56.9475 0.826581 58.9558 -8.02391e-05 61.0488 5.84154e-09H329.43C331.535 5.84156e-09 333.554 0.836207 335.042 2.32466C336.531 3.81312 337.367 5.8319 337.367 7.9369V385.155C337.367 387.26 336.531 389.279 335.042 390.767C333.554 392.256 331.535 393.092 329.43 393.092ZM61.0488 0.278001C59.0371 0.281675 57.1089 1.08245 55.6864 2.50494C54.2639 3.92743 53.4631 5.85569 53.4594 7.8674V385.155C53.4631 387.167 54.2639 389.095 55.6864 390.518C57.1089 391.94 59.0371 392.741 61.0488 392.745H329.43C331.442 392.741 333.37 391.94 334.792 390.518C336.215 389.095 337.016 387.167 337.019 385.155V7.8674C337.016 5.85569 336.215 3.92743 334.792 2.50494C333.37 1.08245 331.442 0.281675 329.43 0.278001H61.0488Z" fill="#EBEBEB"/>
<path d="M630.101 393.092H361.692C359.588 393.088 357.571 392.251 356.084 390.763C354.596 389.276 353.759 387.259 353.755 385.155V7.8674C353.777 5.77561 354.622 3.77674 356.108 2.30405C357.594 0.831371 359.6 0.00354212 361.692 0H630.101C632.189 0.00723425 634.19 0.837126 635.671 2.3098C637.151 3.78248 637.992 5.77928 638.01 7.8674V385.155C638.01 387.255 637.178 389.27 635.695 390.758C634.213 392.245 632.201 393.085 630.101 393.092ZM361.692 0.278001C359.68 0.281675 357.752 1.08245 356.329 2.50494C354.907 3.92743 354.106 5.85569 354.103 7.8674V385.155C354.106 387.167 354.907 389.095 356.329 390.518C357.752 391.94 359.68 392.741 361.692 392.745H630.101C632.113 392.741 634.041 391.94 635.463 390.518C636.886 389.095 637.687 387.167 637.69 385.155V7.8674C637.687 5.85569 636.886 3.92743 635.463 2.50494C634.041 1.08245 632.113 0.281675 630.101 0.278001H361.692Z" fill="#EBEBEB"/>
<path d="M695 455.086H-3.8147e-06V455.434H695V455.086Z" fill="#EBEBEB"/>
<path d="M299.211 64.8714C298.389 64.8695 297.575 65.0301 296.816 65.3438C296.056 65.6575 295.366 66.1181 294.784 66.6993C294.203 67.2805 293.743 67.9708 293.429 68.7305C293.115 69.4902 292.955 70.3044 292.956 71.1264V82.0101H305.466V71.1264C305.468 70.3044 305.308 69.4902 304.994 68.7305C304.68 67.9708 304.22 67.2805 303.638 66.6993C303.057 66.1181 302.367 65.6575 301.607 65.3438C300.848 65.0301 300.033 64.8695 299.211 64.8714ZM299.211 74.0176C298.821 74.0176 298.439 73.9018 298.115 73.6849C297.79 73.468 297.537 73.1598 297.388 72.7991C297.238 72.4384 297.199 72.0416 297.276 71.6587C297.352 71.2758 297.54 70.9241 297.816 70.6481C298.092 70.372 298.443 70.184 298.826 70.1079C299.209 70.0317 299.606 70.0708 299.967 70.2202C300.327 70.3696 300.636 70.6226 300.853 70.9472C301.069 71.2718 301.185 71.6534 301.185 72.0438C301.185 72.5672 300.977 73.0693 300.607 73.4394C300.237 73.8096 299.735 74.0176 299.211 74.0176Z" fill="#E0E0E0"/>
<path d="M556.361 64.8714C555.54 64.8695 554.725 65.0301 553.966 65.3438C553.206 65.6575 552.516 66.1181 551.934 66.6993C551.353 67.2805 550.893 67.9708 550.579 68.7305C550.265 69.4902 550.105 70.3044 550.106 71.1264V82.0101H562.616V71.1264C562.618 70.3044 562.458 69.4902 562.144 68.7305C561.83 67.9708 561.37 67.2805 560.788 66.6993C560.207 66.1181 559.517 65.6575 558.757 65.3438C557.998 65.0301 557.183 64.8695 556.361 64.8714ZM556.361 74.0176C555.971 74.0176 555.589 73.9018 555.265 73.6849C554.94 73.468 554.687 73.1598 554.538 72.7991C554.388 72.4384 554.349 72.0416 554.426 71.6587C554.502 71.2758 554.69 70.9241 554.966 70.6481C555.242 70.372 555.593 70.184 555.976 70.1079C556.359 70.0317 556.756 70.0708 557.117 70.2202C557.477 70.3696 557.786 70.6226 558.003 70.9472C558.219 71.2718 558.335 71.6534 558.335 72.0438C558.335 72.303 558.284 72.5596 558.185 72.7991C558.086 73.0386 557.94 73.2562 557.757 73.4394C557.574 73.6227 557.356 73.7681 557.117 73.8673C556.877 73.9665 556.621 74.0176 556.361 74.0176Z" fill="#E0E0E0"/>
<path d="M591.751 77.8401H263.808V265.921H591.751V77.8401Z" fill="#EBEBEB"/>
<path d="M582.716 86.875H272.843V256.886H582.716V86.875Z" fill="#F5F5F5"/>
<path d="M597.839 259.541H257.748V273.83H597.839V259.541Z" fill="#F0F0F0"/>
<path d="M368.35 116.76H309.97V214.06H545.575V116.76H368.35ZM499.886 164.715H456.976V150.12H499.9L499.886 164.715ZM499.886 180.7H456.976V166.105H499.9L499.886 180.7ZM499.886 196.685H456.976V182.09H499.9L499.886 196.685ZM327.359 182.09H366.96V196.685H327.345L327.359 182.09ZM327.359 166.105H366.96V180.7H327.345L327.359 166.105ZM327.359 150.12H366.96V164.715H327.345L327.359 150.12ZM327.359 134.135H366.96V148.73H327.345L327.359 134.135ZM455.586 164.715H412.677V150.12H455.586V164.715ZM455.586 180.7H412.677V166.105H455.586V180.7ZM368.35 166.105H411.273V180.7H368.35V166.105ZM411.273 164.715H368.35V150.12H411.273V164.715ZM368.35 182.09H411.273V196.685H368.35V182.09ZM412.663 182.09H455.573V196.685H412.677L412.663 182.09ZM455.573 148.73H368.35V134.135H455.573V148.73ZM311.36 118.15H366.96V132.745H311.36V118.15ZM311.36 134.135H325.955V148.73H311.36V134.135ZM311.36 150.12H325.955V164.715H311.36V150.12ZM311.36 166.105H325.955V180.7H311.36V166.105ZM311.36 182.09H325.955V196.685H311.36V182.09ZM325.955 212.67H311.36V198.075H325.955V212.67ZM366.96 212.67H327.345V198.075H366.96V212.67ZM411.273 212.67H368.35V198.075H411.273V212.67ZM455.573 212.67H412.677V198.075H455.586L455.573 212.67ZM499.886 212.67H456.976V198.075H499.9L499.886 212.67ZM544.185 212.67H501.29V198.075H544.199L544.185 212.67ZM544.185 196.685H501.29V182.09H544.199L544.185 196.685ZM544.185 180.7H501.29V166.105H544.199L544.185 180.7ZM544.185 164.715H501.29V150.12H544.199L544.185 164.715ZM544.185 148.73H456.976V134.135H544.199L544.185 148.73ZM456.963 132.745H368.35V118.15H544.185V132.745H456.963Z" fill="#E0E0E0"/>
<path d="M125.086 192.988H93.8111V455.67H125.086V192.988Z" fill="#E0E0E0"/>
<path d="M209.459 192.988H121.667V455.67H209.459V192.988Z" fill="#EBEBEB"/>
<path d="M200.521 201.925H130.618V271.828H200.521V201.925Z" fill="#FAFAFA"/>
<path d="M184.481 243.055H146.659C146.406 243.057 146.155 243.009 145.921 242.913C145.686 242.818 145.473 242.677 145.294 242.499C145.114 242.32 144.971 242.108 144.874 241.875C144.777 241.641 144.727 241.39 144.727 241.137C144.727 240.884 144.777 240.634 144.874 240.4C144.971 240.166 145.114 239.954 145.294 239.776C145.473 239.598 145.686 239.457 145.921 239.361C146.155 239.265 146.406 239.217 146.659 239.219H184.481C184.99 239.219 185.477 239.421 185.837 239.781C186.197 240.141 186.399 240.628 186.399 241.137C186.399 241.646 186.197 242.134 185.837 242.494C185.477 242.853 184.99 243.055 184.481 243.055Z" fill="#E0E0E0"/>
<path d="M184.481 250.742H146.659C146.146 250.742 145.655 250.539 145.293 250.176C144.93 249.814 144.727 249.323 144.727 248.81C144.727 248.557 144.777 248.307 144.874 248.073C144.971 247.839 145.114 247.627 145.294 247.449C145.473 247.271 145.686 247.13 145.921 247.034C146.155 246.938 146.406 246.89 146.659 246.892H184.481C184.99 246.892 185.477 247.094 185.837 247.454C186.197 247.814 186.399 248.301 186.399 248.81C186.401 249.063 186.353 249.314 186.257 249.549C186.161 249.783 186.02 249.996 185.842 250.176C185.664 250.355 185.452 250.498 185.218 250.595C184.984 250.692 184.734 250.742 184.481 250.742Z" fill="#E0E0E0"/>
<path d="M184.481 258.415H146.659C146.406 258.417 146.155 258.369 145.921 258.273C145.686 258.177 145.473 258.036 145.294 257.858C145.114 257.68 144.971 257.468 144.874 257.234C144.777 257 144.727 256.75 144.727 256.497C144.727 256.244 144.777 255.993 144.874 255.759C144.971 255.526 145.114 255.314 145.294 255.135C145.473 254.957 145.686 254.816 145.921 254.721C146.155 254.625 146.406 254.577 146.659 254.579H184.481C184.99 254.579 185.477 254.781 185.837 255.14C186.197 255.5 186.399 255.988 186.399 256.497C186.399 257.005 186.197 257.493 185.837 257.853C185.477 258.213 184.99 258.415 184.481 258.415Z" fill="#E0E0E0"/>
<path d="M173.013 228.877H158.113L154.193 224.944V216.548L158.113 212.615H173.013L176.947 216.548V224.944L173.013 228.877Z" fill="#EBEBEB"/>
<path d="M200.521 278.528H130.618V348.431H200.521V278.528Z" fill="#FAFAFA"/>
<path d="M184.481 319.7H146.659C146.406 319.702 146.155 319.654 145.921 319.558C145.686 319.462 145.473 319.321 145.294 319.143C145.114 318.965 144.971 318.753 144.874 318.519C144.777 318.285 144.727 318.035 144.727 317.782C144.727 317.529 144.777 317.278 144.874 317.044C144.971 316.811 145.114 316.599 145.294 316.42C145.473 316.242 145.686 316.101 145.921 316.006C146.155 315.91 146.406 315.862 146.659 315.864H184.481C184.99 315.864 185.477 316.066 185.837 316.425C186.197 316.785 186.399 317.273 186.399 317.782C186.399 318.291 186.197 318.778 185.837 319.138C185.477 319.498 184.99 319.7 184.481 319.7Z" fill="#E0E0E0"/>
<path d="M184.481 327.331H146.659C146.406 327.333 146.155 327.285 145.921 327.189C145.686 327.094 145.473 326.953 145.294 326.774C145.114 326.596 144.971 326.384 144.874 326.15C144.777 325.917 144.727 325.666 144.727 325.413C144.727 325.16 144.777 324.909 144.874 324.676C144.971 324.442 145.114 324.23 145.294 324.052C145.473 323.873 145.686 323.732 145.921 323.637C146.155 323.541 146.406 323.493 146.659 323.495H184.481C184.99 323.495 185.477 323.697 185.837 324.057C186.197 324.416 186.399 324.904 186.399 325.413C186.399 325.922 186.197 326.41 185.837 326.769C185.477 327.129 184.99 327.331 184.481 327.331Z" fill="#E0E0E0"/>
<path d="M184.481 334.99H146.659C146.406 334.992 146.155 334.944 145.921 334.848C145.686 334.753 145.473 334.612 145.294 334.433C145.114 334.255 144.971 334.043 144.874 333.809C144.777 333.576 144.727 333.325 144.727 333.072C144.727 332.819 144.777 332.568 144.874 332.335C144.971 332.101 145.114 331.889 145.294 331.711C145.473 331.532 145.686 331.391 145.921 331.296C146.155 331.2 146.406 331.152 146.659 331.154H184.481C184.99 331.154 185.477 331.356 185.837 331.716C186.197 332.075 186.399 332.563 186.399 333.072C186.399 333.581 186.197 334.069 185.837 334.428C185.477 334.788 184.99 334.99 184.481 334.99Z" fill="#E0E0E0"/>
<path d="M173.013 305.466H158.113L154.193 301.533V293.151L158.113 289.217H173.013L176.947 293.151V301.533L173.013 305.466Z" fill="#EBEBEB"/>
<path d="M200.521 355.117H130.618V425.021H200.521V355.117Z" fill="#FAFAFA"/>
<path d="M184.481 396.247H146.659C146.406 396.249 146.155 396.201 145.921 396.105C145.686 396.01 145.473 395.869 145.294 395.69C145.114 395.512 144.971 395.3 144.874 395.066C144.777 394.833 144.727 394.582 144.727 394.329C144.727 394.076 144.777 393.825 144.874 393.592C144.971 393.358 145.114 393.146 145.294 392.968C145.473 392.79 145.686 392.649 145.921 392.553C146.155 392.457 146.406 392.409 146.659 392.411H184.481C184.99 392.411 185.477 392.613 185.837 392.973C186.197 393.333 186.399 393.82 186.399 394.329C186.399 394.838 186.197 395.326 185.837 395.686C185.477 396.045 184.99 396.247 184.481 396.247Z" fill="#E0E0E0"/>
<path d="M184.481 403.934H146.659C146.406 403.936 146.155 403.888 145.921 403.792C145.686 403.696 145.473 403.555 145.294 403.377C145.114 403.199 144.971 402.987 144.874 402.753C144.777 402.52 144.727 402.269 144.727 402.016C144.727 401.503 144.93 401.012 145.293 400.65C145.655 400.287 146.146 400.084 146.659 400.084H184.481C184.734 400.084 184.984 400.134 185.218 400.231C185.452 400.328 185.664 400.471 185.842 400.651C186.02 400.83 186.161 401.043 186.257 401.278C186.353 401.512 186.401 401.763 186.399 402.016C186.399 402.525 186.197 403.012 185.837 403.372C185.477 403.732 184.99 403.934 184.481 403.934Z" fill="#E0E0E0"/>
<path d="M184.481 411.607H146.659C146.406 411.609 146.155 411.561 145.921 411.465C145.686 411.369 145.473 411.228 145.294 411.05C145.114 410.872 144.971 410.66 144.874 410.426C144.777 410.192 144.727 409.942 144.727 409.689C144.727 409.436 144.777 409.185 144.874 408.951C144.971 408.718 145.114 408.506 145.294 408.327C145.473 408.149 145.686 408.008 145.921 407.913C146.155 407.817 146.406 407.769 146.659 407.771H184.481C184.99 407.771 185.477 407.973 185.837 408.332C186.197 408.692 186.399 409.18 186.399 409.689C186.399 410.198 186.197 410.685 185.837 411.045C185.477 411.405 184.99 411.607 184.481 411.607Z" fill="#E0E0E0"/>
<path d="M173.013 382.069H158.113L154.193 378.136V369.74L158.113 365.807H173.013L176.947 369.74V378.136L173.013 382.069Z" fill="#EBEBEB"/>
<path d="M340.8 512.507C489.645 512.507 610.307 505.462 610.307 496.772C610.307 488.082 489.645 481.037 340.8 481.037C191.956 481.037 71.2931 488.082 71.2931 496.772C71.2931 505.462 191.956 512.507 340.8 512.507Z" fill="#F5F5F5"/>
<path d="M164.854 495.98L129.826 483.081L94.4088 495.994C94.1253 496.096 93.8212 496.129 93.5223 496.09C93.2234 496.05 92.9384 495.939 92.6916 495.766C92.4447 495.592 92.2433 495.362 92.1042 495.095C91.9652 494.827 91.8927 494.53 91.8929 494.228C91.8922 493.872 91.994 493.522 92.1862 493.221C92.3784 492.921 92.6529 492.682 92.9771 492.533L129.826 475.38L166.3 492.477C166.623 492.627 166.896 492.867 167.088 493.167C167.28 493.468 167.383 493.816 167.384 494.173C167.392 494.48 167.324 494.784 167.187 495.058C167.05 495.333 166.848 495.57 166.599 495.748C166.349 495.926 166.059 496.041 165.755 496.081C165.451 496.122 165.142 496.087 164.854 495.98Z" fill="#263238"/>
<path opacity="0.3" d="M164.854 495.98L129.826 483.081L94.4088 495.994C94.1253 496.096 93.8212 496.129 93.5223 496.09C93.2234 496.05 92.9384 495.939 92.6916 495.766C92.4447 495.592 92.2433 495.362 92.1042 495.095C91.9652 494.827 91.8927 494.53 91.8929 494.228C91.8922 493.872 91.994 493.522 92.1862 493.221C92.3784 492.921 92.6529 492.682 92.9771 492.533L129.826 475.38L166.3 492.477C166.623 492.627 166.896 492.867 167.088 493.167C167.28 493.468 167.383 493.816 167.384 494.173C167.392 494.48 167.324 494.784 167.187 495.058C167.05 495.333 166.848 495.57 166.599 495.748C166.349 495.926 166.059 496.041 165.755 496.081C165.451 496.122 165.142 496.087 164.854 495.98Z" fill="white"/>
<path opacity="0.2" d="M121.569 486.083L129.826 483.081L137.693 485.986V479.119L129.826 475.436L121.569 479.258V486.083Z" fill="black"/>
<path d="M129.631 496.23C128.856 496.238 128.106 495.958 127.526 495.445C126.945 494.931 126.576 494.22 126.49 493.45L125.503 483.067V396.887H133.718V483.067L132.731 493.45C132.649 494.214 132.287 494.921 131.714 495.434C131.142 495.947 130.4 496.231 129.631 496.23Z" fill="#263238"/>
<path opacity="0.3" d="M129.631 496.23C128.856 496.238 128.106 495.958 127.526 495.445C126.945 494.931 126.576 494.22 126.49 493.45L125.503 483.067V396.887H133.718V483.067L132.731 493.45C132.649 494.214 132.287 494.921 131.714 495.434C131.142 495.947 130.4 496.231 129.631 496.23Z" fill="white"/>
<path opacity="0.2" d="M133.718 396.873H125.545V406.908H133.718V396.873Z" fill="black"/>
<path d="M111.311 308.066C111.945 308.049 112.571 308.208 113.12 308.525C113.669 308.841 114.121 309.303 114.425 309.859C129.382 334.917 134.754 364.545 129.548 393.259C129.469 393.984 129.132 394.656 128.599 395.153C128.066 395.651 127.372 395.94 126.643 395.969C124.377 396.136 84.0394 395.969 82.5799 395.969C81.9823 395.984 81.389 395.866 80.8422 395.624C80.2955 395.383 79.8088 395.023 79.4171 394.572C79.0254 394.12 78.7382 393.588 78.5761 393.012C78.414 392.437 78.381 391.833 78.4794 391.243C83.1903 364.508 78.0916 336.971 64.1207 313.695C63.7977 313.117 63.6341 312.463 63.6469 311.8C63.6596 311.138 63.8481 310.491 64.1932 309.925C64.5382 309.359 65.0274 308.896 65.6106 308.581C66.1938 308.267 66.8501 308.113 67.5123 308.135C68.6799 308.038 108.74 308.107 111.311 308.066Z" fill="#0052E8"/>
<path opacity="0.2" d="M111.311 308.066C111.945 308.049 112.571 308.208 113.12 308.525C113.669 308.841 114.121 309.303 114.425 309.859C129.382 334.917 134.754 364.545 129.548 393.259C129.469 393.984 129.132 394.656 128.599 395.153C128.066 395.651 127.372 395.94 126.643 395.969C124.377 396.136 84.0394 395.969 82.5799 395.969C81.9823 395.984 81.389 395.866 80.8422 395.624C80.2955 395.383 79.8088 395.023 79.4171 394.572C79.0254 394.12 78.7382 393.588 78.5761 393.012C78.414 392.437 78.381 391.833 78.4794 391.243C83.1903 364.508 78.0916 336.971 64.1207 313.695C63.7977 313.117 63.6341 312.463 63.6469 311.8C63.6596 311.138 63.8481 310.491 64.1932 309.925C64.5382 309.359 65.0274 308.896 65.6106 308.581C66.1938 308.267 66.8501 308.113 67.5123 308.135C68.6799 308.038 108.74 308.107 111.311 308.066Z" fill="black"/>
<path d="M78.4794 391.215C83.1903 364.48 78.0916 336.943 64.1207 313.667C61.6187 309.497 68.1378 305.703 70.6398 309.859C85.5893 334.919 90.9614 364.545 85.763 393.259C84.9012 398.026 77.6176 396.039 78.4794 391.257V391.215Z" fill="#0052E8"/>
<g opacity="0.1">
<path opacity="0.1" d="M78.4794 391.215C83.1903 364.48 78.0916 336.943 64.1207 313.667C61.6187 309.497 68.1378 305.703 70.6398 309.859C85.5893 334.919 90.9614 364.545 85.763 393.259C84.9012 398.026 77.6176 396.039 78.4794 391.257V391.215Z" fill="white"/>
</g>
<path d="M204.33 389.033C195.082 386.679 185.598 385.373 176.057 385.141C166.23 384.891 129.492 385.141 120.763 385.141C110.122 385.126 99.5217 386.448 89.2102 389.075C82.7328 390.729 84.7205 400.07 90.6002 400.195C91.1145 400.195 202.217 400.195 202.62 400.195C208.639 400.417 210.877 390.715 204.33 389.033Z" fill="#0052E8"/>
<path opacity="0.3" d="M204.33 389.033C195.082 386.679 185.598 385.373 176.057 385.141C166.23 384.891 129.492 385.141 120.763 385.141C110.122 385.126 99.5217 386.448 89.2102 389.075C82.7328 390.729 84.7205 400.07 90.6002 400.195C91.1145 400.195 202.217 400.195 202.62 400.195C208.639 400.417 210.877 390.715 204.33 389.033Z" fill="black"/>
<path d="M92.1431 399.945C110.874 395.177 130.5 395.177 149.23 399.945C156.292 401.738 159.308 390.826 152.247 389.033C131.539 383.779 109.848 383.779 89.1407 389.033C82.0795 390.826 85.068 401.738 92.1431 399.945Z" fill="#0052E8"/>
<g opacity="0.3">
<path opacity="0.3" d="M92.1431 399.945C110.874 395.177 130.5 395.177 149.23 399.945C156.292 401.738 159.308 390.826 152.247 389.033C131.539 383.779 109.848 383.779 89.1407 389.033C82.0795 390.826 85.068 401.738 92.1431 399.945Z" fill="white"/>
</g>
<path d="M194.405 329.958L207.18 329.416L211.002 326.97C211.448 326.681 211.948 326.487 212.472 326.401C212.996 326.315 213.532 326.338 214.046 326.469L216.826 327.15C217.528 327.326 218.265 327.304 218.954 327.085C219.644 326.867 220.259 326.461 220.732 325.913C221.112 325.471 221.388 324.95 221.54 324.388C221.692 323.825 221.716 323.236 221.611 322.663C221.505 322.089 221.273 321.547 220.931 321.075C220.589 320.604 220.146 320.215 219.634 319.936L215.464 317.685C214.814 317.33 214.075 317.169 213.336 317.221C212.597 317.272 211.889 317.535 211.294 317.976L204.566 322.953L194.433 322.244L194.405 329.958Z" fill="#EBB376"/>
<path d="M180.575 280.446L176.155 319.366L201.022 321.146L199.924 330.083C199.924 330.083 174.779 334.476 165.563 331.96C156.347 329.444 168.621 287.327 168.621 287.327L180.575 280.446Z" fill="#0052E8"/>
<path opacity="0.2" d="M180.575 280.446L176.155 319.366L201.022 321.146L199.924 330.083C199.924 330.083 174.779 334.476 165.563 331.96C156.347 329.444 168.621 287.327 168.621 287.327L180.575 280.446Z" fill="white"/>
<path opacity="0.1" d="M172.596 328.457C166.105 325.079 174.82 292.678 177.892 282.003L168.621 287.355C168.621 287.355 156.347 329.472 165.563 331.988C171.234 333.531 182.91 332.474 191.069 331.418C185.509 331.418 177.378 330.945 172.596 328.457Z" fill="black"/>
<path d="M158.571 356.507C140.211 359.931 121.488 360.987 102.86 359.649C102.86 359.649 107.141 309.817 122.32 282.545C124.735 278.213 128.712 274.967 133.44 273.469C144.338 270.077 161.865 267.033 180.519 280.419C180.575 280.446 171.137 298.044 158.571 356.507Z" fill="#0052E8"/>
<path opacity="0.4" d="M158.571 356.507C140.211 359.931 121.488 360.987 102.86 359.649C102.86 359.649 107.141 309.817 122.32 282.545C124.735 278.213 128.712 274.967 133.44 273.469C144.338 270.077 161.865 267.033 180.519 280.419C180.575 280.446 171.137 298.044 158.571 356.507Z" fill="white"/>
<path d="M167.634 292.859C167.634 293.156 167.546 293.446 167.381 293.693C167.216 293.94 166.982 294.132 166.707 294.246C166.433 294.36 166.131 294.389 165.84 294.331C165.549 294.274 165.281 294.131 165.071 293.921C164.861 293.711 164.718 293.443 164.66 293.152C164.603 292.861 164.632 292.559 164.746 292.285C164.859 292.01 165.052 291.776 165.299 291.611C165.546 291.446 165.836 291.358 166.133 291.358C166.531 291.358 166.913 291.516 167.194 291.798C167.476 292.079 167.634 292.461 167.634 292.859Z" fill="#0052E8"/>
<path d="M162.352 308.163C162.352 308.46 162.264 308.75 162.099 308.997C161.934 309.244 161.7 309.436 161.425 309.55C161.151 309.663 160.849 309.693 160.558 309.635C160.267 309.577 159.999 309.434 159.789 309.224C159.579 309.015 159.436 308.747 159.378 308.456C159.321 308.165 159.35 307.863 159.464 307.588C159.578 307.314 159.77 307.08 160.017 306.915C160.264 306.75 160.554 306.662 160.851 306.662C161.249 306.662 161.631 306.82 161.912 307.101C162.194 307.383 162.352 307.765 162.352 308.163Z" fill="#0052E8"/>
<path d="M156.055 329.958C156.884 329.958 157.557 329.286 157.557 328.457C157.557 327.628 156.884 326.956 156.055 326.956C155.226 326.956 154.554 327.628 154.554 328.457C154.554 329.286 155.226 329.958 156.055 329.958Z" fill="#0052E8"/>
<path d="M153.609 345.346C153.612 345.643 153.526 345.935 153.363 346.183C153.199 346.432 152.966 346.627 152.692 346.742C152.418 346.858 152.116 346.89 151.823 346.833C151.531 346.777 151.263 346.635 151.051 346.426C150.84 346.217 150.696 345.949 150.636 345.657C150.577 345.366 150.606 345.063 150.719 344.788C150.833 344.513 151.025 344.278 151.272 344.112C151.519 343.947 151.81 343.858 152.108 343.858C152.503 343.858 152.883 344.015 153.164 344.293C153.445 344.572 153.605 344.95 153.609 345.346Z" fill="#0052E8"/>
<path opacity="0.1" d="M169.483 312.125L150.606 316.378L135.734 312.291L129.868 295.528L128.603 286.104H124.433C124.433 286.104 120.443 316.128 134.065 328.457C142.558 336.144 156.431 331.14 165.66 326.275C167.004 321.048 168.278 316.332 169.483 312.125Z" fill="black"/>
<path d="M181.701 447.135L175.154 475.644L183.285 478.799L194.989 450.124L181.701 447.135Z" fill="#EBB376"/>
<path d="M182.813 476.923L175.432 472.975C175.275 472.894 175.095 472.868 174.921 472.901C174.747 472.933 174.59 473.023 174.473 473.156L169.205 479.258C169.091 479.384 169.004 479.532 168.948 479.692C168.892 479.853 168.868 480.022 168.878 480.192C168.889 480.361 168.933 480.527 169.008 480.68C169.083 480.832 169.188 480.968 169.316 481.079C169.383 481.143 169.458 481.199 169.538 481.246C172.638 482.844 175.46 484.151 179.268 486.208C183.786 488.641 182.34 488.557 187.608 491.49C190.778 493.255 193.321 489.933 192.056 489.03C186.288 484.86 185.509 482.08 184.314 478.549C184.023 477.846 183.491 477.269 182.813 476.923Z" fill="#263238"/>
<path d="M115.829 358.703L155.68 356.507C155.68 356.507 221.997 366.876 221.01 385.419C220.023 403.962 193.21 462.425 193.21 462.425L177.392 458.033C177.392 458.033 189.443 399.25 197.297 389.506C197.297 389.506 147.771 383.695 135.372 380.401C128.492 378.58 112.048 381.652 115.829 358.703Z" fill="#263238"/>
<path opacity="0.2" d="M190.527 388.699C190.768 383.203 189.725 377.725 187.483 372.701C183.8 364.361 153.442 359.37 138.917 357.411L115.829 358.675C112.048 381.624 128.492 378.552 135.289 380.373C144.88 382.945 176.53 386.99 190.527 388.699Z" fill="black"/>
<path d="M154.582 454.989L153.539 484.22L162.338 484.637L168.19 455.406L154.582 454.989Z" fill="#EBB376"/>
<path d="M161.713 481.982L153.178 482.163C152.998 482.164 152.823 482.228 152.686 482.345C152.548 482.462 152.457 482.624 152.427 482.802L150.787 490.836C150.731 491.178 150.803 491.528 150.991 491.818C151.179 492.108 151.468 492.318 151.802 492.407H152.08C155.638 492.282 158.78 492.032 163.2 491.948C168.426 491.851 167.106 492.504 173.25 492.477C176.947 492.477 177.545 488.307 176.03 488.07C168.843 487.306 166.73 485.151 163.923 482.635C163.293 482.149 162.505 481.916 161.713 481.982Z" fill="#263238"/>
<path d="M126.49 358.703C126.49 358.703 179.922 360.594 183.077 376.94C186.232 393.286 168.301 466.512 168.301 466.512H152.288C152.288 466.512 154.165 400.82 159.516 386.99C159.516 386.99 115.509 393.94 103.916 383.918C95.5764 376.787 105.487 358.703 105.487 358.703H126.49Z" fill="#263238"/>
<path d="M176.057 454.572L195.976 460.118L192.334 467.777L174.181 463.273L176.057 454.572Z" fill="#263238"/>
<path opacity="0.3" d="M176.057 454.572L195.976 460.118L192.334 467.777L174.181 463.273L176.057 454.572Z" fill="black"/>
<path d="M175.14 306.634L191.056 301.394L201.244 305.953C201.722 306.163 202.142 306.487 202.466 306.897C202.791 307.306 203.011 307.788 203.107 308.302L204.177 314.098C204.265 314.562 204.249 315.04 204.132 315.497C204.014 315.955 203.796 316.381 203.495 316.744C203.194 317.108 202.816 317.401 202.388 317.602C201.961 317.803 201.494 317.907 201.022 317.907C200.272 317.905 199.545 317.645 198.965 317.17L190.013 309.775L176.113 315.335L175.14 306.634Z" fill="#EBB376"/>
<path d="M150.704 462.425L170.831 463.37L168.941 471.391L150.704 470.445V462.425Z" fill="#263238"/>
<path opacity="0.3" d="M150.704 462.425L170.831 463.37L168.941 471.391L150.704 470.445V462.425Z" fill="black"/>
<path d="M125.461 280.446C128.561 275.804 133.496 270.953 145.992 311.874L183.48 302.659L184.578 312.875C184.578 312.875 153.998 329.263 141.724 326.97C129.451 324.676 116.941 293.207 125.461 280.446Z" fill="#0052E8"/>
<path opacity="0.2" d="M125.461 280.446C128.561 275.804 133.496 270.953 145.992 311.874L183.48 302.659L184.578 312.875C184.578 312.875 153.998 329.263 141.724 326.97C129.451 324.676 116.941 293.207 125.461 280.446Z" fill="white"/>
<path d="M164.645 266.199L157.543 272.857C157.543 272.857 160.323 281.489 167.398 281.489C174.473 281.489 170.178 270.563 170.178 270.563L164.645 266.199Z" fill="#EBB376"/>
<path d="M168.398 286.493L171.846 284.686L173.305 282.49L172.694 275.679C166.998 272.814 160.789 271.113 154.429 270.675L154.165 273.844L158.015 284.964L162.505 286.451L168.398 286.493Z" fill="#EBB376"/>
<path opacity="0.1" d="M170.192 270.563L164.632 266.199L163.686 267.075C163.144 270.327 162.519 277.083 166.119 279.737C166.675 280.19 167.331 280.502 168.033 280.647C168.734 280.792 169.46 280.766 170.15 280.571C173.097 278 170.192 270.563 170.192 270.563Z" fill="black"/>
<path d="M166.425 287.355L171.762 290.135C175.515 285.673 174.542 279.418 173.722 276.151C173.097 275.818 172.471 275.498 171.846 275.206C172.555 280.141 171.985 285.562 166.105 285.728C156.889 286.006 155.513 274.219 155.305 270.689L153.317 270.563C150.398 283.616 158.571 290.135 158.571 290.135L166.425 287.355Z" fill="#0052E8"/>
<path opacity="0.2" d="M166.425 287.355L171.762 290.135C175.515 285.673 174.542 279.418 173.722 276.151C173.097 275.818 172.471 275.498 171.846 275.206C172.555 280.141 171.985 285.562 166.105 285.728C156.889 286.006 155.513 274.219 155.305 270.689L153.317 270.563C150.398 283.616 158.571 290.135 158.571 290.135L166.425 287.355Z" fill="white"/>
<path d="M189.221 249.686C194.308 252.98 192.807 261.237 187.497 264.628C185.996 255.176 189.221 249.686 189.221 249.686Z" fill="#263238"/>
<path opacity="0.4" d="M189.221 249.686C194.308 252.98 192.807 261.237 187.497 264.628C185.996 255.176 189.221 249.686 189.221 249.686Z" fill="black"/>
<path d="M165.924 255.12C164.02 263.822 162.449 268.798 165.466 274.58C166.863 277.316 169.288 279.386 172.21 280.334C175.131 281.283 178.31 281.033 181.048 279.64C183.14 278.565 184.859 276.884 185.982 274.817C189.985 267.742 192.432 254.703 185.134 248.643C183.59 247.285 181.716 246.358 179.7 245.954C177.684 245.551 175.597 245.685 173.65 246.345C171.702 247.004 169.963 248.165 168.606 249.711C167.25 251.256 166.325 253.132 165.924 255.148V255.12Z" fill="#EBB376"/>
<path d="M165.007 263.238C169.663 265.629 172.652 257.47 171.957 253.508C178.003 257.678 191.598 257.039 195.587 251.52C199.938 245.474 193.405 240.4 187.497 238.524C187.11 238.422 186.706 238.401 186.311 238.463C185.916 238.525 185.538 238.668 185.201 238.883C184.863 239.099 184.575 239.382 184.353 239.715C184.131 240.048 183.98 240.423 183.911 240.817C183.847 241.086 183.696 241.326 183.48 241.499C182.232 240.433 180.877 239.502 179.435 238.719C178.426 238.222 177.286 238.06 176.179 238.255C175.072 238.45 174.056 238.992 173.277 239.803C172.582 240.428 170.914 240.553 167.551 239.427C160.601 237.064 159.391 244.654 162.783 246.127C159.711 248.004 154.638 253.161 157.376 257.692C160.114 262.223 162.463 268.214 160.92 269.201C162.38 269.771 164.896 268.27 165.007 263.238Z" fill="#263238"/>
<path d="M160.656 261.32C160.702 263.313 161.49 265.216 162.866 266.658C164.687 268.506 166.786 267.116 167.259 264.656C167.676 262.432 167.259 258.804 164.924 257.887C162.588 256.969 160.642 258.832 160.656 261.32Z" fill="#EBB376"/>
<path d="M178.045 261.64C177.851 262.335 178.045 263.03 178.518 263.127C178.99 263.224 179.491 262.821 179.699 262.126C179.908 261.431 179.699 260.736 179.213 260.653C178.726 260.569 178.24 260.945 178.045 261.64Z" fill="#263238"/>
<path d="M185.815 264.1C185.621 264.795 185.815 265.49 186.288 265.573C186.76 265.657 187.261 265.267 187.469 264.572C187.678 263.877 187.469 263.182 186.983 263.099C186.496 263.016 186.024 263.447 185.815 264.1Z" fill="#263238"/>
<path d="M183.244 263.697C183.467 266.073 184 268.409 184.828 270.647C184.254 270.835 183.646 270.897 183.046 270.827C182.446 270.758 181.869 270.559 181.353 270.244L183.244 263.697Z" fill="#D58745"/>
<path d="M176.377 258.331C176.307 258.318 176.24 258.29 176.182 258.248C176.105 258.168 176.062 258.061 176.062 257.949C176.062 257.838 176.105 257.731 176.182 257.65C176.714 257.235 177.338 256.955 178.001 256.834C178.665 256.713 179.347 256.755 179.991 256.955C180.042 256.975 180.089 257.005 180.129 257.043C180.168 257.081 180.2 257.127 180.222 257.177C180.244 257.228 180.256 257.282 180.257 257.337C180.258 257.392 180.248 257.446 180.227 257.497C180.207 257.549 180.178 257.595 180.139 257.635C180.101 257.675 180.056 257.706 180.005 257.728C179.955 257.75 179.901 257.762 179.846 257.763C179.791 257.764 179.736 257.754 179.685 257.734C179.186 257.577 178.656 257.543 178.14 257.635C177.625 257.727 177.139 257.942 176.725 258.262C176.677 258.301 176.62 258.328 176.56 258.34C176.499 258.352 176.436 258.349 176.377 258.331Z" fill="#263238"/>
<path d="M189.916 262.529C189.854 262.499 189.8 262.454 189.758 262.398C189.717 262.343 189.69 262.278 189.679 262.21C189.605 261.673 189.409 261.161 189.105 260.713C188.801 260.264 188.399 259.892 187.928 259.624C187.834 259.559 187.77 259.46 187.749 259.348C187.728 259.236 187.753 259.121 187.817 259.026C187.867 258.951 187.94 258.894 188.025 258.864C188.11 258.834 188.203 258.832 188.289 258.86C188.884 259.184 189.393 259.644 189.777 260.202C190.161 260.76 190.408 261.4 190.5 262.071C190.51 262.124 190.509 262.18 190.498 262.233C190.486 262.287 190.464 262.338 190.434 262.383C190.403 262.428 190.363 262.467 190.317 262.497C190.271 262.526 190.22 262.547 190.166 262.557C190.081 262.569 189.996 262.559 189.916 262.529Z" fill="#263238"/>
<path d="M177.433 272.607C177.82 272.719 178.215 272.798 178.615 272.843C178.676 272.856 178.739 272.844 178.791 272.81C178.843 272.776 178.88 272.723 178.893 272.662C178.897 272.63 178.894 272.598 178.885 272.567C178.876 272.536 178.86 272.507 178.839 272.482C178.818 272.457 178.793 272.437 178.764 272.423C178.735 272.408 178.703 272.4 178.671 272.398C177.663 272.287 176.695 271.943 175.843 271.393C174.992 270.843 174.28 270.102 173.764 269.229C173.751 269.201 173.732 269.175 173.708 269.154C173.685 269.133 173.657 269.116 173.627 269.106C173.598 269.096 173.566 269.091 173.535 269.094C173.503 269.096 173.472 269.104 173.444 269.118C173.414 269.13 173.387 269.148 173.365 269.171C173.342 269.194 173.325 269.222 173.315 269.252C173.304 269.283 173.3 269.315 173.304 269.347C173.307 269.379 173.317 269.41 173.333 269.438C173.769 270.214 174.357 270.894 175.061 271.439C175.766 271.983 176.573 272.38 177.433 272.607Z" fill="#263238"/>
<path d="M163.937 246.405C162.962 246.164 162.07 245.667 161.351 244.966C160.633 244.265 160.115 243.384 159.85 242.416C159.79 242.233 159.677 242.073 159.525 241.955C159.374 241.838 159.19 241.769 158.998 241.757C158.806 241.745 158.616 241.791 158.45 241.888C158.285 241.986 158.153 242.131 158.071 242.305C156.889 244.821 156.347 248.296 163.937 246.405Z" fill="#2E353A"/>
<path d="M222.678 257.039H218.689C216.988 257.067 215.358 257.718 214.105 258.869C212.852 260.019 212.065 261.588 211.892 263.28L208.43 302.2C208.332 302.996 208.407 303.804 208.65 304.568C208.892 305.332 209.298 306.035 209.838 306.628C210.378 307.221 211.04 307.69 211.778 308.003C212.517 308.316 213.314 308.465 214.116 308.441H218.105L222.678 257.039Z" fill="#0052E8"/>
<path opacity="0.3" d="M222.678 257.039H218.689C216.988 257.067 215.358 257.718 214.105 258.869C212.852 260.019 212.065 261.588 211.892 263.28L208.43 302.2C208.332 302.996 208.407 303.804 208.65 304.568C208.892 305.332 209.298 306.035 209.838 306.628C210.378 307.221 211.04 307.69 211.778 308.003C212.517 308.316 213.314 308.465 214.116 308.441H218.105L222.678 257.039Z" fill="white"/>
<path d="M281.864 308.469H216.84C216.038 308.493 215.241 308.343 214.503 308.03C213.764 307.717 213.102 307.248 212.562 306.655C212.022 306.063 211.617 305.36 211.374 304.596C211.131 303.831 211.056 303.024 211.155 302.228L214.616 263.308C214.789 261.616 215.577 260.046 216.829 258.896C218.082 257.746 219.713 257.095 221.413 257.067H286.437C287.239 257.042 288.036 257.192 288.775 257.505C289.513 257.818 290.175 258.287 290.715 258.88C291.255 259.473 291.66 260.175 291.903 260.94C292.146 261.704 292.221 262.512 292.122 263.308L288.661 302.228C288.488 303.919 287.701 305.489 286.448 306.639C285.195 307.789 283.565 308.44 281.864 308.469Z" fill="#0052E8"/>
<path opacity="0.2" d="M281.864 308.469H216.84C216.038 308.493 215.241 308.343 214.503 308.03C213.764 307.717 213.102 307.248 212.562 306.655C212.022 306.063 211.617 305.36 211.374 304.596C211.131 303.831 211.056 303.024 211.155 302.228L214.616 263.308C214.789 261.616 215.577 260.046 216.829 258.896C218.082 257.746 219.713 257.095 221.413 257.067H286.437C287.239 257.042 288.036 257.192 288.775 257.505C289.513 257.818 290.175 258.287 290.715 258.88C291.255 259.473 291.66 260.175 291.903 260.94C292.146 261.704 292.221 262.512 292.122 263.308L288.661 302.228C288.488 303.919 287.701 305.489 286.448 306.639C285.195 307.789 283.565 308.44 281.864 308.469Z" fill="black"/>
<path opacity="0.5" d="M252.785 278.987C252.789 278.662 252.835 278.34 252.924 278.028C252.509 277.906 252.079 277.84 251.646 277.833C250.672 277.833 249.721 278.122 248.912 278.663C248.103 279.203 247.472 279.972 247.1 280.871C246.727 281.77 246.63 282.759 246.82 283.714C247.009 284.668 247.478 285.545 248.166 286.233C248.854 286.921 249.731 287.39 250.686 287.58C251.64 287.77 252.63 287.672 253.529 287.3C254.428 286.927 255.196 286.297 255.737 285.488C256.278 284.678 256.566 283.727 256.566 282.754C256.07 282.756 255.579 282.66 255.12 282.471C254.662 282.283 254.245 282.005 253.894 281.655C253.542 281.305 253.264 280.89 253.074 280.432C252.883 279.974 252.785 279.483 252.785 278.987Z" fill="white"/>
<path d="M248.671 327.137H253.675L251.701 304.507C251.646 303.886 251.36 303.307 250.899 302.885C250.439 302.463 249.837 302.229 249.213 302.228C248.867 302.226 248.525 302.297 248.208 302.436C247.892 302.575 247.608 302.779 247.374 303.034C247.141 303.289 246.964 303.591 246.855 303.919C246.745 304.247 246.706 304.594 246.739 304.938L248.671 327.137Z" fill="#263238"/>
<path opacity="0.3" d="M248.671 327.137H253.675L251.701 304.507C251.646 303.886 251.36 303.307 250.899 302.885C250.439 302.463 249.837 302.229 249.213 302.228C248.867 302.226 248.525 302.297 248.208 302.436C247.892 302.575 247.608 302.779 247.374 303.034C247.141 303.289 246.964 303.591 246.855 303.919C246.745 304.247 246.706 304.594 246.739 304.938L248.671 327.137Z" fill="white"/>
<path d="M264.475 333.711C264.533 331.951 264.235 330.198 263.601 328.555C262.967 326.912 262.01 325.413 260.785 324.148C259.56 322.883 258.093 321.877 256.472 321.19C254.851 320.502 253.108 320.148 251.347 320.148C249.586 320.148 247.843 320.502 246.221 321.19C244.6 321.877 243.133 322.883 241.909 324.148C240.684 325.413 239.726 326.912 239.092 328.555C238.458 330.198 238.161 331.951 238.218 333.711H264.475Z" fill="#0052E8"/>
<path opacity="0.5" d="M264.475 333.711C264.533 331.951 264.235 330.198 263.601 328.555C262.967 326.912 262.01 325.413 260.785 324.148C259.56 322.883 258.093 321.877 256.472 321.19C254.851 320.502 253.108 320.148 251.347 320.148C249.586 320.148 247.843 320.502 246.221 321.19C244.6 321.877 243.133 322.883 241.909 324.148C240.684 325.413 239.726 326.912 239.092 328.555C238.458 330.198 238.161 331.951 238.218 333.711H264.475Z" fill="white"/>
<path d="M233.631 333.711H212.892C212.235 333.707 211.606 333.444 211.142 332.978C210.678 332.511 210.418 331.881 210.418 331.223C210.418 330.567 210.679 329.938 211.143 329.474C211.607 329.01 212.236 328.749 212.892 328.749H233.631C234.287 328.749 234.917 329.01 235.381 329.474C235.845 329.938 236.105 330.567 236.105 331.223C236.105 331.881 235.845 332.511 235.382 332.978C234.918 333.444 234.289 333.707 233.631 333.711Z" fill="#0052E8"/>
<path opacity="0.3" d="M233.631 333.711H212.892C212.235 333.707 211.606 333.444 211.142 332.978C210.678 332.511 210.418 331.881 210.418 331.223C210.418 330.567 210.679 329.938 211.143 329.474C211.607 329.01 212.236 328.749 212.892 328.749H233.631C234.287 328.749 234.917 329.01 235.381 329.474C235.845 329.938 236.105 330.567 236.105 331.223C236.105 331.881 235.845 332.511 235.382 332.978C234.918 333.444 234.289 333.707 233.631 333.711Z" fill="white"/>
<path d="M214.171 333.711H193.446C193.12 333.711 192.797 333.647 192.496 333.522C192.195 333.396 191.922 333.213 191.692 332.982C191.462 332.75 191.28 332.476 191.156 332.174C191.033 331.872 190.97 331.549 190.972 331.223C190.972 330.567 191.233 329.938 191.697 329.474C192.161 329.01 192.79 328.749 193.446 328.749H214.171C214.829 328.749 215.459 329.009 215.926 329.473C216.392 329.936 216.656 330.566 216.659 331.223C216.659 331.55 216.595 331.873 216.47 332.175C216.345 332.477 216.162 332.751 215.931 332.982C215.699 333.213 215.425 333.397 215.123 333.522C214.821 333.647 214.498 333.711 214.171 333.711Z" fill="#0052E8"/>
<path opacity="0.5" d="M214.171 333.711H193.446C193.12 333.711 192.797 333.647 192.496 333.522C192.195 333.396 191.922 333.213 191.692 332.982C191.462 332.75 191.28 332.476 191.156 332.174C191.033 331.872 190.97 331.549 190.972 331.223C190.972 330.567 191.233 329.938 191.697 329.474C192.161 329.01 192.79 328.749 193.446 328.749H214.171C214.829 328.749 215.459 329.009 215.926 329.473C216.392 329.936 216.656 330.566 216.659 331.223C216.659 331.55 216.595 331.873 216.47 332.175C216.345 332.477 216.162 332.751 215.931 332.982C215.699 333.213 215.425 333.397 215.123 333.522C214.821 333.647 214.498 333.711 214.171 333.711Z" fill="white"/>
<path d="M387.685 308.372C387.05 308.356 386.422 308.515 385.871 308.831C385.319 309.147 384.865 309.608 384.557 310.165C369.608 335.225 364.236 364.851 369.434 393.565C369.516 394.288 369.854 394.959 370.387 395.456C370.919 395.953 371.612 396.243 372.339 396.275C374.605 396.428 414.943 396.275 416.402 396.275C416.999 396.287 417.591 396.167 418.137 395.925C418.682 395.683 419.168 395.323 419.559 394.872C419.95 394.421 420.238 393.89 420.401 393.316C420.564 392.741 420.599 392.138 420.503 391.549C415.798 364.814 420.897 337.279 434.862 314.001C435.185 313.423 435.348 312.769 435.335 312.106C435.323 311.444 435.134 310.796 434.789 310.231C434.444 309.665 433.955 309.201 433.372 308.887C432.788 308.572 432.132 308.419 431.47 308.441C430.302 308.344 390.256 308.413 387.685 308.372Z" fill="#0052E8"/>
<path opacity="0.2" d="M387.685 308.372C387.05 308.356 386.422 308.515 385.871 308.831C385.319 309.147 384.865 309.608 384.557 310.165C369.608 335.225 364.236 364.851 369.434 393.565C369.516 394.288 369.854 394.959 370.387 395.456C370.919 395.953 371.612 396.243 372.339 396.275C374.605 396.428 414.943 396.275 416.402 396.275C416.999 396.287 417.591 396.167 418.137 395.925C418.682 395.683 419.168 395.323 419.559 394.872C419.95 394.421 420.238 393.89 420.401 393.316C420.564 392.741 420.599 392.138 420.503 391.549C415.798 364.814 420.897 337.279 434.862 314.001C435.185 313.423 435.348 312.769 435.335 312.106C435.323 311.444 435.134 310.796 434.789 310.231C434.444 309.665 433.955 309.201 433.372 308.887C432.788 308.572 432.132 308.419 431.47 308.441C430.302 308.344 390.256 308.413 387.685 308.372Z" fill="black"/>
<path d="M420.503 391.521C415.798 364.786 420.897 337.251 434.862 313.973C437.377 309.803 430.844 306.009 428.342 310.165C413.396 335.227 408.029 364.852 413.233 393.565C414.095 398.332 421.365 396.345 420.503 391.563V391.521Z" fill="#0052E8"/>
<g opacity="0.2">
<path opacity="0.2" d="M420.503 391.521C415.798 364.786 420.897 337.251 434.862 313.973C437.377 309.803 430.844 306.009 428.342 310.165C413.396 335.227 408.029 364.852 413.233 393.565C414.095 398.332 421.365 396.345 420.503 391.563V391.521Z" fill="white"/>
</g>
<path d="M395.775 496.23L360.747 483.331L325.33 496.244C325.045 496.346 324.741 496.379 324.441 496.339C324.142 496.299 323.856 496.188 323.608 496.015C323.361 495.842 323.158 495.612 323.017 495.345C322.876 495.078 322.802 494.781 322.8 494.478C322.8 494.12 322.904 493.77 323.099 493.469C323.294 493.168 323.571 492.93 323.898 492.783L360.747 475.686L397.22 492.769C397.54 492.923 397.81 493.163 397.999 493.463C398.188 493.763 398.289 494.11 398.291 494.465C398.291 494.766 398.218 495.063 398.079 495.331C397.94 495.598 397.739 495.829 397.492 496.002C397.245 496.175 396.96 496.286 396.661 496.326C396.362 496.366 396.058 496.333 395.775 496.23Z" fill="#263238"/>
<path opacity="0.3" d="M395.775 496.23L360.747 483.331L325.33 496.244C325.045 496.346 324.741 496.379 324.441 496.339C324.142 496.299 323.856 496.188 323.608 496.015C323.361 495.842 323.158 495.612 323.017 495.345C322.876 495.078 322.802 494.781 322.8 494.478C322.8 494.12 322.904 493.77 323.099 493.469C323.294 493.168 323.571 492.93 323.898 492.783L360.747 475.686L397.22 492.769C397.54 492.923 397.81 493.163 397.999 493.463C398.188 493.763 398.289 494.11 398.291 494.465C398.291 494.766 398.218 495.063 398.079 495.331C397.94 495.598 397.739 495.829 397.492 496.002C397.245 496.175 396.96 496.286 396.661 496.326C396.362 496.366 396.058 496.333 395.775 496.23Z" fill="white"/>
<path opacity="0.2" d="M352.49 486.389L360.747 483.386L368.614 486.278V479.425L360.747 475.727L352.49 479.564V486.389Z" fill="black"/>
<path d="M360.552 496.577C359.783 496.578 359.041 496.295 358.469 495.782C357.897 495.269 357.535 494.562 357.452 493.797L356.466 483.414V397.234H364.639V483.414L363.652 493.797C363.569 494.562 363.207 495.269 362.635 495.782C362.063 496.295 361.321 496.578 360.552 496.577Z" fill="#263238"/>
<path opacity="0.3" d="M360.552 496.577C359.783 496.578 359.041 496.295 358.469 495.782C357.897 495.269 357.535 494.562 357.452 493.797L356.466 483.414V397.234H364.639V483.414L363.652 493.797C363.569 494.562 363.207 495.269 362.635 495.782C362.063 496.295 361.321 496.578 360.552 496.577Z" fill="white"/>
<path opacity="0.2" d="M364.639 397.179H356.466V407.214H364.639V397.179Z" fill="black"/>
<path d="M295.987 389.325C305.237 386.983 314.72 385.678 324.259 385.433C334.073 385.197 370.824 385.433 379.553 385.433C390.194 385.427 400.793 386.748 411.106 389.367C417.584 391.021 415.582 400.376 409.716 400.487C409.202 400.487 298.113 400.487 297.71 400.487C291.594 400.709 289.37 391.021 295.987 389.325Z" fill="#0052E8"/>
<path opacity="0.3" d="M295.987 389.325C305.237 386.983 314.72 385.678 324.259 385.433C334.073 385.197 370.824 385.433 379.553 385.433C390.194 385.427 400.793 386.748 411.106 389.367C417.584 391.021 415.582 400.376 409.716 400.487C409.202 400.487 298.113 400.487 297.71 400.487C291.594 400.709 289.37 391.021 295.987 389.325Z" fill="black"/>
<path d="M408.104 400.237C389.367 395.483 369.74 395.483 351.003 400.237C343.956 402.044 340.939 391.132 348 389.325C368.708 384.071 390.399 384.071 411.106 389.325C418.154 391.132 415.165 402.044 408.104 400.237Z" fill="#0052E8"/>
<g opacity="0.3">
<path opacity="0.3" d="M408.104 400.237C389.367 395.483 369.74 395.483 351.003 400.237C343.956 402.044 340.939 391.132 348 389.325C368.708 384.071 390.399 384.071 411.106 389.325C418.154 391.132 415.165 402.044 408.104 400.237Z" fill="white"/>
</g>
<path d="M354.228 262.043C354.228 262.043 347.389 261.375 349.516 251.215C351.642 241.054 351.462 231.407 366.557 232.505C366.557 232.505 378.511 229.517 381.847 240.748C385.183 251.979 390.187 259.944 382.236 263.252C372.228 267.422 369.726 258.192 369.726 258.192L355.089 259.582L354.228 262.043Z" fill="#263238"/>
<path d="M351.99 276.916C343.33 275.679 347.5 305.8 339.73 311.36C335.435 314.335 313.834 306.342 313.834 306.342L310.79 296.612C310.714 296.363 310.584 296.134 310.408 295.942C310.233 295.749 310.017 295.598 309.775 295.5L305.272 293.707C304.975 293.598 304.655 293.572 304.344 293.631C304.034 293.69 303.745 293.831 303.509 294.041C303.272 294.25 303.097 294.519 303.001 294.82C302.905 295.121 302.893 295.443 302.964 295.75L304.591 302.937C304.659 303.25 304.813 303.539 305.036 303.771L311.304 310.429C311.304 310.429 337.061 322.939 343.274 320.84C350.558 318.435 353.255 305.175 355.062 297.279C356.479 291.302 358.62 277.861 351.99 276.916Z" fill="#B97964"/>
<path d="M341.926 457.407L344.553 477.715L337.158 477.91L331.835 458.311L341.926 457.407Z" fill="#B97964"/>
<path d="M337.061 476.77H345.498C345.675 476.774 345.846 476.836 345.984 476.947C346.122 477.057 346.22 477.21 346.263 477.382L347.987 485.277C348.025 485.442 348.031 485.614 348.003 485.781C347.975 485.949 347.914 486.109 347.823 486.252C347.733 486.396 347.615 486.52 347.476 486.618C347.336 486.715 347.179 486.784 347.013 486.82C346.921 486.833 346.828 486.833 346.735 486.82C343.247 486.82 340.147 486.542 335.796 486.542C330.667 486.542 331.96 487.153 325.927 487.223C322.299 487.223 321.646 483.122 323.147 482.928C330.208 482.052 332.21 479.925 334.934 477.368C335.543 476.909 336.302 476.696 337.061 476.77Z" fill="#263238"/>
<path opacity="0.1" d="M334.921 469.681L331.835 458.311L341.926 457.407L343.441 469.139L334.921 469.681Z" fill="black"/>
<path d="M367.377 335.49H355.437C353.466 340.864 352.2 346.471 351.67 352.17C351.045 360.649 367.377 354.367 367.377 354.367L368.767 342.746L367.377 335.49Z" fill="#263238"/>
<path d="M291.33 429.274L283.463 452.222L276.86 450.332L282.212 426.132L291.33 429.274Z" fill="#B97964"/>
<path d="M276.985 448.567L285.103 451.027C285.274 451.071 285.425 451.172 285.531 451.314C285.638 451.455 285.692 451.629 285.687 451.805L285.381 459.867C285.378 460.043 285.338 460.217 285.266 460.377C285.193 460.537 285.089 460.681 284.958 460.799C284.828 460.918 284.675 461.008 284.509 461.066C284.343 461.123 284.166 461.146 283.991 461.132C283.903 461.146 283.814 461.146 283.727 461.132C280.363 460.187 277.402 459.228 273.191 458.13C268.228 456.837 269.326 457.755 263.461 456.309C259.93 455.447 260.333 451.277 261.876 451.472C268.923 452.389 271.425 450.513 274.692 448.761C275.405 448.41 276.224 448.341 276.985 448.567Z" fill="#263238"/>
<path opacity="0.1" d="M287.035 441.784L279.195 439.768L282.212 426.132L291.33 429.274L287.035 441.784Z" fill="black"/>
<path d="M391.174 334.406C391.174 334.406 403.322 354.728 401.224 371.7C399.125 388.672 383.432 397.651 323.092 368.739C323.092 368.739 310.707 381.555 290.176 436.446L279.696 433.305C279.696 433.305 291.539 369.851 302.117 351.795C312.694 333.739 359.732 354.936 363.277 351.378C366.446 348.209 363.694 335.671 363.694 335.671L391.174 334.406Z" fill="#263238"/>
<path d="M292.734 435.403L290.538 439.643L277.972 435.403V430.538L292.734 435.403Z" fill="#0052E8"/>
<path d="M396.067 280.085L353.31 276.888C352.701 276.838 352.088 276.923 351.515 277.136C350.942 277.349 350.422 277.686 349.994 278.123C349.566 278.559 349.238 279.084 349.036 279.661C348.833 280.238 348.759 280.853 348.821 281.461C349.232 283.832 349.474 286.228 349.543 288.633C349.168 293.165 346.763 299.948 347.542 303.048C348.195 305.522 350.794 308.33 351.823 311.124C354.061 317.17 354.436 336.755 354.436 336.755C368.253 338.993 392.842 335.671 392.842 335.671C387.282 315.78 395.622 292.581 398.11 282.934C398.192 282.611 398.202 282.273 398.14 281.945C398.078 281.617 397.945 281.306 397.75 281.035C397.556 280.763 397.304 280.538 397.014 280.374C396.723 280.21 396.4 280.111 396.067 280.085Z" fill="#0052E8"/>
<path opacity="0.7" d="M396.067 280.085L353.31 276.888C352.701 276.838 352.088 276.923 351.515 277.136C350.942 277.349 350.422 277.686 349.994 278.123C349.566 278.559 349.238 279.084 349.036 279.661C348.833 280.238 348.759 280.853 348.821 281.461C349.232 283.832 349.474 286.228 349.543 288.633C349.168 293.165 346.763 299.948 347.542 303.048C348.195 305.522 350.794 308.33 351.823 311.124C354.061 317.17 354.436 336.755 354.436 336.755C368.253 338.993 392.842 335.671 392.842 335.671C387.282 315.78 395.622 292.581 398.11 282.934C398.192 282.611 398.202 282.273 398.14 281.945C398.078 281.617 397.945 281.306 397.75 281.035C397.556 280.763 397.304 280.538 397.014 280.374C396.723 280.21 396.4 280.111 396.067 280.085Z" fill="white"/>
<path opacity="0.1" d="M389.7 303.576L374.925 318.699L353.866 322.938H353.727C353.922 325.26 354.061 327.595 354.172 329.652C359.996 329.652 379.025 329.249 384.516 324.468C387.29 321.815 389.556 318.678 391.202 315.21C391.463 311.816 391.904 308.438 392.522 305.091L389.7 303.576Z" fill="black"/>
<path opacity="0.2" d="M316.197 374.438L312.903 371.881C312.903 371.881 301.269 378.177 307.051 396.108C310.143 389.537 313.571 383.13 317.323 376.912L316.197 374.438Z" fill="black"/>
<path d="M366.599 385.433C355.632 382.806 341.44 377.538 323.092 368.753C323.092 368.753 308.928 368.948 307.982 379.47C307.037 389.992 331.876 462.87 331.876 462.87L343.344 461.883C343.344 461.883 336.589 389.27 335.004 385.503L366.599 385.433Z" fill="#263238"/>
<path opacity="0.2" d="M323.092 368.739C321.45 368.802 319.82 369.035 318.227 369.434C325.921 376.007 334.55 381.399 343.83 385.433H366.599C355.631 382.806 341.44 377.538 323.092 368.739Z" fill="black"/>
<path d="M344.72 459.923L345.026 464.635L331.668 465.678L329.777 461.202L344.72 459.923Z" fill="#0052E8"/>
<path d="M375.884 260.18L366.557 269.34C368.114 276.874 362.595 277.583 362.595 277.583C362.595 277.583 363.04 280.238 369.796 279.876C372.819 279.844 375.83 279.48 378.775 278.792C374.702 275.54 375.3 265.629 375.884 260.18Z" fill="#B97964"/>
<path opacity="0.1" d="M366.64 273.594C366.916 272.186 366.888 270.736 366.557 269.34L374.897 261.167L375.703 262.112C375.703 262.112 374.021 272.537 366.64 273.594Z" fill="black"/>
<path d="M376.69 248.045C377.371 257.025 377.858 260.82 373.993 266.004C368.169 273.83 356.994 272.704 353.63 264.1C350.614 256.358 350.002 242.972 358.231 238.218C360.041 237.165 362.09 236.592 364.184 236.553C366.278 236.514 368.347 237.009 370.196 237.994C372.044 238.978 373.611 240.418 374.748 242.177C375.884 243.936 376.553 245.956 376.69 248.045Z" fill="#B97964"/>
<path d="M358.328 257.15C357.912 258.899 357.257 260.583 356.382 262.154C356.789 262.366 357.237 262.487 357.696 262.508C358.154 262.53 358.612 262.452 359.037 262.279L358.328 257.15Z" fill="#A24E3F"/>
<path d="M365.125 250.992C365.184 250.973 365.236 250.94 365.278 250.895C365.312 250.863 365.339 250.824 365.357 250.781C365.375 250.738 365.385 250.691 365.385 250.645C365.385 250.598 365.375 250.552 365.357 250.509C365.339 250.466 365.312 250.427 365.278 250.395C364.775 249.952 364.172 249.638 363.521 249.479C362.87 249.319 362.19 249.318 361.539 249.477C361.449 249.503 361.372 249.564 361.327 249.646C361.281 249.728 361.27 249.825 361.296 249.915C361.322 250.005 361.382 250.082 361.464 250.127C361.546 250.173 361.643 250.184 361.734 250.158C362.274 250.037 362.835 250.046 363.372 250.183C363.908 250.321 364.404 250.584 364.819 250.951C364.864 250.981 364.914 251 364.967 251.007C365.021 251.014 365.075 251.009 365.125 250.992Z" fill="#2E353A"/>
<path d="M351.851 252.229C351.909 252.211 351.962 252.177 352.004 252.132C352.36 251.713 352.81 251.385 353.317 251.172C353.824 250.96 354.374 250.869 354.923 250.909C355.016 250.918 355.109 250.894 355.185 250.841C355.262 250.787 355.317 250.708 355.34 250.617C355.348 250.522 355.319 250.427 355.26 250.352C355.2 250.277 355.115 250.228 355.02 250.214C354.353 250.154 353.682 250.255 353.062 250.509C352.443 250.763 351.894 251.162 351.462 251.673C351.428 251.706 351.401 251.745 351.383 251.788C351.365 251.831 351.355 251.877 351.355 251.924C351.355 251.97 351.365 252.017 351.383 252.06C351.401 252.103 351.428 252.141 351.462 252.174C351.513 252.222 351.577 252.254 351.646 252.267C351.715 252.279 351.786 252.271 351.851 252.243V252.229Z" fill="#2E353A"/>
<path d="M363.277 255.218C363.388 255.941 363.082 256.608 362.595 256.608C362.109 256.608 361.664 256.149 361.567 255.413C361.47 254.676 361.775 254.023 362.248 254.023C362.721 254.023 363.179 254.495 363.277 255.218Z" fill="#2E353A"/>
<path d="M355.075 256.358C355.187 257.081 354.881 257.748 354.408 257.748C353.936 257.748 353.477 257.275 353.366 256.552C353.255 255.83 353.574 255.162 354.047 255.162C354.519 255.162 354.992 255.621 355.075 256.358Z" fill="#2E353A"/>
<path d="M354.255 255.176L352.448 254.912C352.448 254.912 353.533 256.149 354.255 255.176Z" fill="#2E353A"/>
<path d="M362.456 254.036L360.649 253.786C360.649 253.786 361.734 255.009 362.456 254.036Z" fill="#2E353A"/>
<path d="M363.86 262.571C364.003 262.318 364.124 262.053 364.222 261.779C364.231 261.759 364.236 261.737 364.237 261.715C364.238 261.693 364.234 261.671 364.227 261.65C364.219 261.629 364.207 261.61 364.192 261.594C364.177 261.578 364.158 261.565 364.138 261.556C364.116 261.548 364.093 261.544 364.07 261.545C364.046 261.546 364.023 261.552 364.002 261.562C363.981 261.573 363.963 261.587 363.948 261.606C363.933 261.624 363.922 261.645 363.916 261.667C363.667 262.365 363.258 262.995 362.722 263.507C362.186 264.018 361.538 264.398 360.83 264.614C360.784 264.624 360.744 264.652 360.719 264.691C360.693 264.729 360.683 264.777 360.691 264.823C360.696 264.845 360.705 264.866 360.719 264.885C360.732 264.903 360.749 264.919 360.768 264.93C360.788 264.942 360.81 264.95 360.832 264.953C360.855 264.956 360.878 264.954 360.9 264.948C361.527 264.77 362.112 264.468 362.621 264.059C363.129 263.651 363.551 263.145 363.86 262.571Z" fill="#263238"/>
<path d="M369.74 234.91C363.972 233.52 357.995 236.494 357.995 236.494C357.995 236.494 351.323 242.43 352.852 248.17C353.557 247.65 354.354 247.268 355.201 247.045C354.968 244.869 355.575 242.686 356.896 240.942C356.54 242.835 356.616 244.783 357.119 246.641C359.904 246.366 362.717 246.698 365.362 247.614C365.362 247.614 366.515 245.238 365.362 240.081C366.868 242.769 367.663 245.798 367.669 248.879C367.738 254.217 374.619 255.51 374.619 255.51C374.619 255.51 378.914 255.051 378.872 249.296C378.831 243.542 375.509 236.397 369.74 234.91Z" fill="#263238"/>
<path d="M367.196 234.618C367.196 234.618 364.416 227.863 359.037 229.517C353.658 231.171 363.11 231.157 367.196 234.618Z" fill="#263238"/>
<path d="M379.748 254.801C379.616 255.653 379.318 256.472 378.869 257.209C378.421 257.946 377.831 258.587 377.135 259.096C375.258 260.486 373.535 258.957 373.382 256.775C373.257 254.815 374.077 251.743 376.287 251.215C376.769 251.124 377.266 251.153 377.733 251.301C378.201 251.448 378.625 251.709 378.967 252.059C379.31 252.41 379.56 252.84 379.697 253.311C379.833 253.782 379.85 254.28 379.748 254.759V254.801Z" fill="#B97964"/>
<path d="M396.609 279.89C392.355 278.5 386.531 294.722 384.099 299.781C383.098 301.88 381.486 306.578 380.262 310.29C379.755 311.877 378.864 313.315 377.669 314.476C376.473 315.637 375.011 316.486 373.41 316.948L350.628 323.411L341.37 320.631C341.027 320.527 340.666 320.502 340.312 320.557C339.958 320.613 339.621 320.747 339.327 320.951L334.67 324.12C334.33 324.354 334.052 324.667 333.86 325.033C333.669 325.399 333.57 325.806 333.572 326.219C333.566 326.562 333.63 326.903 333.763 327.219C333.895 327.536 334.091 327.821 334.339 328.058C334.588 328.295 334.883 328.477 335.205 328.593C335.528 328.71 335.871 328.758 336.213 328.735L349.974 327.651C349.974 327.651 372.214 328.944 381.944 323.481C391.674 318.018 403.99 282.42 396.609 279.89Z" fill="#B97964"/>
<path d="M378.872 328.791H299.92C299.349 328.791 298.801 329.018 298.397 329.422C297.993 329.826 297.766 330.374 297.766 330.945C297.766 331.517 297.993 332.065 298.397 332.469C298.801 332.873 299.349 333.1 299.92 333.1H378.872C379.444 333.1 379.992 332.873 380.396 332.469C380.8 332.065 381.027 331.517 381.027 330.945C381.027 330.374 380.8 329.826 380.396 329.422C379.992 329.018 379.444 328.791 378.872 328.791Z" fill="#263238"/>
<path opacity="0.3" d="M378.872 328.791H299.92C299.349 328.791 298.801 329.018 298.397 329.422C297.993 329.826 297.766 330.374 297.766 330.945C297.766 331.517 297.993 332.065 298.397 332.469C298.801 332.873 299.349 333.1 299.92 333.1H378.872C379.444 333.1 379.992 332.873 380.396 332.469C380.8 332.065 381.027 331.517 381.027 330.945C381.027 330.374 380.8 329.826 380.396 329.422C379.992 329.018 379.444 328.791 378.872 328.791Z" fill="white"/>
<path d="M301.088 331.779H328.04C328.207 331.782 328.372 331.743 328.521 331.667C328.669 331.59 328.797 331.478 328.892 331.341C328.986 331.203 329.046 331.044 329.065 330.878C329.083 330.712 329.061 330.544 328.999 330.389L314.237 288.147C314.038 287.571 313.662 287.073 313.163 286.723C312.664 286.374 312.067 286.191 311.457 286.201H284.505C284.339 286.202 284.176 286.242 284.029 286.32C283.883 286.397 283.757 286.509 283.663 286.645C283.568 286.782 283.509 286.939 283.488 287.104C283.468 287.269 283.488 287.436 283.546 287.591L298.35 329.875C298.553 330.436 298.926 330.921 299.416 331.262C299.907 331.603 300.491 331.783 301.088 331.779Z" fill="#263238"/>
<path opacity="0.5" d="M301.088 331.779H328.04C328.207 331.782 328.372 331.743 328.521 331.667C328.669 331.59 328.797 331.478 328.892 331.341C328.986 331.203 329.046 331.044 329.065 330.878C329.083 330.712 329.061 330.544 328.999 330.389L314.237 288.147C314.038 287.571 313.662 287.073 313.163 286.723C312.664 286.374 312.067 286.191 311.457 286.201H284.505C284.339 286.202 284.176 286.242 284.029 286.32C283.883 286.397 283.757 286.509 283.663 286.645C283.568 286.782 283.509 286.939 283.488 287.104C283.468 287.269 283.488 287.436 283.546 287.591L298.35 329.875C298.553 330.436 298.926 330.921 299.416 331.262C299.907 331.603 300.491 331.783 301.088 331.779Z" fill="white"/>
<path d="M299.781 331.779H326.775C326.942 331.782 327.107 331.743 327.256 331.667C327.404 331.59 327.532 331.478 327.627 331.341C327.722 331.203 327.781 331.044 327.8 330.878C327.819 330.712 327.796 330.544 327.734 330.389L312.945 288.147C312.742 287.573 312.365 287.077 311.866 286.728C311.368 286.379 310.773 286.195 310.165 286.201H283.213C283.045 286.199 282.881 286.238 282.732 286.315C282.583 286.391 282.456 286.503 282.36 286.64C282.264 286.776 282.203 286.935 282.182 287.1C282.161 287.266 282.181 287.434 282.24 287.591L297.043 329.847C297.244 330.412 297.615 330.902 298.105 331.248C298.596 331.594 299.181 331.779 299.781 331.779Z" fill="#263238"/>
<path d="M305.657 311.903C306.608 311.575 306.935 310.021 306.388 308.432C305.841 306.842 304.627 305.819 303.676 306.146C302.725 306.473 302.397 308.027 302.945 309.617C303.492 311.207 304.706 312.23 305.657 311.903Z" fill="white"/>
<path opacity="0.2" d="M331.543 333.1C330.971 333.1 330.423 332.873 330.019 332.469C329.615 332.065 329.388 331.517 329.388 330.945C329.388 330.374 329.615 329.826 330.019 329.422C330.423 329.018 330.971 328.791 331.543 328.791H378.803C379.374 328.791 379.922 329.018 380.326 329.422C380.73 329.826 380.957 330.374 380.957 330.945C380.957 331.517 380.73 332.065 380.326 332.469C379.922 332.873 379.374 333.1 378.803 333.1H331.543Z" fill="white"/>
<path d="M566.647 496.23C567.029 496.221 567.405 496.136 567.753 495.979C568.101 495.823 568.414 495.597 568.673 495.317C568.932 495.037 569.133 494.708 569.262 494.349C569.392 493.99 569.448 493.609 569.427 493.228L561.699 342.399H553.526L563.756 493.575C563.789 494.31 564.111 495.003 564.653 495.5C565.195 495.998 565.912 496.26 566.647 496.23Z" fill="#263238"/>
<path opacity="0.5" d="M566.647 496.23C567.029 496.221 567.405 496.136 567.753 495.979C568.101 495.823 568.414 495.597 568.673 495.317C568.932 495.037 569.133 494.708 569.262 494.349C569.392 493.99 569.448 493.609 569.427 493.228L561.699 342.399H553.526L563.756 493.575C563.789 494.31 564.111 495.003 564.653 495.5C565.195 495.998 565.912 496.26 566.647 496.23Z" fill="white"/>
<path opacity="0.2" d="M561.755 342.454H553.581L554.262 352.504H562.269L561.755 342.454Z" fill="black"/>
<path d="M452.403 496.23C452.022 496.221 451.646 496.136 451.298 495.979C450.95 495.823 450.637 495.597 450.378 495.317C450.119 495.037 449.918 494.708 449.789 494.349C449.659 493.99 449.603 493.609 449.623 493.228L457.31 342.454H465.483L455.267 493.631C455.204 494.345 454.874 495.009 454.343 495.491C453.813 495.972 453.12 496.236 452.403 496.23Z" fill="#263238"/>
<path opacity="0.5" d="M452.403 496.23C452.022 496.221 451.646 496.136 451.298 495.979C450.95 495.823 450.637 495.597 450.378 495.317C450.119 495.037 449.918 494.708 449.789 494.349C449.659 493.99 449.603 493.609 449.623 493.228L457.31 342.454H465.483L455.267 493.631C455.204 494.345 454.874 495.009 454.343 495.491C453.813 495.972 453.12 496.236 452.403 496.23Z" fill="white"/>
<path opacity="0.2" d="M456.782 352.504H464.788L465.469 342.454H457.296L456.782 352.504Z" fill="black"/>
<path d="M270.522 496.23C270.903 496.221 271.279 496.136 271.627 495.979C271.975 495.823 272.288 495.597 272.547 495.317C272.807 495.037 273.007 494.708 273.137 494.349C273.266 493.99 273.322 493.609 273.302 493.228L265.629 342.454H257.456L267.672 493.631C267.735 494.342 268.063 495.004 268.59 495.486C269.118 495.967 269.807 496.233 270.522 496.23Z" fill="#263238"/>
<path opacity="0.5" d="M270.522 496.23C270.903 496.221 271.279 496.136 271.627 495.979C271.975 495.823 272.288 495.597 272.547 495.317C272.807 495.037 273.007 494.708 273.137 494.349C273.266 493.99 273.322 493.609 273.302 493.228L265.629 342.454H257.456L267.672 493.631C267.735 494.342 268.063 495.004 268.59 495.486C269.118 495.967 269.807 496.233 270.522 496.23Z" fill="white"/>
<path opacity="0.2" d="M265.629 342.454H257.456L258.137 352.504H266.143L265.629 342.454Z" fill="black"/>
<path d="M156.278 496.23C155.896 496.221 155.52 496.136 155.172 495.979C154.824 495.823 154.511 495.597 154.252 495.317C153.993 495.037 153.793 494.708 153.663 494.349C153.533 493.99 153.477 493.609 153.498 493.228L161.24 342.454H169.413L159.183 493.631C159.136 494.359 158.806 495.039 158.262 495.525C157.719 496.011 157.006 496.264 156.278 496.23Z" fill="#263238"/>
<path opacity="0.5" d="M156.278 496.23C155.896 496.221 155.52 496.136 155.172 495.979C154.824 495.823 154.511 495.597 154.252 495.317C153.993 495.037 153.793 494.708 153.663 494.349C153.533 493.99 153.477 493.609 153.498 493.228L161.24 342.454H169.413L159.183 493.631C159.136 494.359 158.806 495.039 158.262 495.525C157.719 496.011 157.006 496.264 156.278 496.23Z" fill="white"/>
<path opacity="0.2" d="M160.656 352.504H168.663L169.344 342.454H161.17L160.656 352.504Z" fill="black"/>
<path d="M568.329 337.673H153.289V342.454H568.329V337.673Z" fill="#263238"/>
<path opacity="0.3" d="M568.329 337.673H153.289V342.454H568.329V337.673Z" fill="white"/>
<path opacity="0.2" d="M568.329 337.673H449.415V342.454H568.329V337.673Z" fill="black"/>
<path d="M579.018 332.891H142.6V337.673H579.018V332.891Z" fill="#0052E8"/>
<path opacity="0.3" d="M579.018 332.891H438.726V337.673H579.018V332.891Z" fill="black"/>
<path d="M482.511 333.1H461.772C461.116 333.1 460.486 332.839 460.022 332.375C459.558 331.911 459.298 331.282 459.298 330.625C459.298 329.969 459.558 329.34 460.022 328.876C460.486 328.412 461.116 328.151 461.772 328.151H482.511C483.167 328.151 483.796 328.412 484.26 328.876C484.724 329.34 484.985 329.969 484.985 330.625C484.985 331.282 484.724 331.911 484.26 332.375C483.796 332.839 483.167 333.1 482.511 333.1Z" fill="#0052E8"/>
<path opacity="0.3" d="M482.511 333.1H461.772C461.116 333.1 460.486 332.839 460.022 332.375C459.558 331.911 459.298 331.282 459.298 330.625C459.298 329.969 459.558 329.34 460.022 328.876C460.486 328.412 461.116 328.151 461.772 328.151H482.511C483.167 328.151 483.796 328.412 484.26 328.876C484.724 329.34 484.985 329.969 484.985 330.625C484.985 331.282 484.724 331.911 484.26 332.375C483.796 332.839 483.167 333.1 482.511 333.1Z" fill="white"/>
<path d="M463.051 333.1H442.326C441.668 333.1 441.038 332.839 440.571 332.376C440.105 331.912 439.841 331.283 439.838 330.625C439.841 329.968 440.105 329.339 440.571 328.875C441.038 328.411 441.668 328.151 442.326 328.151H463.051C463.708 328.151 464.339 328.411 464.805 328.875C465.271 329.339 465.535 329.968 465.539 330.625C465.535 331.283 465.271 331.912 464.805 332.376C464.339 332.839 463.708 333.1 463.051 333.1Z" fill="#0052E8"/>
<path opacity="0.5" d="M463.051 333.1H442.326C441.668 333.1 441.038 332.839 440.571 332.376C440.105 331.912 439.841 331.283 439.838 330.625C439.841 329.968 440.105 329.339 440.571 328.875C441.038 328.411 441.668 328.151 442.326 328.151H463.051C463.708 328.151 464.339 328.411 464.805 328.875C465.271 329.339 465.535 329.968 465.539 330.625C465.535 331.283 465.271 331.912 464.805 332.376C464.339 332.839 463.708 333.1 463.051 333.1Z" fill="white"/>
<path d="M393.537 257.831H389.547C388.745 257.805 387.946 257.953 387.206 258.265C386.466 258.577 385.802 259.046 385.26 259.639C384.719 260.232 384.312 260.936 384.068 261.701C383.825 262.466 383.75 263.275 383.848 264.072L387.254 302.992C387.424 304.687 388.21 306.259 389.463 307.412C390.716 308.565 392.349 309.218 394.051 309.247H398.04L393.537 257.831Z" fill="#0052E8"/>
<path d="M393.537 257.831H389.547C388.745 257.805 387.946 257.953 387.206 258.265C386.466 258.577 385.802 259.046 385.26 259.639C384.719 260.232 384.312 260.936 384.068 261.701C383.825 262.466 383.75 263.275 383.848 264.072L387.254 302.992C387.424 304.687 388.21 306.259 389.463 307.412C390.716 308.565 392.349 309.218 394.051 309.247H398.04L393.537 257.831Z" fill="#0052E8"/>
<path d="M427.272 326.539H422.268L424.45 301.63H429.454L427.272 326.539Z" fill="#263238"/>
<path opacity="0.3" d="M427.272 326.539H422.268L424.45 301.63H429.454L427.272 326.539Z" fill="white"/>
<path d="M461.8 309.261H396.776C395.073 309.232 393.44 308.579 392.187 307.426C390.934 306.273 390.148 304.7 389.978 303.006L386.573 264.086C386.474 263.289 386.549 262.48 386.793 261.715C387.037 260.949 387.443 260.246 387.985 259.653C388.526 259.06 389.19 258.591 389.93 258.279C390.67 257.967 391.469 257.819 392.272 257.845H457.31C459.01 257.873 460.641 258.524 461.894 259.675C463.146 260.825 463.934 262.394 464.107 264.086L467.513 303.006C467.6 303.803 467.516 304.609 467.267 305.371C467.018 306.132 466.61 306.833 466.07 307.424C465.529 308.016 464.869 308.486 464.132 308.803C463.396 309.119 462.601 309.276 461.8 309.261Z" fill="#0052E8"/>
<path opacity="0.5" d="M461.8 309.261H396.776C395.073 309.232 393.44 308.579 392.187 307.426C390.934 306.273 390.148 304.7 389.978 303.006L386.573 264.086C386.474 263.289 386.549 262.48 386.793 261.715C387.037 260.949 387.443 260.246 387.985 259.653C388.526 259.06 389.19 258.591 389.93 258.279C390.67 257.967 391.469 257.819 392.272 257.845H457.31C459.01 257.873 460.641 258.524 461.894 259.675C463.146 260.825 463.934 262.394 464.107 264.086L467.513 303.006C467.6 303.803 467.516 304.609 467.267 305.371C467.018 306.132 466.61 306.833 466.07 307.424C465.529 308.016 464.869 308.486 464.132 308.803C463.396 309.119 462.601 309.276 461.8 309.261Z" fill="white"/>
<path opacity="0.5" d="M457.518 260.347H392.494C392.017 260.338 391.543 260.431 391.105 260.62C390.666 260.808 390.272 261.088 389.95 261.44C389.628 261.793 389.385 262.21 389.236 262.664C389.088 263.117 389.037 263.597 389.089 264.072L392.494 302.992C392.599 304.003 393.069 304.941 393.817 305.629C394.564 306.318 395.537 306.71 396.553 306.731H461.577C462.055 306.738 462.529 306.643 462.968 306.453C463.407 306.263 463.8 305.982 464.122 305.628C464.444 305.275 464.687 304.857 464.835 304.403C464.984 303.948 465.034 303.467 464.983 302.992L461.577 264.072C461.469 263.064 460.998 262.129 460.251 261.444C459.504 260.758 458.532 260.368 457.518 260.347Z" fill="white"/>
<path d="M412.733 333.1C412.844 329.692 414.275 326.46 416.725 324.089C419.175 321.717 422.452 320.391 425.861 320.391C429.271 320.391 432.547 321.717 434.997 324.089C437.447 326.46 438.879 329.692 438.99 333.1H412.733Z" fill="#0052E8"/>
<path opacity="0.5" d="M412.733 333.1C412.844 329.692 414.275 326.46 416.725 324.089C419.175 321.717 422.452 320.391 425.861 320.391C429.271 320.391 432.547 321.717 434.997 324.089C437.447 326.46 438.879 329.692 438.99 333.1H412.733Z" fill="white"/>
<path d="M442.854 269.91H407.089C406.911 269.907 406.735 269.942 406.572 270.012C406.408 270.083 406.262 270.187 406.142 270.319C406.023 270.45 405.932 270.606 405.878 270.775C405.823 270.944 405.805 271.123 405.824 271.3C405.865 271.676 406.041 272.025 406.32 272.281C406.599 272.537 406.961 272.682 407.34 272.69H443.104C443.282 272.693 443.458 272.658 443.622 272.588C443.785 272.517 443.931 272.413 444.051 272.281C444.171 272.15 444.261 271.994 444.316 271.825C444.371 271.656 444.389 271.477 444.369 271.3C444.332 270.923 444.156 270.572 443.877 270.316C443.597 270.06 443.233 269.915 442.854 269.91Z" fill="white"/>
<path d="M438.42 275.734H407.604C407.426 275.731 407.249 275.766 407.086 275.836C406.923 275.907 406.776 276.011 406.657 276.143C406.537 276.275 406.447 276.43 406.392 276.599C406.337 276.769 406.319 276.947 406.339 277.124C406.376 277.502 406.552 277.852 406.831 278.108C407.11 278.365 407.475 278.509 407.854 278.514H438.67C438.848 278.517 439.024 278.482 439.188 278.412C439.351 278.341 439.497 278.237 439.617 278.105C439.737 277.974 439.827 277.818 439.882 277.649C439.937 277.48 439.955 277.301 439.935 277.124C439.895 276.748 439.718 276.399 439.44 276.144C439.161 275.888 438.798 275.742 438.42 275.734Z" fill="white"/>
<path d="M442.02 281.558H408.118C407.94 281.555 407.764 281.59 407.6 281.661C407.437 281.731 407.291 281.836 407.171 281.967C407.051 282.099 406.961 282.254 406.906 282.424C406.851 282.593 406.833 282.772 406.853 282.948C406.884 283.326 407.056 283.678 407.334 283.935C407.611 284.192 407.976 284.336 408.354 284.338H442.228C442.407 284.344 442.585 284.31 442.749 284.241C442.913 284.171 443.061 284.067 443.181 283.934C443.301 283.802 443.391 283.646 443.445 283.476C443.499 283.305 443.516 283.126 443.493 282.948C443.46 282.577 443.291 282.23 443.02 281.974C442.749 281.718 442.393 281.57 442.02 281.558Z" fill="white"/>
<path d="M437.544 287.369H408.66C408.482 287.365 408.306 287.4 408.142 287.471C407.979 287.541 407.833 287.646 407.713 287.777C407.593 287.909 407.503 288.065 407.448 288.234C407.393 288.403 407.375 288.582 407.395 288.759C407.436 289.135 407.612 289.483 407.891 289.739C408.169 289.995 408.532 290.141 408.91 290.149H437.85C438.028 290.152 438.204 290.117 438.368 290.046C438.531 289.976 438.677 289.871 438.797 289.74C438.917 289.608 439.007 289.453 439.062 289.283C439.117 289.114 439.135 288.935 439.115 288.759C439.076 288.372 438.893 288.013 438.602 287.756C438.311 287.498 437.933 287.36 437.544 287.369Z" fill="white"/>
<g opacity="0.6">
<path opacity="0.6" d="M442.854 269.91H407.089C406.911 269.907 406.735 269.942 406.572 270.012C406.408 270.083 406.262 270.187 406.142 270.319C406.023 270.45 405.932 270.606 405.878 270.775C405.823 270.944 405.805 271.123 405.824 271.3C405.865 271.676 406.041 272.025 406.32 272.281C406.599 272.537 406.961 272.682 407.34 272.69H443.104C443.282 272.693 443.458 272.658 443.622 272.588C443.785 272.517 443.931 272.413 444.051 272.281C444.171 272.15 444.261 271.994 444.316 271.825C444.371 271.656 444.389 271.477 444.369 271.3C444.332 270.923 444.156 270.572 443.877 270.316C443.597 270.06 443.233 269.915 442.854 269.91Z" fill="white"/>
<path opacity="0.6" d="M438.42 275.734H407.604C407.426 275.731 407.249 275.766 407.086 275.837C406.923 275.907 406.776 276.012 406.657 276.143C406.537 276.275 406.447 276.43 406.392 276.599C406.337 276.769 406.319 276.948 406.339 277.124C406.376 277.502 406.552 277.852 406.831 278.108C407.11 278.365 407.475 278.509 407.854 278.514H438.67C438.848 278.517 439.024 278.483 439.188 278.412C439.351 278.342 439.497 278.237 439.617 278.105C439.737 277.974 439.827 277.818 439.882 277.649C439.937 277.48 439.955 277.301 439.935 277.124C439.895 276.748 439.718 276.399 439.44 276.144C439.161 275.888 438.798 275.742 438.42 275.734Z" fill="white"/>
<path opacity="0.6" d="M442.02 281.559H408.118C407.94 281.555 407.764 281.59 407.6 281.661C407.437 281.731 407.291 281.836 407.171 281.967C407.051 282.099 406.961 282.254 406.906 282.424C406.851 282.593 406.833 282.772 406.853 282.949C406.884 283.326 407.056 283.678 407.334 283.935C407.611 284.192 407.976 284.336 408.354 284.339H442.228C442.407 284.344 442.585 284.311 442.749 284.241C442.913 284.171 443.061 284.067 443.181 283.935C443.301 283.803 443.391 283.646 443.445 283.476C443.499 283.306 443.516 283.126 443.493 282.949C443.46 282.577 443.291 282.231 443.02 281.975C442.749 281.719 442.393 281.571 442.02 281.559Z" fill="white"/>
<path opacity="0.6" d="M437.544 287.369H408.66C408.482 287.365 408.306 287.4 408.142 287.471C407.979 287.541 407.833 287.646 407.713 287.777C407.593 287.909 407.503 288.065 407.448 288.234C407.394 288.403 407.375 288.582 407.395 288.759C407.436 289.135 407.612 289.483 407.891 289.739C408.169 289.995 408.532 290.141 408.91 290.149H437.85C438.028 290.152 438.204 290.117 438.368 290.046C438.531 289.976 438.677 289.871 438.797 289.74C438.917 289.608 439.007 289.453 439.062 289.283C439.117 289.114 439.135 288.935 439.115 288.759C439.077 288.372 438.893 288.013 438.602 287.756C438.311 287.498 437.933 287.36 437.544 287.369Z" fill="white"/>
</g>
<path d="M515.468 237.287C515.468 237.287 507.239 238.858 507.378 233.84C507.517 228.822 516.01 231.157 516.01 231.157L515.468 237.287Z" fill="#1A2E35"/>
<path opacity="0.4" d="M515.468 237.287C515.468 237.287 507.239 238.858 507.378 233.84C507.517 228.822 516.01 231.157 516.01 231.157L515.468 237.287Z" fill="black"/>
<path d="M510.325 249.297L506.558 255.218C507.25 255.657 508.036 255.927 508.852 256.006C509.668 256.086 510.492 255.973 511.256 255.677L510.325 249.297Z" fill="#A24E3F"/>
<path d="M508.045 248.476C508.045 249.241 508.434 249.866 508.935 249.866C509.435 249.866 509.88 249.227 509.866 248.476C509.852 247.726 509.491 247.086 508.976 247.086C508.462 247.086 508.073 247.712 508.045 248.476Z" fill="#1A2E35"/>
<path d="M537.499 243.709C537.833 253.856 538.194 258.151 533.593 263.808C526.31 269.813 514.133 270.522 510.756 260.681C507.739 251.812 507.698 236.745 517.191 231.741C519.283 230.653 521.616 230.115 523.972 230.178C526.329 230.24 528.63 230.901 530.661 232.098C532.692 233.295 534.385 234.988 535.581 237.019C536.777 239.05 537.437 241.352 537.499 243.709Z" fill="#B97964"/>
<path opacity="0.2" d="M523.252 268.131L523.182 267.631C523.142 267.372 523.048 267.125 522.907 266.905C522.765 266.686 522.578 266.498 522.359 266.355C522.14 266.212 521.894 266.117 521.636 266.076C521.377 266.035 521.113 266.048 520.861 266.116L516.691 267.241C518.77 268.08 521.025 268.386 523.252 268.131Z" fill="black"/>
<path d="M510.797 245.015C510.73 245.024 510.662 245.016 510.599 244.992C510.536 244.968 510.48 244.928 510.436 244.876C510.126 244.49 509.729 244.182 509.277 243.979C508.825 243.776 508.331 243.684 507.837 243.709C507.732 243.717 507.629 243.686 507.546 243.622C507.464 243.557 507.409 243.464 507.392 243.361C507.384 243.309 507.387 243.256 507.4 243.205C507.414 243.154 507.438 243.106 507.47 243.064C507.503 243.023 507.543 242.988 507.589 242.963C507.636 242.937 507.687 242.921 507.739 242.916C508.362 242.861 508.989 242.959 509.566 243.201C510.142 243.443 510.651 243.823 511.047 244.306C511.123 244.382 511.165 244.484 511.165 244.591C511.165 244.698 511.123 244.801 511.047 244.876C511.018 244.916 510.981 244.949 510.937 244.973C510.894 244.997 510.846 245.011 510.797 245.015Z" fill="#1A2E35"/>
<path d="M522.876 265.573L525.1 280.627L537.68 278.028L533.649 262.613L522.876 265.573Z" fill="#B97964"/>
<path d="M517.817 250.964L515.69 252.66C514.786 248.803 515.067 244.763 516.496 241.068L513.966 237.217L514.356 234.618C514.356 234.618 510.422 228.252 513.494 226.361C516.566 224.471 518.526 228.405 518.526 228.405C518.526 228.405 520.638 222.122 524.336 222.984C528.033 223.845 526.143 227.779 526.143 227.779C526.143 227.779 532.12 223.456 534.942 225.583C537.763 227.71 534.233 230.684 534.233 230.684C534.233 230.684 541.391 230.851 541.627 233.673C541.864 236.494 538.708 236.745 538.708 236.745C538.708 236.745 543.434 238.385 543.351 240.915C543.268 243.444 539.584 243.583 539.584 243.583C539.584 243.583 544.38 246.641 543.351 249.31C543.095 250.037 542.565 250.634 541.874 250.975C541.183 251.315 540.386 251.371 539.654 251.131C539.654 251.131 542.142 254.314 541.308 256.038C541.016 256.546 540.585 256.959 540.065 257.227C539.544 257.496 538.958 257.609 538.375 257.553L534.288 264.809C533.208 264.444 532.051 264.367 530.932 264.586C529.813 264.806 528.771 265.314 527.908 266.06L520.569 253.995L517.817 250.964Z" fill="#1A2E35"/>
<path d="M516.552 248.226C516.371 249.239 516.393 250.277 516.615 251.281C516.837 252.285 517.254 253.236 517.845 254.078C519.429 256.316 522.015 255.315 522.988 252.924C523.905 250.756 524.169 246.989 521.862 245.599C521.355 245.298 520.782 245.129 520.194 245.107C519.605 245.084 519.021 245.209 518.493 245.47C517.965 245.731 517.511 246.12 517.172 246.601C516.833 247.083 516.62 247.641 516.552 248.226Z" fill="#B97964"/>
<path d="M540.224 276.388L537.735 269.354C534.553 268.165 531.123 267.796 527.761 268.282C524.399 268.768 521.213 270.092 518.498 272.134L525.559 276.304L540.224 276.388Z" fill="#263238"/>
<path opacity="0.2" d="M539.07 273.149C533.388 271.815 527.438 272.198 521.973 274.247L525.559 276.388H540.224L539.07 273.149Z" fill="black"/>
<path d="M496.23 322.744L486.945 318.087C486.676 317.968 486.384 317.906 486.09 317.906C485.795 317.906 485.504 317.968 485.235 318.087L477.646 321.09C477.276 321.233 476.954 321.479 476.72 321.8C476.486 322.12 476.349 322.501 476.325 322.897L476.186 325.371C476.167 325.715 476.233 326.058 476.378 326.37C476.523 326.682 476.743 326.954 477.017 327.161C477.292 327.368 477.613 327.505 477.953 327.559C478.293 327.613 478.641 327.582 478.966 327.47L481.746 326.497C486.226 328.306 491.206 328.454 495.785 326.914L496.23 322.744Z" fill="#B97964"/>
<path d="M460.966 323.286L451.75 318.574C451.486 318.443 451.197 318.369 450.903 318.357C450.608 318.345 450.314 318.395 450.04 318.505L442.437 321.576C442.067 321.727 441.748 321.979 441.517 322.304C441.285 322.629 441.151 323.013 441.13 323.411L440.991 325.913C440.97 326.258 441.034 326.603 441.178 326.917C441.322 327.231 441.541 327.504 441.816 327.713C442.091 327.922 442.414 328.06 442.755 328.115C443.096 328.169 443.445 328.139 443.771 328.026L446.551 327.053C451.028 328.878 456.013 329.026 460.59 327.47L460.966 323.286Z" fill="#B97964"/>
<path d="M545.311 279.043C540.766 282.907 529.395 294.249 514.634 320.812H495.771C495.771 320.812 493.103 322.98 494.201 328.443C494.201 328.443 513.549 335.324 518.804 332.975C524.058 330.625 541.044 304.591 548.661 295.319C551.302 292.109 555.847 287.813 549.286 279.46C549.056 279.166 548.77 278.921 548.444 278.741C548.117 278.56 547.758 278.447 547.387 278.408C547.016 278.369 546.641 278.405 546.284 278.514C545.928 278.623 545.597 278.803 545.311 279.043Z" fill="#263238"/>
<path opacity="0.2" d="M524.239 316.308L519.707 312.041C518.067 314.821 516.371 317.671 514.634 320.812H510.13L512.993 333.322C514.95 333.689 516.965 333.584 518.873 333.016C520.263 332.391 522.445 330.139 525.059 326.984L524.239 316.308Z" fill="black"/>
<path d="M520.819 460.535L525.128 481.413L533.621 480.148L531.578 459.826L520.819 460.535Z" fill="#B97964"/>
<path opacity="0.2" d="M532.926 473.226L531.578 459.826L520.819 460.535L523.516 473.587L532.926 473.226Z" fill="black"/>
<path d="M571.29 364.277C571.29 364.277 575.599 386.907 560.837 386.907C546.075 386.907 526.407 391.744 526.407 391.744C526.407 391.744 532.064 397.109 533.357 465.594L521.097 466.123C521.097 466.123 500.734 388.825 504.751 380.332C510.408 368.364 539.709 364.277 539.709 364.277H571.29Z" fill="#0052E8"/>
<path d="M519.679 463.704L533.843 463.287L534.566 470.195L520.583 470.807L519.679 463.704Z" fill="#0052E8"/>
<path opacity="0.5" d="M519.679 463.704L533.843 463.287L534.566 470.195L520.583 470.807L519.679 463.704Z" fill="white"/>
<path d="M521.25 482.719C520.337 482.936 519.377 482.808 518.553 482.358C518.447 482.235 518.381 482.082 518.366 481.92C518.351 481.757 518.388 481.595 518.47 481.454C518.526 481.324 518.607 481.206 518.71 481.108C518.813 481.01 518.935 480.934 519.068 480.884C520.458 480.301 523.794 481.691 523.947 481.746C523.985 481.765 524.018 481.795 524.04 481.832C524.062 481.869 524.073 481.912 524.072 481.955C524.065 481.998 524.048 482.038 524.021 482.072C523.994 482.106 523.959 482.133 523.919 482.149C523.047 482.415 522.154 482.606 521.25 482.719ZM519.624 481.176C519.49 481.19 519.359 481.223 519.234 481.274C519.151 481.301 519.074 481.346 519.009 481.406C518.944 481.466 518.893 481.54 518.859 481.621C518.734 481.899 518.859 482.01 518.859 482.08C519.332 482.608 521.57 482.344 523.196 481.955C522.082 481.479 520.89 481.215 519.679 481.176H519.624Z" fill="#0052E8"/>
<path d="M523.947 482.149H523.849C522.737 481.816 520.388 480.148 520.458 479.133C520.458 478.883 520.597 478.577 521.167 478.438C521.583 478.349 522.018 478.429 522.376 478.66C523.297 479.536 523.919 480.678 524.155 481.927C524.171 481.957 524.179 481.99 524.179 482.024C524.179 482.058 524.171 482.091 524.155 482.121C524.129 482.149 524.094 482.167 524.056 482.172C524.018 482.177 523.979 482.169 523.947 482.149ZM521.347 478.827H521.25C520.889 478.911 520.875 479.063 520.861 479.119C520.861 479.717 522.459 481.051 523.641 481.579C523.414 480.586 522.885 479.687 522.126 479.008C521.908 478.854 521.639 478.789 521.375 478.827H521.347Z" fill="#0052E8"/>
<path d="M524.725 480.801L534.455 479.647C534.632 479.625 534.811 479.663 534.963 479.757C535.115 479.85 535.23 479.993 535.289 480.162L537.972 487.807C538.031 487.967 538.059 488.138 538.052 488.309C538.045 488.48 538.004 488.648 537.931 488.803C537.859 488.959 537.756 489.098 537.63 489.213C537.503 489.328 537.355 489.417 537.193 489.475L536.915 489.544C533.426 489.906 530.313 490.086 525.976 490.601C520.861 491.226 522.223 491.685 516.246 492.491C512.632 492.964 511.478 488.933 512.98 488.543C519.93 486.806 520.388 484.596 522.807 481.76C523.31 481.22 523.991 480.88 524.725 480.801Z" fill="#263238"/>
<path opacity="0.1" d="M530.313 383.098H508.74L504.167 385.03C504.596 391.569 505.474 398.071 506.794 404.49L528.492 398.235C527.296 392.606 526.365 391.73 526.365 391.73C526.365 391.73 528.339 391.243 531.494 390.576L530.313 383.098Z" fill="black"/>
<path opacity="0.1" d="M544.88 384.669C544.618 385.857 544.465 387.066 544.421 388.283C549.393 387.518 554.406 387.054 559.433 386.893C561.033 385.216 561.982 383.024 562.109 380.71C562.237 378.396 561.534 376.113 560.128 374.271L551.483 378.205L544.88 384.669Z" fill="black"/>
<path d="M495.952 466.137L503.958 485.597L511.77 484.026L506.405 463.204L495.952 466.137Z" fill="#B97964"/>
<path opacity="0.2" d="M509.977 477.104L506.405 463.204L495.952 466.137L501.164 478.786L509.977 477.104Z" fill="black"/>
<path d="M560.657 365.57C560.657 365.57 564.979 388.199 550.204 388.199C535.428 388.199 491.115 401.821 491.115 401.821C491.115 401.821 497.634 404.226 508.949 467.401L496.147 470.307C496.147 470.307 464.177 401.418 468.166 392.925C473.823 380.971 529.048 365.57 529.048 365.57H560.657Z" fill="#0052E8"/>
<path d="M494.576 469.472L509.769 466.22L511.339 472.503L496.772 475.866L494.576 469.472Z" fill="#0052E8"/>
<path opacity="0.5" d="M494.576 469.472L509.769 466.22L511.339 472.503L496.772 475.866L494.576 469.472Z" fill="white"/>
<path d="M499.135 486.5C498.226 486.702 497.275 486.574 496.452 486.139C496.345 486.013 496.279 485.858 496.264 485.693C496.249 485.529 496.286 485.364 496.369 485.221C496.425 485.09 496.506 484.973 496.609 484.875C496.712 484.777 496.834 484.701 496.967 484.651C498.357 484.068 501.693 485.458 501.832 485.513C501.871 485.533 501.905 485.562 501.929 485.599C501.954 485.635 501.968 485.678 501.971 485.722C501.967 485.766 501.951 485.807 501.924 485.842C501.897 485.877 501.86 485.903 501.818 485.916C500.942 486.188 500.044 486.383 499.135 486.5ZM497.523 484.943C497.389 484.954 497.257 484.987 497.134 485.041C497.048 485.064 496.969 485.108 496.904 485.169C496.838 485.229 496.788 485.304 496.758 485.388C496.633 485.666 496.758 485.777 496.758 485.847C497.231 486.375 499.469 486.125 501.095 485.722C499.965 485.234 498.753 484.965 497.523 484.929V484.943Z" fill="#0052E8"/>
<path d="M501.79 485.902H501.693C500.581 485.569 498.218 483.901 498.287 482.886C498.287 482.636 498.426 482.33 498.996 482.205C499.201 482.155 499.414 482.148 499.622 482.184C499.83 482.22 500.029 482.298 500.205 482.413C501.134 483.285 501.761 484.429 501.999 485.68C502.014 485.71 502.023 485.743 502.023 485.777C502.023 485.811 502.014 485.844 501.999 485.874C501.972 485.902 501.937 485.92 501.899 485.925C501.861 485.93 501.823 485.922 501.79 485.902ZM499.191 482.58H499.01C498.635 482.664 498.635 482.816 498.621 482.872C498.621 483.484 500.219 484.818 501.401 485.332C501.179 484.34 500.654 483.442 499.9 482.761C499.682 482.607 499.413 482.542 499.149 482.58H499.191Z" fill="#0052E8"/>
<path d="M502.568 484.554L512.229 483.4C512.406 483.375 512.587 483.412 512.739 483.506C512.892 483.6 513.006 483.745 513.063 483.914L515.76 491.559C515.875 491.886 515.857 492.245 515.709 492.557C515.56 492.87 515.293 493.111 514.967 493.227L514.703 493.297C511.214 493.658 508.101 493.839 503.764 494.367C498.635 494.979 500.011 495.438 494.034 496.244C490.42 496.73 489.252 492.685 490.767 492.296C497.717 490.573 498.176 488.349 500.581 485.513C501.106 484.963 501.812 484.623 502.568 484.554Z" fill="#263238"/>
<path d="M508.281 278.222C508.274 277.783 508.355 277.346 508.52 276.939C508.685 276.532 508.931 276.162 509.242 275.851C509.554 275.541 509.925 275.297 510.333 275.134C510.741 274.97 511.178 274.891 511.617 274.9L540.098 275.456C543.514 275.524 546.851 276.487 549.778 278.248C552.705 280.009 555.119 282.507 556.778 285.492C563.381 297.279 572.068 321.396 571.86 366.793H524.6C524.6 366.793 508.559 307.871 508.281 278.222Z" fill="#263238"/>
<path opacity="0.4" d="M508.976 289.676C509.657 296.501 510.769 304.021 512.118 311.624C519.276 296.626 515.44 284.352 515.44 284.352L508.976 289.676Z" fill="black"/>
<path d="M508.379 276.165C505.057 280.043 499.9 287.799 484.276 316.239L460.382 321.326C460.382 321.326 457.713 323.522 458.811 329.055C458.811 329.055 484.457 333.461 489.711 331.084C494.965 328.707 508.379 308.524 514.536 298.085C517.08 293.776 518.428 285.284 510.783 276.193C510.637 276.018 510.454 275.877 510.247 275.779C510.041 275.681 509.816 275.629 509.587 275.627C509.359 275.624 509.133 275.671 508.924 275.764C508.715 275.857 508.529 275.994 508.379 276.165Z" fill="#263238"/>
<path d="M591.57 495.952L556.528 483.053L521.111 495.966C520.828 496.069 520.523 496.102 520.225 496.062C519.926 496.022 519.641 495.911 519.394 495.738C519.147 495.565 518.946 495.334 518.807 495.067C518.668 494.799 518.595 494.502 518.595 494.201C518.598 493.845 518.701 493.496 518.893 493.196C519.085 492.896 519.357 492.657 519.679 492.505L556.528 475.38L593.016 492.477C593.336 492.629 593.607 492.87 593.796 493.17C593.986 493.47 594.086 493.818 594.086 494.173C594.092 494.477 594.023 494.777 593.886 495.048C593.749 495.32 593.547 495.553 593.299 495.729C593.051 495.904 592.764 496.016 592.462 496.055C592.161 496.094 591.855 496.059 591.57 495.952Z" fill="#263238"/>
<path opacity="0.3" d="M591.57 495.952L556.528 483.053L521.111 495.966C520.828 496.069 520.523 496.102 520.225 496.062C519.926 496.022 519.641 495.911 519.394 495.738C519.147 495.565 518.946 495.334 518.807 495.067C518.668 494.799 518.595 494.502 518.595 494.201C518.598 493.845 518.701 493.496 518.893 493.196C519.085 492.896 519.357 492.657 519.679 492.505L556.528 475.38L593.016 492.477C593.336 492.629 593.607 492.87 593.796 493.17C593.986 493.47 594.086 493.818 594.086 494.173C594.092 494.477 594.023 494.777 593.886 495.048C593.749 495.32 593.547 495.553 593.299 495.729C593.051 495.904 592.764 496.016 592.462 496.055C592.161 496.094 591.855 496.059 591.57 495.952Z" fill="white"/>
<path opacity="0.2" d="M548.272 486.069L556.528 483.053L564.409 485.958V479.105L556.528 475.408L548.272 479.244V486.069Z" fill="black"/>
<path d="M556.348 496.23C555.579 496.231 554.837 495.947 554.265 495.434C553.692 494.921 553.33 494.214 553.248 493.45L552.261 483.067V396.887H560.434V483.067L559.433 493.45C559.351 494.212 558.991 494.917 558.422 495.43C557.852 495.943 557.114 496.227 556.348 496.23Z" fill="#263238"/>
<path opacity="0.3" d="M556.348 496.23C555.579 496.231 554.837 495.947 554.265 495.434C553.692 494.921 553.33 494.214 553.248 493.45L552.261 483.067V396.887H560.434V483.067L559.433 493.45C559.351 494.212 558.991 494.917 558.422 495.43C557.852 495.943 557.114 496.227 556.348 496.23Z" fill="white"/>
<path opacity="0.2" d="M560.434 396.845H552.261V406.881H560.434V396.845Z" fill="black"/>
<path d="M613.185 389.005C603.937 386.65 594.452 385.344 584.912 385.113C575.085 384.863 538.347 385.113 529.618 385.113C518.977 385.107 508.378 386.428 498.065 389.047C491.587 390.701 493.575 400.042 499.455 400.167C499.983 400.167 611.072 400.167 611.475 400.167C617.563 400.39 619.801 390.687 613.185 389.005Z" fill="#0052E8"/>
<path opacity="0.3" d="M613.185 389.005C603.937 386.65 594.452 385.344 584.912 385.113C575.085 384.863 538.347 385.113 529.618 385.113C518.977 385.107 508.378 386.428 498.065 389.047C491.587 390.701 493.575 400.042 499.455 400.167C499.983 400.167 611.072 400.167 611.475 400.167C617.563 400.39 619.801 390.687 613.185 389.005Z" fill="black"/>
<path d="M501.067 399.917C519.798 395.149 539.424 395.149 558.154 399.917C565.216 401.71 568.232 390.798 561.171 389.005C540.464 383.751 518.772 383.751 498.065 389.005C491.018 390.798 494.006 401.724 501.067 399.917Z" fill="#0052E8"/>
<g opacity="0.3">
<path opacity="0.3" d="M501.067 399.917C519.798 395.149 539.424 395.149 558.154 399.917C565.216 401.71 568.232 390.798 561.171 389.005C540.464 383.751 518.772 383.751 498.065 389.005C491.018 390.798 494.006 401.724 501.067 399.917Z" fill="white"/>
</g>
<path d="M583.466 308.038C582.83 308.023 582.201 308.184 581.649 308.503C581.098 308.822 580.645 309.286 580.339 309.845C565.391 334.906 560.023 364.532 565.23 393.245C565.299 393.98 565.631 394.666 566.164 395.176C566.698 395.687 567.397 395.988 568.135 396.025C570.4 396.178 610.724 396.025 612.198 396.025C612.795 396.039 613.389 395.921 613.935 395.68C614.482 395.438 614.969 395.079 615.361 394.627C615.752 394.176 616.039 393.643 616.202 393.068C616.364 392.492 616.397 391.888 616.298 391.299C611.589 364.564 616.687 337.027 630.657 313.751C632.38 310.887 629.837 308.191 627.265 308.191C626.098 308.01 586.038 308.093 583.466 308.038Z" fill="#0052E8"/>
<path opacity="0.2" d="M583.466 308.038C582.83 308.023 582.201 308.184 581.649 308.503C581.098 308.822 580.645 309.286 580.339 309.845C565.391 334.906 560.023 364.532 565.23 393.245C565.299 393.98 565.631 394.666 566.164 395.176C566.698 395.687 567.397 395.988 568.135 396.025C570.4 396.178 610.724 396.025 612.198 396.025C612.795 396.039 613.389 395.921 613.935 395.68C614.482 395.438 614.969 395.079 615.361 394.627C615.752 394.176 616.039 393.643 616.202 393.068C616.364 392.492 616.397 391.888 616.298 391.299C611.589 364.564 616.687 337.027 630.657 313.751C632.38 310.887 629.837 308.191 627.265 308.191C626.098 308.01 586.038 308.093 583.466 308.038Z" fill="black"/>
<path d="M572.499 391.188C567.796 364.453 572.894 336.918 586.858 313.64C589.374 309.47 582.841 305.675 580.339 309.845C565.391 334.906 560.023 364.532 565.23 393.245C566.091 398.012 573.361 396.025 572.499 391.243V391.188Z" fill="#0052E8"/>
<g opacity="0.2">
<path opacity="0.2" d="M572.499 391.188C567.796 364.453 572.894 336.918 586.858 313.64C589.374 309.47 582.841 305.675 580.339 309.845C565.391 334.906 560.023 364.532 565.23 393.245C566.091 398.012 573.361 396.025 572.499 391.243V391.188Z" fill="white"/>
</g>
</svg>
