<svg width="735" height="548" viewBox="0 0 735 548" fill="none" xmlns="http://www.w3.org/2000/svg">
<path d="M735 481.278H0V481.645H735V481.278Z" fill="#EBEBEB"/>
<path d="M115.336 495.272H77.1162V495.64H115.336V495.272Z" fill="#EBEBEB"/>
<path d="M294.632 491.289H215.105V491.656H294.632V491.289Z" fill="#EBEBEB"/>
<path d="M155.497 508.929H116.806V509.296H155.497V508.929Z" fill="#EBEBEB"/>
<path d="M661.353 506.459H633.085V506.827H661.353V506.459Z" fill="#EBEBEB"/>
<path d="M619.987 506.459H575.461V506.827H619.987V506.459Z" fill="#EBEBEB"/>
<path d="M459.801 500.256H379.598V500.623H459.801V500.256Z" fill="#EBEBEB"/>
<path d="M348.39 415.716H64.5478C62.3242 415.712 60.193 414.826 58.622 413.252C57.0511 411.679 56.1688 409.546 56.1688 407.322V8.3202C56.1881 6.10936 57.079 3.99543 58.6478 2.43758C60.2167 0.879733 62.3368 0.00378729 64.5478 0H348.39C350.616 0 352.751 0.884334 354.325 2.45846C355.899 4.03258 356.784 6.16755 356.784 8.3937V407.322C356.784 409.548 355.899 411.683 354.325 413.258C352.751 414.832 350.616 415.716 348.39 415.716ZM64.5478 0.294001C62.4216 0.297895 60.3839 1.14523 58.8819 2.65001C57.3799 4.15479 56.5363 6.19406 56.5363 8.3202V407.322C56.5363 409.448 57.3799 411.488 58.8819 412.992C60.3839 414.497 62.4216 415.345 64.5478 415.348H348.39C350.518 415.345 352.557 414.498 354.061 412.993C355.566 411.489 356.412 409.45 356.416 407.322V8.3202C356.412 6.19271 355.566 4.15347 354.061 2.64911C352.557 1.14475 350.518 0.297887 348.39 0.294001H64.5478Z" fill="#EBEBEB"/>
<path d="M666.366 415.716H382.509C380.284 415.712 378.151 414.827 376.578 413.253C375.005 411.68 374.119 409.547 374.115 407.322V8.3202C374.138 6.10802 375.032 3.9941 376.604 2.43666C378.175 0.87922 380.296 0.00374599 382.509 0H666.366C668.574 0.00765061 670.691 0.885306 672.256 2.44274C673.822 4.00017 674.711 6.1119 674.73 8.3202V407.322C674.73 409.543 673.85 411.674 672.282 413.247C670.714 414.82 668.587 415.708 666.366 415.716ZM382.509 0.294001C380.381 0.297887 378.342 1.14475 376.838 2.64911C375.333 4.15347 374.486 6.19271 374.483 8.3202V407.322C374.486 409.45 375.333 411.489 376.838 412.993C378.342 414.498 380.381 415.345 382.509 415.348H666.366C668.493 415.345 670.532 414.498 672.037 412.993C673.541 411.489 674.388 409.45 674.392 407.322V8.3202C674.388 6.19271 673.541 4.15347 672.037 2.64911C670.532 1.14475 668.493 0.297887 666.366 0.294001H382.509Z" fill="#EBEBEB"/>
<path d="M648.638 326.84H608.213V481.278H648.638V326.84Z" fill="#E6E6E6"/>
<path d="M640.964 481.278H648.637V459.434H632.908L640.964 481.278Z" fill="#F0F0F0"/>
<path d="M417.965 326.84H377.54V481.278H417.965V326.84Z" fill="#E6E6E6"/>
<path d="M648.638 326.84H411.262V467.872H648.638V326.84Z" fill="#F0F0F0"/>
<path d="M419.156 333.984V440.559H489.525V333.984H419.156Z" fill="#E6E6E6"/>
<path d="M461.301 340.099H447.38C444.388 340.1 441.427 339.492 438.677 338.312C435.927 337.131 433.447 335.404 431.386 333.234H477.294C475.234 335.404 472.753 337.131 470.003 338.312C467.254 339.492 464.293 340.1 461.301 340.099Z" fill="#F0F0F0"/>
<path d="M494.773 333.999V440.574H565.142V333.999H494.773Z" fill="#E6E6E6"/>
<path d="M537.623 340.099H523.702C520.713 340.098 517.754 339.489 515.007 338.309C512.26 337.129 509.782 335.402 507.723 333.234H553.617C551.556 335.404 549.076 337.131 546.326 338.312C543.576 339.492 540.615 340.1 537.623 340.099Z" fill="#F0F0F0"/>
<path d="M570.375 333.999V440.574H640.744V333.999H570.375Z" fill="#E6E6E6"/>
<path d="M613.24 340.099H599.319C596.327 340.1 593.366 339.492 590.616 338.312C587.867 337.131 585.386 335.404 583.325 333.234H629.16C627.108 335.395 624.639 337.117 621.903 338.297C619.167 339.477 616.22 340.09 613.24 340.099Z" fill="#F0F0F0"/>
<path d="M418.935 481.278H411.262V459.434H426.991L418.935 481.278Z" fill="#F0F0F0"/>
<path d="M323.047 27.9153H100.342V236.508H323.047V27.9153Z" fill="#E6E6E6"/>
<path d="M331.044 27.9153H104.076V236.508H331.044V27.9153Z" fill="#F0F0F0"/>
<path d="M323.047 236.508H100.342V251.37H323.047V236.508Z" fill="#E6E6E6"/>
<path d="M344.362 236.508H117.394V251.37H344.362V236.508Z" fill="#F0F0F0"/>
<path d="M319.857 225.307V39.1167L115.277 39.1167V225.307H319.857Z" fill="#FAFAFA"/>
<path d="M136.695 225.307L202.419 39.1167H233.436L167.712 225.307H136.695Z" fill="white"/>
<path d="M120.452 162.141C120.666 162.141 120.872 162.056 121.024 161.904C121.175 161.753 121.26 161.547 121.26 161.333V46.3932C121.256 46.1814 121.17 45.9795 121.018 45.831C120.867 45.6826 120.664 45.5994 120.452 45.5994C120.241 45.5994 120.039 45.6831 119.891 45.8319C119.742 45.9808 119.658 46.1827 119.658 46.3932V161.333C119.658 161.544 119.741 161.748 119.89 161.899C120.038 162.05 120.24 162.137 120.452 162.141Z" fill="#F0F0F0"/>
<path d="M174.386 225.307L240.11 39.1167H252.193L186.484 225.307H174.386Z" fill="white"/>
<path d="M319.843 225.307V39.1167H318.417V225.307H319.843Z" fill="#E6E6E6"/>
<path opacity="0.5" d="M333.69 58.4177H110.985L109.956 43.4678H332.661L333.69 58.4177Z" fill="#E6E6E6"/>
<path opacity="0.5" d="M333.69 69.3546H110.985L109.956 54.4047H332.661L333.69 69.3546Z" fill="#E6E6E6"/>
<path opacity="0.5" d="M333.69 82.4817H110.985L109.956 67.5318H332.661L333.69 82.4817Z" fill="#E6E6E6"/>
<path opacity="0.5" d="M333.69 97.0935H110.985L109.956 82.1436H332.661L333.69 97.0935Z" fill="#E6E6E6"/>
<path opacity="0.5" d="M333.69 114.601H110.985L109.956 99.6513H332.661L333.69 114.601Z" fill="#E6E6E6"/>
<path opacity="0.5" d="M333.69 134.284H110.985L109.956 119.335H332.661L333.69 134.284Z" fill="#E6E6E6"/>
<path d="M336.086 342.804H270.171V481.278H336.086V342.804Z" fill="#E6E6E6"/>
<path d="M329.456 481.278H336.086V462.418H322.503L329.456 481.278Z" fill="#F0F0F0"/>
<path d="M173.945 342.804H108.03V481.278H173.945V342.804Z" fill="#E6E6E6"/>
<path d="M336.071 342.804H168.153V469.709H336.071V342.804Z" fill="#F0F0F0"/>
<path d="M330.941 348.419H173.298V383.229H330.941V348.419Z" fill="#E6E6E6"/>
<path d="M259.558 359.239H244.667C238.199 359.239 232.025 354.946 227.571 347.361H276.669C272.215 354.946 266.07 359.239 259.558 359.239Z" fill="#F0F0F0"/>
<path d="M174.783 481.278H168.153V462.418H181.736L174.783 481.278Z" fill="#F0F0F0"/>
<path d="M330.941 388.844H173.298V423.654H330.941V388.844Z" fill="#E6E6E6"/>
<path d="M259.558 399.664H244.667C238.199 399.664 232.025 395.371 227.571 387.786H276.669C272.215 395.43 266.07 399.664 259.558 399.664Z" fill="#F0F0F0"/>
<path d="M330.941 429.269H173.298V464.079H330.941V429.269Z" fill="#E6E6E6"/>
<path d="M259.558 440.089H244.667C238.199 440.089 232.025 435.796 227.571 428.211H276.669C272.215 435.796 266.07 440.089 259.558 440.089Z" fill="#F0F0F0"/>
<path d="M602.215 56.551H474.237V227.718H602.215V56.551Z" fill="#E6E6E6"/>
<path d="M610.535 56.551H476.03V227.718H610.535V56.551Z" fill="#F0F0F0"/>
<path d="M591.91 209.093V75.1611H494.64V209.093H591.91Z" fill="white"/>
<path d="M591.91 209.093V75.1611H590.455V209.093H591.91Z" fill="#E6E6E6"/>
<path d="M545.091 113.807H515.97C515.684 113.807 515.409 113.92 515.206 114.121C515.002 114.322 514.886 114.595 514.882 114.88V143.942C514.905 150.953 517.701 157.67 522.658 162.627C527.615 167.584 534.332 170.379 541.342 170.402H570.404C570.693 170.402 570.969 170.288 571.173 170.084C571.377 169.88 571.492 169.603 571.492 169.315V140.311C571.484 133.302 568.703 126.581 563.757 121.615C558.81 116.649 552.1 113.842 545.091 113.807ZM541.46 168.3C535.003 168.292 528.814 165.723 524.25 161.157C519.686 156.59 517.12 150.399 517.117 143.942V116.012H545.047C551.502 116.02 557.691 118.587 562.256 123.15C566.822 127.713 569.393 133.9 569.404 140.356L541.46 168.3Z" fill="#F0F0F0"/>
<path d="M367.5 547.663C524.911 547.663 652.518 540.213 652.518 531.023C652.518 521.833 524.911 514.382 367.5 514.382C210.089 514.382 82.4817 521.833 82.4817 531.023C82.4817 540.213 210.089 547.663 367.5 547.663Z" fill="#F5F5F5"/>
<path d="M362.487 48.51C361.15 40.3956 366.633 33.81 374.747 33.81H315.462C307.348 33.81 301.864 40.3809 303.202 48.51H362.487Z" fill="#0052E8"/>
<path opacity="0.3" d="M362.487 48.51C361.15 40.3956 366.633 33.81 374.747 33.81H315.462C307.348 33.81 301.864 40.3809 303.202 48.51H362.487Z" fill="black"/>
<path d="M374.747 33.81H315.462C319.565 33.9463 323.498 35.4768 326.614 38.1492C329.73 40.8215 331.842 44.476 332.602 48.51L345.582 126.89C346.345 130.923 348.457 134.576 351.573 137.248C354.688 139.92 358.621 141.451 362.722 141.59H392.622C400.737 141.59 406.22 135.005 404.882 126.89L391.887 48.51C391.127 44.476 389.015 40.8215 385.899 38.1492C382.783 35.4768 378.85 33.9463 374.747 33.81Z" fill="#0052E8"/>
<path d="M374.982 126.935C376.32 135.049 370.837 141.635 362.723 141.635H422.008C423.853 141.697 425.688 141.337 427.373 140.583C429.058 139.828 430.548 138.699 431.731 137.281C432.913 135.864 433.757 134.195 434.196 132.401C434.636 130.608 434.66 128.739 434.267 126.935H374.982Z" fill="#0052E8"/>
<path opacity="0.3" d="M374.982 126.935C376.32 135.049 370.837 141.635 362.723 141.635H422.008C423.853 141.697 425.688 141.337 427.373 140.583C429.058 139.828 430.548 138.699 431.731 137.281C432.913 135.864 433.757 134.195 434.196 132.401C434.636 130.608 434.66 128.739 434.267 126.935H374.982Z" fill="black"/>
<path d="M384.523 55.3162H342.201C341.955 55.3073 341.72 55.2152 341.533 55.055C341.346 54.8948 341.219 54.6759 341.172 54.4342C341.147 54.3258 341.148 54.2131 341.173 54.1049C341.199 53.9968 341.25 53.896 341.321 53.8106C341.392 53.7251 341.482 53.6573 341.584 53.6125C341.685 53.5677 341.796 53.547 341.907 53.5522H384.229C384.475 53.5611 384.71 53.6531 384.897 53.8133C385.084 53.9735 385.211 54.1924 385.258 54.4342C385.283 54.5425 385.282 54.6552 385.257 54.7634C385.231 54.8716 385.18 54.9723 385.109 55.0578C385.038 55.1432 384.948 55.211 384.846 55.2558C384.744 55.3006 384.634 55.3213 384.523 55.3162Z" fill="white"/>
<path d="M361.076 61.4313H343.216C342.97 61.4224 342.734 61.3304 342.547 61.1702C342.36 61.01 342.233 60.7911 342.187 60.5493C342.162 60.441 342.162 60.3283 342.188 60.2201C342.213 60.1119 342.264 60.0112 342.335 59.9257C342.406 59.8403 342.496 59.7725 342.598 59.7277C342.7 59.6829 342.811 59.6622 342.922 59.6673H360.782C361.028 59.6762 361.264 59.7683 361.451 59.9285C361.638 60.0887 361.765 60.3076 361.811 60.5493C361.833 60.6574 361.831 60.769 361.804 60.8759C361.777 60.9828 361.726 61.0823 361.656 61.167C361.585 61.2517 361.496 61.3195 361.396 61.3652C361.296 61.411 361.186 61.4336 361.076 61.4313Z" fill="white"/>
<path d="M377.599 61.4314H365.251C365.007 61.4219 364.773 61.3293 364.589 61.1689C364.404 61.0085 364.28 60.79 364.237 60.5494C364.212 60.4423 364.212 60.331 364.237 60.2239C364.262 60.1169 364.311 60.017 364.381 59.9319C364.45 59.8467 364.538 59.7786 364.638 59.7328C364.738 59.687 364.847 59.6646 364.957 59.6674H377.305C377.549 59.6769 377.783 59.7696 377.967 59.9299C378.152 60.0903 378.276 60.3089 378.319 60.5494C378.344 60.6565 378.344 60.7678 378.319 60.8749C378.294 60.9819 378.245 61.0818 378.175 61.167C378.106 61.2521 378.018 61.3202 377.918 61.366C377.818 61.4119 377.709 61.4342 377.599 61.4314Z" fill="white"/>
<path d="M386.61 67.62H344.23C343.985 67.6145 343.75 67.5254 343.563 67.3677C343.375 67.2099 343.248 66.993 343.201 66.7527C343.176 66.6444 343.176 66.5317 343.202 66.4235C343.228 66.3153 343.278 66.2145 343.349 66.1291C343.42 66.0437 343.511 65.9759 343.612 65.9311C343.714 65.8862 343.825 65.8656 343.936 65.8707H386.257C386.503 65.8796 386.739 65.9717 386.926 66.1319C387.113 66.2921 387.24 66.511 387.286 66.7527C387.308 66.8552 387.307 66.9611 387.283 67.063C387.259 67.165 387.214 67.2606 387.149 67.3432C387.085 67.4257 387.003 67.4933 386.91 67.5411C386.817 67.5889 386.715 67.6158 386.61 67.62Z" fill="white"/>
<path d="M383.391 73.6765H345.244C344.998 73.6676 344.762 73.5755 344.576 73.4153C344.389 73.2551 344.262 73.0363 344.215 72.7945C344.193 72.6865 344.196 72.5749 344.223 72.4679C344.249 72.361 344.3 72.2615 344.371 72.1768C344.441 72.0921 344.53 72.0244 344.63 71.9786C344.731 71.9329 344.84 71.9103 344.95 71.9125H383.17C383.416 71.9214 383.652 72.0135 383.839 72.1737C384.026 72.3339 384.153 72.5527 384.199 72.7945C384.223 72.909 384.22 73.0276 384.189 73.1405C384.158 73.2534 384.101 73.3574 384.022 73.4436C383.943 73.5299 383.844 73.596 383.735 73.6366C383.625 73.6771 383.507 73.6908 383.391 73.6765Z" fill="white"/>
<path d="M371.91 79.7916H346.258C346.012 79.7827 345.777 79.6907 345.59 79.5304C345.403 79.3702 345.276 79.1514 345.229 78.9096C345.207 78.8023 345.209 78.6913 345.236 78.585C345.263 78.4787 345.314 78.38 345.385 78.2963C345.456 78.2127 345.545 78.1463 345.645 78.1023C345.746 78.0583 345.855 78.0377 345.964 78.0423H371.631C371.874 78.053 372.107 78.1439 372.293 78.3008C372.479 78.4576 372.608 78.6717 372.66 78.9096C372.682 79.0189 372.679 79.1318 372.652 79.2399C372.624 79.3479 372.572 79.4482 372.5 79.5332C372.427 79.6182 372.337 79.6857 372.235 79.7304C372.132 79.7752 372.021 79.7961 371.91 79.7916Z" fill="white"/>
<path d="M389.55 85.9216H347.273C347.027 85.9127 346.791 85.8206 346.604 85.6604C346.417 85.5002 346.29 85.2813 346.244 85.0396C346.222 84.9315 346.224 84.8199 346.251 84.713C346.278 84.6061 346.329 84.5066 346.399 84.4219C346.47 84.3372 346.559 84.2694 346.659 84.2237C346.759 84.1779 346.869 84.1553 346.979 84.1576H389.3C389.546 84.1665 389.782 84.2585 389.969 84.4187C390.156 84.5789 390.283 84.7978 390.329 85.0396C390.356 85.1518 390.355 85.2687 390.327 85.3806C390.299 85.4925 390.244 85.596 390.168 85.6824C390.092 85.7688 389.996 85.8356 389.888 85.8773C389.781 85.9189 389.665 85.9341 389.55 85.9216Z" fill="white"/>
<path d="M390.608 92.0368H348.287C348.041 92.0279 347.805 91.9358 347.618 91.7756C347.432 91.6154 347.304 91.3965 347.258 91.1548C347.236 91.0468 347.239 90.9352 347.265 90.8282C347.292 90.7213 347.343 90.6218 347.414 90.5371C347.484 90.4524 347.573 90.3847 347.673 90.3389C347.774 90.2932 347.883 90.2706 347.993 90.2728H390.329C390.573 90.2823 390.807 90.3749 390.991 90.5353C391.176 90.6957 391.3 90.9142 391.343 91.1548C391.368 91.2631 391.368 91.3758 391.342 91.484C391.317 91.5922 391.266 91.6929 391.195 91.7784C391.124 91.8638 391.034 91.9316 390.932 91.9764C390.83 92.0213 390.719 92.0419 390.608 92.0368Z" fill="white"/>
<path d="M374.968 98.152H349.301C349.058 98.1413 348.825 98.0504 348.639 97.8935C348.453 97.7366 348.324 97.5226 348.272 97.2847C348.25 97.1766 348.253 97.065 348.28 96.9581C348.307 96.8512 348.357 96.7517 348.428 96.667C348.498 96.5823 348.587 96.5145 348.688 96.4688C348.788 96.423 348.897 96.4004 349.007 96.4027H374.674C374.92 96.4116 375.155 96.5036 375.342 96.6638C375.529 96.8241 375.656 97.0429 375.703 97.2847C375.725 97.392 375.723 97.503 375.696 97.6093C375.669 97.7156 375.618 97.8143 375.547 97.898C375.476 97.9816 375.387 98.048 375.287 98.092C375.186 98.136 375.077 98.1565 374.968 98.152Z" fill="white"/>
<path d="M399.265 114.982L401.913 116.625L442.538 51.1291L439.89 49.4865L399.265 114.982Z" fill="#263238"/>
<path opacity="0.3" d="M399.265 114.982L401.913 116.625L442.538 51.1291L439.89 49.4865L399.265 114.982Z" fill="black"/>
<path d="M393.978 111.708L396.627 113.351L437.252 47.8549L434.604 46.2123L393.978 111.708Z" fill="#263238"/>
<path opacity="0.3" d="M393.978 111.708L396.627 113.351L437.252 47.8549L434.604 46.2123L393.978 111.708Z" fill="black"/>
<path d="M396.64 113.339L399.289 114.982L439.914 49.4858L437.265 47.8431L396.64 113.339Z" fill="#263238"/>
<path d="M393.916 118.012L396.297 119.496L401.927 116.63L393.989 111.705L393.916 118.012Z" fill="#FF8B7B"/>
<path d="M393.886 120.731L396.297 119.496L393.916 118.012L393.886 120.731Z" fill="#263238"/>
<path d="M392.49 121.275H392.387C390.417 120.464 388.676 119.182 387.316 117.541C386.462 116.626 385.533 115.785 384.537 115.028C384.387 114.902 384.197 114.833 384.001 114.833C383.805 114.833 383.615 114.902 383.464 115.028C383.344 115.158 383.278 115.328 383.278 115.505C383.278 115.682 383.344 115.853 383.464 115.983C383.817 116.512 384.214 117.012 384.611 117.453C384.77 117.628 384.87 117.85 384.893 118.085C384.917 118.321 384.864 118.558 384.743 118.761C384.615 118.94 384.433 119.073 384.224 119.139C384.014 119.205 383.789 119.202 383.582 119.129C383.023 118.946 382.473 118.735 381.935 118.497C381.888 118.454 381.826 118.432 381.762 118.434C381.698 118.436 381.638 118.462 381.593 118.507C381.548 118.552 381.521 118.612 381.52 118.676C381.518 118.74 381.54 118.802 381.583 118.85L381.656 119.041C381.743 119.234 381.778 119.448 381.757 119.659C381.737 119.87 381.661 120.073 381.538 120.246C381.413 120.412 381.247 120.544 381.057 120.628C380.867 120.713 380.658 120.749 380.451 120.731C373.981 120.426 367.499 120.45 361.032 120.805C360.935 120.805 360.841 120.766 360.772 120.697C360.703 120.628 360.664 120.535 360.664 120.437C360.664 120.34 360.703 120.246 360.772 120.177C360.841 120.108 360.935 120.07 361.032 120.07C367.524 119.715 374.03 119.691 380.524 119.996C380.607 120.01 380.692 120.001 380.769 119.97C380.847 119.939 380.915 119.887 380.965 119.82C381.009 119.744 381.032 119.658 381.032 119.57C381.032 119.482 381.009 119.396 380.965 119.32L380.892 119.158C380.789 118.971 380.749 118.756 380.779 118.545C380.809 118.334 380.907 118.138 381.058 117.987C381.209 117.836 381.405 117.738 381.616 117.708C381.827 117.678 382.042 117.718 382.229 117.821C382.734 118.058 383.255 118.26 383.788 118.423C383.834 118.459 383.891 118.478 383.949 118.478C384.008 118.478 384.065 118.459 384.111 118.423C384.148 118.354 384.161 118.275 384.147 118.198C384.134 118.12 384.095 118.05 384.037 117.997C383.611 117.497 383.214 116.968 382.847 116.439C382.635 116.163 382.528 115.822 382.544 115.474C382.56 115.127 382.698 114.797 382.935 114.542C383.207 114.29 383.564 114.15 383.935 114.15C384.305 114.15 384.662 114.29 384.934 114.542C385.993 115.316 386.978 116.187 387.874 117.144C389.131 118.616 390.711 119.778 392.49 120.54C392.537 120.555 392.58 120.579 392.617 120.611C392.654 120.643 392.685 120.682 392.707 120.726C392.729 120.77 392.742 120.817 392.745 120.866C392.748 120.915 392.741 120.964 392.725 121.01C392.711 121.071 392.683 121.127 392.642 121.173C392.6 121.219 392.548 121.254 392.49 121.275Z" fill="white"/>
<path d="M386.184 175.136L396.018 158.128H376.364L386.184 175.136Z" fill="#0052E8"/>
<path d="M496.537 125.185C492.357 121.487 486.914 119.54 481.337 119.746C477.765 112.543 470.4 108.339 462.609 109.765C451.437 111.808 448.027 125.229 455.788 130.124C458.355 131.751 461.135 133.012 464.05 133.873V134.226C459.485 135.872 455.493 138.8 452.551 142.659C449.61 146.518 447.845 151.144 447.468 155.982C446.321 172.622 464.197 182.354 473.928 173.093C475.274 171.815 476.55 170.466 477.75 169.05C479.632 171.696 481.66 174.401 483.85 177.223C508.164 166.022 512.266 138.753 496.537 125.185Z" fill="#263238"/>
<path d="M447.659 189.88C447.512 191.938 447.336 193.731 447.071 195.613C446.807 197.495 446.557 199.317 446.248 201.155C445.631 204.845 444.778 208.505 443.911 212.106C442.122 219.433 439.621 226.567 436.443 233.407L436.134 234.054C436.017 234.303 435.987 234.392 435.767 234.833C435.399 235.56 434.961 236.249 434.459 236.891C433.511 238.054 432.373 239.049 431.092 239.831C428.977 241.092 426.643 241.944 424.213 242.344C420.207 242.961 416.135 243.015 412.115 242.506C404.672 241.594 397.357 239.833 390.314 237.258L391.931 231.378C395.327 231.893 398.87 232.363 402.339 232.672C405.756 233.044 409.192 233.22 412.629 233.201C415.785 233.258 418.935 232.923 422.008 232.201C423.119 231.933 424.171 231.459 425.109 230.805C425.342 230.636 425.537 230.421 425.683 230.173C425.722 230.099 425.752 230.02 425.771 229.938L426.182 228.879C426.8 227.306 427.403 225.719 427.917 224.087C428.432 222.455 428.975 220.838 429.49 219.207C430.416 215.899 431.327 212.592 432.077 209.211C432.827 205.83 433.444 202.449 434.018 199.038C434.591 195.628 435.047 192.1 435.385 188.925L447.659 189.88Z" fill="#FFB573"/>
<path d="M439.295 175.165C434.326 176.415 430.857 196.833 430.857 196.833L444.528 206.123C444.528 206.123 457.64 185.543 453.818 180.09C449.82 174.401 446.527 173.313 439.295 175.165Z" fill="#263238"/>
<path opacity="0.2" d="M439.736 179.722L435.928 200.288L443.602 205.506L439.736 179.722Z" fill="black"/>
<path d="M386.816 231.643L377.54 235.2L388.021 241.521C388.021 241.521 394.71 237.655 394.533 232.701L393.504 232.113C392.494 231.543 391.37 231.204 390.213 231.123C389.056 231.042 387.896 231.219 386.816 231.643Z" fill="#FFB573"/>
<path opacity="0.1" d="M386.125 232.098L381.539 233.73C380.642 234.033 379.764 234.386 378.907 234.788C378.907 234.788 381.935 236.053 383.45 235.2C385.746 235.373 388.055 235.235 390.314 234.788L386.125 232.098Z" fill="black"/>
<path d="M371.763 242.094L379.657 248.665L388.007 241.58L377.54 235.259L371.763 242.094Z" fill="#FFB573"/>
<path d="M466.122 518.734H454.098L453.289 490.862H465.328L466.122 518.734Z" fill="#FFB573"/>
<path d="M453.686 517.337H467.195C467.43 517.331 467.659 517.412 467.837 517.564C468.016 517.716 468.133 517.928 468.166 518.16L469.636 528.862C469.665 529.132 469.636 529.404 469.553 529.662C469.469 529.92 469.332 530.158 469.15 530.359C468.968 530.56 468.746 530.721 468.498 530.83C468.25 530.939 467.981 530.995 467.71 530.993C463.006 530.92 460.727 530.641 454.774 530.641C451.128 530.641 440.618 531.023 435.561 531.023C430.504 531.023 430.24 526.025 432.342 525.569C441.779 523.541 448.512 520.748 451.613 518.072C452.196 517.59 452.93 517.33 453.686 517.337Z" fill="#263238"/>
<g opacity="0.2">
<path opacity="0.2" d="M453.289 490.862L453.701 505.239H465.74L465.328 490.862H453.289Z" fill="black"/>
</g>
<path d="M439.295 175.165C439.295 175.165 433.562 177.179 445.042 247.798H493.92C493.097 227.909 493.082 215.634 502.593 174.813C495.75 173.396 488.813 172.482 481.837 172.078C474.447 171.549 467.029 171.549 459.64 172.078C450.099 172.946 439.295 175.165 439.295 175.165Z" fill="#263238"/>
<path d="M472.958 194.525C468.92 194.405 464.996 193.163 461.624 190.938C461.585 190.912 461.551 190.878 461.525 190.838C461.5 190.798 461.482 190.754 461.474 190.707C461.466 190.661 461.467 190.613 461.478 190.567C461.488 190.52 461.508 190.477 461.536 190.439C461.563 190.398 461.597 190.363 461.638 190.335C461.678 190.308 461.724 190.289 461.772 190.279C461.819 190.27 461.869 190.27 461.917 190.279C461.965 190.289 462.01 190.308 462.05 190.336C465.654 192.698 469.9 193.89 474.207 193.746C475.81 192.732 486.893 185.338 487.731 172.534C487.735 172.486 487.748 172.439 487.77 172.395C487.792 172.352 487.822 172.314 487.859 172.282C487.896 172.251 487.939 172.227 487.985 172.212C488.031 172.197 488.08 172.192 488.128 172.196C488.177 172.2 488.224 172.213 488.267 172.235C488.31 172.257 488.348 172.287 488.38 172.324C488.411 172.361 488.435 172.404 488.45 172.45C488.465 172.496 488.47 172.545 488.466 172.593C487.614 185.691 476.706 193.07 474.516 194.408C474.463 194.422 474.407 194.422 474.354 194.408C473.884 194.511 473.413 194.525 472.958 194.525Z" fill="white"/>
<path d="M452.157 192.261C452.095 192.283 452.028 192.283 451.966 192.261C451.43 191.845 450.991 191.316 450.681 190.711C450.371 190.107 450.198 189.442 450.173 188.763C449.482 184.279 451.143 176.444 454.583 172.387C454.617 172.351 454.658 172.323 454.704 172.304C454.749 172.285 454.798 172.275 454.847 172.275C454.897 172.275 454.946 172.285 454.991 172.304C455.037 172.323 455.078 172.351 455.112 172.387C455.179 172.456 455.217 172.548 455.217 172.644C455.217 172.741 455.179 172.833 455.112 172.902C451.849 176.709 450.158 184.368 450.82 188.689C450.885 189.807 451.374 190.859 452.187 191.629C454.222 191.276 456.2 190.648 458.067 189.762C458.157 189.727 458.257 189.727 458.347 189.762C458.437 189.798 458.51 189.866 458.552 189.954C458.571 189.998 458.582 190.046 458.583 190.094C458.584 190.143 458.575 190.191 458.557 190.236C458.539 190.281 458.513 190.322 458.479 190.357C458.445 190.392 458.405 190.419 458.361 190.439C456.39 191.337 454.301 191.951 452.157 192.261Z" fill="white"/>
<path d="M479.632 147.088C478.235 154.218 476.839 167.316 481.837 172.078C481.837 172.078 479.882 179.325 466.607 179.325C452.01 179.325 459.64 172.078 459.64 172.078C467.592 170.167 467.387 164.258 466.005 158.716L479.632 147.088Z" fill="#FFB573"/>
<path d="M481.822 172.078C474.432 171.549 467.014 171.549 459.625 172.078L458.155 172.225C456.376 175.577 455.935 180.737 460.183 188.395C460.183 188.395 479.646 180.546 484.718 172.343C483.777 172.196 482.807 172.122 481.822 172.078Z" fill="#FFB573"/>
<path opacity="0.2" d="M474.075 151.836L465.99 158.76C466.34 160.05 466.571 161.368 466.681 162.7C469.724 162.259 473.899 158.922 474.222 155.732C474.416 154.436 474.366 153.114 474.075 151.836Z" fill="black"/>
<path d="M487.334 134.711C484.615 146.339 483.703 151.322 476.736 156.335C466.269 163.89 452.584 158.01 451.746 145.795C451.011 134.814 455.597 117.629 467.916 114.925C470.625 114.314 473.445 114.405 476.108 115.19C478.772 115.975 481.191 117.427 483.136 119.409C485.081 121.391 486.488 123.837 487.223 126.515C487.957 129.193 487.996 132.014 487.334 134.711Z" fill="#FFB573"/>
<path d="M445.042 247.798C445.042 247.798 435.546 340.511 436.34 377.158C437.163 415.378 451.143 502.387 451.143 502.387H467.46C467.46 502.387 464.888 417.554 466.328 380.069C467.901 339.188 480.881 247.769 480.881 247.769L445.042 247.798Z" fill="#0052E8"/>
<path opacity="0.3" d="M445.042 247.798C445.042 247.798 435.546 340.511 436.34 377.158C437.163 415.378 451.143 502.387 451.143 502.387H467.46C467.46 502.387 464.888 417.554 466.328 380.069C467.901 339.188 480.881 247.769 480.881 247.769L445.042 247.798Z" fill="white"/>
<path d="M468.827 503.034H449.732L448.335 496.948L469.724 496.199L468.827 503.034Z" fill="#263238"/>
<path opacity="0.2" d="M466.122 270.862C454.127 295.014 463.711 339.07 467.96 355.461C470.135 330.853 473.84 300.747 476.677 278.653C474.81 266.158 471.664 259.734 466.122 270.862Z" fill="black"/>
<path d="M522.379 518.734H510.34L505.93 490.862H517.955L522.379 518.734Z" fill="#FFB573"/>
<path d="M509.752 517.337H523.32C523.562 517.341 523.796 517.424 523.986 517.572C524.177 517.721 524.315 517.927 524.378 518.16L527.318 528.862C527.39 529.115 527.401 529.382 527.351 529.64C527.3 529.898 527.19 530.141 527.028 530.349C526.866 530.556 526.658 530.723 526.42 530.835C526.181 530.947 525.92 531.001 525.657 530.994C520.939 530.92 518.631 530.641 512.677 530.641C509.017 530.641 498.565 531.023 493.567 531.023C488.569 531.023 487.599 526.025 489.642 525.569C498.815 523.541 505.107 520.748 507.944 518.072C508.439 517.618 509.08 517.357 509.752 517.337Z" fill="#263238"/>
<g opacity="0.2">
<path opacity="0.2" d="M505.93 490.862L508.208 505.239H520.248L517.969 490.862H505.93Z" fill="black"/>
</g>
<path d="M458.64 247.798C458.64 247.798 468.739 340.511 474.296 377.158C480.073 415.378 505.357 502.387 505.357 502.387H521.556C521.556 502.387 507.973 417.554 504.548 380.069C500.814 339.188 494.361 247.769 494.361 247.769L458.64 247.798Z" fill="#0052E8"/>
<path opacity="0.3" d="M458.64 247.798C458.64 247.798 468.739 340.511 474.296 377.158C480.073 415.378 505.357 502.387 505.357 502.387H521.556C521.556 502.387 507.973 417.554 504.548 380.069C500.814 339.188 494.361 247.769 494.361 247.769L458.64 247.798Z" fill="white"/>
<path d="M523.041 503.034H503.945L501.755 496.948L523.041 496.199V503.034Z" fill="#263238"/>
<path d="M505.504 519.439C504.446 519.524 503.39 519.266 502.49 518.704C502.277 518.539 502.103 518.328 501.984 518.086C501.864 517.844 501.801 517.578 501.799 517.308C501.783 517.159 501.81 517.009 501.878 516.876C501.946 516.742 502.051 516.632 502.181 516.558C503.549 515.75 508.664 518.19 509.237 518.484C509.295 518.508 509.345 518.548 509.379 518.601C509.413 518.653 509.43 518.715 509.428 518.778C509.429 518.833 509.411 518.887 509.376 518.93C509.341 518.973 509.292 519.003 509.237 519.013C508.009 519.275 506.759 519.418 505.504 519.439ZM503.034 516.955C502.856 516.943 502.679 516.978 502.52 517.058C502.466 517.088 502.423 517.133 502.397 517.189C502.37 517.244 502.362 517.306 502.373 517.367C502.375 517.542 502.415 517.714 502.491 517.871C502.568 518.029 502.678 518.168 502.813 518.278C503.637 518.939 505.621 519.042 508.238 518.601C506.602 517.779 504.845 517.223 503.034 516.955Z" fill="#0052E8"/>
<path d="M509.179 519.013H509.061C507.591 518.352 504.372 515.764 504.416 514.397C504.416 514.074 504.607 513.677 505.386 513.589C505.974 513.539 506.558 513.718 507.018 514.089C508.249 515.369 509.086 516.976 509.428 518.719C509.438 518.767 509.435 518.817 509.42 518.863C509.404 518.91 509.377 518.951 509.34 518.984C509.29 519.009 509.234 519.019 509.179 519.013ZM505.68 514.133H505.518C505.004 514.133 504.989 514.397 504.989 514.456C504.989 515.279 507.15 517.322 508.723 518.204C508.42 516.802 507.721 515.517 506.709 514.5C506.417 514.265 506.055 514.136 505.68 514.133Z" fill="#0052E8"/>
<path d="M468.063 134.637C467.901 135.593 467.254 136.284 466.593 136.107C465.931 135.931 465.578 135.137 465.755 134.182C465.931 133.226 466.549 132.535 467.225 132.638C467.901 132.741 468.224 133.682 468.063 134.637Z" fill="#263238"/>
<path d="M457.243 132.8C457.082 133.755 456.435 134.446 455.773 134.27C455.112 134.093 454.774 133.314 454.936 132.344C455.097 131.374 455.729 130.698 456.406 130.874C457.082 131.051 457.405 131.844 457.243 132.8Z" fill="#263238"/>
<path d="M456.67 130.977L454.48 129.919C454.48 129.919 455.362 131.918 456.67 130.977Z" fill="#263238"/>
<path d="M460.286 135.093C459.075 137.128 457.591 138.988 455.876 140.62C456.308 141.049 456.826 141.381 457.397 141.591C457.968 141.802 458.577 141.887 459.184 141.84L460.286 135.093Z" fill="#ED893E"/>
<path d="M463.712 146.471C463.219 146.471 462.727 146.427 462.242 146.339C462.205 146.333 462.169 146.32 462.137 146.301C462.105 146.282 462.078 146.257 462.056 146.226C462.034 146.196 462.018 146.162 462.01 146.126C462.001 146.089 462 146.052 462.006 146.015C462.021 145.939 462.064 145.872 462.127 145.828C462.191 145.784 462.268 145.767 462.344 145.78C463.529 146.007 464.75 145.953 465.909 145.621C467.069 145.289 468.134 144.689 469.018 143.869C469.044 143.84 469.076 143.818 469.112 143.802C469.147 143.786 469.185 143.778 469.224 143.778C469.263 143.778 469.301 143.786 469.336 143.802C469.372 143.818 469.404 143.84 469.43 143.869C469.456 143.895 469.477 143.926 469.491 143.96C469.505 143.994 469.513 144.03 469.513 144.067C469.513 144.104 469.505 144.141 469.491 144.175C469.477 144.209 469.456 144.24 469.43 144.266C467.89 145.728 465.834 146.521 463.712 146.471Z" fill="#263238"/>
<path d="M493.009 116.601C491.628 115.632 490.061 114.961 488.407 114.631C487.07 103.165 477.882 95.8735 467.636 98.1814C456.023 100.798 451.981 115.204 459.787 120.114C464.378 122.919 469.564 124.606 474.928 125.038C475.133 134.549 481.057 142.678 485.218 143.119C497.095 138.386 500.168 121.643 493.009 116.601Z" fill="#263238"/>
<path d="M488.687 146.03C487.515 148.02 485.61 149.472 483.38 150.072C480.44 150.822 478.97 148.161 479.882 145.398C480.661 142.913 483.16 139.518 486.114 139.973C486.756 140.091 487.358 140.365 487.868 140.773C488.377 141.181 488.777 141.708 489.032 142.309C489.287 142.909 489.389 143.563 489.329 144.213C489.269 144.862 489.048 145.487 488.687 146.03Z" fill="#FFB573"/>
<path d="M472.781 133.167C472.66 133.167 472.543 133.128 472.445 133.057C472.347 132.986 472.275 132.886 472.238 132.77C471.458 130.257 468.239 129.169 468.21 129.169C468.066 129.122 467.946 129.02 467.877 128.885C467.808 128.75 467.796 128.593 467.842 128.449C467.864 128.376 467.9 128.309 467.948 128.251C467.997 128.193 468.056 128.145 468.124 128.111C468.191 128.076 468.265 128.056 468.34 128.051C468.415 128.046 468.491 128.056 468.563 128.081C468.71 128.081 472.385 129.36 473.325 132.491C473.372 132.635 473.359 132.792 473.29 132.927C473.221 133.062 473.102 133.164 472.958 133.211L472.781 133.167Z" fill="#263238"/>
<path d="M454.847 127.243C454.747 127.243 454.649 127.217 454.561 127.168C454.474 127.12 454.4 127.049 454.348 126.964C454.274 126.831 454.255 126.675 454.297 126.529C454.338 126.383 454.436 126.259 454.568 126.185C455.342 125.717 456.217 125.44 457.12 125.379C458.023 125.317 458.927 125.473 459.757 125.832C459.873 125.91 459.955 126.028 459.99 126.163C460.025 126.298 460.009 126.441 459.946 126.566C459.883 126.69 459.777 126.787 459.647 126.839C459.518 126.89 459.374 126.893 459.243 126.846C458.579 126.575 457.861 126.463 457.146 126.519C456.431 126.575 455.74 126.798 455.127 127.17C455.043 127.221 454.946 127.247 454.847 127.243Z" fill="#263238"/>
<path d="M508.208 188.822C509.678 195.745 510.649 202.551 511.472 209.505C512.341 216.485 512.832 223.507 512.942 230.54C512.942 230.893 512.942 231.628 512.942 232.275C512.942 232.922 512.839 233.451 512.765 233.995C512.589 235.068 512.398 236.067 512.148 236.935C511.678 238.816 511.119 240.566 510.531 242.286C509.355 245.711 507.959 248.959 506.547 252.164C503.672 258.52 500.478 264.726 496.978 270.759L491.45 268.187L494.729 258.514C495.831 255.31 496.889 252.076 497.874 248.856C498.859 245.637 499.815 242.447 500.638 239.301C501.035 237.729 501.373 236.17 501.608 234.7C501.726 233.965 501.814 233.23 501.873 232.642C501.873 232.334 501.873 232.054 501.873 231.804L501.799 230.967C501.535 227.674 501.152 224.366 500.756 221.044L499.374 211.048C498.359 204.404 497.228 197.671 496.096 191.1L508.208 188.822Z" fill="#FFB573"/>
<path d="M502.593 174.813C507.488 176.283 513.368 193.158 513.368 193.158L494.361 206.741C494.361 206.741 487.437 192.673 489.495 186.337C491.642 179.752 496.992 173.107 502.593 174.813Z" fill="#263238"/>
<path d="M449.158 519.439C448.123 519.543 447.083 519.283 446.218 518.704C446.023 518.533 445.874 518.315 445.784 518.071C445.694 517.827 445.667 517.565 445.704 517.308C445.711 517.153 445.758 517.002 445.84 516.871C445.923 516.739 446.038 516.632 446.174 516.558C447.644 515.75 452.451 518.19 452.995 518.484C453.048 518.511 453.09 518.554 453.117 518.607C453.143 518.66 453.152 518.719 453.142 518.778C453.134 518.835 453.109 518.888 453.069 518.93C453.03 518.972 452.978 519.001 452.922 519.013C451.683 519.271 450.423 519.414 449.158 519.439ZM447.012 516.955C446.83 516.944 446.648 516.98 446.483 517.058C446.426 517.087 446.378 517.131 446.345 517.186C446.311 517.24 446.293 517.303 446.292 517.367C446.27 517.533 446.287 517.703 446.344 517.861C446.4 518.02 446.493 518.163 446.615 518.278C447.35 518.939 449.335 519.042 451.996 518.601C450.442 517.77 448.756 517.213 447.012 516.955Z" fill="#0052E8"/>
<path d="M452.892 519.013H452.76C451.29 518.351 448.482 515.764 448.717 514.397C448.717 514.074 448.997 513.677 449.776 513.589C450.061 513.56 450.348 513.59 450.621 513.676C450.894 513.762 451.146 513.902 451.363 514.088C452.833 515.353 453.157 518.587 453.157 518.719C453.165 518.77 453.158 518.822 453.138 518.869C453.117 518.916 453.082 518.956 453.039 518.984C452.994 519.006 452.943 519.016 452.892 519.013ZM450.026 514.133H449.82C449.305 514.133 449.276 514.397 449.261 514.456C449.129 515.279 451.055 517.322 452.51 518.204C452.415 516.847 451.902 515.553 451.04 514.5C450.761 514.253 450.398 514.122 450.026 514.133Z" fill="#0052E8"/>
<path d="M467.46 132.815L465.27 131.756C465.27 131.756 466.181 133.77 467.46 132.815Z" fill="#263238"/>
<path d="M494.655 244.932L495.905 249.342C496.081 249.694 495.669 250.032 495.111 250.032H444.793C444.352 250.032 443.999 249.812 443.969 249.547L443.528 245.137C443.528 244.829 443.881 244.579 444.352 244.579H493.92C494.062 244.575 494.202 244.605 494.33 244.667C494.458 244.728 494.569 244.819 494.655 244.932Z" fill="#0052E8"/>
<path d="M488.04 250.459H489.363C489.628 250.459 489.819 250.326 489.804 250.165L489.187 244.476C489.187 244.314 488.937 244.167 488.672 244.167H487.349C487.084 244.167 486.879 244.314 486.893 244.476L487.525 250.165C487.511 250.326 487.746 250.459 488.04 250.459Z" fill="#0052E8"/>
<g opacity="0.3">
<path opacity="0.3" d="M488.04 250.459H489.363C489.628 250.459 489.819 250.326 489.804 250.165L489.187 244.476C489.187 244.314 488.937 244.167 488.672 244.167H487.349C487.084 244.167 486.879 244.314 486.893 244.476L487.525 250.165C487.511 250.326 487.746 250.459 488.04 250.459Z" fill="white"/>
</g>
<path d="M448.526 250.459H449.849C450.114 250.459 450.32 250.326 450.305 250.165L449.673 244.476C449.673 244.314 449.423 244.167 449.159 244.167H447.836C447.571 244.167 447.365 244.314 447.395 244.476L448.012 250.165C448.027 250.326 448.262 250.459 448.526 250.459Z" fill="#0052E8"/>
<path opacity="0.3" d="M448.526 250.459H449.849C450.114 250.459 450.32 250.326 450.305 250.165L449.673 244.476C449.673 244.314 449.423 244.167 449.159 244.167H447.836C447.571 244.167 447.365 244.314 447.395 244.476L448.012 250.165C448.027 250.326 448.262 250.459 448.526 250.459Z" fill="white"/>
<path d="M468.269 250.459H469.592C469.856 250.459 470.062 250.326 470.033 250.165L469.415 244.476C469.415 244.314 469.165 244.167 468.901 244.167H467.578C467.313 244.167 467.107 244.314 467.137 244.476L467.754 250.165C467.769 250.326 468.004 250.459 468.269 250.459Z" fill="#0052E8"/>
<path opacity="0.3" d="M468.269 250.459H469.592C469.856 250.459 470.062 250.326 470.033 250.165L469.415 244.476C469.415 244.314 469.165 244.167 468.901 244.167H467.578C467.313 244.167 467.107 244.314 467.137 244.476L467.754 250.165C467.769 250.326 468.004 250.459 468.269 250.459Z" fill="white"/>
<path d="M491.671 267.099L482.336 276.154L494.508 277.374C494.508 277.374 498.918 271.009 496.61 266.57L491.671 267.099Z" fill="#FFB573"/>
<path d="M480.955 286.18L491.215 286.65L494.508 277.374L482.336 276.154L480.955 286.18Z" fill="#FFB573"/>
<path d="M242.991 520.542C244.15 520.677 245.319 520.39 246.284 519.733C246.418 519.583 246.504 519.397 246.53 519.197C246.556 518.998 246.522 518.795 246.431 518.616C246.364 518.467 246.265 518.336 246.14 518.232C246.015 518.127 245.868 518.053 245.711 518.013C243.976 517.528 239.831 519.674 239.713 519.777C239.663 519.8 239.621 519.838 239.592 519.885C239.563 519.932 239.549 519.987 239.551 520.042C239.554 520.091 239.572 520.138 239.604 520.175C239.636 520.212 239.68 520.238 239.728 520.248C240.805 520.441 241.897 520.54 242.991 520.542ZM245.02 518.454C245.18 518.431 245.344 518.431 245.505 518.454C245.601 518.474 245.691 518.516 245.768 518.577C245.845 518.639 245.906 518.717 245.946 518.807C246.078 519.13 245.946 519.292 245.946 519.38C245.343 520.071 242.609 520.086 240.639 519.807C242.009 519.103 243.491 518.645 245.02 518.454Z" fill="#0052E8"/>
<path d="M239.772 520.248H239.889C241.271 519.66 244.196 517.308 244.182 516.102C244.182 515.808 244.02 515.455 243.329 515.382C242.802 515.345 242.279 515.502 241.859 515.823C240.727 516.97 239.937 518.411 239.581 519.983C239.566 520.025 239.565 520.07 239.578 520.113C239.592 520.155 239.618 520.192 239.654 520.218C239.689 520.24 239.73 520.25 239.772 520.248ZM243.05 515.838H243.212C243.653 515.838 243.667 516.058 243.667 516.117C243.667 516.852 241.653 518.689 240.198 519.483C240.524 518.224 241.184 517.076 242.109 516.161C242.384 515.967 242.713 515.864 243.05 515.867V515.838Z" fill="#0052E8"/>
<path d="M227.938 519.998H238.743L243.491 494.978H232.686L227.938 519.998Z" fill="#B55B52"/>
<path d="M238.846 518.748H227.086C226.861 518.756 226.644 518.83 226.461 518.961C226.278 519.092 226.137 519.273 226.057 519.483L222.514 529.082C222.415 529.291 222.371 529.521 222.388 529.751C222.404 529.981 222.479 530.203 222.606 530.395C222.733 530.587 222.908 530.743 223.114 530.848C223.319 530.953 223.548 531.003 223.778 530.993C228.056 530.993 234.23 530.685 239.581 530.685C245.828 530.685 245.255 531.023 252.59 531.023C257 531.023 258.911 526.539 257.118 526.128C248.944 524.29 247.989 524.084 241.359 519.586C240.627 519.056 239.75 518.763 238.846 518.748Z" fill="#263238"/>
<path opacity="0.2" d="M243.491 494.993L241.036 507.885H230.231L232.686 494.993H243.491Z" fill="black"/>
<path d="M244.299 250.562L251.37 257.985L239.963 261.969C239.963 261.969 235.817 255.912 239.007 251.767L244.299 250.562Z" fill="#B55B52"/>
<path d="M253.487 268.363L242.197 270.01L239.963 261.969L251.37 257.985L253.487 268.363Z" fill="#B55B52"/>
<path d="M201.919 312.169L257.015 314.58C258.31 314.6 259.571 314.172 260.587 313.368C261.602 312.565 262.308 311.435 262.586 310.17L269.172 276.507C269.308 275.937 269.315 275.343 269.191 274.77C269.067 274.196 268.816 273.658 268.456 273.195C268.096 272.732 267.637 272.356 267.112 272.095C266.587 271.833 266.01 271.693 265.423 271.685L210.328 269.26C209.035 269.243 207.777 269.673 206.765 270.476C205.752 271.28 205.048 272.408 204.771 273.67L198.171 307.333C198.031 307.904 198.023 308.5 198.145 309.075C198.268 309.65 198.519 310.19 198.879 310.655C199.239 311.12 199.7 311.497 200.226 311.759C200.752 312.021 201.331 312.162 201.919 312.169Z" fill="#263238"/>
<path d="M205.697 322.518L273.758 325.458C275.302 325.517 276.809 324.981 277.969 323.961C279.129 322.94 279.853 321.513 279.991 319.975L283.592 278.197C283.665 277.455 283.585 276.706 283.357 275.996C283.128 275.286 282.757 274.63 282.265 274.069C281.773 273.508 281.171 273.054 280.497 272.735C279.823 272.416 279.09 272.239 278.344 272.215L210.298 269.275C208.755 269.223 207.25 269.761 206.089 270.779C204.928 271.798 204.199 273.221 204.051 274.758L200.449 316.535C200.379 317.277 200.46 318.026 200.69 318.735C200.919 319.444 201.291 320.099 201.782 320.659C202.273 321.219 202.874 321.673 203.548 321.993C204.221 322.313 204.952 322.491 205.697 322.518Z" fill="#0052E8"/>
<path opacity="0.2" d="M205.697 322.518L273.758 325.458C275.302 325.517 276.809 324.981 277.969 323.961C279.129 322.94 279.853 321.513 279.991 319.975L283.592 278.197C283.665 277.455 283.585 276.706 283.357 275.996C283.128 275.286 282.757 274.63 282.265 274.069C281.773 273.508 281.171 273.054 280.497 272.735C279.823 272.416 279.09 272.239 278.344 272.215L210.298 269.275C208.755 269.223 207.25 269.761 206.089 270.779C204.928 271.798 204.199 273.221 204.051 274.758L200.449 316.535C200.379 317.277 200.46 318.026 200.69 318.735C200.919 319.444 201.291 320.099 201.782 320.659C202.273 321.219 202.874 321.673 203.548 321.993C204.221 322.313 204.952 322.491 205.697 322.518Z" fill="black"/>
<path d="M255.633 283.284H255.457L235.7 282.416C235.185 282.399 234.679 282.276 234.214 282.056C233.748 281.835 233.333 281.522 232.993 281.135C232.653 280.748 232.395 280.296 232.236 279.806C232.077 279.316 232.021 278.799 232.069 278.286L232.848 269.275C233.04 267.432 233.92 265.731 235.313 264.51C236.706 263.289 238.508 262.638 240.36 262.689L253.59 263.262C254.546 263.3 255.484 263.532 256.348 263.944C257.211 264.356 257.982 264.939 258.613 265.659C259.244 266.378 259.723 267.218 260.019 268.127C260.315 269.037 260.424 269.998 260.337 270.951L259.587 279.682C259.489 280.665 259.031 281.577 258.301 282.242C257.571 282.907 256.621 283.278 255.633 283.284ZM236.523 278.021L255.207 278.844L255.927 270.554C255.968 270.191 255.933 269.823 255.825 269.475C255.717 269.126 255.538 268.803 255.299 268.527C255.06 268.251 254.766 268.027 254.437 267.87C254.107 267.713 253.749 267.626 253.384 267.614L240.154 267.026C239.434 267.02 238.737 267.279 238.195 267.753C237.653 268.227 237.304 268.884 237.214 269.598L236.523 278.021Z" fill="#0052E8"/>
<path d="M281.035 325.826L212.988 322.886C211.433 322.795 209.968 322.126 208.88 321.011C207.793 319.896 207.161 318.415 207.108 316.859L206.197 274.89C206.167 274.149 206.292 273.41 206.565 272.721C206.838 272.032 207.253 271.407 207.782 270.888C208.311 270.369 208.943 269.966 209.637 269.706C210.331 269.446 211.072 269.334 211.812 269.378L279.873 272.318C281.43 272.405 282.896 273.072 283.985 274.188C285.073 275.304 285.704 276.787 285.753 278.345L286.65 320.313C286.678 321.053 286.551 321.791 286.277 322.479C286.003 323.167 285.589 323.791 285.06 324.31C284.532 324.829 283.901 325.232 283.207 325.493C282.514 325.754 281.774 325.867 281.035 325.826Z" fill="#0052E8"/>
<path d="M260.881 168.344C260.161 169.814 259.308 171.49 258.544 173.093C257.779 174.695 257.074 176.4 256.265 178.061C254.795 181.398 253.325 184.75 252.061 188.116C250.797 191.482 249.621 194.878 248.577 198.244C248.092 199.935 247.592 201.611 247.225 203.272C247.004 204.11 246.813 204.947 246.666 205.756L246.431 206.991C246.343 207.417 246.254 207.843 246.225 208.137C246.225 208.784 246.049 209.372 246.019 210.239C245.99 211.107 245.916 211.812 245.916 212.709C245.916 214.429 245.916 216.237 245.916 218.045C245.99 221.705 246.21 225.395 246.431 229.188C246.857 236.699 247.489 244.329 248.077 251.855L234.612 254.031C232.789 246.372 231.349 238.787 230.055 231.01C229.438 227.13 228.908 223.219 228.467 219.25C228.262 217.222 228.056 215.208 227.953 213.077C227.865 212.062 227.85 210.916 227.835 209.798C227.821 208.681 227.835 207.417 227.968 206.153C227.997 205.577 228.056 205.003 228.144 204.433L228.35 202.816C228.467 201.728 228.629 200.67 228.82 199.641C229.173 197.524 229.614 195.481 230.055 193.437C231.011 189.395 232.098 185.411 233.392 181.56C234.686 177.708 236.053 173.886 237.581 170.153C238.346 168.286 239.051 166.433 239.963 164.581C240.874 162.729 241.595 160.965 242.609 158.936L260.881 168.344Z" fill="#0052E8"/>
<path d="M290.34 245.299C290.34 245.299 279.947 326.046 273.935 358.974C267.672 393.225 245.49 505.386 245.49 505.386H227.13C227.13 505.386 236.45 395.224 240.58 361.591C245.093 324.841 252.34 245.299 252.34 245.299H290.34Z" fill="#263238"/>
<path d="M250.018 498.095C250.106 498.095 247.871 505.695 247.871 505.695H225.616L226.013 498.918L250.018 498.095Z" fill="#0052E8"/>
<path d="M299.189 111.205C299.189 112.117 299.674 112.867 300.277 112.867C300.88 112.867 301.35 112.117 301.35 111.205C301.35 110.294 300.865 109.559 300.277 109.559C299.689 109.559 299.189 110.25 299.189 111.205Z" fill="#263238"/>
<path d="M299.586 112.867C300.69 115.664 302.174 118.295 303.996 120.687C303.366 121.139 302.645 121.447 301.883 121.589C301.12 121.731 300.337 121.704 299.586 121.51V112.867Z" fill="#A02724"/>
<path d="M295.955 106.134C296.064 106.135 296.171 106.104 296.264 106.046C296.798 105.632 297.424 105.351 298.089 105.228C298.754 105.106 299.439 105.144 300.086 105.34C300.219 105.389 300.365 105.383 300.494 105.326C300.623 105.268 300.724 105.163 300.777 105.031C300.803 104.966 300.815 104.896 300.814 104.825C300.812 104.755 300.796 104.685 300.768 104.621C300.739 104.557 300.698 104.499 300.646 104.451C300.595 104.402 300.534 104.365 300.468 104.341C299.655 104.078 298.791 104.016 297.949 104.16C297.107 104.303 296.312 104.648 295.632 105.164C295.518 105.249 295.443 105.375 295.421 105.515C295.399 105.655 295.432 105.798 295.514 105.913C295.564 105.983 295.631 106.04 295.707 106.078C295.784 106.117 295.869 106.136 295.955 106.134Z" fill="#263238"/>
<path d="M270.245 121.304C271.715 129.213 273.332 143.693 267.805 148.955C267.805 148.955 269.965 156.967 284.651 156.967C300.821 156.967 292.354 148.955 292.354 148.955C283.534 146.853 283.783 140.326 285.312 134.182L270.245 121.304Z" fill="#B55B52"/>
<path d="M265.688 151.704C264.541 149.175 263.262 146.265 265.894 145.354C268.834 144.354 284.665 143.34 290.134 145.221C290.855 145.421 291.53 145.762 292.118 146.225C292.707 146.687 293.198 147.262 293.563 147.915C293.928 148.569 294.16 149.288 294.245 150.032C294.33 150.776 294.267 151.529 294.059 152.248L265.688 151.704Z" fill="#263238"/>
<path d="M246.534 152.057C237.082 156.349 231.202 188.895 231.202 188.895L249.738 194.775C253.38 186.181 256.406 177.338 258.794 168.315C262.16 154.732 256.206 147.676 246.534 152.057Z" fill="#0052E8"/>
<path d="M361.62 232.642H373.027L371.028 246.284C371.028 246.284 362.09 245.96 358.033 239.228L361.62 232.642Z" fill="#B55B52"/>
<path d="M383.758 237.39L378.025 247.93L370.969 246.313L372.968 232.672L383.758 237.39Z" fill="#B55B52"/>
<path d="M268.687 109.265C269.377 120.496 269.216 127.111 274.89 132.873C283.416 141.546 297.278 136.401 299.953 125.185C302.379 115.101 300.835 98.4312 289.84 93.9624C287.421 92.9658 284.788 92.604 282.191 92.9111C279.593 93.2183 277.117 94.1843 274.998 95.7175C272.878 97.2506 271.186 99.3 270.082 101.671C268.977 104.042 268.497 106.656 268.687 109.265Z" fill="#B55B52"/>
<path d="M267.393 124.538C267.393 124.538 257.221 109.28 259.426 99.3279C261.44 90.2286 281.975 86.9799 290.501 87.8913C299.557 88.8762 303.085 92.7716 298.116 100.621C295.184 102.011 292.101 103.057 288.929 103.738C288.929 103.738 293.971 109.927 294.015 114.028C292.545 114.792 288.002 116.615 288.002 116.615C288.002 116.615 281.564 132.506 281.373 132.476C278.888 132.182 273.141 132.094 271.083 132.873C269.625 130.202 268.39 127.414 267.393 124.538Z" fill="#263238"/>
<path d="M283.548 114.969C284.29 117.655 285.89 120.025 288.105 121.716C291.045 123.921 293.236 121.834 293.015 118.526C292.824 115.586 291.06 110.838 287.826 109.912C284.592 108.986 282.696 111.72 283.548 114.969Z" fill="#B55B52"/>
<path opacity="0.3" d="M282.549 275.478C268.099 278.83 270.789 331.103 273.567 360.9C273.699 360.223 273.802 359.591 273.92 358.974C277.507 339.364 282.637 302.82 286.209 276.448C285.097 275.805 283.833 275.471 282.549 275.478Z" fill="black"/>
<path d="M296.528 520.542C297.91 520.542 299.248 520.351 299.704 519.733C299.821 519.57 299.884 519.375 299.884 519.175C299.884 518.974 299.821 518.779 299.704 518.616C299.617 518.466 299.5 518.335 299.361 518.232C299.222 518.128 299.064 518.054 298.895 518.013C297.102 517.528 293.324 519.674 293.162 519.777C293.117 519.804 293.082 519.843 293.061 519.891C293.04 519.938 293.034 519.991 293.044 520.042C293.055 520.093 293.08 520.139 293.117 520.176C293.153 520.212 293.2 520.237 293.25 520.248C294.333 520.438 295.429 520.536 296.528 520.542ZM298.248 518.454C298.409 518.431 298.573 518.431 298.733 518.454C298.837 518.475 298.935 518.517 299.021 518.577C299.107 518.638 299.179 518.716 299.233 518.807C299.424 519.13 299.351 519.292 299.233 519.38C298.733 520.071 295.999 520.086 293.985 519.807C295.305 519.083 296.753 518.624 298.248 518.454Z" fill="#0052E8"/>
<path d="M293.265 520.248H293.368C294.676 519.66 297.263 517.308 297.058 516.102C297.058 515.808 296.808 515.456 296.102 515.382C295.84 515.35 295.574 515.373 295.321 515.448C295.068 515.524 294.833 515.652 294.632 515.823C293.25 516.955 292.971 519.866 292.956 519.983C292.951 520.028 292.957 520.073 292.975 520.115C292.993 520.156 293.022 520.192 293.059 520.218C293.121 520.254 293.195 520.265 293.265 520.248ZM295.896 515.838H296.058C296.514 515.838 296.543 516.058 296.558 516.117C296.675 516.852 294.911 518.69 293.618 519.483C293.753 518.251 294.266 517.09 295.088 516.161C295.318 515.978 295.602 515.874 295.896 515.867V515.838Z" fill="#0052E8"/>
<path d="M281.387 519.998H292.192L293.265 494.978H282.475L281.387 519.998Z" fill="#B55B52"/>
<path d="M292.118 518.748H280.358C280.144 518.749 279.936 518.822 279.768 518.955C279.6 519.089 279.482 519.275 279.432 519.483L277.301 529.082C277.25 529.314 277.252 529.554 277.307 529.785C277.362 530.016 277.468 530.231 277.618 530.415C277.768 530.598 277.957 530.746 278.172 530.846C278.387 530.946 278.622 530.997 278.859 530.993C283.107 530.993 289.252 530.685 294.603 530.685C300.865 530.685 306.26 531.023 313.595 531.023C318.005 531.023 319.255 526.539 317.402 526.128C308.95 524.29 302.056 524.084 294.75 519.586C293.968 519.066 293.057 518.776 292.118 518.748Z" fill="#263238"/>
<path opacity="0.2" d="M293.265 494.993L292.706 507.885H281.902L282.46 494.993H293.265Z" fill="black"/>
<path d="M309.611 245.299C309.611 245.299 311.081 326.046 309.92 358.974C308.7 393.225 296.69 505.386 296.69 505.386H278.447C278.447 505.386 277.771 395.224 276.977 361.591C276.081 324.841 271.656 245.299 271.656 245.299H309.611Z" fill="#263238"/>
<path d="M300.262 498.095C300.336 498.095 299.219 505.695 299.219 505.695H276.977L276.36 498.918L300.262 498.095Z" fill="#0052E8"/>
<path d="M308.965 151.954C308.965 151.954 321.93 171.711 311.067 252.076H250.062C249.665 243.256 257.03 193.173 248.474 151.395C254.858 150.166 261.315 149.351 267.805 148.955C275.981 148.484 284.177 148.484 292.354 148.955C297.96 149.52 303.514 150.523 308.965 151.954Z" fill="#0052E8"/>
<path opacity="0.2" d="M315.403 193.07L302.614 171.872C302.614 171.872 307.421 201.919 314.786 215.472C315.286 206.991 315.462 199.552 315.403 193.07Z" fill="black"/>
<path d="M320.857 167.418C322.959 174.136 325.267 181.016 327.634 187.748C330 194.481 332.47 201.17 335.175 207.593L336.204 209.975C336.292 210.152 336.371 210.333 336.439 210.519C336.499 210.655 336.568 210.788 336.645 210.916C337.297 211.889 338.057 212.786 338.909 213.591C341.228 215.751 343.721 217.718 346.361 219.471C349.125 221.382 352.05 223.234 355.064 224.984C358.077 226.733 361.194 228.526 364.163 230.07L358.445 243.417C351.209 240.762 344.186 237.558 337.439 233.833C333.827 231.817 330.386 229.512 327.149 226.939C325.219 225.384 323.469 223.619 321.93 221.676C321.489 221.044 321.063 220.485 320.636 219.78C320.21 219.074 319.74 218.192 319.607 217.898L318.314 215.326C314.947 208.475 311.934 201.625 309.156 194.746C306.377 187.866 303.79 180.942 301.306 173.783L320.857 167.418Z" fill="#0052E8"/>
<path d="M294.559 156.834C290.781 166.448 313.757 205.153 313.757 205.153L328.707 190.85C328.707 190.85 325.443 178.693 321.092 164.052C316.8 149.661 298.16 147.647 294.559 156.834Z" fill="#0052E8"/>
</svg>
