<svg width="743" height="548" viewBox="0 0 743 548" fill="none" xmlns="http://www.w3.org/2000/svg">
<path d="M668.248 510.54H619.054V510.912H668.248V510.54Z" fill="#EBEBEB"/>
<path d="M491.969 514.58H479.062V514.951H491.969V514.58Z" fill="#EBEBEB"/>
<path d="M617.568 496.756H589.065V497.128H617.568V496.756Z" fill="#EBEBEB"/>
<path d="M142.071 499.252H77.9202V499.623H142.071V499.252Z" fill="#EBEBEB"/>
<path d="M164.708 499.252H155.306V499.623H164.708V499.252Z" fill="#EBEBEB"/>
<path d="M334.421 505.52H195.276V505.891H334.421V505.52Z" fill="#EBEBEB"/>
<path d="M352.022 420.396H65.2355C62.9861 420.396 60.8289 419.502 59.2384 417.912C57.6478 416.321 56.7543 414.164 56.7543 411.914V8.75264C56.7739 6.51618 57.6761 4.37799 59.2645 2.80348C60.8529 1.22897 62.9989 0.345617 65.2355 0.345703H352.022C354.271 0.345703 356.429 1.23926 358.019 2.82979C359.61 4.42033 360.503 6.57755 360.503 8.82691V411.914C360.503 414.164 359.61 416.321 358.019 417.912C356.429 419.502 354.271 420.396 352.022 420.396ZM65.2355 0.642769C63.0858 0.646696 61.0253 1.50239 59.5053 3.02243C57.9852 4.54248 57.1295 6.60298 57.1256 8.75264V411.914C57.1295 414.064 57.9852 416.125 59.5053 417.645C61.0253 419.165 63.0858 420.02 65.2355 420.024H352.022C354.172 420.02 356.232 419.165 357.752 417.645C359.272 416.125 360.128 414.064 360.132 411.914V8.75264C360.128 6.60298 359.272 4.54248 357.752 3.02243C356.232 1.50239 354.172 0.646696 352.022 0.642769H65.2355Z" fill="#EBEBEB"/>
<path d="M673.313 420.396H386.496C384.248 420.392 382.093 419.497 380.504 417.907C378.914 416.318 378.019 414.163 378.015 411.914V8.75264C378.039 6.5174 378.942 4.38145 380.53 2.80777C382.117 1.23409 384.261 0.349488 386.496 0.345703H673.313C675.544 0.353433 677.683 1.24024 679.265 2.81391C680.847 4.38758 681.745 6.52132 681.764 8.75264V411.914C681.764 414.159 680.875 416.311 679.291 417.901C677.707 419.491 675.557 420.388 673.313 420.396ZM386.496 0.642769C384.347 0.646696 382.286 1.50239 380.766 3.02243C379.246 4.54248 378.391 6.60298 378.387 8.75264V411.914C378.391 414.064 379.246 416.125 380.766 417.645C382.286 419.165 384.347 420.02 386.496 420.024H673.313C675.462 420.02 677.523 419.165 679.043 417.645C680.563 416.125 681.419 414.064 681.423 411.914V8.75264C681.419 6.60298 680.563 4.54248 679.043 3.02243C677.523 1.50239 675.462 0.646696 673.313 0.642769H386.496Z" fill="#EBEBEB"/>
<path d="M742.663 486.641H0V487.013H742.663V486.641Z" fill="#EBEBEB"/>
<path d="M223.987 237.879L135.907 258.793C135.545 258.878 135.17 258.892 134.803 258.832C134.436 258.773 134.084 258.641 133.768 258.445C133.452 258.249 133.178 257.993 132.961 257.69C132.744 257.388 132.59 257.046 132.506 256.683L104.537 138.927C104.363 138.196 104.485 137.426 104.878 136.786C105.271 136.145 105.901 135.687 106.632 135.511L160.89 122.633L206.223 150.854L226.096 234.507C226.261 235.234 226.132 235.996 225.736 236.628C225.341 237.26 224.712 237.709 223.987 237.879Z" fill="#F0F0F0"/>
<path d="M206.223 150.824L160.89 122.633L158.009 123.316L168.688 168.277L208.139 158.904L206.223 150.824Z" fill="#E6E6E6"/>
<path d="M206.148 150.512L169.58 159.202L160.89 122.633L206.148 150.512Z" fill="#FAFAFA"/>
<path d="M194.312 164.545L129.165 180.017L138.971 221.304L204.117 205.832L194.312 164.545Z" fill="#E6E6E6"/>
<path d="M153.865 202.781L143.052 220.338L171.421 213.594L153.865 202.781Z" fill="#FAFAFA"/>
<path d="M165.034 215.109L204.113 205.826L203.222 202.068L181.373 188.611L165.034 215.109Z" fill="#FAFAFA"/>
<path d="M165.673 186.843C166.003 188.222 165.917 189.667 165.425 190.996C164.932 192.325 164.057 193.478 162.909 194.309C161.761 195.14 160.392 195.612 158.976 195.665C157.56 195.717 156.16 195.348 154.953 194.604C153.747 193.86 152.788 192.775 152.199 191.486C151.61 190.197 151.417 188.762 151.644 187.363C151.871 185.964 152.508 184.664 153.475 183.628C154.441 182.591 155.693 181.865 157.073 181.541C158.917 181.104 160.859 181.417 162.471 182.411C164.084 183.405 165.236 185 165.673 186.843Z" fill="#FAFAFA"/>
<path d="M603.205 139.461L538.95 109.532C538.683 109.409 538.443 109.235 538.245 109.018C538.046 108.802 537.892 108.548 537.793 108.271C537.693 107.995 537.65 107.701 537.665 107.407C537.68 107.114 537.753 106.826 537.881 106.562L577.895 20.6355C578.02 20.3698 578.195 20.1313 578.412 19.9336C578.629 19.736 578.883 19.5831 579.159 19.4838C579.435 19.3844 579.728 19.3405 580.021 19.3546C580.314 19.3688 580.601 19.4406 580.866 19.5661L620.42 38.0286L634.575 77.36L606.146 138.392C605.898 138.924 605.449 139.335 604.897 139.536C604.346 139.736 603.737 139.71 603.205 139.461Z" fill="#EBEBEB"/>
<path d="M634.575 77.3601L620.42 38.0287L618.326 37.0632L603.042 69.8592L631.828 83.2568L634.575 77.3601Z" fill="#E0E0E0"/>
<path d="M634.679 77.1372L607.988 64.7198L620.42 38.0286L634.679 77.1372Z" fill="#F5F5F5"/>
<path d="M606.117 115.102L558.586 92.9558C555.378 91.4705 552.571 96.2235 555.794 97.7237L603.324 119.855C606.533 121.34 609.34 116.602 606.117 115.102Z" fill="#FAFAFA"/>
<path d="M569.845 67.6012L617.375 89.7474C620.569 91.2327 623.317 86.4796 620.153 84.9795L572.622 62.8481C569.429 61.3628 566.681 66.101 569.845 67.6012Z" fill="#FAFAFA"/>
<path d="M562.493 83.0636L610.023 105.21C613.216 106.695 615.964 101.942 612.801 100.442L565.27 78.3105C562.077 76.8252 559.329 81.5634 562.493 83.0636Z" fill="#FAFAFA"/>
<path d="M450.054 407.859L448.568 403.002C448.326 402.21 447.876 401.498 447.264 400.939C446.653 400.38 445.903 399.995 445.093 399.824L409.267 392.174C408.673 392.048 408.059 392.04 407.462 392.151C406.865 392.262 406.296 392.489 405.787 392.82C405.278 393.151 404.839 393.58 404.496 394.08C404.152 394.581 403.911 395.145 403.786 395.739L389.155 464.227C388.895 465.474 389.138 466.772 389.83 467.841C390.523 468.909 391.61 469.66 392.854 469.931L474.279 487.295C475.526 487.559 476.826 487.318 477.896 486.625C478.965 485.931 479.716 484.842 479.983 483.596L492.727 423.827C492.855 423.232 492.865 422.617 492.755 422.018C492.645 421.419 492.418 420.848 492.087 420.338C491.756 419.827 491.327 419.387 490.825 419.042C490.323 418.698 489.758 418.456 489.162 418.331L453.024 410.622C452.329 410.464 451.689 410.126 451.167 409.641C450.645 409.155 450.261 408.541 450.054 407.859Z" fill="#E0E0E0"/>
<path d="M489.192 418.331L453.366 410.697C452.558 410.523 451.719 410.57 450.935 410.831C450.151 411.092 449.452 411.559 448.91 412.182L445.598 416.029C445.127 416.568 444.521 416.972 443.842 417.2C443.163 417.427 442.436 417.469 441.736 417.321L405.583 409.612C404.384 409.357 403.132 409.587 402.102 410.252C401.072 410.917 400.347 411.964 400.087 413.162L389.155 464.228C388.895 465.474 389.138 466.773 389.83 467.841C390.523 468.909 391.61 469.661 392.854 469.932L474.279 487.295C475.526 487.559 476.826 487.318 477.896 486.625C478.965 485.932 479.716 484.843 479.983 483.597L492.727 423.827C492.856 423.234 492.867 422.622 492.759 422.024C492.651 421.427 492.426 420.857 492.098 420.347C491.77 419.836 491.344 419.396 490.845 419.05C490.347 418.704 489.785 418.46 489.192 418.331Z" fill="#F0F0F0"/>
<path d="M364.172 548C523.224 548 652.162 540.472 652.162 531.186C652.162 521.9 523.224 514.372 364.172 514.372C205.12 514.372 76.1823 521.9 76.1823 531.186C76.1823 540.472 205.12 548 364.172 548Z" fill="#F5F5F5"/>
<path d="M541.416 87.1777H194.087C184.334 87.1777 176.427 95.0846 176.427 104.838V368.914C176.427 378.668 184.334 386.575 194.087 386.575H541.416C551.17 386.575 559.076 378.668 559.076 368.914V104.838C559.076 95.0846 551.17 87.1777 541.416 87.1777Z" fill="#0052E8"/>
<path opacity="0.4" d="M541.416 87.1777H194.087C184.334 87.1777 176.427 95.0846 176.427 104.838V368.914C176.427 378.668 184.334 386.575 194.087 386.575H541.416C551.17 386.575 559.076 378.668 559.076 368.914V104.838C559.076 95.0846 551.17 87.1777 541.416 87.1777Z" fill="white"/>
<path opacity="0.8" d="M541.416 107.453H194.087C187.615 107.453 182.368 112.7 182.368 119.172V368.914C182.368 375.387 187.615 380.634 194.087 380.634H541.416C547.888 380.634 553.135 375.387 553.135 368.914V119.172C553.135 112.7 547.888 107.453 541.416 107.453Z" fill="white"/>
<path opacity="0.3" d="M203.712 91.9458H199.553C198.003 91.9458 196.746 93.2027 196.746 94.7531V98.912C196.746 100.462 198.003 101.719 199.553 101.719H203.712C205.263 101.719 206.52 100.462 206.52 98.912V94.7531C206.52 93.2027 205.263 91.9458 203.712 91.9458Z" fill="white"/>
<path opacity="0.5" d="M219.561 91.9458H215.402C213.851 91.9458 212.595 93.2027 212.595 94.7531V98.912C212.595 100.462 213.851 101.719 215.402 101.719H219.561C221.111 101.719 222.368 100.462 222.368 98.912V94.7531C222.368 93.2027 221.111 91.9458 219.561 91.9458Z" fill="white"/>
<path opacity="0.7" d="M235.424 91.9458H231.265C229.715 91.9458 228.458 93.2027 228.458 94.7531V98.912C228.458 100.462 229.715 101.719 231.265 101.719H235.424C236.974 101.719 238.231 100.462 238.231 98.912V94.7531C238.231 93.2027 236.974 91.9458 235.424 91.9458Z" fill="white"/>
<path d="M349.853 101.556V95.4067L346.779 100.546H346.007L342.932 95.4958V101.615H341.268V92.2578H342.754L346.467 98.4516L350.121 92.2578H351.606V101.615L349.853 101.556Z" fill="white"/>
<path d="M360.548 94.4116L357.206 102.12C356.991 102.765 356.6 103.336 356.077 103.769C355.6 104.092 355.034 104.258 354.458 104.244C354.099 104.244 353.742 104.184 353.403 104.066C353.088 103.966 352.795 103.805 352.542 103.591L353.21 102.358C353.375 102.511 353.566 102.631 353.775 102.715C353.987 102.802 354.214 102.847 354.443 102.848C354.704 102.859 354.961 102.781 355.171 102.625C355.398 102.408 355.575 102.145 355.691 101.853L355.81 101.586L352.705 94.4116H354.443L356.686 99.6994L358.944 94.4116H360.548Z" fill="white"/>
<path d="M367.172 93.6539V96.5057H371.703V97.991H367.172V101.571H365.39V92.2131H372.222V93.6985L367.172 93.6539Z" fill="white"/>
<path d="M373.738 92.956C373.638 92.8635 373.56 92.7504 373.509 92.6248C373.458 92.4991 373.434 92.3638 373.44 92.2282C373.435 92.0949 373.459 91.9621 373.511 91.839C373.562 91.7159 373.639 91.6054 373.738 91.5152C373.948 91.3234 374.225 91.222 374.51 91.233C374.787 91.2262 375.056 91.3214 375.267 91.5003C375.367 91.5869 375.447 91.6943 375.501 91.8149C375.554 91.9355 375.581 92.0664 375.579 92.1984C375.582 92.3371 375.556 92.4749 375.502 92.6027C375.448 92.7306 375.368 92.8459 375.267 92.9411C375.168 93.0397 375.05 93.1169 374.919 93.168C374.789 93.2191 374.65 93.243 374.51 93.2382C374.226 93.2431 373.951 93.1425 373.738 92.956ZM373.663 94.4413H375.327V101.586H373.663V94.4413Z" fill="white"/>
<path d="M377.525 91.634H379.189V101.556H377.525V91.634Z" fill="white"/>
<path d="M388.071 98.511H382.471C382.555 99.016 382.832 99.4687 383.244 99.7735C383.774 100.122 384.407 100.28 385.039 100.22C385.67 100.161 386.263 99.888 386.719 99.4467L387.625 100.486C387.299 100.873 386.88 101.169 386.407 101.348C385.876 101.55 385.312 101.651 384.744 101.645C384.024 101.662 383.31 101.504 382.664 101.185C382.09 100.887 381.612 100.434 381.283 99.8775C380.951 99.2995 380.782 98.6426 380.793 97.9763C380.786 97.3218 380.95 96.6768 381.268 96.1048C381.578 95.5543 382.036 95.1015 382.59 94.7977C383.173 94.4823 383.828 94.3236 384.491 94.3372C385.14 94.3217 385.781 94.4807 386.348 94.7977C386.892 95.0974 387.34 95.5455 387.64 96.0899C387.957 96.6832 388.116 97.3483 388.101 98.0208C388.101 98.1397 388.086 98.3773 388.071 98.511ZM383.214 96.1493C382.838 96.4714 382.595 96.9211 382.531 97.4118H386.586C386.537 96.9181 386.299 96.4622 385.923 96.1386C385.547 95.8151 385.061 95.6487 384.565 95.674C384.071 95.6532 383.587 95.8234 383.214 96.1493Z" fill="white"/>
<path d="M390.21 101.422C389.738 101.31 389.29 101.113 388.888 100.843L389.526 99.5803C390.281 100.033 391.142 100.274 392.022 100.278C393.017 100.278 393.507 100.026 393.507 99.4912C393.512 99.3756 393.478 99.2617 393.411 99.1675C393.344 99.0733 393.247 99.0043 393.136 98.9714C392.736 98.8352 392.323 98.7406 391.903 98.6891C391.4 98.6246 390.904 98.5203 390.418 98.3772C390.044 98.2713 389.709 98.0598 389.452 97.7682C389.162 97.4366 389.013 97.005 389.036 96.5651C389.028 96.2438 389.102 95.9256 389.253 95.6418C389.404 95.358 389.626 95.1183 389.898 94.9461C390.575 94.502 391.377 94.2884 392.185 94.3371C392.685 94.3315 393.184 94.3863 393.671 94.5005C394.092 94.5862 394.498 94.7365 394.874 94.9461L394.235 96.2235C393.613 95.8634 392.904 95.6786 392.185 95.6888C391.803 95.6696 391.421 95.7408 391.071 95.8967C390.958 95.9496 390.861 96.0333 390.793 96.1384C390.725 96.2434 390.687 96.3656 390.685 96.4909C390.683 96.6175 390.723 96.7412 390.798 96.8431C390.873 96.9451 390.979 97.0196 391.101 97.0553C391.512 97.1965 391.934 97.3009 392.363 97.3672C392.836 97.4343 393.303 97.5386 393.76 97.6791C394.119 97.7921 394.445 97.9909 394.71 98.2584C394.984 98.5915 395.122 99.016 395.096 99.4467C395.101 99.7653 395.025 100.08 394.874 100.361C394.723 100.641 394.503 100.879 394.235 101.051C393.522 101.486 392.693 101.693 391.858 101.645C391.302 101.642 390.747 101.567 390.21 101.422Z" fill="white"/>
<path d="M252.238 168.574L250.589 165.603C250.32 165.113 249.925 164.704 249.444 164.42C248.963 164.135 248.415 163.984 247.856 163.984H223.14C222.313 163.984 221.52 164.313 220.935 164.898C220.35 165.483 220.021 166.276 220.021 167.103V214.337C220.021 215.199 220.364 216.027 220.974 216.637C221.584 217.247 222.411 217.59 223.274 217.59H279.419C280.282 217.59 281.109 217.247 281.719 216.637C282.329 216.027 282.672 215.199 282.672 214.337V173.089C282.672 172.262 282.344 171.469 281.759 170.884C281.174 170.299 280.38 169.97 279.553 169.97H254.614C254.129 169.972 253.653 169.843 253.235 169.598C252.817 169.352 252.472 168.998 252.238 168.574Z" fill="#0052E8"/>
<path opacity="0.3" d="M252.238 168.574L250.589 165.603C250.32 165.113 249.925 164.704 249.444 164.42C248.963 164.135 248.415 163.984 247.856 163.984H223.14C222.313 163.984 221.52 164.313 220.935 164.898C220.35 165.483 220.021 166.276 220.021 167.103V214.337C220.021 215.199 220.364 216.027 220.974 216.637C221.584 217.247 222.411 217.59 223.274 217.59H279.419C280.282 217.59 281.109 217.247 281.719 216.637C282.329 216.027 282.672 215.199 282.672 214.337V173.089C282.672 172.262 282.344 171.469 281.759 170.884C281.174 170.299 280.38 169.97 279.553 169.97H254.614C254.129 169.972 253.653 169.843 253.235 169.598C252.817 169.352 252.472 168.998 252.238 168.574Z" fill="white"/>
<path d="M274.859 171.856H226.958V207.667H274.859V171.856Z" fill="#263238"/>
<path opacity="0.8" d="M274.859 171.856H226.958V207.667H274.859V171.856Z" fill="white"/>
<path d="M278.32 175.451H223.497V216.446H278.32V175.451Z" fill="#263238"/>
<path opacity="0.9" d="M278.32 175.451H223.497V216.446H278.32V175.451Z" fill="white"/>
<path d="M288.153 176.476H255.313C254.642 176.444 253.973 176.551 253.346 176.792C252.72 177.032 252.15 177.4 251.674 177.872L249.535 180.456C249.145 180.867 248.671 181.189 248.146 181.399C247.62 181.609 247.055 181.703 246.49 181.674H214.407C212.179 181.674 210.693 182.878 211.08 184.363C214.214 196.528 215.788 202.603 218.922 214.753C219.204 215.572 219.735 216.284 220.44 216.787C221.146 217.29 221.991 217.56 222.858 217.56H278.528C279.395 217.56 280.24 217.29 280.946 216.787C281.652 216.284 282.183 215.572 282.464 214.753L291.644 179.179C292.015 177.694 290.47 176.476 288.153 176.476Z" fill="#0052E8"/>
<g opacity="0.6">
<path opacity="0.6" d="M288.153 176.476H255.313C254.642 176.444 253.973 176.551 253.346 176.792C252.72 177.032 252.15 177.4 251.674 177.872L249.535 180.456C249.145 180.867 248.671 181.189 248.146 181.399C247.62 181.609 247.055 181.703 246.49 181.674H214.407C212.179 181.674 210.693 182.878 211.08 184.363C214.214 196.528 215.788 202.603 218.922 214.753C219.204 215.572 219.735 216.284 220.44 216.787C221.146 217.29 221.991 217.56 222.858 217.56H278.528C279.395 217.56 280.24 217.29 280.946 216.787C281.652 216.284 282.183 215.572 282.464 214.753L291.644 179.179C292.015 177.694 290.47 176.476 288.153 176.476Z" fill="white"/>
</g>
<path d="M221.313 235.354C220.786 235.421 220.251 235.374 219.743 235.218C219.235 235.062 218.767 234.8 218.368 234.449C217.969 234.097 217.65 233.665 217.432 233.181C217.213 232.697 217.1 232.172 217.1 231.64C217.1 231.109 217.213 230.584 217.432 230.1C217.65 229.616 217.969 229.184 218.368 228.832C218.767 228.481 219.235 228.219 219.743 228.063C220.251 227.907 220.786 227.86 221.313 227.927H281.217C281.744 227.86 282.279 227.907 282.787 228.063C283.295 228.219 283.763 228.481 284.162 228.832C284.561 229.184 284.88 229.616 285.098 230.1C285.317 230.584 285.43 231.109 285.43 231.64C285.43 232.172 285.317 232.697 285.098 233.181C284.88 233.665 284.561 234.097 284.162 234.449C283.763 234.8 283.295 235.062 282.787 235.218C282.279 235.374 281.744 235.421 281.217 235.354H221.313Z" fill="#263238"/>
<path opacity="0.6" d="M221.313 235.354C220.786 235.421 220.251 235.374 219.743 235.218C219.235 235.062 218.767 234.8 218.368 234.449C217.969 234.097 217.65 233.665 217.432 233.181C217.213 232.697 217.1 232.172 217.1 231.64C217.1 231.109 217.213 230.584 217.432 230.1C217.65 229.616 217.969 229.184 218.368 228.832C218.767 228.481 219.235 228.219 219.743 228.063C220.251 227.907 220.786 227.86 221.313 227.927H281.217C281.744 227.86 282.279 227.907 282.787 228.063C283.295 228.219 283.763 228.481 284.162 228.832C284.561 229.184 284.88 229.616 285.098 230.1C285.317 230.584 285.43 231.109 285.43 231.64C285.43 232.172 285.317 232.697 285.098 233.181C284.88 233.665 284.561 234.097 284.162 234.449C283.763 234.8 283.295 235.062 282.787 235.218C282.279 235.374 281.744 235.421 281.217 235.354H221.313Z" fill="white"/>
<path d="M363.905 168.574L362.256 165.603C361.986 165.114 361.59 164.706 361.11 164.422C360.629 164.137 360.081 163.986 359.523 163.984H334.867C334.039 163.984 333.246 164.313 332.661 164.898C332.076 165.483 331.747 166.276 331.747 167.103V214.337C331.745 214.763 331.828 215.186 331.99 215.58C332.151 215.975 332.39 216.334 332.69 216.636C332.991 216.938 333.349 217.178 333.743 217.342C334.137 217.505 334.559 217.59 334.985 217.59H391.145C391.572 217.59 391.994 217.505 392.388 217.342C392.782 217.178 393.14 216.938 393.44 216.636C393.741 216.334 393.979 215.975 394.141 215.58C394.303 215.186 394.385 214.763 394.383 214.337V173.089C394.383 172.262 394.055 171.469 393.47 170.884C392.885 170.299 392.092 169.97 391.264 169.97H366.326C365.833 169.98 365.347 169.855 364.921 169.609C364.494 169.363 364.143 169.005 363.905 168.574Z" fill="#0052E8"/>
<path opacity="0.3" d="M363.905 168.574L362.256 165.603C361.986 165.114 361.59 164.706 361.11 164.422C360.629 164.137 360.081 163.986 359.523 163.984H334.867C334.039 163.984 333.246 164.313 332.661 164.898C332.076 165.483 331.747 166.276 331.747 167.103V214.337C331.745 214.763 331.828 215.186 331.99 215.58C332.151 215.975 332.39 216.334 332.69 216.636C332.991 216.938 333.349 217.178 333.743 217.342C334.137 217.505 334.559 217.59 334.985 217.59H391.145C391.572 217.59 391.994 217.505 392.388 217.342C392.782 217.178 393.14 216.938 393.44 216.636C393.741 216.334 393.979 215.975 394.141 215.58C394.303 215.186 394.385 214.763 394.383 214.337V173.089C394.383 172.262 394.055 171.469 393.47 170.884C392.885 170.299 392.092 169.97 391.264 169.97H366.326C365.833 169.98 365.347 169.855 364.921 169.609C364.494 169.363 364.143 169.005 363.905 168.574Z" fill="white"/>
<path d="M386.586 171.856H338.684V207.667H386.586V171.856Z" fill="#263238"/>
<path opacity="0.8" d="M386.586 171.856H338.684V207.667H386.586V171.856Z" fill="white"/>
<path d="M390.046 175.451H335.223V216.446H390.046V175.451Z" fill="#263238"/>
<path opacity="0.9" d="M390.046 175.451H335.223V216.446H390.046V175.451Z" fill="white"/>
<path d="M399.894 176.476H367.039C366.366 176.443 365.694 176.551 365.065 176.791C364.437 177.031 363.864 177.399 363.385 177.872L361.231 180.456C360.85 180.857 360.388 181.173 359.876 181.383C359.364 181.593 358.813 181.692 358.26 181.674H326.103C323.89 181.674 322.405 182.877 322.776 184.363C325.925 196.527 327.484 202.602 330.619 214.752C330.902 215.571 331.433 216.281 332.139 216.784C332.844 217.287 333.688 217.558 334.555 217.56H390.239C391.106 217.558 391.95 217.287 392.655 216.784C393.361 216.281 393.892 215.571 394.176 214.752L403.355 179.179C403.726 177.694 402.182 176.476 399.894 176.476Z" fill="#0052E8"/>
<g opacity="0.6">
<path opacity="0.6" d="M399.894 176.476H367.039C366.366 176.443 365.694 176.551 365.065 176.791C364.437 177.031 363.864 177.399 363.385 177.872L361.231 180.456C360.85 180.857 360.388 181.173 359.876 181.383C359.364 181.593 358.813 181.692 358.26 181.674H326.103C323.89 181.674 322.405 182.877 322.776 184.363C325.925 196.527 327.484 202.602 330.619 214.752C330.902 215.571 331.433 216.281 332.139 216.784C332.844 217.287 333.688 217.558 334.555 217.56H390.239C391.106 217.558 391.95 217.287 392.655 216.784C393.361 216.281 393.892 215.571 394.176 214.752L403.355 179.179C403.726 177.694 402.182 176.476 399.894 176.476Z" fill="white"/>
</g>
<path d="M333.114 235.354C332.21 235.239 331.379 234.799 330.776 234.115C330.174 233.432 329.841 232.552 329.841 231.64C329.841 230.729 330.174 229.849 330.776 229.166C331.379 228.482 332.21 228.042 333.114 227.927H393.017C393.544 227.86 394.079 227.907 394.587 228.063C395.095 228.219 395.564 228.481 395.962 228.832C396.361 229.184 396.68 229.616 396.899 230.1C397.118 230.584 397.231 231.109 397.231 231.64C397.231 232.172 397.118 232.697 396.899 233.181C396.68 233.665 396.361 234.097 395.962 234.449C395.564 234.8 395.095 235.062 394.587 235.218C394.079 235.374 393.544 235.421 393.017 235.354H333.114Z" fill="#263238"/>
<path opacity="0.6" d="M333.114 235.354C332.21 235.239 331.379 234.799 330.776 234.115C330.174 233.432 329.841 232.552 329.841 231.64C329.841 230.729 330.174 229.849 330.776 229.166C331.379 228.482 332.21 228.042 333.114 227.927H393.017C393.544 227.86 394.079 227.907 394.587 228.063C395.095 228.219 395.564 228.481 395.962 228.832C396.361 229.184 396.68 229.616 396.899 230.1C397.118 230.584 397.231 231.109 397.231 231.64C397.231 232.172 397.118 232.697 396.899 233.181C396.68 233.665 396.361 234.097 395.962 234.449C395.564 234.8 395.095 235.062 394.587 235.218C394.079 235.374 393.544 235.421 393.017 235.354H333.114Z" fill="white"/>
<path d="M252.238 287.816L250.589 284.845C250.323 284.353 249.928 283.942 249.447 283.657C248.965 283.372 248.416 283.223 247.856 283.226H223.14C222.313 283.226 221.52 283.555 220.935 284.139C220.35 284.724 220.021 285.518 220.021 286.345V333.578C220.021 334.005 220.105 334.427 220.269 334.821C220.433 335.215 220.673 335.572 220.975 335.873C221.277 336.174 221.636 336.412 222.03 336.574C222.425 336.736 222.848 336.818 223.274 336.816H279.419C279.846 336.818 280.268 336.736 280.663 336.574C281.058 336.412 281.416 336.174 281.719 335.873C282.021 335.572 282.261 335.215 282.424 334.821C282.588 334.427 282.672 334.005 282.672 333.578V292.346C282.672 291.517 282.344 290.722 281.76 290.135C281.175 289.548 280.382 289.216 279.553 289.212H254.614C254.129 289.214 253.653 289.085 253.235 288.839C252.817 288.594 252.472 288.24 252.238 287.816Z" fill="#0052E8"/>
<path opacity="0.3" d="M252.238 287.816L250.589 284.845C250.323 284.353 249.928 283.942 249.447 283.657C248.965 283.372 248.416 283.223 247.856 283.226H223.14C222.313 283.226 221.52 283.555 220.935 284.139C220.35 284.724 220.021 285.518 220.021 286.345V333.578C220.021 334.005 220.105 334.427 220.269 334.821C220.433 335.215 220.673 335.572 220.975 335.873C221.277 336.174 221.636 336.412 222.03 336.574C222.425 336.736 222.848 336.818 223.274 336.816H279.419C279.846 336.818 280.268 336.736 280.663 336.574C281.058 336.412 281.416 336.174 281.719 335.873C282.021 335.572 282.261 335.215 282.424 334.821C282.588 334.427 282.672 334.005 282.672 333.578V292.346C282.672 291.517 282.344 290.722 281.76 290.135C281.175 289.548 280.382 289.216 279.553 289.212H254.614C254.129 289.214 253.653 289.085 253.235 288.839C252.817 288.594 252.472 288.24 252.238 287.816Z" fill="white"/>
<path d="M274.859 291.113H226.958V326.924H274.859V291.113Z" fill="#263238"/>
<path opacity="0.8" d="M274.859 291.113H226.958V326.924H274.859V291.113Z" fill="white"/>
<path d="M278.32 294.708H223.497V335.702H278.32V294.708Z" fill="#263238"/>
<path opacity="0.9" d="M278.32 294.708H223.497V335.702H278.32V294.708Z" fill="white"/>
<path d="M288.153 295.733H255.313C254.642 295.7 253.973 295.808 253.346 296.048C252.72 296.289 252.15 296.657 251.673 297.129C250.797 298.169 250.366 298.614 249.52 299.713C249.127 300.119 248.652 300.436 248.127 300.644C247.602 300.851 247.039 300.944 246.475 300.916H214.392C212.164 300.916 210.679 302.134 211.065 303.62C214.199 315.77 215.773 321.845 218.907 334.009C219.191 334.826 219.723 335.534 220.429 336.035C221.134 336.535 221.978 336.804 222.843 336.802H278.513C279.378 336.804 280.222 336.535 280.928 336.035C281.633 335.534 282.165 334.826 282.449 334.009L291.629 298.362C292.015 296.936 290.47 295.733 288.153 295.733Z" fill="#0052E8"/>
<g opacity="0.6">
<path opacity="0.6" d="M288.153 295.733H255.313C254.642 295.7 253.973 295.808 253.346 296.048C252.72 296.289 252.15 296.657 251.673 297.129C250.797 298.169 250.366 298.614 249.52 299.713C249.127 300.119 248.652 300.436 248.127 300.644C247.602 300.851 247.039 300.944 246.475 300.916H214.392C212.164 300.916 210.679 302.134 211.065 303.62C214.199 315.77 215.773 321.845 218.907 334.009C219.191 334.826 219.723 335.534 220.429 336.035C221.134 336.535 221.978 336.804 222.843 336.802H278.513C279.378 336.804 280.222 336.535 280.928 336.035C281.633 335.534 282.165 334.826 282.449 334.009L291.629 298.362C292.015 296.936 290.47 295.733 288.153 295.733Z" fill="white"/>
</g>
<path d="M221.313 356.096C220.409 355.982 219.578 355.541 218.976 354.858C218.373 354.174 218.041 353.294 218.041 352.383C218.041 351.472 218.373 350.592 218.976 349.908C219.578 349.225 220.409 348.784 221.313 348.67H281.217C281.744 348.603 282.279 348.649 282.787 348.805C283.295 348.961 283.763 349.223 284.162 349.575C284.561 349.926 284.88 350.358 285.098 350.842C285.317 351.326 285.43 351.852 285.43 352.383C285.43 352.914 285.317 353.439 285.098 353.924C284.88 354.408 284.561 354.84 284.162 355.191C283.763 355.542 283.295 355.805 282.787 355.961C282.279 356.117 281.744 356.163 281.217 356.096H221.313Z" fill="#263238"/>
<path opacity="0.6" d="M221.313 356.096C220.409 355.982 219.578 355.541 218.976 354.858C218.373 354.174 218.041 353.294 218.041 352.383C218.041 351.472 218.373 350.592 218.976 349.908C219.578 349.225 220.409 348.784 221.313 348.67H281.217C281.744 348.603 282.279 348.649 282.787 348.805C283.295 348.961 283.763 349.223 284.162 349.575C284.561 349.926 284.88 350.358 285.098 350.842C285.317 351.326 285.43 351.852 285.43 352.383C285.43 352.914 285.317 353.439 285.098 353.924C284.88 354.408 284.561 354.84 284.162 355.191C283.763 355.542 283.295 355.805 282.787 355.961C282.279 356.117 281.744 356.163 281.217 356.096H221.313Z" fill="white"/>
<path d="M363.905 287.816L362.256 284.845C361.988 284.354 361.593 283.945 361.112 283.66C360.631 283.375 360.082 283.225 359.523 283.226H334.867C334.039 283.226 333.246 283.555 332.661 284.14C332.076 284.725 331.747 285.518 331.747 286.345V333.579C331.745 334.004 331.828 334.426 331.99 334.82C332.152 335.214 332.39 335.572 332.691 335.873C332.992 336.174 333.35 336.412 333.744 336.574C334.138 336.736 334.56 336.819 334.985 336.817H391.145C391.571 336.819 391.993 336.736 392.387 336.574C392.781 336.412 393.138 336.174 393.439 335.873C393.741 335.572 393.979 335.214 394.141 334.82C394.303 334.426 394.385 334.004 394.383 333.579V292.346C394.383 291.517 394.055 290.722 393.471 290.135C392.886 289.548 392.093 289.216 391.264 289.212H366.326C365.833 289.222 365.347 289.097 364.921 288.851C364.494 288.605 364.143 288.247 363.905 287.816Z" fill="#0052E8"/>
<path opacity="0.3" d="M363.905 287.816L362.256 284.845C361.988 284.354 361.593 283.945 361.112 283.66C360.631 283.375 360.082 283.225 359.523 283.226H334.867C334.039 283.226 333.246 283.555 332.661 284.14C332.076 284.725 331.747 285.518 331.747 286.345V333.579C331.745 334.004 331.828 334.426 331.99 334.82C332.152 335.214 332.39 335.572 332.691 335.873C332.992 336.174 333.35 336.412 333.744 336.574C334.138 336.736 334.56 336.819 334.985 336.817H391.145C391.571 336.819 391.993 336.736 392.387 336.574C392.781 336.412 393.138 336.174 393.439 335.873C393.741 335.572 393.979 335.214 394.141 334.82C394.303 334.426 394.385 334.004 394.383 333.579V292.346C394.383 291.517 394.055 290.722 393.471 290.135C392.886 289.548 392.093 289.216 391.264 289.212H366.326C365.833 289.222 365.347 289.097 364.921 288.851C364.494 288.605 364.143 288.247 363.905 287.816Z" fill="white"/>
<path d="M386.586 291.113H338.684V326.924H386.586V291.113Z" fill="#263238"/>
<path opacity="0.8" d="M386.586 291.113H338.684V326.924H386.586V291.113Z" fill="white"/>
<path d="M390.046 294.708H335.223V335.702H390.046V294.708Z" fill="#263238"/>
<path opacity="0.9" d="M390.046 294.708H335.223V335.702H390.046V294.708Z" fill="white"/>
<path d="M399.894 295.732H367.039C366.366 295.7 365.694 295.807 365.065 296.048C364.437 296.288 363.864 296.656 363.385 297.129C362.508 298.168 362.078 298.614 361.231 299.713C360.847 300.11 360.385 300.422 359.873 300.629C359.362 300.837 358.812 300.934 358.26 300.916H326.103C323.89 300.916 322.405 302.134 322.776 303.62C325.925 315.769 327.484 321.844 330.619 334.009C330.905 334.825 331.437 335.532 332.142 336.032C332.847 336.532 333.69 336.801 334.555 336.802H390.239C391.104 336.801 391.947 336.532 392.652 336.032C393.357 335.532 393.889 334.825 394.176 334.009L403.355 298.361C403.726 296.936 402.182 295.732 399.894 295.732Z" fill="#0052E8"/>
<g opacity="0.6">
<path opacity="0.6" d="M399.894 295.732H367.039C366.366 295.7 365.694 295.807 365.065 296.048C364.437 296.288 363.864 296.656 363.385 297.129C362.508 298.168 362.078 298.614 361.231 299.713C360.847 300.11 360.385 300.422 359.873 300.629C359.362 300.837 358.812 300.934 358.26 300.916H326.103C323.89 300.916 322.405 302.134 322.776 303.62C325.925 315.769 327.484 321.844 330.619 334.009C330.905 334.825 331.437 335.532 332.142 336.032C332.847 336.532 333.69 336.801 334.555 336.802H390.239C391.104 336.801 391.947 336.532 392.652 336.032C393.357 335.532 393.889 334.825 394.176 334.009L403.355 298.361C403.726 296.936 402.182 295.732 399.894 295.732Z" fill="white"/>
</g>
<path d="M333.114 356.096C332.21 355.981 331.379 355.541 330.776 354.857C330.174 354.174 329.841 353.294 329.841 352.383C329.841 351.472 330.174 350.592 330.776 349.908C331.379 349.224 332.21 348.784 333.114 348.669H393.017C393.921 348.784 394.752 349.224 395.355 349.908C395.957 350.592 396.289 351.472 396.289 352.383C396.289 353.294 395.957 354.174 395.355 354.857C394.752 355.541 393.921 355.981 393.017 356.096H333.114Z" fill="#263238"/>
<path opacity="0.6" d="M333.114 356.096C332.21 355.981 331.379 355.541 330.776 354.857C330.174 354.174 329.841 353.294 329.841 352.383C329.841 351.472 330.174 350.592 330.776 349.908C331.379 349.224 332.21 348.784 333.114 348.669H393.017C393.921 348.784 394.752 349.224 395.355 349.908C395.957 350.592 396.289 351.472 396.289 352.383C396.289 353.294 395.957 354.174 395.355 354.857C394.752 355.541 393.921 355.981 393.017 356.096H333.114Z" fill="white"/>
<path d="M473.165 287.816L471.516 284.845C471.246 284.353 470.849 283.943 470.365 283.658C469.881 283.373 469.33 283.224 468.769 283.226H444.112C443.703 283.226 443.297 283.307 442.918 283.464C442.54 283.62 442.196 283.85 441.907 284.14C441.617 284.429 441.387 284.773 441.23 285.152C441.074 285.53 440.993 285.936 440.993 286.345V333.579C440.991 334.004 441.073 334.426 441.235 334.82C441.397 335.214 441.636 335.572 441.937 335.873C442.238 336.174 442.596 336.412 442.99 336.574C443.383 336.736 443.805 336.819 444.231 336.817H500.391C501.25 336.817 502.074 336.475 502.681 335.868C503.288 335.261 503.629 334.437 503.629 333.579V292.346C503.629 291.517 503.301 290.722 502.716 290.135C502.132 289.548 501.339 289.216 500.51 289.212H475.527C475.044 289.211 474.571 289.081 474.156 288.836C473.74 288.59 473.398 288.238 473.165 287.816Z" fill="#0052E8"/>
<path opacity="0.3" d="M473.165 287.816L471.516 284.845C471.246 284.353 470.849 283.943 470.365 283.658C469.881 283.373 469.33 283.224 468.769 283.226H444.112C443.703 283.226 443.297 283.307 442.918 283.464C442.54 283.62 442.196 283.85 441.907 284.14C441.617 284.429 441.387 284.773 441.23 285.152C441.074 285.53 440.993 285.936 440.993 286.345V333.579C440.991 334.004 441.073 334.426 441.235 334.82C441.397 335.214 441.636 335.572 441.937 335.873C442.238 336.174 442.596 336.412 442.99 336.574C443.383 336.736 443.805 336.819 444.231 336.817H500.391C501.25 336.817 502.074 336.475 502.681 335.868C503.288 335.261 503.629 334.437 503.629 333.579V292.346C503.629 291.517 503.301 290.722 502.716 290.135C502.132 289.548 501.339 289.216 500.51 289.212H475.527C475.044 289.211 474.571 289.081 474.156 288.836C473.74 288.59 473.398 288.238 473.165 287.816Z" fill="white"/>
<path d="M495.787 291.113H447.885V326.924H495.787V291.113Z" fill="#263238"/>
<path opacity="0.8" d="M495.787 291.113H447.885V326.924H495.787V291.113Z" fill="white"/>
<path d="M499.247 294.708H444.424V335.702H499.247V294.708Z" fill="#263238"/>
<path opacity="0.9" d="M499.247 294.708H444.424V335.702H499.247V294.708Z" fill="white"/>
<path d="M509.095 295.732H476.24C475.567 295.7 474.895 295.807 474.267 296.048C473.638 296.288 473.065 296.656 472.586 297.129C471.71 298.168 471.279 298.614 470.432 299.713C470.049 300.11 469.586 300.422 469.074 300.629C468.563 300.837 468.013 300.934 467.461 300.916H435.304C433.091 300.916 431.606 302.134 431.977 303.62C435.126 315.769 436.686 321.844 439.82 334.009C440.106 334.825 440.638 335.532 441.343 336.032C442.048 336.532 442.891 336.801 443.756 336.802H499.426C500.293 336.804 501.139 336.537 501.847 336.036C502.555 335.536 503.09 334.827 503.377 334.009C506.427 322.127 509.481 310.244 512.541 298.361C512.927 296.936 511.383 295.732 509.095 295.732Z" fill="#0052E8"/>
<g opacity="0.6">
<path opacity="0.6" d="M509.095 295.732H476.24C475.567 295.7 474.895 295.807 474.267 296.048C473.638 296.288 473.065 296.656 472.586 297.129C471.71 298.168 471.279 298.614 470.432 299.713C470.049 300.11 469.586 300.422 469.074 300.629C468.563 300.837 468.013 300.934 467.461 300.916H435.304C433.091 300.916 431.606 302.134 431.977 303.62C435.126 315.769 436.686 321.844 439.82 334.009C440.106 334.825 440.638 335.532 441.343 336.032C442.048 336.532 442.891 336.801 443.756 336.802H499.426C500.293 336.804 501.139 336.537 501.847 336.036C502.555 335.536 503.09 334.827 503.377 334.009C506.427 322.127 509.481 310.244 512.541 298.361C512.927 296.936 511.383 295.732 509.095 295.732Z" fill="white"/>
</g>
<path d="M442.315 356.096C441.411 355.981 440.58 355.541 439.977 354.857C439.375 354.174 439.043 353.294 439.043 352.383C439.043 351.472 439.375 350.592 439.977 349.908C440.58 349.224 441.411 348.784 442.315 348.669H502.218C503.122 348.784 503.953 349.224 504.556 349.908C505.158 350.592 505.49 351.472 505.49 352.383C505.49 353.294 505.158 354.174 504.556 354.857C503.953 355.541 503.122 355.981 502.218 356.096H442.315Z" fill="#263238"/>
<path opacity="0.6" d="M442.315 356.096C441.411 355.981 440.58 355.541 439.977 354.857C439.375 354.174 439.043 353.294 439.043 352.383C439.043 351.472 439.375 350.592 439.977 349.908C440.58 349.224 441.411 348.784 442.315 348.669H502.218C503.122 348.784 503.953 349.224 504.556 349.908C505.158 350.592 505.49 351.472 505.49 352.383C505.49 353.294 505.158 354.174 504.556 354.857C503.953 355.541 503.122 355.981 502.218 356.096H442.315Z" fill="white"/>
<path d="M441.543 235.354C441.016 235.421 440.48 235.374 439.972 235.218C439.465 235.062 438.996 234.8 438.597 234.449C438.199 234.097 437.879 233.665 437.661 233.181C437.442 232.697 437.329 232.172 437.329 231.64C437.329 231.109 437.442 230.584 437.661 230.1C437.879 229.616 438.199 229.184 438.597 228.832C438.996 228.481 439.465 228.219 439.972 228.063C440.48 227.907 441.016 227.86 441.543 227.927H501.446C501.973 227.86 502.508 227.907 503.016 228.063C503.524 228.219 503.993 228.481 504.391 228.832C504.79 229.184 505.109 229.616 505.328 230.1C505.546 230.584 505.659 231.109 505.659 231.64C505.659 232.172 505.546 232.697 505.328 233.181C505.109 233.665 504.79 234.097 504.391 234.449C503.993 234.8 503.524 235.062 503.016 235.218C502.508 235.374 501.973 235.421 501.446 235.354H441.543Z" fill="#263238"/>
<path opacity="0.6" d="M441.543 235.354C441.016 235.421 440.48 235.374 439.972 235.218C439.465 235.062 438.996 234.8 438.597 234.449C438.199 234.097 437.879 233.665 437.661 233.181C437.442 232.697 437.329 232.172 437.329 231.64C437.329 231.109 437.442 230.584 437.661 230.1C437.879 229.616 438.199 229.184 438.597 228.832C438.996 228.481 439.465 228.219 439.972 228.063C440.48 227.907 441.016 227.86 441.543 227.927H501.446C501.973 227.86 502.508 227.907 503.016 228.063C503.524 228.219 503.993 228.481 504.391 228.832C504.79 229.184 505.109 229.616 505.328 230.1C505.546 230.584 505.659 231.109 505.659 231.64C505.659 232.172 505.546 232.697 505.328 233.181C505.109 233.665 504.79 234.097 504.391 234.449C503.993 234.8 503.524 235.062 503.016 235.218C502.508 235.374 501.973 235.421 501.446 235.354H441.543Z" fill="white"/>
<path d="M439.493 218.882L452.267 256.252C452.612 257.072 453.187 257.774 453.922 258.275C454.658 258.775 455.522 259.053 456.411 259.075H481.542C482.036 259.123 482.531 259.003 482.947 258.733C483.362 258.463 483.674 258.06 483.83 257.589L484.572 254.871C484.708 254.466 484.978 254.119 485.337 253.887C485.696 253.655 486.123 253.551 486.548 253.594H511.902C512.263 253.647 512.631 253.604 512.969 253.469C513.307 253.334 513.604 253.112 513.828 252.825C514.053 252.539 514.198 252.198 514.249 251.837C514.299 251.476 514.253 251.109 514.116 250.772L503.213 218.852L503.05 212.614V164.593C503.05 163.754 502.717 162.949 502.123 162.356C501.53 161.763 500.725 161.429 499.886 161.429H474.754C474.187 161.426 473.63 161.576 473.141 161.864C472.652 162.152 472.25 162.566 471.977 163.063L470.298 166.123C470.06 166.551 469.711 166.908 469.288 167.156C468.865 167.405 468.383 167.535 467.892 167.534H442.523C441.68 167.534 440.871 167.869 440.275 168.465C439.679 169.061 439.344 169.87 439.344 170.713V212.643L439.493 218.882Z" fill="#0052E8"/>
<path opacity="0.6" d="M439.493 218.882L452.267 256.252C452.612 257.072 453.187 257.774 453.922 258.275C454.658 258.775 455.522 259.053 456.411 259.075H481.542C482.036 259.123 482.531 259.003 482.947 258.733C483.362 258.463 483.674 258.06 483.83 257.589L484.572 254.871C484.708 254.466 484.978 254.119 485.337 253.887C485.696 253.655 486.123 253.551 486.548 253.594H511.902C512.263 253.647 512.631 253.604 512.969 253.469C513.307 253.334 513.604 253.112 513.828 252.825C514.053 252.539 514.198 252.198 514.249 251.837C514.299 251.476 514.253 251.109 514.116 250.772L503.213 218.852L503.05 212.614V164.593C503.05 163.754 502.717 162.949 502.123 162.356C501.53 161.763 500.725 161.429 499.886 161.429H474.754C474.187 161.426 473.63 161.576 473.141 161.864C472.652 162.152 472.25 162.566 471.977 163.063L470.298 166.123C470.06 166.551 469.711 166.908 469.288 167.156C468.865 167.405 468.383 167.535 467.892 167.534H442.523C441.68 167.534 440.871 167.869 440.275 168.465C439.679 169.061 439.344 169.87 439.344 170.713V212.643L439.493 218.882Z" fill="white"/>
<path d="M439.493 218.882L452.267 256.253C452.612 257.072 453.187 257.774 453.922 258.275C454.658 258.775 455.522 259.053 456.411 259.075H481.542C482.036 259.123 482.531 259.003 482.947 258.733C483.362 258.463 483.674 258.06 483.83 257.589L484.572 254.871C484.708 254.466 484.978 254.119 485.337 253.887C485.696 253.655 486.123 253.551 486.548 253.594H511.902C512.263 253.647 512.631 253.604 512.969 253.469C513.307 253.334 513.604 253.112 513.828 252.825C514.053 252.539 514.198 252.198 514.249 251.837C514.299 251.477 514.253 251.109 514.116 250.772L503.213 218.852L439.493 218.882Z" fill="#0052E8"/>
<path opacity="0.3" d="M439.493 218.882L452.267 256.253C452.612 257.072 453.187 257.774 453.922 258.275C454.658 258.775 455.522 259.053 456.411 259.075H481.542C482.036 259.123 482.531 259.003 482.947 258.733C483.362 258.463 483.674 258.06 483.83 257.589L484.572 254.871C484.708 254.466 484.978 254.119 485.337 253.887C485.696 253.655 486.123 253.551 486.548 253.594H511.902C512.263 253.647 512.631 253.604 512.969 253.469C513.307 253.334 513.604 253.112 513.828 252.825C514.053 252.539 514.198 252.198 514.249 251.837C514.299 251.477 514.253 251.109 514.116 250.772L503.213 218.852L439.493 218.882Z" fill="white"/>
<path opacity="0.1" d="M445.642 218.882H497.346L506.778 245.454H455.074L445.642 218.882Z" fill="black"/>
<path d="M445.642 218.882H497.346V176.981H445.642V218.882Z" fill="#263238"/>
<path opacity="0.8" d="M445.642 218.882H497.346V176.981H445.642V218.882Z" fill="white"/>
<path d="M445.642 218.882H497.346L507.833 188.685H456.114L445.642 218.882Z" fill="#263238"/>
<path opacity="0.9" d="M445.642 218.882H497.346L507.833 188.685H456.114L445.642 218.882Z" fill="white"/>
<path d="M445.642 218.882H497.346L507.833 241.265H456.114L445.642 218.882Z" fill="#263238"/>
<path opacity="0.9" d="M445.642 218.882H497.346L507.833 241.265H456.114L445.642 218.882Z" fill="white"/>
<path d="M445.642 218.882H497.346L514.264 207.371H462.545L445.642 218.882Z" fill="#263238"/>
<path opacity="0.8" d="M445.642 218.882H497.346L514.264 207.371H462.545L445.642 218.882Z" fill="white"/>
<path d="M160.861 480.477C162.138 460.322 170.976 439.928 185.19 426.085C188.74 422.639 196.197 415.806 190.151 412.197C183.245 408.068 169.995 427.347 168.139 430.912C172.06 415.554 183.943 404.429 196.835 398.057C203.207 394.908 209.282 391.922 202.494 387.244C195.706 382.565 181.017 393.913 177.615 398.785C185.666 387.541 195.84 376.282 206.267 369.553C217.778 362.127 212.58 349.739 200.712 359.319C193.36 365.261 181.269 380.114 181.269 380.114C181.269 380.114 200.266 341.956 194.533 338.525C187.106 334.069 174.095 386.055 170.5 396.304C171.466 387.808 172.372 367.251 166.045 366.36C160.267 365.558 161.678 416.742 160.341 425.773C159.494 429.709 159.108 431.714 158.44 435.68C157.816 428.862 153.984 410.89 148.25 412.969C143.378 414.722 146.394 428.179 147.656 434.566C150.716 450.028 153.805 464.985 153.835 480.849L160.861 480.477Z" fill="#0052E8"/>
<path opacity="0.4" d="M167.025 376.267C167.886 387.377 168.659 398.666 167.589 409.835C169.874 403.352 172.517 396.999 175.506 390.808C175.54 390.702 175.59 390.602 175.655 390.511C176.546 388.655 177.467 386.813 178.432 384.986C178.818 384.258 179.769 384.585 179.635 385.268C186.676 376.356 195.187 368.187 205.317 362.988C206.059 362.602 206.564 363.731 205.851 364.132C194.087 370.786 185.339 380.159 176.679 391.254C173.025 398.663 169.927 406.334 167.411 414.202C173.803 404.133 183.646 396.74 195.097 393.408C195.87 393.17 196.301 394.358 195.528 394.611C179.858 399.557 168.792 410.519 164.336 424.882C164.308 424.995 164.258 425.101 164.188 425.194C162.004 434.373 160.341 443.285 159.063 452.642C163.519 439.468 173.011 427.838 183.943 419.668C184.596 419.178 185.19 420.307 184.537 420.797C171.951 430.254 162.811 443.573 158.514 458.717C158.514 458.717 158.514 458.717 158.514 458.792C158.039 464.733 157.831 470.674 157.89 476.616C157.904 476.705 157.898 476.795 157.874 476.882C157.849 476.969 157.806 477.049 157.747 477.117C157.689 477.186 157.616 477.241 157.534 477.278C157.453 477.316 157.364 477.335 157.274 477.335C157.184 477.335 157.095 477.316 157.013 477.278C156.931 477.241 156.858 477.186 156.8 477.117C156.741 477.049 156.698 476.969 156.674 476.882C156.649 476.795 156.643 476.705 156.657 476.616C156.752 456.699 159.55 436.887 164.975 417.722C167.857 404.221 166.817 390.125 165.733 376.534C165.658 375.599 166.951 375.346 167.025 376.267Z" fill="white"/>
<path d="M159.375 480.463C157.89 456.549 147.389 432.353 130.516 415.94C126.312 411.855 117.474 403.746 124.574 399.468C132.758 394.581 148.488 417.44 150.671 421.659C146.037 403.449 131.927 390.259 116.643 382.699C109.082 378.956 101.878 375.435 109.929 369.88C117.979 364.325 135.417 377.797 139.427 383.56C129.877 370.192 117.816 356.824 105.458 348.893C91.8079 340.099 98.0315 325.395 112.038 336.757C120.846 343.798 135.165 361.369 135.165 361.369C135.165 361.369 112.647 316.126 119.45 311.967C128.184 306.62 143.675 368.41 147.938 380.485C146.81 370.415 145.74 346.026 153.315 344.971C160.163 344.021 158.484 404.711 160.073 415.435C161.084 420.114 161.559 422.461 162.316 427.184C163.074 419.104 167.574 397.789 174.422 400.255C180.185 402.335 176.62 418.287 175.12 425.862C171.481 444.191 167.812 461.941 167.797 480.745L159.375 480.463Z" fill="#0052E8"/>
<path opacity="0.2" d="M152.068 356.824C151.058 370.014 150.137 383.382 151.399 396.631C148.692 388.946 145.558 381.419 142.012 374.083C141.976 373.957 141.921 373.837 141.849 373.727C140.779 371.529 139.695 369.345 138.566 367.192C138.106 366.315 136.962 366.716 137.081 367.518C128.733 356.898 118.648 347.258 106.631 341.05C105.74 340.589 105.146 341.941 105.993 342.416C119.94 350.303 130.308 361.428 140.601 374.588C144.923 383.379 148.597 392.473 151.592 401.8C144.043 389.844 132.393 381.051 118.826 377.069C117.905 376.787 117.341 378.198 118.306 378.48C136.902 384.347 149.944 397.358 155.306 414.395C155.352 414.527 155.417 414.652 155.499 414.766C158.083 425.654 160.044 436.229 161.574 447.31C156.316 431.699 145.027 417.886 132.075 408.216C131.288 407.622 130.59 408.974 131.362 409.553C146.286 420.772 157.127 436.568 162.227 454.529C162.227 454.529 162.227 454.529 162.227 454.603C162.792 461.614 163.039 468.654 162.97 475.724C162.97 475.921 163.048 476.11 163.187 476.249C163.327 476.389 163.516 476.467 163.713 476.467C163.91 476.467 164.098 476.389 164.238 476.249C164.377 476.11 164.455 475.921 164.455 475.724C164.297 452.144 160.94 428.695 154.474 406.018C151.058 390.021 152.29 373.341 153.583 357.166C153.687 356.066 152.157 355.755 152.068 356.824Z" fill="white"/>
<path d="M159.375 480.463C157.89 456.549 147.389 432.353 130.516 415.94C126.312 411.855 117.474 403.746 124.574 399.468C132.758 394.581 148.488 417.44 150.671 421.659C146.037 403.449 131.927 390.259 116.643 382.699C109.082 378.956 101.878 375.435 109.929 369.88C117.979 364.325 135.417 377.797 139.427 383.56C129.877 370.192 117.816 356.824 105.458 348.893C91.8079 340.099 98.0315 325.395 112.038 336.757C120.846 343.798 135.165 361.369 135.165 361.369C135.165 361.369 112.647 316.126 119.45 311.967C128.184 306.62 143.675 368.41 147.938 380.485C146.81 370.415 145.74 346.026 153.315 344.971C160.163 344.021 158.484 404.711 160.073 415.435C161.084 420.114 161.559 422.461 162.316 427.184C163.074 419.104 167.574 397.789 174.422 400.255C180.185 402.335 176.62 418.287 175.12 425.862C171.481 444.191 167.812 461.941 167.797 480.745L159.375 480.463Z" fill="#0052E8"/>
<path opacity="0.2" d="M159.375 480.463C157.89 456.549 147.389 432.353 130.516 415.94C126.312 411.855 117.474 403.746 124.574 399.468C132.758 394.581 148.488 417.44 150.671 421.659C146.037 403.449 131.927 390.259 116.643 382.699C109.082 378.956 101.878 375.435 109.929 369.88C117.979 364.325 135.417 377.797 139.427 383.56C129.877 370.192 117.816 356.824 105.458 348.893C91.8079 340.099 98.0315 325.395 112.038 336.757C120.846 343.798 135.165 361.369 135.165 361.369C135.165 361.369 112.647 316.126 119.45 311.967C128.184 306.62 143.675 368.41 147.938 380.485C146.81 370.415 145.74 346.026 153.315 344.971C160.163 344.021 158.484 404.711 160.073 415.435C161.084 420.114 161.559 422.461 162.316 427.184C163.074 419.104 167.574 397.789 174.422 400.255C180.185 402.335 176.62 418.287 175.12 425.862C171.481 444.191 167.812 461.941 167.797 480.745L159.375 480.463Z" fill="white"/>
<path opacity="0.5" d="M152.068 356.824C151.058 370.014 150.137 383.382 151.399 396.631C148.692 388.946 145.558 381.419 142.012 374.083C141.976 373.957 141.921 373.837 141.849 373.727C140.779 371.529 139.695 369.345 138.566 367.192C138.106 366.315 136.962 366.716 137.081 367.518C128.733 356.898 118.648 347.258 106.631 341.05C105.74 340.589 105.146 341.941 105.993 342.416C119.94 350.303 130.308 361.428 140.601 374.588C144.923 383.379 148.597 392.473 151.592 401.8C144.043 389.844 132.393 381.051 118.826 377.069C117.905 376.787 117.341 378.198 118.306 378.48C136.902 384.347 149.944 397.358 155.306 414.395C155.352 414.527 155.417 414.652 155.499 414.766C158.083 425.654 160.044 436.229 161.574 447.31C156.316 431.699 145.027 417.886 132.075 408.216C131.288 407.622 130.59 408.974 131.362 409.553C146.286 420.772 157.127 436.568 162.227 454.529C162.227 454.529 162.227 454.529 162.227 454.603C162.792 461.614 163.039 468.654 162.97 475.724C162.97 475.921 163.048 476.11 163.187 476.249C163.327 476.389 163.516 476.467 163.713 476.467C163.91 476.467 164.098 476.389 164.238 476.249C164.377 476.11 164.455 475.921 164.455 475.724C164.297 452.144 160.94 428.695 154.474 406.018C151.058 390.021 152.29 373.341 153.583 357.166C153.687 356.066 152.157 355.755 152.068 356.824Z" fill="white"/>
<path d="M183.928 477.209H137.467C136.021 477.209 134.635 477.784 133.612 478.806C132.59 479.828 132.016 481.215 132.016 482.661V485.067C132.02 486.51 132.596 487.893 133.618 488.912C134.639 489.931 136.024 490.503 137.467 490.503L142.814 529.122H178.581L183.928 490.503C184.645 490.505 185.355 490.366 186.018 490.092C186.682 489.819 187.284 489.418 187.792 488.912C188.3 488.405 188.703 487.804 188.977 487.142C189.252 486.479 189.394 485.769 189.394 485.052V482.646C189.392 481.93 189.249 481.221 188.973 480.561C188.697 479.9 188.294 479.3 187.787 478.796C187.279 478.291 186.677 477.891 186.015 477.619C185.353 477.347 184.644 477.208 183.928 477.209Z" fill="#0052E8"/>
<path opacity="0.2" d="M183.928 477.209H137.467C136.021 477.209 134.635 477.784 133.612 478.806C132.59 479.828 132.016 481.215 132.016 482.661V485.067C132.02 486.51 132.596 487.893 133.618 488.912C134.639 489.931 136.024 490.503 137.467 490.503L142.814 529.122H178.581L183.928 490.503C184.645 490.505 185.355 490.366 186.018 490.092C186.682 489.819 187.284 489.418 187.792 488.912C188.3 488.405 188.703 487.804 188.977 487.142C189.252 486.479 189.394 485.769 189.394 485.052V482.646C189.392 481.93 189.249 481.221 188.973 480.561C188.697 479.9 188.294 479.3 187.787 478.796C187.279 478.291 186.677 477.891 186.015 477.619C185.353 477.347 184.644 477.208 183.928 477.209Z" fill="black"/>
<path opacity="0.2" d="M182.829 498.479L183.913 490.637H137.482L138.566 498.479H182.829Z" fill="black"/>
<path d="M577.494 209.925C577.494 209.925 604.097 232.799 604.097 246.36C604.097 258.822 577.673 272.175 566.057 273.898C562.431 274.106 558.796 274.106 555.17 273.898C553.943 273.899 552.746 273.519 551.743 272.812C550.74 272.104 549.981 271.103 549.57 269.947L549.437 269.561C549.054 268.511 548.981 267.374 549.226 266.284C549.471 265.194 550.023 264.197 550.818 263.412C552.088 262.083 553.729 261.167 555.526 260.783C559.715 260.129 565.612 266.026 565.612 266.026C565.612 266.026 591.412 250.504 591.412 247.667C591.412 244.83 579.618 235.532 576.113 230.393C573.157 226.115 570.127 219.832 577.494 209.925Z" fill="#B97964"/>
<path d="M578.163 208.648C580.747 210.133 586.555 214.589 595.987 227.066C595.987 227.066 595.645 233.839 583.584 240.151C583.584 240.151 570.736 230.274 570.855 220.753C570.773 218.592 571.126 216.436 571.891 214.413C572.656 212.39 573.819 210.541 575.311 208.974C575.689 208.623 576.17 208.402 576.683 208.343C577.196 208.284 577.715 208.391 578.163 208.648Z" fill="#0052E8"/>
<path opacity="0.2" d="M575.445 231.968C577.823 234.995 580.539 237.741 583.54 240.152L584.49 239.632C585.723 225.076 581.134 215.867 581.134 215.867L576.588 222.075L575.445 231.968Z" fill="black"/>
<path opacity="0.2" d="M566.548 273.809C572.864 272.439 578.941 270.136 584.579 266.977C582.144 265.194 581.416 259 581.223 256.119C574.598 260.575 567.023 265.179 565.805 265.922L566.548 273.809Z" fill="#606060"/>
<path d="M581.832 239.751C581.832 239.751 592.556 233.943 595.942 225.224L597.947 228.611C594.997 234.562 590.02 239.266 583.911 241.875L581.832 239.751Z" fill="#0052E8"/>
<path opacity="0.5" d="M581.832 239.751C581.832 239.751 592.556 233.943 595.942 225.224L597.947 228.611C594.997 234.562 590.02 239.266 583.911 241.875L581.832 239.751Z" fill="white"/>
<path d="M569.073 229.814L567.587 227.897C567.342 227.583 567.017 227.339 566.646 227.193C566.275 227.047 565.872 227.003 565.478 227.066L548.085 229.814C547.795 229.859 547.517 229.961 547.266 230.114C547.016 230.267 546.798 230.468 546.626 230.705C546.453 230.942 546.329 231.212 546.261 231.497C546.193 231.782 546.182 232.079 546.228 232.368L551.501 265.61C551.596 266.216 551.928 266.76 552.424 267.122C552.92 267.484 553.539 267.635 554.145 267.541L593.67 261.273C594.276 261.178 594.82 260.846 595.182 260.35C595.544 259.854 595.695 259.235 595.601 258.629L590.996 229.606C590.901 229.026 590.581 228.507 590.105 228.162C589.63 227.817 589.037 227.674 588.456 227.764L570.9 230.571C570.555 230.621 570.203 230.577 569.882 230.444C569.56 230.311 569.281 230.093 569.073 229.814Z" fill="#0052E8"/>
<path opacity="0.4" d="M569.073 229.814L567.587 227.897C567.342 227.583 567.017 227.339 566.646 227.193C566.275 227.047 565.872 227.003 565.478 227.066L548.085 229.814C547.795 229.859 547.517 229.961 547.266 230.114C547.016 230.267 546.798 230.468 546.626 230.705C546.453 230.942 546.329 231.212 546.261 231.497C546.193 231.782 546.182 232.079 546.228 232.368L551.501 265.61C551.596 266.216 551.928 266.76 552.424 267.122C552.92 267.484 553.539 267.635 554.145 267.541L593.67 261.273C594.276 261.178 594.82 260.846 595.182 260.35C595.544 259.854 595.695 259.235 595.601 258.629L590.996 229.606C590.901 229.026 590.581 228.507 590.105 228.162C589.63 227.817 589.037 227.674 588.456 227.764L570.9 230.571C570.555 230.621 570.203 230.577 569.882 230.444C569.56 230.311 569.281 230.093 569.073 229.814Z" fill="white"/>
<path d="M588.456 227.764L571.063 230.571C570.665 230.641 570.293 230.815 569.985 231.076C569.677 231.337 569.444 231.676 569.31 232.057L568.493 234.359C568.374 234.677 568.175 234.959 567.914 235.178C567.654 235.396 567.342 235.544 567.008 235.607L549.452 238.384C548.869 238.475 548.346 238.794 547.998 239.27C547.65 239.746 547.505 240.341 547.595 240.924L551.531 265.714C551.626 266.32 551.958 266.864 552.453 267.226C552.949 267.588 553.568 267.739 554.175 267.645L593.699 261.377C594.306 261.282 594.85 260.95 595.212 260.454C595.574 259.959 595.724 259.34 595.63 258.733L591.026 229.71C590.991 229.41 590.897 229.121 590.748 228.859C590.598 228.598 590.397 228.369 590.157 228.187C589.917 228.005 589.642 227.874 589.35 227.801C589.058 227.729 588.754 227.716 588.456 227.764Z" fill="#0052E8"/>
<path opacity="0.7" d="M588.456 227.764L571.063 230.571C570.665 230.641 570.293 230.815 569.985 231.076C569.677 231.337 569.444 231.676 569.31 232.057L568.493 234.359C568.374 234.677 568.175 234.959 567.914 235.178C567.654 235.396 567.342 235.544 567.008 235.607L549.452 238.384C548.869 238.475 548.346 238.794 547.998 239.27C547.65 239.746 547.505 240.341 547.595 240.924L551.531 265.714C551.626 266.32 551.958 266.864 552.453 267.226C552.949 267.588 553.568 267.739 554.175 267.645L593.699 261.377C594.306 261.282 594.85 260.95 595.212 260.454C595.574 259.959 595.724 259.34 595.63 258.733L591.026 229.71C590.991 229.41 590.897 229.121 590.748 228.859C590.598 228.598 590.397 228.369 590.157 228.187C589.917 228.005 589.642 227.874 589.35 227.801C589.058 227.729 588.754 227.716 588.456 227.764Z" fill="white"/>
<path d="M609.875 499.965L615.237 518.68L623.985 516.957L621.698 496.979L609.875 499.965Z" fill="#B97964"/>
<path d="M614.479 515.754L624.802 513.882C624.992 513.855 625.185 513.889 625.353 513.98C625.522 514.071 625.657 514.214 625.738 514.387L629.124 522.453C629.198 522.622 629.237 522.805 629.239 522.989C629.241 523.174 629.207 523.357 629.138 523.529C629.068 523.7 628.966 523.856 628.836 523.987C628.707 524.119 628.552 524.223 628.382 524.294C628.293 524.34 628.198 524.37 628.099 524.384C624.371 524.993 621.014 525.394 616.38 526.24C610.914 527.235 612.429 527.636 605.983 528.899C602.121 529.656 600.606 525.379 602.21 524.859C609.637 522.542 609.919 520.136 612.34 516.912C612.889 516.279 613.649 515.867 614.479 515.754Z" fill="#263238"/>
<path d="M533.618 496.326V521.131H542.916L547.714 496.905L533.618 496.326Z" fill="#B97964"/>
<path d="M533.454 519.541L543.926 519.912C544.119 519.922 544.302 519.996 544.448 520.123C544.593 520.25 544.692 520.421 544.728 520.611L546.317 529.196C546.369 529.56 546.283 529.93 546.077 530.234C545.872 530.539 545.56 530.756 545.203 530.845C545.105 530.86 545.005 530.86 544.906 530.845C541.134 530.651 537.777 530.325 533.024 530.161C527.469 529.968 528.85 530.681 522.329 530.533C518.393 530.443 517.873 525.958 519.507 525.794C527.172 525.111 528.048 522.824 531.093 520.21C531.767 519.697 532.611 519.458 533.454 519.541Z" fill="#263238"/>
<path d="M561.854 289.197L579.217 284.296C579.217 284.296 591.531 292.183 593.343 328.068C594.086 342.491 598.2 353.631 597.621 380.961C597.443 388.943 599.207 396.848 602.76 403.998C607.043 412.649 610.265 421.785 612.355 431.209C617.554 454.469 623.985 507.733 623.985 507.733L611.434 509.813C611.434 509.813 599.804 470.333 584.505 430.853C569.206 391.373 558.482 331.128 558.482 331.128L554.457 289.197H561.854Z" fill="#263238"/>
<path opacity="0.6" d="M569.043 332.969L565.523 333.727L561.542 337.708L560.517 341.777C562.106 349.768 564.587 361.547 567.751 374.707C573.811 341.213 569.043 332.969 569.043 332.969Z" fill="black"/>
<path d="M529.712 287.667L532.935 513.095H545.322C545.322 513.095 558.185 457.544 558.185 435.501C558.185 422.46 557.324 408.662 556.626 399.571C556.109 392.828 556.953 386.05 559.106 379.638C563.191 367.503 569.593 346.605 570.424 332.969C570.424 332.969 586.644 332.346 575.014 287.667H529.712Z" fill="#263238"/>
<path d="M539.307 173.609L533.588 179.149C534.238 179.82 535.036 180.328 535.919 180.633C536.801 180.937 537.743 181.03 538.668 180.902L539.307 173.609Z" fill="#A24E3F"/>
<path d="M570.558 174.738C568.256 186.041 567.587 190.883 560.948 195.933C551.308 200.657 537.643 198.221 536.529 186.457C535.519 175.867 539.5 159.201 551.264 156.171C553.864 155.499 556.592 155.504 559.19 156.185C561.788 156.866 564.168 158.2 566.104 160.062C568.04 161.923 569.467 164.249 570.249 166.818C571.031 169.387 571.143 172.114 570.573 174.738H570.558Z" fill="#B97964"/>
<path d="M541.609 166.405C541.535 166.391 541.465 166.362 541.403 166.318C541.341 166.275 541.29 166.218 541.253 166.153C541.016 165.639 540.658 165.19 540.211 164.843C539.764 164.497 539.24 164.263 538.683 164.162C538.624 164.157 538.567 164.14 538.515 164.112C538.463 164.084 538.417 164.046 538.38 164.001C538.343 163.955 538.315 163.903 538.298 163.846C538.281 163.79 538.276 163.731 538.282 163.672C538.287 163.612 538.305 163.554 538.334 163.501C538.362 163.448 538.401 163.401 538.449 163.363C538.496 163.326 538.55 163.298 538.608 163.283C538.666 163.267 538.727 163.263 538.787 163.271C539.492 163.389 540.158 163.674 540.729 164.103C541.3 164.532 541.76 165.093 542.069 165.737C542.098 165.79 542.115 165.849 542.121 165.909C542.127 165.97 542.121 166.031 542.103 166.089C542.085 166.147 542.055 166.201 542.017 166.247C541.978 166.294 541.93 166.332 541.876 166.361L541.609 166.405Z" fill="#263238"/>
<path opacity="0.2" d="M543.926 192.621C541.737 192.6 539.594 191.995 537.717 190.868C539.767 195.22 544.104 197.552 548.976 198.072L548.813 195.681C548.813 195.681 549.244 192.784 543.926 192.621Z" fill="#606060"/>
<path d="M548.085 206.227L549.095 191.715C549.095 191.715 554.962 189.561 558.482 191.715C558.482 191.715 560.176 202.573 563.384 205.172L548.085 206.227Z" fill="#B97964"/>
<path d="M536.752 171.054C536.544 171.886 536.752 172.688 537.361 172.822C537.97 172.955 538.564 172.361 538.757 171.544C538.95 170.727 538.757 169.911 538.148 169.777C537.539 169.643 536.975 170.208 536.752 171.054Z" fill="#263238"/>
<path d="M538.609 169.762C538.069 169.647 537.562 169.41 537.128 169.071C536.693 168.731 536.341 168.297 536.098 167.801C536.075 168.47 536.277 169.127 536.674 169.666C537.07 170.205 537.636 170.595 538.282 170.772L538.609 169.762Z" fill="#263238"/>
<path d="M540.436 173.639C539.498 175.801 539.455 178.247 540.317 180.442C541.49 183.338 544.565 182.907 546.258 180.531C547.847 178.377 549.125 174.277 546.941 172.124C546.46 171.67 545.874 171.343 545.236 171.171C544.597 170.999 543.926 170.988 543.282 171.137C542.638 171.287 542.042 171.594 541.545 172.031C541.048 172.467 540.667 173.019 540.436 173.639Z" fill="#B97964"/>
<path d="M575.237 166.405C575.237 166.405 581.371 160.567 576.47 156.275C571.568 151.982 577.153 160.909 575.237 166.405Z" fill="#263238"/>
<path d="M549.912 158.518C549.912 158.518 543.406 153.082 541.193 157.226C538.98 161.37 544.936 156.677 549.912 158.518Z" fill="#263238"/>
<path d="M549.229 171.069L539.619 167.98L539.693 167.772C539.808 167.37 539.761 166.939 539.561 166.572C539.36 166.205 539.024 165.931 538.623 165.811L536.871 165.306C536.674 165.236 536.465 165.207 536.257 165.223C536.048 165.239 535.846 165.299 535.662 165.398C535.479 165.498 535.318 165.635 535.191 165.801C535.064 165.967 534.973 166.157 534.925 166.361L533.083 172.643C532.947 173.14 533 173.669 533.232 174.129C533.359 174.365 533.532 174.574 533.741 174.743C533.95 174.911 534.191 175.036 534.45 175.109L535.267 175.362C535.459 175.383 535.653 175.383 535.846 175.362C536.291 175.36 536.724 175.215 537.08 174.947C537.436 174.68 537.696 174.304 537.821 173.876L539.307 168.722L548.887 171.797L549.229 171.069ZM536.113 166.227C536.276 166.168 536.455 166.168 536.618 166.227L538.371 166.747C538.452 166.771 538.528 166.81 538.594 166.864C538.66 166.917 538.714 166.983 538.754 167.058C538.794 167.132 538.819 167.214 538.827 167.298C538.835 167.383 538.827 167.468 538.802 167.549V167.742L535.831 166.791V166.672C535.865 166.493 535.966 166.334 536.113 166.227ZM536.975 173.743C536.933 173.894 536.86 174.035 536.761 174.157C536.662 174.279 536.54 174.38 536.4 174.452C536.261 174.525 536.108 174.568 535.951 174.578C535.795 174.589 535.637 174.568 535.489 174.515L534.687 174.277C534.543 174.235 534.408 174.165 534.291 174.071C534.174 173.976 534.076 173.86 534.004 173.728C533.932 173.598 533.886 173.454 533.871 173.306C533.856 173.158 533.871 173.008 533.915 172.866L535.4 167.623L538.371 168.589L536.975 173.743Z" fill="#263238"/>
<path d="M543.035 210.297C543.035 210.297 544.52 204.563 554.457 202.499C557.078 201.797 559.858 201.985 562.361 203.033C564.863 204.082 566.947 205.931 568.285 208.291L543.035 210.297Z" fill="#0052E8"/>
<path opacity="0.5" d="M543.035 210.297C543.035 210.297 544.52 204.563 554.457 202.499C557.078 201.797 559.858 201.985 562.361 203.033C564.863 204.082 566.947 205.931 568.285 208.291L543.035 210.297Z" fill="white"/>
<path d="M528.568 289.152C528.568 289.152 568.85 294.128 581.713 284.295C579.393 273.986 578.573 263.395 579.277 252.851C580.51 236.097 585.679 219.565 580.168 210.505C574.657 201.444 533.9 208.202 525.865 216.446C517.829 224.689 528.568 256.906 528.568 289.152Z" fill="#0052E8"/>
<path opacity="0.2" d="M534.88 223.62L531.553 233.542L524.127 242.885C524.988 249.762 526.162 257.5 527.097 265.669C531.019 261.381 534.071 256.372 536.084 250.92C543.362 231.091 537.569 220.04 537.569 220.04L534.88 223.62Z" fill="black"/>
<path d="M543.035 179.001C543.035 179.001 531.152 208.529 551.293 208.306C571.434 208.083 576.306 203.182 570.914 199.201C565.523 195.221 583.228 182.061 576.588 165.544C576.588 165.544 574.242 152.384 560.785 152.532C558.732 149.818 555.709 148.003 552.348 147.467C551.186 147.326 550.008 147.515 548.95 148.014C547.891 148.512 546.995 149.3 546.365 150.286C545.735 151.272 545.396 152.416 545.387 153.586C545.379 154.756 545.701 155.904 546.317 156.899L549.095 161.355C549.095 161.355 538.594 164.771 543.035 179.001Z" fill="#263238"/>
<path d="M532.994 214.901C532.994 214.901 523.102 217.084 521.111 229.516C519.121 241.949 517.933 251.366 514.309 252.628C510.685 253.891 493.514 239.632 493.514 239.632L494.079 231.284C494.138 230.367 493.922 229.453 493.459 228.659C492.996 227.866 492.307 227.228 491.479 226.828L490.187 226.189C489.385 225.802 488.489 225.651 487.605 225.757C486.72 225.862 485.885 226.218 485.196 226.783L484.216 227.6C483.574 228.132 483.085 228.825 482.8 229.608C482.516 230.392 482.445 231.237 482.597 232.056C483.265 235.398 484.647 240.775 487.053 242.454C487.053 242.454 511.145 270.155 518.319 267.273C525.493 264.392 530.929 246.969 533.87 239.736C536.202 234.032 539.173 227.675 532.994 214.901Z" fill="#B97964"/>
<path d="M533.618 213.282C530.929 211.559 519.73 213.638 517.086 239.335C517.086 239.335 525.924 246.761 534.301 245.766C534.301 245.766 545.203 220.753 533.618 213.282Z" fill="#0052E8"/>
<path d="M516.522 236.869C516.522 236.869 525.181 244.296 536.024 243.894L534.777 246.791C534.777 246.791 525.582 248.811 516.121 239.75L516.522 236.869Z" fill="#0052E8"/>
<path opacity="0.5" d="M516.522 236.869C516.522 236.869 525.181 244.296 536.024 243.894L534.777 246.791C534.777 246.791 525.582 248.811 516.121 239.75L516.522 236.869Z" fill="white"/>
<path d="M609.28 506.901L610.454 511.52L625.159 508.713L624.654 504.138L609.28 506.901Z" fill="#0052E8"/>
<path d="M531.405 510.139L531.583 514.729H546.793L547.714 510.139H531.405Z" fill="#0052E8"/>
</svg>
