<svg width="719" height="536" viewBox="0 0 719 536" fill="none" xmlns="http://www.w3.org/2000/svg">
<path d="M719 470.802H0V471.161H719V470.802Z" fill="#EBEBEB"/>
<path d="M646.956 493.938H599.33V494.298H646.956V493.938Z" fill="#EBEBEB"/>
<path d="M476.294 497.85H463.798V498.209H476.294V497.85Z" fill="#EBEBEB"/>
<path d="M597.892 480.594H570.296V480.953H597.892V480.594Z" fill="#EBEBEB"/>
<path d="M137.545 483.01H75.4375V483.369H137.545V483.01Z" fill="#EBEBEB"/>
<path d="M159.46 483.01H150.357V483.369H159.46V483.01Z" fill="#EBEBEB"/>
<path d="M323.766 489.078H189.054V489.438H323.766V489.078Z" fill="#EBEBEB"/>
<path d="M340.806 406.666H63.1426C60.9675 406.663 58.8826 405.796 57.3459 404.256C55.8092 402.717 54.946 400.631 54.946 398.455V8.13908C54.965 5.97636 55.8364 3.90845 57.3712 2.38452C58.9059 0.860583 60.9799 0.00370485 63.1426 0H340.806C342.984 0 345.072 0.865083 346.612 2.40494C348.152 3.9448 349.017 6.03329 349.017 8.21098V398.455C349.017 400.633 348.152 402.722 346.612 404.261C345.072 405.801 342.984 406.666 340.806 406.666ZM63.1426 0.287601C61.0628 0.29141 59.0694 1.1203 57.6001 2.59232C56.1308 4.06435 55.3055 6.05923 55.3055 8.13908V398.455C55.3055 400.535 56.1308 402.53 57.6001 404.002C59.0694 405.474 61.0628 406.303 63.1426 406.307H340.806C342.887 406.303 344.882 405.475 346.354 404.003C347.825 402.531 348.654 400.537 348.658 398.455V8.13908C348.654 6.0579 347.825 4.06306 346.354 2.59144C344.882 1.11983 342.887 0.291402 340.806 0.287601H63.1426Z" fill="#EBEBEB"/>
<path d="M651.86 406.666H374.182C372.005 406.663 369.919 405.796 368.38 404.257C366.841 402.718 365.975 400.632 365.971 398.455V8.13908C365.994 5.97505 366.868 3.90716 368.405 2.38362C369.942 0.86008 372.018 0.00366444 374.182 0H651.86C654.02 0.00748406 656.09 0.866034 657.622 2.38956C659.154 3.91309 660.023 5.97885 660.042 8.13908V398.455C660.042 400.628 659.181 402.712 657.647 404.251C656.114 405.79 654.032 406.659 651.86 406.666ZM374.182 0.287601C372.101 0.291402 370.106 1.11983 368.634 2.59144C367.163 4.06306 366.334 6.0579 366.33 8.13908V398.455C366.334 400.537 367.163 402.531 368.634 404.003C370.106 405.475 372.101 406.303 374.182 406.307H651.86C653.941 406.303 655.936 405.475 657.407 404.003C658.879 402.531 659.707 400.537 659.711 398.455V8.13908C659.707 6.0579 658.879 4.06306 657.407 2.59144C655.936 1.11983 653.941 0.291402 651.86 0.287601H374.182Z" fill="#EBEBEB"/>
<path d="M263.154 53.3211H127.018V360.003H263.154V53.3211Z" fill="#F5F5F5"/>
<path d="M258.02 354.251V59.0729L132.152 59.0729V354.251H258.02Z" fill="#FAFAFA"/>
<path d="M196.531 57.5919H193.641V357.127H196.531V57.5919Z" fill="#F5F5F5"/>
<path d="M266.289 49.3233H123.869V63.7608H266.289V49.3233Z" fill="#F5F5F5"/>
<path d="M266.289 65.3571H123.869V67.0683H266.289V65.3571Z" fill="#F5F5F5"/>
<path d="M266.289 69.2397H123.869V70.951H266.289V69.2397Z" fill="#F5F5F5"/>
<path d="M266.289 73.1223H123.869V74.8335H266.289V73.1223Z" fill="#F5F5F5"/>
<path d="M266.289 77.0049H123.869V78.7162H266.289V77.0049Z" fill="#F5F5F5"/>
<path d="M266.289 80.8873H123.869V82.5986H266.289V80.8873Z" fill="#F5F5F5"/>
<path d="M266.289 84.7701H123.869V86.4813H266.289V84.7701Z" fill="#F5F5F5"/>
<path d="M266.289 88.6528H123.869V90.364H266.289V88.6528Z" fill="#F5F5F5"/>
<path d="M266.289 92.5353H123.869V94.2465H266.289V92.5353Z" fill="#F5F5F5"/>
<path d="M266.289 96.418H123.869V98.1292H266.289V96.418Z" fill="#F5F5F5"/>
<path d="M266.289 100.3H123.869V102.012H266.289V100.3Z" fill="#F5F5F5"/>
<path d="M266.289 104.183H123.869V105.894H266.289V104.183Z" fill="#F5F5F5"/>
<path d="M266.289 108.066H123.869V109.777H266.289V108.066Z" fill="#F5F5F5"/>
<path d="M266.289 111.948H123.869V113.659H266.289V111.948Z" fill="#F5F5F5"/>
<path d="M266.289 115.831H123.869V117.542H266.289V115.831Z" fill="#F5F5F5"/>
<path d="M266.289 119.713H123.869V121.425H266.289V119.713Z" fill="#F5F5F5"/>
<path d="M266.289 123.596H123.869V125.307H266.289V123.596Z" fill="#F5F5F5"/>
<path d="M266.289 127.479H123.869V129.19H266.289V127.479Z" fill="#F5F5F5"/>
<path d="M266.289 131.361H123.869V133.073H266.289V131.361Z" fill="#F5F5F5"/>
<path d="M424.339 53.3211H288.204V360.003H424.339V53.3211Z" fill="#F5F5F5"/>
<path d="M419.206 354.237V59.0588L293.338 59.0588V354.237H419.206Z" fill="#FAFAFA"/>
<path d="M357.717 57.5919H354.827V357.127H357.717V57.5919Z" fill="#F5F5F5"/>
<path d="M427.474 49.3233H285.055V63.7608H427.474V49.3233Z" fill="#F5F5F5"/>
<path d="M427.474 65.3571H285.055V67.0683H427.474V65.3571Z" fill="#F5F5F5"/>
<path d="M427.474 69.2397H285.055V70.951H427.474V69.2397Z" fill="#F5F5F5"/>
<path d="M427.474 73.1223H285.055V74.8335H427.474V73.1223Z" fill="#F5F5F5"/>
<path d="M427.474 77.0049H285.055V78.7162H427.474V77.0049Z" fill="#F5F5F5"/>
<path d="M427.474 80.8873H285.055V82.5986H427.474V80.8873Z" fill="#F5F5F5"/>
<path d="M427.474 84.7701H285.055V86.4813H427.474V84.7701Z" fill="#F5F5F5"/>
<path d="M427.474 88.6528H285.055V90.364H427.474V88.6528Z" fill="#F5F5F5"/>
<path d="M427.474 92.5353H285.055V94.2465H427.474V92.5353Z" fill="#F5F5F5"/>
<path d="M427.474 96.418H285.055V98.1292H427.474V96.418Z" fill="#F5F5F5"/>
<path d="M427.474 100.3H285.055V102.012H427.474V100.3Z" fill="#F5F5F5"/>
<path d="M427.474 104.183H285.055V105.894H427.474V104.183Z" fill="#F5F5F5"/>
<path d="M427.474 108.066H285.055V109.777H427.474V108.066Z" fill="#F5F5F5"/>
<path d="M427.474 111.948H285.055V113.659H427.474V111.948Z" fill="#F5F5F5"/>
<path d="M427.474 115.831H285.055V117.542H427.474V115.831Z" fill="#F5F5F5"/>
<path d="M427.474 119.713H285.055V121.425H427.474V119.713Z" fill="#F5F5F5"/>
<path d="M427.474 123.596H285.055V125.307H427.474V123.596Z" fill="#F5F5F5"/>
<path d="M427.474 127.479H285.055V129.19H427.474V127.479Z" fill="#F5F5F5"/>
<path d="M427.474 131.361H285.055V133.073H427.474V131.361Z" fill="#F5F5F5"/>
<path d="M585.51 53.3211H449.375V360.003H585.51V53.3211Z" fill="#F5F5F5"/>
<path d="M580.377 354.251V59.0729L454.509 59.0729V354.251H580.377Z" fill="#FAFAFA"/>
<path d="M518.888 57.5919H515.998V357.127H518.888V57.5919Z" fill="#F5F5F5"/>
<path d="M588.66 49.3233H446.24V63.7608H588.66V49.3233Z" fill="#F5F5F5"/>
<path d="M588.66 65.3571H446.24V67.0683H588.66V65.3571Z" fill="#F5F5F5"/>
<path d="M588.66 69.2397H446.24V70.951H588.66V69.2397Z" fill="#F5F5F5"/>
<path d="M588.66 73.1223H446.24V74.8335H588.66V73.1223Z" fill="#F5F5F5"/>
<path d="M588.66 77.0049H446.24V78.7162H588.66V77.0049Z" fill="#F5F5F5"/>
<path d="M588.66 80.8873H446.24V82.5986H588.66V80.8873Z" fill="#F5F5F5"/>
<path d="M588.66 84.7701H446.24V86.4813H588.66V84.7701Z" fill="#F5F5F5"/>
<path d="M588.66 88.6528H446.24V90.364H588.66V88.6528Z" fill="#F5F5F5"/>
<path d="M588.66 92.5353H446.24V94.2465H588.66V92.5353Z" fill="#F5F5F5"/>
<path d="M588.66 96.418H446.24V98.1292H588.66V96.418Z" fill="#F5F5F5"/>
<path d="M588.66 100.3H446.24V102.012H588.66V100.3Z" fill="#F5F5F5"/>
<path d="M588.66 104.183H446.24V105.894H588.66V104.183Z" fill="#F5F5F5"/>
<path d="M588.66 108.066H446.24V109.777H588.66V108.066Z" fill="#F5F5F5"/>
<path d="M588.66 111.948H446.24V113.659H588.66V111.948Z" fill="#F5F5F5"/>
<path d="M588.66 115.831H446.24V117.542H588.66V115.831Z" fill="#F5F5F5"/>
<path d="M588.66 119.713H446.24V121.425H588.66V119.713Z" fill="#F5F5F5"/>
<path d="M588.66 123.596H446.24V125.307H588.66V123.596Z" fill="#F5F5F5"/>
<path d="M588.66 127.479H446.24V129.19H588.66V127.479Z" fill="#F5F5F5"/>
<path d="M588.66 131.361H446.24V133.073H588.66V131.361Z" fill="#F5F5F5"/>
<path d="M477.2 327.174H649.976C649.975 330.226 648.797 333.161 646.686 335.365C644.575 337.57 641.694 338.875 638.645 339.008C620.08 339.843 591.521 342.79 582.462 353.058C565.58 372.212 567.205 439.482 587.437 455.055C593.779 459.944 612.257 469.636 612.257 469.636H514.905C514.905 469.636 532.161 459.743 538.186 455.055C558.318 439.352 558.879 372.126 541.91 353.058C533.21 343.279 506.435 340.116 488.474 339.123C485.424 338.951 482.555 337.616 480.458 335.393C478.361 333.171 477.195 330.229 477.2 327.174Z" fill="#F5F5F5"/>
<path d="M628.564 339.641C611.006 341.079 589.983 344.516 582.448 353.058C579.984 356.006 578.039 359.351 576.696 362.951H547.72C546.369 359.355 544.425 356.011 541.968 353.058C534.404 344.559 513.208 341.065 495.952 339.641H628.564Z" fill="#E6E6E6"/>
<path d="M550.783 327.26L553.141 300.398H519.089L516.731 327.26H550.783Z" fill="#EBEBEB"/>
<path d="M550.783 327.26L553.141 300.398H554.967L552.623 327.26H550.783Z" fill="#E0E0E0"/>
<path d="M547.562 324.528L549.431 303.145H522.31L520.441 324.528H547.562Z" fill="#F0F0F0"/>
<path d="M545.477 322.759L547.044 304.899H524.395L522.828 322.759H545.477Z" fill="#FAFAFA"/>
<path d="M561.841 327.174H596.051L592.255 283.789H558.045L561.841 327.174Z" fill="#E6E6E6"/>
<path d="M561.841 327.174H560.202L556.405 283.789H558.045L561.841 327.174Z" fill="#E0E0E0"/>
<path d="M564.933 322.745H592.168L589.149 288.218H561.913L564.933 322.745Z" fill="#F0F0F0"/>
<path d="M566.931 319.912H589.681L587.15 291.051H564.401L566.931 319.912Z" fill="#FAFAFA"/>
<path d="M578.421 304.036C578.055 304.405 577.619 304.698 577.139 304.898C576.659 305.098 576.144 305.201 575.624 305.201C575.104 305.201 574.589 305.098 574.109 304.898C573.629 304.698 573.194 304.405 572.827 304.036C572.458 303.67 572.165 303.234 571.965 302.754C571.765 302.274 571.662 301.759 571.662 301.239C571.662 300.719 571.765 300.205 571.965 299.724C572.165 299.244 572.458 298.809 572.827 298.442C573.194 298.073 573.629 297.78 574.109 297.58C574.589 297.381 575.104 297.278 575.624 297.278C576.144 297.278 576.659 297.381 577.139 297.58C577.619 297.78 578.055 298.073 578.421 298.442C579.16 299.186 579.574 300.191 579.574 301.239C579.574 302.287 579.16 303.293 578.421 304.036Z" fill="#EBEBEB"/>
<path d="M576.739 308.883C577.006 308.611 577.325 308.395 577.677 308.248C578.029 308.1 578.406 308.025 578.788 308.025C579.169 308.025 579.547 308.1 579.899 308.248C580.25 308.395 580.569 308.611 580.837 308.883C581.253 309.283 581.538 309.8 581.657 310.365C581.775 310.93 581.72 311.517 581.5 312.051C581.28 312.585 580.904 313.04 580.421 313.357C579.939 313.674 579.372 313.839 578.795 313.829C578.217 313.842 577.648 313.679 577.163 313.363C576.678 313.047 576.3 312.592 576.078 312.058C575.856 311.524 575.8 310.935 575.918 310.368C576.036 309.802 576.322 309.284 576.739 308.883Z" fill="#F0F0F0"/>
<path d="M239.37 460.764H272.688L255.159 318.114C254.741 315.133 253.279 312.397 251.032 310.393C248.786 308.39 245.902 307.248 242.893 307.171H97.5108L118.822 460.764H239.37Z" fill="#F5F5F5"/>
<path d="M133.734 460.764H100.372L82.8576 318.114C82.6424 316.743 82.731 315.341 83.1172 314.008C83.5035 312.675 84.1779 311.443 85.0929 310.399C86.0078 309.355 87.1409 308.525 88.4121 307.967C89.6832 307.409 91.0614 307.138 92.4491 307.171H103.953C106.963 307.25 109.848 308.392 112.096 310.396C114.344 312.399 115.81 315.133 116.234 318.114L133.734 460.764Z" fill="#F0F0F0"/>
<path d="M145.971 460.591L139.932 391.567C139.796 390.068 139.151 388.66 138.105 387.577C137.059 386.494 135.674 385.802 134.18 385.614L131.721 385.384C129.723 385.131 127.872 384.201 126.477 382.749C125.082 381.296 124.228 379.41 124.056 377.403L122.949 364.821C122.837 363.599 122.981 362.367 123.372 361.204C123.762 360.041 124.391 358.972 125.218 358.066C126.044 357.159 127.051 356.435 128.173 355.939C129.295 355.443 130.508 355.187 131.735 355.186H76.0558C74.833 355.187 73.6237 355.443 72.5047 355.936C71.3858 356.429 70.3814 357.15 69.5554 358.051C68.7294 358.953 68.0997 360.017 67.7062 361.174C67.3128 362.332 67.1641 363.559 67.2697 364.778L68.3625 377.36C68.5306 379.374 69.3847 381.27 70.7823 382.731C72.18 384.191 74.0364 385.128 76.0415 385.384L78.5292 385.7C80.0252 385.883 81.4132 386.574 82.4604 387.658C83.5076 388.741 84.1505 390.152 84.2812 391.654L90.3208 460.678C90.5329 463.106 91.6472 465.367 93.4439 467.015C95.2407 468.663 97.5895 469.577 100.027 469.579H155.707C153.249 469.586 150.88 468.664 149.074 466.997C147.269 465.33 146.16 463.042 145.971 460.591Z" fill="#E6E6E6"/>
<path d="M299.205 374.326C299.665 369.101 302.065 364.239 305.932 360.696C309.8 357.153 314.854 355.187 320.099 355.186H271.624C266.376 355.184 261.318 357.151 257.449 360.697C253.581 364.244 251.183 369.112 250.73 374.34L245.941 428.984H294.416L299.205 374.326Z" fill="#E6E6E6"/>
<path d="M341.64 355.186H320.07C314.823 355.188 309.767 357.155 305.899 360.701C302.031 364.247 299.633 369.113 299.176 374.34L294.387 428.984H178.959L174.171 374.34C173.714 369.113 171.315 364.247 167.447 360.701C163.579 357.155 158.523 355.188 153.276 355.186H131.706C130.484 355.187 129.274 355.443 128.155 355.936C127.036 356.429 126.032 357.15 125.206 358.051C124.38 358.953 123.75 360.017 123.357 361.174C122.963 362.332 122.815 363.559 122.92 364.778L124.027 377.36C124.191 379.378 125.045 381.279 126.447 382.74C127.848 384.202 129.711 385.136 131.721 385.384L134.209 385.7C135.703 385.888 137.088 386.58 138.134 387.663C139.18 388.746 139.825 390.154 139.961 391.654L145.986 460.678C146.198 463.106 147.312 465.367 149.109 467.015C150.906 468.663 153.254 469.577 155.692 469.579H317.712C320.148 469.577 322.495 468.662 324.289 467.014C326.084 465.366 327.195 463.105 327.404 460.678L333.443 391.654C333.579 390.154 334.224 388.746 335.27 387.663C336.316 386.58 337.701 385.888 339.195 385.7L341.683 385.384C343.681 385.131 345.532 384.201 346.927 382.749C348.321 381.296 349.176 379.41 349.348 377.403L350.455 364.821C350.567 363.597 350.422 362.362 350.03 361.197C349.638 360.032 349.006 358.962 348.177 358.055C347.347 357.148 346.337 356.425 345.211 355.931C344.086 355.437 342.869 355.183 341.64 355.186Z" fill="#F0F0F0"/>
<path d="M359.5 535.741C513.485 535.741 638.314 528.453 638.314 519.463C638.314 510.473 513.485 503.185 359.5 503.185C205.515 503.185 80.6862 510.473 80.6862 519.463C80.6862 528.453 205.515 535.741 359.5 535.741Z" fill="#F5F5F5"/>
<path d="M546.512 123.438H242.979C239.516 123.438 236.709 126.245 236.709 129.708V408.694C236.709 412.157 239.516 414.964 242.979 414.964H546.512C549.975 414.964 552.782 412.157 552.782 408.694V129.708C552.782 126.245 549.975 123.438 546.512 123.438Z" fill="#0052E8"/>
<path opacity="0.4" d="M546.512 123.438H242.979C239.516 123.438 236.709 126.245 236.709 129.708V408.694C236.709 412.157 239.516 414.964 242.979 414.964H546.512C549.975 414.964 552.782 412.157 552.782 408.694V129.708C552.782 126.245 549.975 123.438 546.512 123.438Z" fill="white"/>
<path opacity="0.6" d="M240.146 182.065V407.4C240.15 408.486 240.583 409.526 241.351 410.294C242.118 411.061 243.159 411.494 244.244 411.498H545.203C546.289 411.494 547.329 411.061 548.097 410.294C548.865 409.526 549.298 408.486 549.302 407.4V182.065H240.146Z" fill="white"/>
<path d="M374.297 139.644H295.451C293.95 139.644 292.734 140.861 292.734 142.362V166.492C292.734 167.993 293.95 169.21 295.451 169.21H374.297C375.798 169.21 377.015 167.993 377.015 166.492V142.362C377.015 140.861 375.798 139.644 374.297 139.644Z" fill="#0052E8"/>
<path d="M331.344 157.792H323.55L321.868 161.516H320.343L326.714 147.568H328.152L334.522 161.516H332.969L331.344 157.792ZM330.812 156.598L327.461 149.106L324.111 156.598H330.812Z" fill="white"/>
<path d="M336.895 147.568H342.575C347.032 147.568 350.038 150.444 350.038 154.542C350.038 158.64 347.032 161.516 342.575 161.516H336.895V147.568ZM342.488 160.251C343.301 160.359 344.127 160.292 344.911 160.055C345.696 159.818 346.42 159.416 347.037 158.877C347.654 158.337 348.148 157.671 348.486 156.925C348.825 156.179 349 155.369 349 154.549C349 153.73 348.825 152.92 348.486 152.173C348.148 151.427 347.654 150.762 347.037 150.222C346.42 149.682 345.696 149.28 344.911 149.043C344.127 148.806 343.301 148.739 342.488 148.848H338.361V160.251H342.488Z" fill="white"/>
<path d="M353.345 147.568H359.025C363.498 147.568 366.503 150.444 366.503 154.542C366.503 158.64 363.498 161.516 359.025 161.516H353.345V147.568ZM358.954 160.251C359.766 160.359 360.592 160.292 361.376 160.055C362.161 159.818 362.886 159.416 363.502 158.877C364.119 158.337 364.613 157.671 364.951 156.925C365.29 156.179 365.465 155.369 365.465 154.549C365.465 153.73 365.29 152.92 364.951 152.173C364.613 151.427 364.119 150.762 363.502 150.222C362.886 149.682 362.161 149.28 361.376 149.043C360.592 148.806 359.766 148.739 358.954 148.848H354.827V160.251H358.954Z" fill="white"/>
<path d="M313.024 153.708H300.197V155.146H313.024V153.708Z" fill="white"/>
<path d="M307.329 148.014H305.891V160.841H307.329V148.014Z" fill="white"/>
<path d="M278.986 142.305H256.309V164.982H278.986V142.305Z" fill="white"/>
<path d="M278.972 165.701H256.309C256.12 165.697 255.939 165.62 255.805 165.486C255.671 165.352 255.594 165.171 255.59 164.982V142.362C255.59 142.171 255.666 141.989 255.801 141.854C255.936 141.719 256.118 141.643 256.309 141.643H278.972C279.163 141.643 279.346 141.719 279.48 141.854C279.615 141.989 279.691 142.171 279.691 142.362V165.039C279.677 165.22 279.594 165.388 279.461 165.511C279.328 165.634 279.153 165.701 278.972 165.701ZM257.014 164.263H278.253V143.024H257.028L257.014 164.263Z" fill="#0052E8"/>
<path opacity="0.6" d="M523.533 196.963H295.451C293.95 196.963 292.734 198.18 292.734 199.681V223.811C292.734 225.312 293.95 226.528 295.451 226.528H523.533C525.034 226.528 526.25 225.312 526.25 223.811V199.681C526.25 198.18 525.034 196.963 523.533 196.963Z" fill="#0052E8"/>
<g opacity="0.6">
<path opacity="0.6" d="M278.986 201.363H256.309V224.041H278.986V201.363Z" fill="white"/>
<path opacity="0.6" d="M278.972 224.745H256.309C256.118 224.745 255.936 224.669 255.801 224.535C255.666 224.4 255.59 224.217 255.59 224.026V201.32C255.59 201.129 255.666 200.947 255.801 200.812C255.936 200.677 256.118 200.601 256.309 200.601H278.972C279.163 200.601 279.346 200.677 279.48 200.812C279.615 200.947 279.691 201.129 279.691 201.32V223.983C279.697 224.081 279.683 224.179 279.649 224.271C279.616 224.364 279.564 224.448 279.496 224.52C279.429 224.591 279.348 224.648 279.258 224.687C279.167 224.725 279.07 224.745 278.972 224.745ZM257.014 223.307H278.253V202.082H257.028L257.014 223.307Z" fill="#0052E8"/>
</g>
<path d="M306.05 208.064H302.21V207.072H311.054V208.064H307.214V218.001H306.05V208.064Z" fill="white"/>
<path d="M319.236 215.082H313.153L311.845 217.958H310.608L315.612 207.029H316.748L321.738 217.958H320.53L319.236 215.082ZM318.819 214.147L316.202 208.266L313.484 214.147H318.819Z" fill="white"/>
<path d="M322.515 216.678L322.975 215.786C323.974 216.657 325.259 217.128 326.584 217.109C328.626 217.109 329.46 216.247 329.46 215.168C329.46 212.177 322.73 214.018 322.73 209.977C322.73 208.366 323.981 206.971 326.757 206.971C327.957 206.959 329.136 207.293 330.15 207.935L329.748 208.855C328.856 208.278 327.819 207.964 326.757 207.949C324.758 207.949 323.881 208.841 323.881 209.934C323.881 212.939 330.611 211.127 330.611 215.111C330.611 216.721 329.331 218.102 326.541 218.102C325.07 218.136 323.637 217.629 322.515 216.678Z" fill="white"/>
<path d="M336.564 212.824L334.335 215.082V217.958H333.17V207.072H334.335V213.673L340.806 207.072H342.143L337.398 212.019L342.46 218.001H341.022L336.564 212.824Z" fill="white"/>
<path d="M347.421 212.537C347.421 209.057 349.247 206.972 351.735 206.972C354.223 206.972 356.049 209.057 356.049 212.537C356.049 216.017 354.208 218.102 351.735 218.102C349.261 218.102 347.421 216.017 347.421 212.537ZM354.999 212.537C354.999 209.661 353.676 208.007 351.778 208.007C349.88 208.007 348.557 209.618 348.557 212.537C348.557 215.456 349.865 217.066 351.778 217.066C353.69 217.066 354.999 215.456 354.999 212.537Z" fill="white"/>
<path d="M360.765 207.072V218.001H359.644V208.064H357.055V207.072H360.765Z" fill="white"/>
<path d="M514.991 219.597H502.567V203.218H514.991V219.597ZM504.005 218.159H513.553V204.656H504.005V218.159Z" fill="white"/>
<path d="M517.385 206.037L509.994 213.592L511.022 214.597L518.413 207.042L517.385 206.037Z" fill="white"/>
<path opacity="0.6" d="M524.223 237.63H296.142C294.641 237.63 293.424 238.847 293.424 240.348V264.477C293.424 265.978 294.641 267.195 296.142 267.195H524.223C525.724 267.195 526.941 265.978 526.941 264.477V240.348C526.941 238.847 525.724 237.63 524.223 237.63Z" fill="#0052E8"/>
<g opacity="0.6">
<path opacity="0.6" d="M279.691 242.016H257.014V264.693H279.691V242.016Z" fill="white"/>
<path opacity="0.6" d="M279.691 265.412H257.014C256.823 265.412 256.64 265.336 256.505 265.201C256.371 265.066 256.295 264.884 256.295 264.693V242.016C256.295 241.825 256.371 241.642 256.505 241.507C256.64 241.372 256.823 241.297 257.014 241.297H279.691C279.881 241.3 280.061 241.377 280.195 241.511C280.329 241.645 280.406 241.826 280.41 242.016V264.693C280.41 264.884 280.334 265.066 280.199 265.201C280.065 265.336 279.882 265.412 279.691 265.412ZM257.733 263.974H278.972V242.735H257.733V263.974Z" fill="#0052E8"/>
</g>
<path d="M306.05 248.774H302.21V247.768H311.054V248.774H307.214V258.711H306.05V248.774Z" fill="white"/>
<path d="M319.236 255.734H313.153L311.845 258.61H310.608L315.612 247.667H316.748L321.738 258.61H320.53L319.236 255.734ZM318.819 254.8L316.202 248.933L313.484 254.8H318.819Z" fill="white"/>
<path d="M322.515 257.402L322.975 256.511C323.968 257.392 325.256 257.87 326.584 257.848C328.626 257.848 329.46 256.985 329.46 255.907C329.46 252.901 322.73 254.756 322.73 250.701C322.73 249.091 323.981 247.71 326.757 247.71C327.957 247.697 329.136 248.032 330.15 248.674L329.748 249.594C328.856 249.017 327.819 248.703 326.757 248.688C324.758 248.688 323.881 249.579 323.881 250.672C323.881 253.678 330.611 251.866 330.611 255.849C330.611 257.46 329.331 258.826 326.541 258.826C325.069 258.867 323.634 258.36 322.515 257.402Z" fill="white"/>
<path d="M336.564 253.52L334.335 255.792V258.668H333.17V247.724H334.335V254.339L340.748 247.724H342.086L337.34 252.686L342.402 258.668H340.964L336.564 253.52Z" fill="white"/>
<path d="M347.421 253.189C347.421 249.709 349.247 247.638 351.735 247.638C354.223 247.638 356.049 249.709 356.049 253.189C356.049 256.669 354.208 258.754 351.735 258.754C349.261 258.754 347.421 256.683 347.421 253.189ZM354.999 253.189C354.999 250.313 353.676 248.659 351.778 248.659C349.88 248.659 348.557 250.27 348.557 253.189C348.557 256.108 349.865 257.719 351.778 257.719C353.69 257.719 354.999 256.122 354.999 253.189Z" fill="white"/>
<path d="M365.252 257.661V258.668H357.587V257.862L362.132 253.419C363.368 252.197 363.57 251.463 363.57 250.715C363.57 249.45 362.678 248.659 361.01 248.659C360.454 248.624 359.897 248.716 359.381 248.928C358.865 249.14 358.404 249.466 358.033 249.881L357.228 249.191C357.722 248.664 358.326 248.253 358.997 247.984C359.668 247.716 360.389 247.598 361.111 247.638C363.325 247.638 364.734 248.76 364.734 250.514C364.708 251.182 364.533 251.836 364.222 252.428C363.911 253.02 363.472 253.535 362.937 253.937L359.212 257.589L365.252 257.661Z" fill="white"/>
<path d="M515.696 260.278H503.3V243.885H515.724L515.696 260.278ZM504.738 258.84H514.286V245.323H504.738V258.84Z" fill="white"/>
<path d="M518.077 246.701L510.686 254.256L511.714 255.262L519.105 247.707L518.077 246.701Z" fill="white"/>
<path opacity="0.6" d="M524.927 278.282H296.846C295.345 278.282 294.128 279.499 294.128 281V305.129C294.128 306.63 295.345 307.847 296.846 307.847H524.927C526.428 307.847 527.645 306.63 527.645 305.129V281C527.645 279.499 526.428 278.282 524.927 278.282Z" fill="#0052E8"/>
<g opacity="0.6">
<path opacity="0.6" d="M280.396 282.682H257.718V305.36H280.396V282.682Z" fill="white"/>
<path opacity="0.6" d="M280.41 306.078H257.718C257.528 306.078 257.345 306.003 257.21 305.868C257.075 305.733 256.999 305.55 256.999 305.359V282.682C256.999 282.491 257.075 282.309 257.21 282.174C257.345 282.039 257.528 281.963 257.718 281.963H280.41C280.601 281.963 280.784 282.039 280.918 282.174C281.053 282.309 281.129 282.491 281.129 282.682V305.359C281.125 305.549 281.048 305.73 280.914 305.864C280.78 305.998 280.6 306.075 280.41 306.078ZM258.452 304.64H279.691V283.401H258.437L258.452 304.64Z" fill="#0052E8"/>
</g>
<path d="M306.05 289.383H302.21V288.391H311.054V289.383H307.214V299.32H306.05V289.383Z" fill="white"/>
<path d="M319.236 296.401H313.153L311.83 299.277H310.608L315.598 288.348H316.748L321.738 299.277H320.53L319.236 296.401ZM318.819 295.466L316.202 289.585L313.484 295.466H318.819Z" fill="white"/>
<path d="M322.515 297.997L322.975 297.105C323.974 297.976 325.259 298.447 326.584 298.428C328.626 298.428 329.46 297.58 329.46 296.501C329.46 293.496 322.73 295.337 322.73 291.296C322.73 289.685 323.967 288.29 326.757 288.29C327.96 288.275 329.14 288.615 330.15 289.268L329.748 290.189C328.858 289.606 327.82 289.291 326.757 289.283C324.758 289.283 323.881 290.174 323.881 291.267C323.881 294.258 330.611 292.446 330.611 296.43C330.611 298.04 329.331 299.421 326.541 299.421C325.068 299.464 323.632 298.957 322.515 297.997Z" fill="white"/>
<path d="M336.564 294.186L334.335 296.444V299.32H333.17V288.391H334.335V294.991L340.748 288.391H342.086L337.34 293.338L342.402 299.32H340.964L336.564 294.186Z" fill="white"/>
<path d="M347.421 293.855C347.421 290.376 349.247 288.29 351.735 288.29C354.223 288.29 356.049 290.376 356.049 293.855C356.049 297.335 354.208 299.421 351.735 299.421C349.261 299.421 347.421 297.335 347.421 293.855ZM354.999 293.855C354.999 290.979 353.676 289.326 351.778 289.326C349.88 289.326 348.557 290.936 348.557 293.855C348.557 296.775 349.865 298.385 351.778 298.385C353.69 298.385 354.999 296.775 354.999 293.855Z" fill="white"/>
<path d="M364.835 296.228C364.835 298.054 363.512 299.464 360.866 299.464C359.422 299.504 358.017 298.989 356.94 298.026L357.487 297.134C358.405 297.98 359.618 298.434 360.866 298.4C362.678 298.4 363.742 297.551 363.742 296.199C363.742 294.848 362.822 294.028 360.866 294.028H360.075V293.194L363.109 289.398H357.516V288.405H364.547V289.196L361.456 293.093C363.67 293.194 364.835 294.431 364.835 296.228Z" fill="white"/>
<path d="M516.4 300.916H503.976V284.537H516.4V300.916ZM505.414 299.478H514.962V285.975H505.414V299.478Z" fill="white"/>
<path d="M518.794 287.361L511.403 294.917L512.431 295.922L519.822 288.367L518.794 287.361Z" fill="white"/>
<path opacity="0.6" d="M525.632 318.949H297.551C296.05 318.949 294.833 320.166 294.833 321.667V345.796C294.833 347.297 296.05 348.514 297.551 348.514H525.632C527.133 348.514 528.35 347.297 528.35 345.796V321.667C528.35 320.166 527.133 318.949 525.632 318.949Z" fill="#0052E8"/>
<g opacity="0.6">
<path opacity="0.6" d="M281.1 323.349H258.423V346.026H281.1V323.349Z" fill="white"/>
<path opacity="0.6" d="M281.086 346.731H258.423C258.232 346.731 258.049 346.655 257.915 346.52C257.78 346.385 257.704 346.202 257.704 346.012V323.349C257.704 323.158 257.78 322.975 257.915 322.84C258.049 322.706 258.232 322.63 258.423 322.63H281.086C281.277 322.63 281.459 322.706 281.594 322.84C281.729 322.975 281.805 323.158 281.805 323.349V346.012C281.805 346.202 281.729 346.385 281.594 346.52C281.459 346.655 281.277 346.731 281.086 346.731ZM259.142 345.293H280.41V324.068H259.142V345.293Z" fill="#0052E8"/>
</g>
<path d="M306.05 330.05H302.21V329.043H311.054V330.05H307.214V339.987H306.05V330.05Z" fill="white"/>
<path d="M319.236 337.067H313.153L311.83 339.943H310.608L315.598 329H316.748L321.738 339.943H320.53L319.236 337.067ZM318.819 336.133L316.202 330.251L313.484 336.133H318.819Z" fill="white"/>
<path d="M322.515 338.649L322.975 337.772C323.974 338.642 325.259 339.114 326.584 339.095C328.626 339.095 329.46 338.232 329.46 337.153C329.46 334.162 322.73 336.003 322.73 331.948C322.73 330.352 323.967 328.957 326.757 328.957C327.957 328.944 329.136 329.279 330.15 329.92L329.748 330.841C328.856 330.264 327.819 329.95 326.757 329.935C324.758 329.935 323.881 330.826 323.881 331.919C323.881 334.925 330.611 333.113 330.611 337.096C330.611 338.707 329.331 340.073 326.541 340.073C325.068 340.117 323.632 339.609 322.515 338.649Z" fill="white"/>
<path d="M336.564 334.839L334.335 337.111V339.987H333.17V329.043H334.335V335.658L340.748 329.043H342.086L337.34 334.005L342.402 339.987H340.964L336.564 334.839Z" fill="white"/>
<path d="M347.421 334.522C347.421 331.028 349.247 328.957 351.735 328.957C354.223 328.957 356.049 331.028 356.049 334.522C356.049 338.017 354.208 340.073 351.735 340.073C349.261 340.073 347.421 338.002 347.421 334.522ZM354.999 334.522C354.999 331.646 353.676 329.993 351.778 329.993C349.88 329.993 348.557 331.589 348.557 334.522C348.557 337.456 349.865 339.052 351.778 339.052C353.69 339.052 354.999 337.441 354.999 334.522Z" fill="white"/>
<path d="M367.064 337.111H364.878V339.987H363.814V337.111H357.645V336.305L363.397 329.043H364.648L359.054 336.104H363.814V333.616H364.907V336.147H367.093L367.064 337.111Z" fill="white"/>
<path d="M517.105 341.583H504.738V325.204H517.177L517.105 341.583ZM506.104 340.145H515.667V326.642H506.176L506.104 340.145Z" fill="white"/>
<path d="M519.486 328.032L512.095 335.587L513.123 336.593L520.514 329.038L519.486 328.032Z" fill="white"/>
<path opacity="0.6" d="M526.337 359.615H298.256C296.755 359.615 295.538 360.832 295.538 362.333V386.463C295.538 387.964 296.755 389.181 298.256 389.181H526.337C527.838 389.181 529.055 387.964 529.055 386.463V362.333C529.055 360.832 527.838 359.615 526.337 359.615Z" fill="#0052E8"/>
<g opacity="0.6">
<path opacity="0.6" d="M281.791 364.001H259.113V386.679H281.791V364.001Z" fill="white"/>
<path opacity="0.6" d="M281.848 387.397H259.113C258.923 387.397 258.74 387.322 258.605 387.187C258.47 387.052 258.394 386.869 258.394 386.678V364.001C258.398 363.812 258.475 363.631 258.609 363.497C258.743 363.363 258.924 363.286 259.113 363.282H281.848C282.039 363.282 282.222 363.358 282.356 363.493C282.491 363.628 282.567 363.811 282.567 364.001V386.678C282.567 386.869 282.491 387.052 282.356 387.187C282.222 387.322 282.039 387.397 281.848 387.397ZM259.89 385.959H281.129V364.72H259.832L259.89 385.959Z" fill="#0052E8"/>
</g>
<path d="M306.05 370.702H302.21V369.71H311.054V370.702H307.214V380.653H306.05V370.702Z" fill="white"/>
<path d="M319.236 377.72H313.153L311.83 380.596H310.608L315.598 369.653H316.748L321.738 380.596H320.53L319.236 377.72ZM318.819 376.785L316.202 370.918L313.484 376.756L318.819 376.785Z" fill="white"/>
<path d="M322.515 379.316L322.975 378.424C323.972 379.3 325.257 379.777 326.584 379.762C328.626 379.762 329.46 378.899 329.46 377.82C329.46 374.815 322.73 376.656 322.73 372.615C322.73 371.004 323.967 369.624 326.757 369.624C327.957 369.611 329.136 369.946 330.15 370.587L329.748 371.508C328.856 370.931 327.819 370.617 326.757 370.602C324.758 370.602 323.881 371.493 323.881 372.586C323.881 375.592 330.611 373.765 330.611 377.763C330.611 379.359 329.331 380.74 326.541 380.74C325.068 380.784 323.632 380.276 322.515 379.316Z" fill="white"/>
<path d="M336.564 375.505L334.335 377.777V380.653H333.17V369.71H334.335V376.325L340.748 369.71H342.086L337.34 374.657L342.402 380.653H340.964L336.564 375.505Z" fill="white"/>
<path d="M347.421 375.174C347.421 371.694 349.247 369.624 351.735 369.624C354.223 369.624 356.049 371.694 356.049 375.174C356.049 378.654 354.208 380.739 351.735 380.739C349.261 380.739 347.421 378.669 347.421 375.174ZM354.999 375.174C354.999 372.298 353.676 370.645 351.778 370.645C349.88 370.645 348.557 372.255 348.557 375.174C348.557 378.094 349.865 379.704 351.778 379.704C353.69 379.704 354.999 378.094 354.999 375.174Z" fill="white"/>
<path d="M365.252 377.432C365.252 379.287 363.958 380.739 361.283 380.739C359.843 380.78 358.442 380.265 357.372 379.301L357.918 378.41C358.825 379.256 360.029 379.71 361.269 379.675C363.138 379.675 364.145 378.769 364.145 377.446C364.145 376.123 363.268 375.16 360.492 375.16H358.062L358.623 369.681H364.605V370.673H359.601L359.227 374.168H360.665C363.929 374.197 365.252 375.491 365.252 377.432Z" fill="white"/>
<path d="M517.809 382.249H505.371V365.856H517.809V382.249ZM506.809 380.811H516.371V367.294H506.809V380.811Z" fill="white"/>
<path d="M520.178 368.697L512.787 376.252L513.815 377.258L521.206 369.702L520.178 368.697Z" fill="white"/>
<path d="M511.554 139.86H411.067C403.522 139.86 397.406 145.973 397.406 153.514C397.406 161.055 403.522 167.168 411.067 167.168H511.554C519.099 167.168 525.215 161.055 525.215 153.514C525.215 145.973 519.099 139.86 511.554 139.86Z" fill="white"/>
<path d="M506.478 156.958C505.68 156.959 504.895 156.764 504.191 156.389C503.487 156.014 502.887 155.471 502.443 154.808C501.999 154.146 501.726 153.384 501.647 152.59C501.568 151.796 501.687 150.995 501.992 150.259C502.297 149.522 502.779 148.871 503.396 148.366C504.012 147.86 504.744 147.514 505.526 147.359C506.309 147.203 507.117 147.244 507.88 147.476C508.643 147.708 509.337 148.125 509.9 148.689C510.576 149.367 511.037 150.23 511.223 151.169C511.409 152.108 511.313 153.081 510.947 153.965C510.581 154.85 509.961 155.606 509.166 156.139C508.37 156.671 507.435 156.956 506.478 156.958ZM506.478 148.718C505.817 148.729 505.173 148.933 504.625 149.304C504.078 149.674 503.65 150.196 503.394 150.806C503.137 151.416 503.064 152.087 503.183 152.738C503.302 153.388 503.607 153.99 504.062 154.47C504.713 155.085 505.575 155.428 506.471 155.428C507.366 155.428 508.228 155.085 508.879 154.47C509.334 153.991 509.639 153.39 509.758 152.741C509.877 152.092 509.805 151.422 509.551 150.813C509.297 150.203 508.871 149.681 508.325 149.309C507.78 148.937 507.138 148.732 506.478 148.718Z" fill="#0052E8"/>
<path d="M515.221 161.588C515.027 161.588 514.84 161.51 514.703 161.373L508.879 155.534C508.811 155.47 508.756 155.392 508.718 155.305C508.681 155.219 508.661 155.125 508.661 155.031C508.661 154.937 508.681 154.843 508.718 154.757C508.756 154.67 508.811 154.592 508.879 154.528C508.946 154.46 509.026 154.407 509.113 154.37C509.201 154.334 509.295 154.315 509.39 154.315C509.485 154.315 509.579 154.334 509.666 154.37C509.754 154.407 509.834 154.46 509.9 154.528L515.724 160.28C515.792 160.347 515.845 160.426 515.882 160.514C515.918 160.601 515.937 160.695 515.937 160.79C515.937 160.885 515.918 160.979 515.882 161.067C515.845 161.154 515.792 161.234 515.724 161.301C515.665 161.381 515.59 161.448 515.503 161.497C515.416 161.547 515.32 161.578 515.221 161.588Z" fill="#0052E8"/>
<path d="M563.61 485.526C563.61 485.526 556.492 469.981 564.631 454.667C572.77 439.352 575.128 435.743 569.937 432.593C564.746 429.444 562.373 444.86 562.373 444.86C559.803 437.904 559.536 430.308 561.611 423.189C565.22 412.102 567.478 394.055 562.546 392.114C557.613 390.172 561.611 414.633 557.326 422.973C555.153 417.115 553.747 411.001 553.141 404.782C552.552 395.881 553.486 381.674 549.589 378.021C545.692 374.369 543.205 376.9 547.03 396.543C549.329 408.283 550.599 420.201 550.826 432.162C550.826 432.162 542.37 406.393 536.705 405.631C531.039 404.869 531.039 413.224 535.885 420.471C540.731 427.719 550.107 440.675 551.703 447.347C551.703 447.347 542.428 427.949 534.073 433.902C525.718 439.855 541.292 451.532 548.238 455.846C555.183 460.16 560.029 486.605 560.029 486.605L563.61 485.526Z" fill="#0052E8"/>
<path opacity="0.2" d="M563.61 485.526C563.61 485.526 556.492 469.981 564.631 454.667C572.77 439.352 575.128 435.743 569.937 432.593C564.746 429.444 562.373 444.86 562.373 444.86C559.803 437.904 559.536 430.308 561.611 423.189C565.22 412.102 567.478 394.055 562.546 392.114C557.613 390.172 561.611 414.633 557.326 422.973C555.153 417.115 553.747 411.001 553.141 404.782C552.552 395.881 553.486 381.674 549.589 378.021C545.692 374.369 543.205 376.9 547.03 396.543C549.329 408.283 550.599 420.201 550.826 432.162C550.826 432.162 542.37 406.393 536.705 405.631C531.039 404.869 531.039 413.224 535.885 420.471C540.731 427.719 550.107 440.675 551.703 447.347C551.703 447.347 542.428 427.949 534.073 433.902C525.718 439.855 541.292 451.532 548.238 455.846C555.183 460.16 560.029 486.605 560.029 486.605L563.61 485.526Z" fill="black"/>
<path d="M557.944 491.897C557.944 491.897 564.875 476.251 556.506 461.052C548.137 445.852 545.779 442.286 550.927 439.065C556.075 435.843 558.649 451.216 558.649 451.216C561.133 444.228 561.31 436.627 559.152 429.531C555.399 418.501 552.925 400.483 557.829 398.484C562.733 396.485 559.037 420.975 563.423 429.257C565.531 423.373 566.865 417.238 567.392 411.009C567.866 402.094 566.773 387.901 570.627 384.191C574.481 380.481 576.998 382.983 573.403 402.683C571.25 414.451 570.124 426.383 570.038 438.346C570.038 438.346 578.177 412.462 583.842 411.613C589.508 410.765 589.594 419.12 584.835 426.439C580.075 433.758 570.958 446.844 569.448 453.545C569.448 453.545 578.493 434.017 586.905 439.827C595.318 445.636 579.845 457.6 572.942 461.929C566.04 466.257 561.525 492.875 561.525 492.875L557.944 491.897Z" fill="#0052E8"/>
<path d="M589.983 480.738H532.693L537.323 521.735H585.338L589.983 480.738Z" fill="#263238"/>
<path d="M143.167 485.656L150.113 489.739C153.371 485.356 156.896 481.178 160.668 477.229C162.681 475.101 164.795 472.742 166.995 470.211C171.395 465.164 176.155 459.398 181.145 453.2L185.617 447.606C203.002 425.734 221.797 400.023 228.757 382.637C230.943 377.23 232.007 372.643 231.532 369.206C230.094 358.824 226.068 343.193 221.466 328.094C214.449 305.086 206.554 283.142 206.554 283.142L187.156 316C187.156 316 193.109 330.193 198.53 345.307C203.865 360.147 208.683 375.893 206.899 379.991C206.727 380.394 206.511 380.868 206.267 381.429C203.103 388.03 194.13 403.143 184.064 419.896L180.972 424.972C175.537 433.888 169.885 443.048 164.651 451.46C162.609 454.767 160.625 457.96 158.741 460.979C149.825 475.259 143.167 485.656 143.167 485.656Z" fill="#B97964"/>
<path opacity="0.2" d="M186.005 447.592C176.831 459.096 168.016 469.593 161.459 477.214C160.524 472.527 159.575 466.976 158.827 460.922C166.405 448.756 175.68 433.744 184.107 419.838C183.928 429.127 184.563 438.414 186.005 447.592Z" fill="black"/>
<path d="M151.393 352.511C153.794 368.89 157.145 383.73 159.445 392.574C160.783 397.88 161.689 401.015 161.689 401.015C161.721 417.834 162.71 434.638 164.651 451.345C165.384 457.931 166.175 464.287 166.995 470.14C170.015 491.911 173.193 507.528 173.193 507.528L181.461 506.449L181.188 453.186L181.015 424.915L180.785 386.448L180.699 379.747L180.296 350.498L179.707 307.358L150.947 294.416C147.05 310.809 148.488 332.782 151.393 352.511Z" fill="#B97964"/>
<path opacity="0.2" d="M228.354 352.77C221.006 357.846 211.098 360.895 204.297 362.534C202.729 357.17 200.702 351.145 198.545 345.278C193.123 330.165 187.17 315.972 187.17 315.972L206.569 283.113C206.569 283.113 214.463 304.985 221.481 328.065C224.098 336.492 226.485 345.034 228.354 352.77Z" fill="black"/>
<path opacity="0.2" d="M180.498 368.588C171.561 368.405 162.639 367.771 153.765 366.69C152.931 362.189 152.112 357.429 151.393 352.526C148.517 332.796 147.079 310.824 150.904 294.43L179.664 307.372L180.253 350.512L180.498 368.588Z" fill="black"/>
<path d="M229.735 349.908C211.745 360.478 158.841 364.964 158.841 364.964L150.213 340.633L151.148 364.705H148.589C148.589 364.705 129.247 299.276 154.944 256.395L200.96 252.843L205.993 276.542C205.993 276.542 218.921 310.507 229.735 349.908Z" fill="#263238"/>
<path d="M195.999 518.197C194.644 517.376 193.146 516.815 191.585 516.544C191.585 516.544 186.509 512.762 182.468 499.762L176.428 499.072C175.397 498.975 174.361 499.199 173.463 499.714C172.564 500.229 171.847 501.01 171.41 501.948C171.281 502.206 171.193 502.483 171.151 502.768C171.05 504.238 171.05 505.713 171.151 507.182C171.511 512.089 172.174 516.968 173.135 521.792L174.185 521.649L173.308 512.417C173.02 509.282 175.925 512.589 177.075 515.854C178.226 519.118 180.196 522.468 187.041 521.606C195.022 520.642 198.286 519.851 195.999 518.197Z" fill="#2E353A"/>
<path d="M169.9 124.919C169.9 124.919 181.404 118.534 190.765 123.294C195.079 125.48 196.618 131.074 197.524 135.431C198.803 141.528 198.962 147.769 199.868 153.923C200.177 156.526 200.921 159.059 202.068 161.415C203.664 164.536 206.928 167.656 206.281 171.481C205.706 174.861 202.255 176.874 199.249 177.794C191.268 180.253 182.238 178.887 173.998 179.419C167.354 179.836 160.955 182.065 154.312 182.295C152.414 182.458 150.509 182.079 148.819 181.202C142.419 177.377 145.209 167.541 147.28 162.077C149.034 157.461 147.74 152.687 148.315 147.841C148.716 143.564 149.723 139.366 151.306 135.373C154.628 127.421 161.3 123.251 169.9 124.919Z" fill="#263238"/>
<path d="M180.8 495.146C180.8 495.146 182.957 501.028 185.833 507.499C187.153 510.854 189.106 513.925 191.585 516.544C191.585 516.544 186.595 518.169 183.891 515.106C181.188 512.043 176.586 500.726 171.41 501.962C171.693 501.043 172.084 500.159 172.574 499.331C173.336 497.979 180.8 495.146 180.8 495.146Z" fill="#B97964"/>
<path d="M145.339 513.078C145.037 511.523 144.462 510.033 143.642 508.678C143.642 508.678 143.11 502.365 150.17 490.732L146.676 485.742C146.067 484.911 145.219 484.285 144.245 483.948C143.272 483.611 142.218 483.58 141.226 483.858C140.952 483.942 140.691 484.063 140.449 484.218C139.285 485.103 138.18 486.064 137.142 487.094C133.704 490.621 130.486 494.358 127.507 498.281L128.313 498.972L134.64 492.184C136.797 489.898 136.25 494.269 134.64 497.289C133.029 500.309 131.764 504.005 136.898 508.606C142.851 513.97 145.597 515.897 145.339 513.078Z" fill="#2E353A"/>
<path d="M152.514 486.418C152.514 486.418 149.552 491.939 146.676 498.382C145.034 501.591 144.028 505.087 143.714 508.678C143.714 508.678 139.184 506.018 139.745 501.919C140.306 497.821 145.727 486.878 141.312 483.858C142.191 483.46 143.112 483.165 144.059 482.981C145.454 482.722 152.514 486.418 152.514 486.418Z" fill="#B97964"/>
<path d="M154.499 251.693L154.24 258.639L201.795 256.784L202.096 248.573L154.499 251.693Z" fill="#263238"/>
<path opacity="0.2" d="M154.499 251.693L154.24 258.639L201.795 256.784L202.096 248.573L154.499 251.693Z" fill="white"/>
<path d="M170.545 249.371L168.187 249.402L168.349 261.409L170.707 261.377L170.545 249.371Z" fill="#263238"/>
<path d="M199.607 247.304L197.248 247.336L197.408 259.342L199.766 259.311L199.607 247.304Z" fill="#263238"/>
<path d="M190.377 249.824C190.097 249.558 189.763 249.356 189.399 249.229C189.034 249.103 188.647 249.056 188.263 249.09L182.64 249.522C181.944 249.573 181.292 249.886 180.817 250.398C180.342 250.911 180.079 251.584 180.081 252.283V255.878C180.077 256.615 180.365 257.324 180.883 257.849C181.4 258.375 182.104 258.674 182.842 258.682H183.086L188.709 258.236C189.404 258.182 190.054 257.868 190.528 257.356C191.003 256.844 191.267 256.173 191.268 255.475V251.894C191.272 251.506 191.195 251.122 191.041 250.765C190.888 250.408 190.661 250.088 190.377 249.824ZM188.565 256.784L182.942 257.244C182.756 257.259 182.569 257.235 182.393 257.173C182.217 257.111 182.057 257.013 181.921 256.884C181.779 256.759 181.667 256.604 181.593 256.429C181.518 256.255 181.483 256.067 181.49 255.878V252.297C181.489 251.959 181.616 251.633 181.845 251.385C182.075 251.137 182.39 250.985 182.727 250.96L188.349 250.514H188.464C188.801 250.513 189.126 250.641 189.37 250.873C189.51 251.001 189.621 251.156 189.695 251.33C189.769 251.504 189.806 251.691 189.802 251.88V252.426C189.726 252.411 189.647 252.411 189.572 252.426L188.004 252.527C187.754 252.549 187.522 252.668 187.358 252.859C187.194 253.05 187.111 253.297 187.127 253.548C187.134 253.672 187.166 253.794 187.221 253.905C187.276 254.017 187.352 254.116 187.446 254.198C187.54 254.28 187.649 254.342 187.767 254.381C187.885 254.42 188.01 254.435 188.134 254.425L189.715 254.325H189.787V255.504C189.774 255.829 189.643 256.139 189.418 256.375C189.193 256.61 188.89 256.756 188.565 256.784Z" fill="white"/>
<path d="M141.571 190.88C142.592 193.483 142.175 194.475 143.009 196.805C143.843 199.134 144.792 201.651 145.569 203.865C147.409 209.1 148.862 213.629 150.012 217.641C153.564 230.037 154.168 253.879 154.168 253.879L202.01 250.528C205.332 206.18 197.696 184.265 197.696 184.265L194.561 184.035C190.909 183.776 184.654 183.403 178.93 183.446C172.186 183.65 165.461 184.289 158.798 185.358C154.312 186.034 147.064 187.213 141.571 190.88Z" fill="#0052E8"/>
<path opacity="0.2" d="M188.191 222.89C188.191 222.89 169.957 244.46 154.139 252.513C153.938 247.278 153.061 228.268 150.027 217.641C149.207 214.765 148.229 211.645 147.064 208.193L145.899 199.105C145.899 199.105 152.184 209.171 153.089 217.914C153.089 217.914 174.142 216.476 186.667 209.157L188.191 222.89Z" fill="black"/>
<path d="M177.478 192.879C166.262 190.851 163.098 185.861 163.098 185.861C170.604 179.462 165.255 167.426 165.255 167.426L178.715 170.662C178.308 172.557 178.034 174.479 177.895 176.414C177.377 184.668 181.102 184.941 181.102 184.941C183.273 189.471 177.478 192.879 177.478 192.879Z" fill="#EEC1BB"/>
<path opacity="0.2" d="M178.729 170.662C178.322 172.558 178.048 174.48 177.909 176.414C171.438 174.573 165.269 167.484 165.269 167.484L178.729 170.662Z" fill="black"/>
<path d="M177.737 132.109C189.543 133.173 192.778 139.831 192.548 152.083C192.261 167.383 187.918 177.881 173.452 173.308C153.866 167.096 158.18 130.34 177.737 132.109Z" fill="#EEC1BB"/>
<path d="M184.97 150.731C185.759 152.581 186.768 154.328 187.975 155.937C187.584 156.392 187.076 156.732 186.506 156.919C185.936 157.107 185.325 157.135 184.74 157.001L184.97 150.731Z" fill="#D4827D"/>
<path d="M177.837 149.121C177.837 150.084 177.19 150.846 176.543 150.803C175.896 150.76 175.422 149.926 175.493 148.962C175.565 147.999 176.126 147.237 176.773 147.28C177.42 147.323 177.895 148.114 177.837 149.121Z" fill="#263238"/>
<path d="M176.5 147.309L178.671 146.618C178.671 146.618 177.507 148.329 176.5 147.309Z" fill="#263238"/>
<path d="M189.931 149.71C189.931 150.688 189.284 151.436 188.637 151.393C187.99 151.349 187.515 150.53 187.587 149.566C187.659 148.603 188.234 147.841 188.881 147.884C189.528 147.927 190.003 148.747 189.931 149.71Z" fill="#263238"/>
<path d="M188.608 147.913L190.765 147.222C190.765 147.222 189.6 148.934 188.608 147.913Z" fill="#263238"/>
<path d="M173.164 142.793C173.097 142.794 173.031 142.782 172.97 142.757C172.908 142.733 172.852 142.696 172.804 142.649C172.756 142.601 172.718 142.544 172.692 142.481C172.666 142.418 172.652 142.351 172.652 142.283C172.652 142.215 172.666 142.147 172.692 142.084C172.718 142.021 172.756 141.964 172.804 141.916C173.583 141.242 174.51 140.761 175.509 140.512C176.508 140.262 177.552 140.25 178.556 140.478C178.624 140.492 178.688 140.519 178.744 140.557C178.801 140.596 178.85 140.645 178.887 140.703C178.925 140.76 178.95 140.825 178.963 140.892C178.975 140.96 178.974 141.029 178.959 141.096C178.928 141.23 178.846 141.345 178.73 141.418C178.614 141.491 178.474 141.515 178.341 141.485C177.503 141.312 176.637 141.328 175.806 141.532C174.975 141.736 174.2 142.122 173.538 142.664C173.488 142.711 173.43 142.747 173.365 142.769C173.3 142.792 173.232 142.8 173.164 142.793Z" fill="#263238"/>
<path d="M191.7 143.138C191.58 143.135 191.465 143.095 191.369 143.023C190.819 142.508 190.159 142.123 189.44 141.899C188.72 141.675 187.959 141.617 187.213 141.729C187.08 141.76 186.94 141.739 186.822 141.669C186.704 141.599 186.618 141.487 186.58 141.355C186.545 141.224 186.563 141.084 186.63 140.965C186.698 140.847 186.809 140.76 186.94 140.723C187.84 140.558 188.765 140.603 189.645 140.852C190.525 141.101 191.336 141.549 192.016 142.161C192.07 142.203 192.116 142.255 192.15 142.315C192.183 142.375 192.205 142.441 192.213 142.509C192.221 142.577 192.215 142.647 192.196 142.713C192.177 142.779 192.145 142.84 192.102 142.894C192.057 142.962 191.998 143.018 191.928 143.061C191.858 143.103 191.781 143.129 191.7 143.138Z" fill="#263238"/>
<path d="M163.04 150.846C163.04 150.846 169.44 141.643 169.267 134.079C169.267 134.079 193.54 126.616 192.548 150.472C192.548 150.472 196.733 129.592 176.471 127.292C156.21 124.991 153.636 154.7 163.328 164.493C163.328 164.493 159.086 156.612 163.04 150.846Z" fill="#263238"/>
<path d="M164.752 153.506C164.756 152.129 164.215 150.807 163.248 149.826C162.281 148.846 160.966 148.287 159.589 148.272C155.894 148.272 153.478 155.707 162.465 158.338C163.702 158.712 164.55 157.49 164.752 153.506Z" fill="#EEC1BB"/>
<path d="M183.676 162.494C182.234 162.561 180.81 162.153 179.622 161.332C178.435 160.511 177.55 159.323 177.104 157.95C177.084 157.886 177.078 157.818 177.084 157.751C177.091 157.684 177.111 157.62 177.143 157.561C177.175 157.502 177.219 157.45 177.272 157.408C177.324 157.366 177.385 157.335 177.449 157.317C177.579 157.281 177.717 157.297 177.835 157.362C177.954 157.426 178.042 157.534 178.082 157.662C178.481 158.846 179.263 159.864 180.305 160.554C181.346 161.244 182.588 161.567 183.834 161.473C183.967 161.465 184.097 161.508 184.199 161.594C184.301 161.679 184.366 161.801 184.38 161.933C184.389 162.07 184.344 162.204 184.255 162.309C184.167 162.413 184.042 162.479 183.906 162.494H183.676Z" fill="#263238"/>
<path d="M165.974 180.152L176.5 188.22L179.621 179.592L184.74 183.575L189.385 184.783C189.76 184.881 190.109 185.061 190.407 185.309C190.705 185.557 190.945 185.868 191.11 186.219C191.274 186.57 191.36 186.954 191.36 187.342C191.36 187.729 191.275 188.113 191.11 188.464C188.68 193.67 183.259 204.095 178.844 204.282C174.429 204.469 159.431 194.216 152.888 189.614C152.622 189.421 152.418 189.154 152.301 188.846C152.184 188.538 152.16 188.203 152.23 187.882C152.3 187.56 152.462 187.266 152.696 187.035C152.931 186.804 153.227 186.646 153.55 186.58L161.847 184.927L165.974 180.152Z" fill="#0052E8"/>
<path opacity="0.6" d="M165.974 180.152L176.5 188.22L179.621 179.592L184.74 183.575L189.385 184.783C189.76 184.881 190.109 185.061 190.407 185.309C190.705 185.557 190.945 185.868 191.11 186.219C191.274 186.57 191.36 186.954 191.36 187.342C191.36 187.729 191.275 188.113 191.11 188.464C188.68 193.67 183.259 204.095 178.844 204.282C174.429 204.469 159.431 194.216 152.888 189.614C152.622 189.421 152.418 189.154 152.301 188.846C152.184 188.538 152.16 188.203 152.23 187.882C152.3 187.56 152.462 187.266 152.696 187.035C152.931 186.804 153.227 186.646 153.55 186.58L161.847 184.927L165.974 180.152Z" fill="white"/>
<path opacity="0.3" d="M161.847 184.912L168.821 194.892L176.5 189.255L183.935 192.879L184.74 183.517L179.621 179.534L176.5 188.22L165.974 180.152L161.847 184.912Z" fill="white"/>
<path d="M176.831 216.505L180.34 220.834L157.173 229.303L157.504 221.869L176.831 216.505Z" fill="#EEC1BB"/>
<path d="M190.765 148.79C190.642 148.787 190.523 148.741 190.431 148.66C190.339 148.578 190.279 148.466 190.262 148.344C189.615 143.253 187.587 139.486 184.222 137.099C178.082 132.785 169.468 134.553 169.382 134.568C169.317 134.583 169.249 134.584 169.184 134.573C169.118 134.561 169.055 134.537 168.999 134.5C168.942 134.464 168.894 134.417 168.856 134.362C168.818 134.307 168.792 134.245 168.778 134.18C168.763 134.114 168.762 134.047 168.773 133.981C168.785 133.915 168.809 133.852 168.846 133.796C168.882 133.74 168.929 133.692 168.984 133.654C169.039 133.616 169.101 133.589 169.166 133.576C169.54 133.576 178.298 131.677 184.797 136.265C188.407 138.81 190.549 142.836 191.283 148.214C191.295 148.347 191.256 148.48 191.173 148.584C191.089 148.689 190.969 148.757 190.837 148.775L190.765 148.79Z" fill="#263238"/>
<path d="M145.756 188.781C137.128 188.493 113.429 224.932 121.554 237.888C129.679 250.845 163.357 230.698 163.357 230.698L160.481 219.784C160.481 219.784 139.716 223.94 138.594 221.912C137.473 219.885 145.784 209.286 145.784 209.286C145.784 209.286 149.71 206.842 148.517 199.005C147.323 191.168 145.756 188.781 145.756 188.781Z" fill="#0052E8"/>
<path d="M162.048 233.373L164.752 233.272L163.213 217.914L159.56 217.943L162.048 233.373Z" fill="#0052E8"/>
<path d="M286.248 167.398L290.835 170.547L270.977 185.214L269.208 177.981L286.248 167.398Z" fill="#EEC1BB"/>
<path d="M302.915 162.681C301.779 161.401 295.049 156.756 293.611 157.561C292.173 158.367 286.967 166.736 285.357 167.627C285.17 167.728 288.362 173.523 288.362 173.523C289.801 173.635 291.247 173.591 292.676 173.394C293.898 173.063 304.065 163.932 302.915 162.681Z" fill="#EEC1BB"/>
<path d="M197.739 184.265C223.839 186.048 240.52 186.897 250.011 183.445C259.501 179.994 276.973 172.172 276.973 172.172L281.992 181.878C281.992 181.878 250.888 198.113 245.337 198.717C239.786 199.321 199.882 204.268 199.882 204.268L197.739 184.265Z" fill="#0052E8"/>
<path d="M182.266 224.874C182.224 225.038 182.218 225.209 182.249 225.376C182.28 225.542 182.347 225.699 182.446 225.837C182.545 225.974 182.673 226.088 182.821 226.17C182.969 226.252 183.133 226.301 183.302 226.312L196.359 227.75C196.723 227.785 197.087 227.688 197.385 227.477C197.683 227.266 197.896 226.955 197.984 226.6L203.736 201.133C203.78 200.959 203.789 200.778 203.761 200.601C203.733 200.423 203.67 200.253 203.574 200.101C203.479 199.949 203.353 199.818 203.206 199.716C203.058 199.614 202.891 199.543 202.715 199.508L189.643 198.07C189.26 198.077 188.89 198.213 188.592 198.455C188.295 198.698 188.088 199.033 188.004 199.407L182.266 224.874Z" fill="#263238"/>
<path opacity="0.5" d="M189.456 199.393L183.704 225.104C183.65 225.252 183.631 225.411 183.65 225.567C183.668 225.724 183.723 225.874 183.809 226.005C183.896 226.137 184.012 226.246 184.149 226.324C184.286 226.403 184.439 226.448 184.596 226.456L195.683 227.664C196.416 227.736 197.826 227.477 197.984 226.758L203.736 200.96C203.908 200.227 202.7 199.522 201.953 199.422L190.88 198.214C190.542 198.212 190.214 198.329 189.954 198.544C189.693 198.76 189.517 199.06 189.456 199.393Z" fill="white"/>
<path d="M194.13 216.692C193.397 215.125 188.249 208.783 186.652 209.157C185.056 209.531 177.694 216.088 175.896 216.476C176.194 218.667 176.602 220.841 177.118 222.991C178.461 223.498 179.854 223.86 181.274 224.069C182.626 224.112 194.892 218.26 194.13 216.692Z" fill="#EEC1BB"/>
<path opacity="0.6" d="M162.048 233.373L164.752 233.272L163.213 217.914L159.56 217.943L162.048 233.373Z" fill="white"/>
<path d="M282.74 184.912L285.069 183.517L276.369 170.762L273.177 172.546L282.74 184.912Z" fill="#0052E8"/>
<path opacity="0.6" d="M282.74 184.912L285.069 183.517L276.369 170.762L273.177 172.546L282.74 184.912Z" fill="white"/>
</svg>
